<svg width="55" height="60" viewBox="0 0 55 60" fill="none" xmlns="http://www.w3.org/2000/svg">
<g clip-path="url(#clip0_2022_96)">
<path d="M51.1415 47.9365C50.7266 51.0182 48.653 53.685 45.7495 54.87C44.327 55.462 42.7868 55.6402 41.2459 55.462C39.7649 55.2844 38.2832 54.8102 36.743 53.9223C34.6096 52.7361 32.4762 50.8998 29.9877 48.1739C33.8987 43.3744 36.2682 38.9893 37.1573 35.0794C37.5723 33.242 37.6315 31.5828 37.4539 30.042C37.2171 28.5609 36.6838 27.1976 35.8539 26.0126C34.0171 23.3464 30.936 21.8056 27.4991 21.8056C24.0623 21.8056 20.9812 23.4056 19.1444 26.0126C18.3145 27.1976 17.7817 28.5609 17.5443 30.042C17.3075 31.5828 17.3667 33.3012 17.8409 35.0794C18.7294 38.9893 21.1588 43.4336 25.0106 48.2325C22.5812 50.959 20.3886 52.7958 18.2553 53.9809C16.715 54.87 15.2334 55.3442 13.7523 55.5212C12.1523 55.6994 10.6114 55.462 9.24877 54.9292C6.34526 53.7441 4.27167 51.0768 3.85671 47.9957C3.67913 46.5147 3.79752 45.0336 4.39006 43.3744C4.56764 42.7813 4.86421 42.1899 5.16018 41.4784C5.57514 40.5307 6.04929 39.5226 6.52285 38.5151L6.58263 38.3973C10.6706 29.5678 15.0558 20.5613 19.6185 11.7922L19.7961 11.4358C20.2702 10.5479 20.7438 9.60021 21.2185 8.71111C21.6921 7.76281 22.2255 6.8737 22.8772 6.10298C24.1215 4.68053 25.7807 3.91041 27.6175 3.91041C29.4543 3.91041 31.1136 4.68053 32.3578 6.10298C33.0096 6.8737 33.5429 7.76281 34.0171 8.71111C34.4912 9.60021 34.9648 10.5479 35.4389 11.4358L35.6171 11.7922C40.12 20.6205 44.5052 29.627 48.5938 38.4565V38.5151C49.0679 39.4634 49.4823 40.5307 49.9564 41.4784C50.253 42.1899 50.549 42.7813 50.7266 43.3744C51.2007 44.9147 51.3783 46.3969 51.1415 47.9365ZM27.4991 45.1514C24.2996 41.1226 22.2255 37.33 21.5145 34.1311C21.2185 32.7679 21.1588 31.5828 21.3369 30.5161C21.4553 29.5678 21.8111 28.7379 22.2846 28.0264C23.4105 26.4281 25.3065 25.4188 27.4991 25.4188C29.6917 25.4188 31.6469 26.3677 32.7136 28.0264C33.1871 28.7379 33.5429 29.5678 33.6613 30.5161C33.8389 31.5828 33.7797 32.8271 33.4837 34.1311C32.7728 37.2714 30.6986 41.0634 27.4991 45.1514ZM54.2226 42.0703C53.9266 41.3594 53.6301 40.5893 53.3341 39.9376C52.8599 38.8715 52.3858 37.8634 51.9708 36.9151L51.9116 36.8565C47.8237 27.9678 43.4385 18.9613 38.8166 10.0744L38.639 9.71801C38.1648 8.82891 37.6907 7.88061 37.2171 6.9329C36.624 5.86561 36.0315 4.74091 35.0837 3.67363C33.1871 1.30347 30.4618 0 27.5583 0C24.5956 0 21.9295 1.30347 19.9737 3.55583C19.0852 4.62193 18.4334 5.74782 17.8409 6.8151C17.3667 7.76281 16.8926 8.71111 16.4184 9.60021L16.2409 9.95479C11.6787 18.8429 7.23437 27.85 3.14578 36.7381L3.08659 36.8565C2.67163 37.8042 2.19748 38.8111 1.72333 39.8784C1.42736 40.5307 1.13079 41.2416 0.834819 42.0117C0.0641023 44.2037 -0.172677 46.2779 0.123297 48.4107C0.775624 52.855 3.73832 56.5885 7.82691 58.2471C9.36716 58.8994 10.9672 59.1954 12.6264 59.1954C13.1006 59.1954 13.6931 59.1362 14.1673 59.0764C16.1225 58.839 18.1369 58.1885 20.0921 57.062C22.522 55.6994 24.833 53.7442 27.4399 50.8998C30.0469 53.7442 32.417 55.6994 34.7872 57.062C36.743 58.1885 38.7574 58.839 40.7126 59.0764C41.1867 59.1362 41.7793 59.1954 42.2534 59.1954C43.9127 59.1954 45.5713 58.8994 47.0529 58.2471C51.2007 56.5885 54.1042 52.7958 54.756 48.4107C55.2301 46.3365 54.9927 44.2635 54.2226 42.0703Z" fill="white"/>
</g>
<defs>
<clipPath id="clip0_2022_96">
<rect width="55" height="59.2969" fill="white"/>
</clipPath>
</defs>
</svg>
