<svg width="71" height="70" viewBox="0 0 71 70" fill="none" xmlns="http://www.w3.org/2000/svg">
<g clip-path="url(#clip0_2022_551)">
<path d="M35.5 34.575C39.8562 34.575 43.4075 30.6937 43.4075 25.9712C43.4075 21.3025 39.875 17.605 35.5 17.605C31.1625 17.605 27.5925 21.3575 27.5925 26.0075C27.61 30.7125 31.1612 34.575 35.5 34.575ZM14.4125 34.9762C18.1825 34.9762 21.2762 31.5887 21.2762 27.4337C21.2762 23.3712 18.22 20.0937 14.4125 20.0937C10.6412 20.0937 7.52875 23.425 7.5475 27.47C7.56625 31.6075 10.6412 34.9762 14.4125 34.9762ZM56.6062 34.9762C60.3587 34.9762 63.4525 31.6075 63.4525 27.47C63.4712 23.425 60.3587 20.0937 56.6062 20.0937C52.7812 20.0937 49.7238 23.37 49.7238 27.4337C49.7238 31.5887 52.8175 34.9762 56.6062 34.9762ZM35.5 31.81C32.8275 31.81 30.5387 29.2475 30.5387 26.0075C30.5387 22.8225 32.7912 20.37 35.5012 20.37C38.2275 20.37 40.4612 22.7862 40.4612 25.97C40.4612 29.2112 38.2087 31.81 35.5 31.81ZM14.4125 32.25C12.1788 32.25 10.275 30.1075 10.275 27.4712C10.275 24.8912 12.16 22.8212 14.4125 22.8212C16.7188 22.8212 18.5675 24.8537 18.5675 27.435C18.5675 30.1075 16.6637 32.25 14.4125 32.25ZM56.6062 32.25C54.3362 32.25 52.4325 30.1075 52.4325 27.435C52.4325 24.8537 54.2812 22.8225 56.6062 22.8225C58.8575 22.8225 60.725 24.8912 60.725 27.4725C60.725 30.1075 58.8387 32.25 56.6062 32.25ZM4.23375 51.7625H18.6037C17.725 51.2687 17.0475 50.17 17.1762 49.0537H3.77625C3.41 49.0537 3.2275 48.9075 3.2275 48.56C3.2275 44.02 8.4075 39.7725 14.3937 39.7725C16.7 39.7725 18.7687 40.3225 20.5437 41.365C21.1327 40.6187 21.83 39.9648 22.6125 39.425C20.2512 37.8687 17.4137 37.0637 14.3937 37.0637C6.72375 37.0637 0.5 42.6287 0.5 48.725C0.5 50.7562 1.745 51.7625 4.23375 51.7625ZM66.7837 51.7625C69.255 51.7625 70.5 50.7562 70.5 48.725C70.5 42.6287 64.275 37.0637 56.6062 37.0637C53.5862 37.0637 50.7662 37.8687 48.3875 39.4262C49.2113 39.9925 49.8875 40.6337 50.475 41.365C52.2312 40.3225 54.3175 39.7725 56.6062 39.7725C62.5925 39.7725 67.7725 44.02 67.7725 48.56C67.7725 48.9075 67.6075 49.0537 67.2412 49.0537H53.8412C53.9512 50.17 53.2925 51.2687 52.4137 51.7625H66.7837ZM24.0037 51.7625H46.9962C50.0337 51.7625 51.4812 50.8475 51.4812 48.8337C51.4812 44.0375 45.4212 37.1 35.5 37.1C25.56 37.1 19.5 44.0375 19.5 48.8337C19.5 50.8475 20.9475 51.7625 24.0037 51.7625ZM23.125 49C22.65 49 22.4487 48.8712 22.4487 48.4875C22.4487 45.4837 27.0987 39.865 35.5 39.865C43.8837 39.865 48.5337 45.4837 48.5337 48.4862C48.5337 48.8712 48.35 48.9987 47.875 48.9987L23.125 49Z" fill="#F8F9FF"/>
</g>
<defs>
<clipPath id="clip0_2022_551">
<rect width="70" height="70" fill="white" transform="translate(0.5)"/>
</clipPath>
</defs>
</svg>
