<svg width="30" height="30" viewBox="0 0 30 30" fill="none" xmlns="http://www.w3.org/2000/svg">
<path d="M7.5 5.15625C7.5 3.345 8.97 1.875 10.7812 1.875H19.2188C21.03 1.875 22.5 3.345 22.5 5.15625V24.8438C22.5 25.714 22.1543 26.5486 21.5389 27.1639C20.9236 27.7793 20.089 28.125 19.2188 28.125H10.7812C9.91101 28.125 9.07641 27.7793 8.46106 27.1639C7.8457 26.5486 7.5 25.714 7.5 24.8438V5.15625ZM13.125 22.5C12.8764 22.5 12.6379 22.5988 12.4621 22.7746C12.2863 22.9504 12.1875 23.1889 12.1875 23.4375C12.1875 23.6861 12.2863 23.9246 12.4621 24.1004C12.6379 24.2762 12.8764 24.375 13.125 24.375H16.875C17.1236 24.375 17.3621 24.2762 17.5379 24.1004C17.7137 23.9246 17.8125 23.6861 17.8125 23.4375C17.8125 23.1889 17.7137 22.9504 17.5379 22.7746C17.3621 22.5988 17.1236 22.5 16.875 22.5H13.125Z" fill="#AC6CFF"/>
</svg>
