<svg width="61" height="59" viewBox="0 0 61 59" fill="none" xmlns="http://www.w3.org/2000/svg">
<g clip-path="url(#clip0_2022_20)">
<path fill-rule="evenodd" clip-rule="evenodd" d="M30.822 0.161621C47.4158 0.161621 60.822 13.5324 60.7283 30.1756C60.7283 42.6114 53.2283 53.2706 42.3533 57.8521C41.7908 58.1326 40.947 58.3196 40.197 58.3196C37.1033 58.3196 34.572 55.7951 34.572 52.7095C34.572 50.372 35.9783 48.4085 38.0408 47.567L38.4158 47.3799C44.9783 44.4814 49.4783 37.9363 49.4783 30.2691C49.4783 19.8905 41.0408 11.5688 30.7283 11.5688C20.4158 11.5688 11.9783 19.984 11.9783 30.2691C11.9783 38.0298 16.7595 44.6684 23.5095 47.567L23.7908 47.6605C25.6658 48.5955 26.9783 50.4655 26.9783 52.7095C26.9783 55.7951 24.447 58.3196 21.3533 58.3196C20.6033 58.3196 19.7595 58.1326 19.197 57.8521C8.32202 53.1771 0.822021 42.5179 0.822021 30.1756C0.822021 13.5324 14.322 0.161621 30.822 0.161621ZM30.822 18.8619C37.0095 18.8619 42.072 23.911 42.072 30.0821C42.072 36.2533 37.0095 41.3023 30.822 41.3023C24.6345 41.3023 19.572 36.2533 19.572 30.0821C19.572 23.911 24.6345 18.8619 30.822 18.8619Z" fill="#F8F9FF"/>
</g>
<defs>
<clipPath id="clip0_2022_20">
<rect width="60" height="58.0645" fill="white" transform="translate(0.822021 0.161621)"/>
</clipPath>
</defs>
</svg>
