<svg width="60" height="60" viewBox="0 0 60 60" fill="none" xmlns="http://www.w3.org/2000/svg">
<path d="M56.4 30.625C56.4 28.675 56.225 26.8 55.9 25H30V35.6375H44.8C44.1625 39.075 42.225 41.9875 39.3125 43.9375V50.8375H48.2C53.4 46.05 56.4 39 56.4 30.625Z" fill="#F8F9FF"/>
<path d="M30 57.5C37.425 57.5 43.6501 55.0375 48.2001 50.8375L39.3125 43.9375C36.85 45.5875 33.7 46.5625 30 46.5625C22.8375 46.5625 16.775 41.725 14.6125 35.225H5.42505V42.35C9.95005 51.3375 19.25 57.5 30 57.5Z" fill="#F8F9FF"/>
<path d="M14.6125 35.225C14.0625 33.575 13.75 31.8125 13.75 30C13.75 28.1875 14.0625 26.425 14.6125 24.775V17.65H5.425C3.5 21.4822 2.4983 25.7116 2.5 30C2.5 34.4375 3.5625 38.6375 5.425 42.35L14.6125 35.225Z" fill="#F8F9FF"/>
<path d="M30 13.4375C34.0375 13.4375 37.6625 14.825 40.5125 17.55L48.4 9.6625C43.6375 5.225 37.4125 2.5 30 2.5C19.25 2.5 9.95005 8.6625 5.42505 17.65L14.6125 24.775C16.775 18.275 22.8375 13.4375 30 13.4375Z" fill="#F8F9FF"/>
</svg>
