<svg width="540" height="1024" viewBox="0 0 540 1024" fill="none" xmlns="http://www.w3.org/2000/svg">
<path d="M0 0H540V1024H0V0Z" fill="#333333"/>
<mask id="mask0_2022_9517" style="mask-type:alpha" maskUnits="userSpaceOnUse" x="0" y="0" width="540" height="1024">
<rect width="540" height="1024" fill="#0057FF"/>
</mask>
<g mask="url(#mask0_2022_9517)">
<path d="M358.999 970.848C358.778 969.524 355.687 969.524 355.797 970.848C355.797 971.29 356.129 971.4 356.57 971.731C356.791 971.841 357.343 972.062 357.674 972.172L359.22 972.614C360.434 972.945 361.207 973.386 362.311 974.048C363.415 974.71 363.857 976.034 363.857 977.579C363.857 979.124 363.305 980.448 362.201 981.441C361.097 982.434 359.551 982.876 357.785 982.876C356.129 982.876 354.693 982.434 353.479 981.662C352.264 980.89 351.491 979.786 351.16 978.462L355.466 977.579C355.687 978.352 356.681 979.014 357.895 979.014C358.889 979.014 359.772 978.572 359.772 978.021C359.772 977.69 359.441 977.469 358.999 977.138C358.447 976.917 357.674 976.586 356.901 976.365C355.687 975.924 355.024 975.703 354.031 975.152C352.596 974.269 351.823 973.166 351.712 971.179C351.712 969.635 352.264 968.421 353.258 967.538C354.252 966.655 355.687 966.104 357.343 966.104C358.778 966.104 360.103 966.435 361.207 967.207C362.311 967.979 362.974 968.862 363.305 970.076L358.999 970.848Z" fill="white"/>
<path d="M364.63 976.476C364.63 974.71 365.292 973.165 366.507 971.952C367.721 970.738 369.267 970.076 371.144 970.076C373.021 970.076 374.566 970.628 375.781 971.952C376.995 973.165 377.658 974.6 377.658 976.476C377.658 978.352 376.995 979.786 375.781 981C374.566 982.214 373.021 982.765 371.144 982.765C369.267 982.765 367.721 982.214 366.507 981C365.292 979.786 364.63 978.241 364.63 976.476ZM373.462 976.476C373.462 975.152 372.469 974.159 371.144 974.159C369.929 974.159 368.936 975.152 368.936 976.476C368.936 977.8 369.929 978.793 371.144 978.793C372.469 978.793 373.462 977.8 373.462 976.476Z" fill="white"/>
<path d="M387.153 975.703C386.821 974.821 386.048 974.159 384.944 974.159C383.62 974.159 382.736 975.152 382.736 976.476C382.736 977.8 383.73 978.793 384.944 978.793C385.938 978.793 386.711 978.131 387.153 977.248L391.238 978.462C390.796 979.786 390.023 980.779 388.919 981.662C387.815 982.434 386.49 982.876 385.055 982.876C383.178 982.876 381.632 982.324 380.418 981.11C379.203 979.896 378.541 978.352 378.541 976.586C378.541 974.821 379.203 973.276 380.418 972.062C381.632 970.848 383.178 970.297 385.055 970.297C386.49 970.297 387.815 970.738 388.919 971.51C390.023 972.283 390.796 973.386 391.238 974.6L387.153 975.703Z" fill="white"/>
<path d="M396.648 967.428C396.648 968.862 395.654 969.855 394.219 969.855C392.894 969.855 391.79 968.862 391.79 967.428C391.79 965.993 392.894 965 394.219 965C395.543 965 396.648 965.993 396.648 967.428ZM392.121 982.545V970.517H396.206V982.545H392.121Z" fill="white"/>
<path d="M405.811 971.179V970.517H409.896V982.545H405.811V981.883C404.928 982.545 403.934 982.876 402.83 982.876C401.285 982.876 399.96 982.324 398.856 981.11C397.862 979.896 397.31 978.352 397.31 976.586C397.31 974.821 397.862 973.276 398.856 972.062C399.96 970.848 401.285 970.297 402.83 970.297C403.934 970.186 404.928 970.517 405.811 971.179ZM403.713 974.159C402.499 974.159 401.616 975.152 401.616 976.476C401.616 977.8 402.499 978.793 403.713 978.793C404.928 978.793 405.811 977.8 405.811 976.476C405.811 975.152 404.818 974.159 403.713 974.159Z" fill="white"/>
<path d="M411.331 982.545V965.11H415.416V982.434H411.331V982.545Z" fill="white"/>
<path d="M418.839 966.324H426.236C427.782 966.324 429.107 966.765 430.1 967.759C431.204 968.752 431.646 969.965 431.646 971.4C431.646 972.503 431.315 973.386 430.763 974.269C430.211 975.152 429.438 975.703 428.444 976.145L432.308 982.545H429.438L425.795 976.586H421.489V982.545H418.839C418.839 982.545 418.839 966.324 418.839 966.324ZM426.236 968.752H421.378V974.159H426.236C427.009 974.159 427.671 973.938 428.223 973.386C428.776 972.834 428.996 972.172 428.996 971.4C428.996 970.628 428.776 969.965 428.223 969.414C427.671 968.972 427.009 968.752 426.236 968.752Z" fill="white"/>
<path d="M445.888 977.359H435.842C436.062 978.352 436.504 979.124 437.166 979.676C437.829 980.227 438.822 980.558 439.816 980.558C441.141 980.558 442.245 980.007 443.018 979.014L445.336 979.786C444.784 980.779 444.012 981.441 443.018 981.993C442.024 982.545 440.92 982.765 439.706 982.765C437.829 982.765 436.283 982.214 435.069 981C433.854 979.786 433.192 978.241 433.192 976.476C433.192 974.71 433.744 973.165 434.958 971.952C436.173 970.738 437.718 970.186 439.485 970.186C441.251 970.186 442.797 970.738 443.901 971.952C445.116 973.165 445.668 974.71 445.668 976.476C445.999 976.586 445.888 976.807 445.888 977.359ZM435.952 975.483H443.46C443.239 974.6 442.797 973.828 442.024 973.276C441.362 972.724 440.479 972.393 439.595 972.393C438.712 972.393 437.939 972.724 437.277 973.276C436.614 973.828 436.173 974.6 435.952 975.483Z" fill="white"/>
<path d="M450.525 987.731H448.097V970.517H450.525V971.841C451.63 970.738 452.954 970.297 454.5 970.297C456.156 970.297 457.591 970.848 458.695 972.062C459.8 973.276 460.352 974.71 460.352 976.586C460.352 978.462 459.8 979.896 458.695 981.11C457.591 982.324 456.156 982.876 454.5 982.876C452.954 982.876 451.63 982.324 450.525 981.331V987.731ZM454.279 972.614C453.286 972.614 452.402 972.945 451.63 973.717C450.967 974.49 450.525 975.372 450.525 976.476C450.525 977.579 450.857 978.572 451.63 979.234C452.292 980.007 453.175 980.338 454.279 980.338C455.273 980.338 456.156 980.007 456.929 979.234C457.591 978.462 458.033 977.579 458.033 976.476C458.033 975.372 457.702 974.379 456.929 973.717C456.156 972.945 455.273 972.614 454.279 972.614Z" fill="white"/>
<path d="M474.704 977.359H464.657C464.878 978.352 465.32 979.124 465.982 979.676C466.645 980.227 467.638 980.558 468.632 980.558C469.957 980.558 471.061 980.007 471.834 979.014L474.152 979.786C473.6 980.779 472.827 981.441 471.834 981.993C470.84 982.545 469.736 982.765 468.522 982.765C466.645 982.765 465.099 982.214 463.885 981C462.67 979.786 462.008 978.241 462.008 976.476C462.008 974.71 462.56 973.165 463.774 971.952C464.989 970.738 466.534 970.186 468.301 970.186C470.067 970.186 471.613 970.738 472.717 971.952C473.932 973.165 474.484 974.71 474.484 976.476C474.815 976.586 474.815 976.807 474.704 977.359ZM464.768 975.483H472.275C472.055 974.6 471.613 973.828 470.84 973.276C470.178 972.724 469.294 972.393 468.411 972.393C467.528 972.393 466.755 972.724 466.093 973.276C465.43 973.828 464.989 974.6 464.768 975.483Z" fill="white"/>
<path d="M482.322 970.186C483.868 970.186 485.193 970.738 486.297 971.731V970.407H488.726V982.434H486.297V981.11C485.193 982.214 483.868 982.655 482.322 982.655C480.666 982.655 479.231 982.103 478.127 980.89C477.023 979.676 476.471 978.241 476.471 976.365C476.471 974.49 477.023 973.055 478.127 971.841C479.231 970.738 480.666 970.186 482.322 970.186ZM482.543 972.614C481.549 972.614 480.666 972.945 479.893 973.717C479.231 974.49 478.789 975.372 478.789 976.476C478.789 977.579 479.12 978.572 479.893 979.234C480.666 980.007 481.439 980.338 482.543 980.338C483.647 980.338 484.53 980.007 485.193 979.234C485.855 978.462 486.297 977.579 486.297 976.476C486.297 975.372 485.966 974.379 485.193 973.717C484.53 972.945 483.647 972.614 482.543 972.614Z" fill="white"/>
<path d="M490.492 972.614V970.517H492.369V968.09H494.798V970.517H498V972.614H494.688V978.572C494.688 979.014 494.798 979.455 495.129 979.786C495.461 980.117 495.792 980.227 496.344 980.227H497.889V982.545H496.123C495.019 982.545 494.136 982.214 493.363 981.552C492.59 980.779 492.259 979.896 492.259 978.903V972.614C492.259 972.614 490.492 972.614 490.492 972.614Z" fill="white"/>
</g>
</svg>
