<svg width="234" height="248" viewBox="0 0 234 248" fill="none" xmlns="http://www.w3.org/2000/svg">
<path d="M172.211 5.30447L171.969 4.09102L171.606 2.63487L171 5.30447H170.031L169.062 2.02814H169.91L170.273 3.48429C170.273 3.72698 170.395 4.09101 170.516 4.57639C170.516 4.45505 170.516 4.21236 170.637 3.84832V3.60563L171 2.02814H171.969L172.332 3.60563C172.332 3.60563 172.332 3.72698 172.332 3.84832C172.332 3.96967 172.332 3.96967 172.332 4.09102C172.332 4.21236 172.332 4.33371 172.332 4.33371C172.332 4.45505 172.332 4.45505 172.332 4.57639C172.332 4.45505 172.332 4.21236 172.453 3.96966C172.453 3.72697 172.575 3.60564 172.575 3.48429L172.938 2.02814H173.786L172.817 5.30447H172.211V5.30447Z" fill="black"/>
<path d="M177.419 5.30447L177.177 4.09102L176.814 2.63487L176.208 5.30447H175.239L174.27 2.02814H175.118L175.481 3.48429C175.481 3.72698 175.603 4.09101 175.724 4.57639C175.724 4.45505 175.724 4.21236 175.845 3.84832V3.60563L176.208 2.02814H177.177L177.54 3.60563C177.54 3.60563 177.54 3.72698 177.54 3.84832C177.54 3.96967 177.54 3.96967 177.54 4.09102C177.54 4.21236 177.54 4.33371 177.54 4.33371C177.54 4.45505 177.54 4.45505 177.54 4.57639C177.54 4.45505 177.54 4.21236 177.662 3.96966C177.662 3.72697 177.783 3.60564 177.783 3.48429L178.146 2.02814H178.994L178.025 5.30447H177.419V5.30447Z" fill="black"/>
<path d="M182.628 5.30447L182.385 4.09102L182.022 2.63487L181.416 5.30447H180.447L179.478 2.02814H180.326L180.69 3.48429C180.69 3.72698 180.811 4.09101 180.932 4.57639C180.932 4.45505 180.932 4.21236 181.053 3.84832V3.60563L181.416 2.02814H182.385L182.749 3.60563C182.749 3.60563 182.749 3.72698 182.749 3.84832C182.749 3.96967 182.749 3.96967 182.749 4.09102C182.749 4.21236 182.749 4.33371 182.749 4.33371C182.749 4.45505 182.749 4.45505 182.749 4.57639C182.749 4.45505 182.749 4.21236 182.87 3.96966C182.87 3.72697 182.991 3.60564 182.991 3.48429L183.354 2.02814H184.202L183.233 5.30447H182.628V5.30447Z" fill="black"/>
<path d="M184.929 4.94045C184.929 4.81911 184.929 4.69776 185.05 4.57642C185.171 4.45508 185.292 4.45508 185.413 4.45508C185.534 4.45508 185.655 4.45508 185.776 4.57642C185.898 4.69776 185.898 4.81911 185.898 4.94045C185.898 5.0618 185.898 5.18314 185.776 5.30449C185.655 5.42583 185.534 5.42583 185.413 5.42583C185.292 5.42583 185.171 5.42583 185.05 5.30449C184.929 5.18314 184.929 5.0618 184.929 4.94045Z" fill="black"/>
<path d="M188.32 5.4258C187.836 5.4258 187.351 5.30445 187.109 4.94042C186.867 4.69773 186.624 4.21235 186.624 3.72697C186.624 3.12025 186.745 2.75621 186.988 2.39218C187.23 2.14949 187.593 1.9068 188.078 1.9068C188.562 1.9068 188.926 2.02815 189.168 2.27084C189.41 2.51353 189.531 2.87755 189.531 3.36293V3.84831H187.351C187.351 4.091 187.472 4.33369 187.593 4.45504C187.714 4.57638 187.957 4.69773 188.199 4.69773C188.441 4.69773 188.562 4.69772 188.804 4.57638C188.926 4.57638 189.168 4.45504 189.41 4.33369V5.06176C189.289 5.1831 189.047 5.1831 188.926 5.1831C188.804 5.30445 188.562 5.4258 188.32 5.4258ZM188.199 2.63487C187.957 2.63487 187.836 2.63487 187.714 2.87756C187.593 2.9989 187.593 3.12024 187.472 3.36293H188.683C188.683 3.12024 188.562 2.9989 188.562 2.87756C188.441 2.63487 188.32 2.63487 188.199 2.63487Z" fill="black"/>
<path d="M190.985 3.60563L189.895 2.02814H190.863L191.469 3.12025L192.075 2.02814H193.044L191.954 3.60563L193.044 5.30447H192.075L191.348 4.21236L190.621 5.30447H189.652L190.985 3.60563Z" fill="black"/>
<path d="M195.95 5.30447L195.829 4.81909C195.708 5.06178 195.466 5.18312 195.345 5.18312C195.224 5.30447 194.982 5.30447 194.739 5.30447C194.376 5.30447 194.134 5.18312 194.013 5.06178C193.77 4.81909 193.77 4.5764 193.77 4.33371C193.77 3.96967 193.891 3.72698 194.134 3.60563C194.376 3.48429 194.739 3.36294 195.224 3.36294H195.829V3.12025C195.829 2.75621 195.708 2.63487 195.345 2.63487C195.103 2.63487 194.739 2.75622 194.376 2.87756L194.134 2.27083C194.497 2.02814 194.982 2.02814 195.345 2.02814C195.829 2.02814 196.072 2.14949 196.314 2.27083C196.556 2.51353 196.677 2.75621 196.677 3.12025V5.30447H195.95ZM195.708 3.72698H195.345C195.103 3.72698 194.86 3.72698 194.739 3.84832C194.618 3.96967 194.497 4.09102 194.497 4.21236C194.497 4.45505 194.618 4.57639 194.982 4.57639C195.224 4.57639 195.345 4.57639 195.466 4.45505C195.587 4.3337 195.708 4.21236 195.708 3.96966V3.72698Z" fill="black"/>
<path d="M200.432 5.30445H199.584V3.36293C199.584 3.12024 199.584 2.9989 199.463 2.87756C199.342 2.75621 199.221 2.7562 199.099 2.7562C198.857 2.7562 198.736 2.87755 198.615 2.9989C198.494 3.12024 198.494 3.48428 198.494 3.84831V5.4258H197.646V2.14948H198.373L198.494 2.51352C198.615 2.39217 198.736 2.27083 198.857 2.14948C198.978 2.02814 199.221 2.02814 199.463 2.02814C199.947 2.02814 200.311 2.14948 200.432 2.51352H200.553C200.674 2.39217 200.795 2.27083 200.916 2.14948C201.037 2.02814 201.28 2.02814 201.522 2.02814C201.885 2.02814 202.127 2.14949 202.37 2.27083C202.612 2.51352 202.612 2.75621 202.612 3.24159V5.4258H201.764V3.48428C201.764 3.24159 201.764 3.12024 201.643 2.9989C201.522 2.87755 201.401 2.87756 201.28 2.87756C201.037 2.87756 200.916 2.9989 200.795 3.12024C200.674 3.24159 200.674 3.48428 200.674 3.84831V5.30445H200.432Z" fill="black"/>
<path d="M205.276 5.42585C204.913 5.42585 204.55 5.30451 204.308 5.06182C204.308 5.30451 204.308 5.5472 204.308 5.5472V6.88199H203.46V2.14954H204.186L204.308 2.63492C204.55 2.27088 204.792 2.14954 205.276 2.14954C205.64 2.14954 206.003 2.27088 206.245 2.63492C206.488 2.87761 206.609 3.36299 206.609 3.84837C206.609 4.2124 206.609 4.45509 206.488 4.81913C206.367 5.06182 206.245 5.30451 206.003 5.42585C205.761 5.30451 205.519 5.42585 205.276 5.42585ZM205.034 2.63492C204.792 2.63492 204.671 2.75627 204.55 2.87761C204.429 2.99896 204.429 3.24165 204.429 3.60568V3.72702C204.429 4.09106 204.429 4.33375 204.55 4.45509C204.671 4.57644 204.792 4.69779 205.034 4.69779C205.398 4.69779 205.64 4.33375 205.64 3.72702C205.64 3.36299 205.64 3.1203 205.519 2.99896C205.398 2.75627 205.276 2.63492 205.034 2.63492Z" fill="black"/>
<path d="M208.183 5.30449H207.335V0.693359H208.183V5.30449Z" fill="black"/>
<path d="M210.606 5.4258C210.121 5.4258 209.637 5.30445 209.394 4.94042C209.152 4.69773 208.91 4.21235 208.91 3.72697C208.91 3.12025 209.031 2.75621 209.273 2.39218C209.516 2.14949 209.879 1.9068 210.363 1.9068C210.848 1.9068 211.211 2.02815 211.453 2.27084C211.696 2.51353 211.817 2.87755 211.817 3.36293V3.84831H209.637C209.637 4.091 209.758 4.33369 209.879 4.45504C210 4.57638 210.242 4.69773 210.485 4.69773C210.727 4.69773 210.848 4.69772 211.09 4.57638C211.211 4.57638 211.453 4.45504 211.696 4.33369V5.06176C211.575 5.1831 211.332 5.1831 211.211 5.1831C211.09 5.30445 210.848 5.4258 210.606 5.4258ZM210.485 2.63487C210.242 2.63487 210.121 2.63487 210 2.87756C209.879 2.9989 209.879 3.12024 209.758 3.36293H210.969C210.969 3.12024 210.848 2.9989 210.848 2.87756C210.848 2.63487 210.727 2.63487 210.485 2.63487Z" fill="black"/>
<path d="M212.544 4.94045C212.544 4.81911 212.544 4.69776 212.665 4.57642C212.786 4.45508 212.907 4.45508 213.028 4.45508C213.149 4.45508 213.27 4.45508 213.391 4.57642C213.512 4.69776 213.512 4.81911 213.512 4.94045C213.512 5.0618 213.512 5.18314 213.391 5.30449C213.27 5.42583 213.149 5.42583 213.028 5.42583C212.907 5.42583 212.786 5.42583 212.665 5.30449C212.665 5.18314 212.544 5.0618 212.544 4.94045Z" fill="black"/>
<path d="M215.814 5.4258C214.845 5.4258 214.239 4.81907 214.239 3.72697C214.239 3.12025 214.36 2.75621 214.603 2.39218C214.845 2.14949 215.329 1.9068 215.814 1.9068C216.177 1.9068 216.54 2.02814 216.783 2.14948L216.54 2.87756C216.419 2.87756 216.298 2.75621 216.177 2.75621C216.056 2.75621 215.935 2.75621 215.814 2.75621C215.329 2.75621 215.087 3.12025 215.087 3.72697C215.087 4.33369 215.329 4.69773 215.814 4.69773C215.935 4.69773 216.177 4.69772 216.298 4.57638C216.419 4.57638 216.54 4.45504 216.783 4.33369V5.06176C216.662 5.1831 216.54 5.18311 216.298 5.30445C216.177 5.30445 216.056 5.4258 215.814 5.4258Z" fill="black"/>
<path d="M220.537 3.60565C220.537 4.09103 220.416 4.57641 220.053 4.8191C219.811 5.0618 219.326 5.30449 218.842 5.30449C218.478 5.30449 218.236 5.18314 217.994 5.06179C217.752 4.94045 217.509 4.69776 217.388 4.45506C217.267 4.21237 217.146 3.84834 217.146 3.4843C217.146 2.99892 217.267 2.51354 217.509 2.27085C217.752 2.02815 218.236 1.78546 218.721 1.78546C219.084 1.78546 219.326 1.9068 219.568 2.02815C219.811 2.14949 220.053 2.39219 220.174 2.63488C220.537 2.99891 220.537 3.36296 220.537 3.60565ZM218.236 3.60565C218.236 3.96968 218.236 4.21237 218.357 4.33372C218.478 4.45507 218.599 4.57641 218.842 4.57641C219.084 4.57641 219.205 4.45507 219.326 4.33372C219.447 4.21237 219.447 3.96968 219.447 3.60565C219.447 3.24161 219.447 2.99892 219.326 2.87757C219.205 2.75623 219.084 2.63488 218.842 2.63488C218.599 2.63488 218.478 2.75623 218.357 2.87757C218.357 3.12027 218.236 3.36296 218.236 3.60565Z" fill="black"/>
<path d="M224.292 5.30445H223.444V3.36293C223.444 3.12024 223.444 2.9989 223.323 2.87756C223.202 2.75621 223.081 2.7562 222.96 2.7562C222.717 2.7562 222.596 2.87755 222.475 2.9989C222.354 3.12024 222.354 3.48428 222.354 3.84831V5.4258H221.506V2.14948H222.233L222.354 2.51352C222.475 2.39217 222.596 2.27083 222.717 2.14948C222.839 2.02814 223.081 2.02814 223.323 2.02814C223.808 2.02814 224.171 2.14948 224.292 2.51352H224.413C224.534 2.39217 224.655 2.27083 224.776 2.14948C224.898 2.02814 225.14 2.02814 225.382 2.02814C225.745 2.02814 225.988 2.14949 226.23 2.27083C226.472 2.51352 226.472 2.75621 226.472 3.24159V5.4258H225.624V3.48428C225.624 3.24159 225.624 3.12024 225.503 2.9989C225.382 2.87755 225.261 2.87756 225.14 2.87756C224.898 2.87756 224.777 2.9989 224.655 3.12024C224.534 3.24159 224.534 3.48428 224.534 3.84831V5.30445H224.292Z" fill="black"/>
<path d="M34.6211 5.30453H33.6522V2.75628V2.39225V1.90687C33.5311 2.02821 33.41 2.14955 33.2889 2.14955L32.8044 2.51359L32.3199 1.90687L33.7733 0.814758H34.5L34.6211 5.30453Z" fill="black"/>
<path d="M38.8602 3.12032C38.8602 3.84839 38.7391 4.45512 38.4969 4.81915C38.2547 5.18319 37.8913 5.30453 37.4069 5.30453C36.9224 5.30453 36.5592 5.06184 36.3169 4.69781C36.0747 4.33377 35.9536 3.72705 35.9536 2.99897C35.9536 2.2709 36.0747 1.66418 36.3169 1.30014C36.5592 0.936105 36.9224 0.814758 37.4069 0.814758C37.8913 0.814758 38.2547 1.05745 38.4969 1.42148C38.7391 1.90686 38.8602 2.39225 38.8602 3.12032ZM36.6803 3.12032C36.6803 3.6057 36.6802 4.09108 36.8013 4.21243C36.9224 4.45512 37.0436 4.57646 37.2858 4.57646C37.528 4.57646 37.6491 4.45512 37.7702 4.21243C37.8913 3.96974 37.8914 3.6057 37.8914 3.12032C37.8914 2.63494 37.8913 2.14956 37.7702 2.02821C37.6491 1.78552 37.528 1.66418 37.2858 1.66418C37.0436 1.66418 36.9224 1.78552 36.8013 2.02821C36.8013 2.2709 36.6803 2.63494 36.6803 3.12032Z" fill="black"/>
<path d="M39.2237 3.96968V3.24164H44.7952V3.96968H39.2237Z" fill="black"/>
<path d="M47.5807 5.30453H46.7329V2.75628V2.39225V1.90687C46.6118 2.02821 46.4907 2.14955 46.3696 2.14955L45.8851 2.51359L45.4007 1.90687L46.854 0.814758H47.5807V5.30453Z" fill="black"/>
<path d="M51.8199 5.30452H48.792V4.69779L49.882 3.60568C50.2453 3.24165 50.3665 2.99896 50.4876 2.87761C50.6087 2.75627 50.6087 2.63492 50.7298 2.51357C50.7298 2.39223 50.851 2.27088 50.851 2.14953C50.851 2.02819 50.8509 1.90685 50.7298 1.7855C50.6087 1.66416 50.4876 1.66416 50.3665 1.66416C50.2454 1.66416 50.0031 1.66416 49.882 1.7855C49.7609 1.90685 49.5187 2.02819 49.3976 2.14953L48.9131 1.54281C49.1553 1.30012 49.2765 1.17878 49.3976 1.17878C49.5187 1.05743 49.6398 1.05743 49.882 1.05743C50.0031 1.05743 50.2453 1.05743 50.4876 1.05743C50.7298 1.05743 50.9721 1.05743 51.2143 1.17878C51.4565 1.30012 51.5776 1.42146 51.6987 1.54281C51.8198 1.66415 51.8199 1.90684 51.8199 2.14953C51.8199 2.39223 51.8198 2.51357 51.6987 2.75626C51.5776 2.87761 51.5776 3.1203 51.3354 3.24164C51.2143 3.48433 50.9721 3.72702 50.6087 3.96971L50.0032 4.4551H51.941V5.30452H51.8199Z" fill="black"/>
<path d="M52.1832 4.09106V3.36298H53.7578V4.09106H52.1832Z" fill="black"/>
<path d="M55.8168 4.69777C55.9379 4.69777 56.1801 4.69777 56.4224 4.57642V5.3045C56.1801 5.42584 55.9379 5.42584 55.5745 5.42584C55.2112 5.42584 54.969 5.30449 54.7267 5.18315C54.6056 4.94046 54.4846 4.69777 54.4846 4.33373V2.75624H54.0001V2.39221L54.4846 2.14952L54.7267 1.42145H55.3323V2.14952H56.3013V2.8776H55.3323V4.45508C55.3323 4.57642 55.3323 4.69777 55.4535 4.69777C55.5746 4.57643 55.6957 4.69777 55.8168 4.69777Z" fill="black"/>
<path d="M60.0561 5.30449H59.2082V3.36296C59.2082 2.87757 59.0871 2.63488 58.7238 2.63488C58.4815 2.63488 58.2393 2.75624 58.1182 2.87758C57.997 2.99893 57.997 3.36296 57.997 3.72699V5.30449H57.1491V0.693359H57.997V1.66413C57.997 1.78547 57.997 1.90681 57.997 2.1495V2.3922C58.2392 2.02816 58.4815 1.90681 58.966 1.90681C59.3293 1.90681 59.6927 2.02816 59.8138 2.27085C60.0561 2.51354 60.0561 2.75623 60.0561 3.12027V5.30449Z" fill="black"/>
<path d="M65.6276 3.60571C65.6276 4.09109 65.5065 4.57647 65.1431 4.81917C64.9009 5.1832 64.4164 5.30455 63.9319 5.30455C63.5685 5.30455 63.3263 5.1832 63.084 5.06185C62.8418 4.94051 62.5995 4.69782 62.4784 4.45512C62.3573 4.21243 62.2361 3.8484 62.2361 3.48436C62.2361 2.99898 62.3573 2.5136 62.5995 2.27091C62.8417 2.02822 63.3262 1.78552 63.8107 1.78552C64.1741 1.78552 64.4164 1.90686 64.6586 2.02821C64.9008 2.14956 65.1431 2.39225 65.2642 2.63494C65.5065 2.99898 65.6276 3.36302 65.6276 3.60571ZM63.3263 3.60571C63.3263 3.96975 63.3262 4.21244 63.4474 4.33378C63.5685 4.45513 63.6896 4.57647 63.9319 4.57647C64.1741 4.57647 64.2952 4.45513 64.4163 4.33378C64.5375 4.21244 64.5375 3.96975 64.5375 3.60571C64.5375 3.24167 64.5375 2.99898 64.4163 2.87764C64.2952 2.75629 64.1741 2.63494 63.9319 2.63494C63.6896 2.63494 63.5685 2.75629 63.4474 2.87764C63.4474 3.12033 63.3263 3.36302 63.3263 3.60571Z" fill="black"/>
<path d="M68.1709 2.6349H67.4442V5.30452H66.5965V2.6349H66.1121V2.14951L66.5965 1.90683V1.66414C66.5965 1.3001 66.7176 1.0574 66.8387 0.81471C67.0809 0.693364 67.3231 0.572021 67.6865 0.572021C68.0498 0.572021 68.292 0.57202 68.5342 0.693366L68.292 1.3001C68.0498 1.3001 67.9287 1.17875 67.8076 1.17875C67.6865 1.17875 67.5654 1.17875 67.5654 1.3001C67.5654 1.42144 67.4442 1.42144 67.4442 1.54278V1.78548H68.1709V2.6349Z" fill="black"/>
<path d="M72.8947 4.09105C72.8947 4.45509 72.7735 4.81911 72.5313 5.0618C72.289 5.30449 71.8045 5.42584 71.32 5.42584C70.8355 5.42584 70.4721 5.30449 70.1088 5.18315V4.33374C70.351 4.45508 70.5933 4.57642 70.8356 4.57642C71.0778 4.57642 71.1989 4.69778 71.4412 4.69778C71.6835 4.69778 71.8045 4.69777 71.9257 4.57642C72.0468 4.45508 72.0468 4.33374 72.0468 4.21239C72.0468 4.09105 72.0468 4.09104 71.9257 3.9697C71.9257 3.84836 71.8045 3.84836 71.6834 3.72701C71.5623 3.72701 71.4411 3.60567 71.0778 3.48433C70.8355 3.36298 70.5933 3.24164 70.4721 3.12029C70.351 2.99895 70.2299 2.8776 70.1088 2.75625C69.9876 2.63491 69.9877 2.39223 69.9877 2.27088C69.9877 1.90685 70.1088 1.54281 70.351 1.42146C70.5933 1.17877 70.9567 1.05743 71.4412 1.05743C71.6835 1.05743 71.9257 1.05743 72.0468 1.17878C72.2891 1.17878 72.4102 1.30012 72.6525 1.42146L72.4102 2.14953C72.1679 2.02818 72.0468 2.02819 71.8046 1.90684C71.6834 1.90684 71.5623 1.90684 71.32 1.90684C71.1989 1.90684 70.9567 1.90684 70.9567 2.02819C70.8355 2.14953 70.8356 2.27088 70.8356 2.39222C70.8356 2.51357 70.8356 2.51357 70.8356 2.63491L70.9567 2.75625C71.0778 2.75625 71.1989 2.8776 71.5623 2.99895C71.9257 3.24164 72.2891 3.36298 72.4102 3.60567C72.7736 3.60567 72.8947 3.84836 72.8947 4.09105Z" fill="black"/>
<path d="M75.0747 5.42586C74.5902 5.42586 74.1057 5.30451 73.8635 4.94048C73.6212 4.69779 73.379 4.21241 73.379 3.72703C73.379 3.12031 73.5001 2.75627 73.7423 2.39224C73.9846 2.14955 74.3479 1.90686 74.8324 1.90686C75.3169 1.90686 75.6802 2.02821 75.9225 2.2709C76.1647 2.51359 76.2859 2.87761 76.2859 3.36299V3.84837H74.1057C74.1057 4.09106 74.2268 4.33375 74.3479 4.4551C74.469 4.57644 74.7113 4.69779 74.9535 4.69779C75.1958 4.69779 75.3169 4.69778 75.5591 4.57644C75.6802 4.57644 75.9225 4.4551 76.1647 4.33375V5.06182C76.0436 5.18316 75.8014 5.18316 75.6803 5.18316C75.5592 5.30451 75.3169 5.42586 75.0747 5.42586ZM74.9535 2.63493C74.7113 2.63493 74.5902 2.63493 74.4691 2.87762C74.348 2.99897 74.3479 3.1203 74.2268 3.36299H75.438C75.438 3.1203 75.3169 2.99897 75.3169 2.87762C75.3169 2.63493 75.1958 2.63493 74.9535 2.63493Z" fill="black"/>
<path d="M79.0715 5.42585C78.7082 5.42585 78.3448 5.30451 78.1026 5.06182C78.1026 5.30451 78.1026 5.5472 78.1026 5.5472V6.88199H77.2547V2.14954H77.9814L78.1026 2.63492C78.3448 2.27088 78.5871 2.14954 79.0715 2.14954C79.4349 2.14954 79.7983 2.27088 80.0405 2.63492C80.2828 2.87761 80.4039 3.36299 80.4039 3.84837C80.4039 4.2124 80.4039 4.45509 80.2828 4.81913C80.1617 5.06182 80.0405 5.30451 79.7983 5.42585C79.4349 5.30451 79.3138 5.42585 79.0715 5.42585ZM78.7082 2.63492C78.4659 2.63492 78.3448 2.75627 78.2237 2.87761C78.1025 2.99896 78.1026 3.24165 78.1026 3.60568V3.72702C78.1026 4.09106 78.1025 4.33375 78.2237 4.45509C78.3448 4.57644 78.4659 4.69779 78.7082 4.69779C79.0716 4.69779 79.3138 4.33375 79.3138 3.72702C79.3138 3.36299 79.3138 3.1203 79.1926 2.99896C79.0715 2.75627 78.9504 2.63492 78.7082 2.63492Z" fill="black"/>
<path d="M82.4628 4.69777C82.5839 4.69777 82.8261 4.69777 83.0684 4.57642V5.3045C82.8261 5.42584 82.5839 5.42584 82.2205 5.42584C81.8572 5.42584 81.6149 5.30449 81.3727 5.18315C81.2516 4.94046 81.1305 4.69777 81.1305 4.33373V2.75624H80.646V2.39221L81.1305 2.14952L81.3727 1.42145H81.9783V2.14952H82.9473V2.8776H81.9783V4.45508C81.9783 4.57642 81.9783 4.69777 82.0994 4.69777C82.2205 4.57643 82.3417 4.69777 82.4628 4.69777Z" fill="black"/>
<path d="M85.1274 5.42586C84.643 5.42586 84.1585 5.30451 83.9163 4.94048C83.6741 4.69779 83.4318 4.21241 83.4318 3.72703C83.4318 3.12031 83.5529 2.75627 83.7951 2.39224C84.0374 2.14955 84.4007 1.90686 84.8852 1.90686C85.3696 1.90686 85.733 2.02821 85.9752 2.2709C86.2175 2.51359 86.3386 2.87761 86.3386 3.36299V3.84837H84.1585C84.1585 4.09106 84.2796 4.33375 84.4007 4.4551C84.5218 4.57644 84.7641 4.69779 85.0063 4.69779C85.2485 4.69779 85.3696 4.69778 85.6118 4.57644C85.733 4.57644 85.9752 4.4551 86.2174 4.33375V5.06182C86.0963 5.18316 85.8541 5.18316 85.733 5.18316C85.6119 5.30451 85.3697 5.42586 85.1274 5.42586ZM85.0063 2.63493C84.7641 2.63493 84.643 2.63493 84.5219 2.87762C84.4008 2.99897 84.4007 3.1203 84.2796 3.36299H85.4908C85.4908 3.1203 85.3697 2.99897 85.3697 2.87762C85.3697 2.63493 85.2485 2.63493 85.0063 2.63493Z" fill="black"/>
<path d="M90.2144 5.30451H89.3665V3.36299C89.3665 3.1203 89.3665 2.99896 89.2454 2.87762C89.1242 2.75627 89.0031 2.75627 88.882 2.75627C88.6398 2.75627 88.5187 2.87762 88.3976 2.99896C88.2764 3.12031 88.2764 3.48434 88.2764 3.84837V5.42586H87.4285V2.14954H88.1553L88.2764 2.51358C88.3975 2.39223 88.5186 2.27089 88.6398 2.14954C88.7609 2.0282 89.0031 2.0282 89.2454 2.0282C89.7299 2.0282 90.0933 2.14954 90.2144 2.51358H90.3355C90.4566 2.39223 90.5777 2.27089 90.6988 2.14954C90.82 2.0282 91.0622 2.0282 91.3045 2.0282C91.6678 2.0282 91.9101 2.14955 92.1523 2.27089C92.3946 2.51358 92.3946 2.75627 92.3946 3.24165V5.42586H91.5467V3.48434C91.5467 3.24165 91.5468 3.12031 91.4256 2.99896C91.3045 2.87762 91.1833 2.87762 91.0622 2.87762C90.82 2.87762 90.6989 2.99896 90.5778 3.1203C90.4566 3.24165 90.4566 3.48434 90.4566 3.84837V5.30451H90.2144Z" fill="black"/>
<path d="M95.0591 1.90681C95.4225 1.90681 95.7858 2.02816 96.028 2.3922C96.2703 2.75623 96.3914 3.12027 96.3914 3.60565C96.3914 4.21238 96.2703 4.57641 96.028 4.81911C95.7858 5.0618 95.5436 5.30449 95.0591 5.30449C94.6958 5.30449 94.3324 5.18314 94.0901 4.94045H93.969L93.848 5.30449H93.1212V0.693359H93.969V1.78547C93.969 1.90682 93.969 2.14951 93.969 2.3922C94.3324 2.14951 94.5746 1.90681 95.0591 1.90681ZM94.6957 2.63488C94.4535 2.63488 94.3324 2.75624 94.2113 2.87758C94.0902 2.99893 94.0901 3.24162 94.0901 3.60565V3.72699C94.0901 4.09103 94.0902 4.33372 94.2113 4.45507C94.3324 4.57641 94.4535 4.69776 94.6957 4.69776C94.9379 4.69776 95.0591 4.57641 95.1802 4.45507C95.3013 4.33372 95.3013 4.09103 95.3013 3.72699C95.3013 3.36296 95.3013 3.12027 95.1802 2.99892C95.0591 2.75623 94.9379 2.63488 94.6957 2.63488Z" fill="black"/>
<path d="M98.4505 5.42586C97.966 5.42586 97.4815 5.30451 97.2393 4.94048C96.9971 4.69779 96.7548 4.21241 96.7548 3.72703C96.7548 3.12031 96.8759 2.75627 97.1182 2.39224C97.3604 2.14955 97.7238 1.90686 98.2082 1.90686C98.6927 1.90686 99.0561 2.02821 99.2983 2.2709C99.5405 2.51359 99.6616 2.87761 99.6616 3.36299V3.84837H97.4816C97.4816 4.09106 97.6026 4.33375 97.7237 4.4551C97.8448 4.57644 98.0871 4.69779 98.3293 4.69779C98.5715 4.69779 98.6927 4.69778 98.9349 4.57644C99.056 4.57644 99.2982 4.4551 99.5405 4.33375V5.06182C99.4193 5.18316 99.1772 5.18316 99.056 5.18316C98.9349 5.30451 98.8138 5.42586 98.4505 5.42586ZM98.3293 2.63493C98.0871 2.63493 97.966 2.63493 97.8449 2.87762C97.7238 2.99897 97.7238 3.1203 97.6026 3.36299H98.8138C98.8138 3.1203 98.6927 2.99897 98.6927 2.87762C98.6927 2.63493 98.5715 2.63493 98.3293 2.63493Z" fill="black"/>
<path d="M102.447 1.90686C102.568 1.90686 102.689 1.90686 102.811 1.90686L102.689 2.75627C102.568 2.75627 102.568 2.75627 102.447 2.75627C102.205 2.75627 101.963 2.87763 101.721 2.99897C101.599 3.12032 101.478 3.36301 101.478 3.6057V5.30453H100.63V2.0282H101.357L101.478 2.63493C101.599 2.39224 101.72 2.27089 101.842 2.14955C102.084 2.0282 102.205 1.90686 102.447 1.90686Z" fill="black"/>
<path d="M2.64593 228.459L3.61493 228.701V227.852H3.97827V228.823L5.18945 229.066V229.43L3.97827 229.187V230.036L5.18945 230.279V230.643L3.97827 230.4V231.128H3.61493V230.279L2.64593 230.036V230.886H2.28259V230.036L0.950317 229.794V229.43L2.28259 229.672V228.823L0.950317 228.58V228.216L2.28259 228.459V227.609H2.64593V228.459ZM3.61493 229.915V229.066L2.64593 228.823V229.672L3.61493 229.915Z" fill="black"/>
<path d="M4.34172 224.818C4.58396 224.818 4.82617 224.94 5.06841 225.182C5.18953 225.425 5.31067 225.668 5.31067 226.153C5.31067 226.639 5.18953 226.881 5.06841 227.124H4.58398C4.7051 227.003 4.70511 226.76 4.82623 226.639C4.82623 226.517 4.94732 226.275 4.94732 226.153C4.94732 225.911 4.94735 225.668 4.82623 225.546C4.70511 225.425 4.58393 225.304 4.46281 225.304C4.34169 225.304 4.22059 225.304 4.09947 225.425C3.97835 225.547 3.85724 225.789 3.73612 226.032C3.615 226.275 3.49386 226.517 3.49386 226.639C3.37274 226.76 3.37273 226.881 3.25161 226.881C3.13049 227.003 3.00938 227.003 2.88826 227.003C2.64602 227.003 2.40378 226.881 2.28266 226.639C2.16154 226.396 2.04041 226.153 2.04041 225.789C2.04041 225.425 2.16154 225.061 2.28266 224.818L2.64601 224.94C2.52489 225.304 2.40383 225.547 2.40383 225.789C2.40383 226.032 2.4038 226.153 2.52492 226.275C2.64604 226.396 2.64605 226.396 2.76717 226.396C2.88829 226.396 2.88831 226.396 3.00943 226.275C3.13055 226.275 3.13052 226.153 3.13052 226.032C3.13052 225.911 3.25165 225.789 3.37277 225.425C3.49389 225.061 3.615 224.818 3.73612 224.697C3.97836 224.818 4.2206 224.818 4.34172 224.818Z" fill="black"/>
<path d="M3.61503 221.178C4.09951 221.178 4.58399 221.299 4.82623 221.542C5.06847 221.785 5.31067 222.149 5.31067 222.634C5.31067 222.877 5.18953 223.241 5.06841 223.362C4.94729 223.605 4.70505 223.726 4.46281 223.848C4.22057 223.969 3.85727 224.09 3.61503 224.09C3.13055 224.09 2.64606 223.969 2.40382 223.726C2.16158 223.484 1.91931 223.12 1.91931 222.634C1.91931 222.149 2.04046 221.785 2.40382 221.542C2.76718 221.299 3.13055 221.178 3.61503 221.178ZM3.61503 223.605C3.97839 223.605 4.34174 223.484 4.58398 223.362C4.82622 223.241 4.94732 222.998 4.94732 222.634C4.94732 222.27 4.82622 222.027 4.58398 221.906C4.34174 221.785 4.09951 221.663 3.61503 221.663C3.25167 221.663 2.88825 221.785 2.646 221.906C2.40376 222.027 2.28266 222.27 2.28266 222.634C2.28266 222.998 2.40376 223.241 2.646 223.362C2.88825 223.605 3.25167 223.605 3.61503 223.605Z" fill="black"/>
<path d="M5.31067 218.994C5.31067 219.479 5.18959 219.843 4.82623 220.086C4.58399 220.329 4.09951 220.45 3.61503 220.45C3.13055 220.45 2.64606 220.329 2.40382 220.086C2.16158 219.843 1.91931 219.479 1.91931 218.994C1.91931 218.872 1.91931 218.63 1.91931 218.508C1.91931 218.387 2.0404 218.266 2.0404 218.144L2.40382 218.266C2.40382 218.387 2.28266 218.508 2.28266 218.63C2.28266 218.751 2.28266 218.872 2.28266 218.994C2.28266 219.601 2.64602 219.965 3.49386 219.965C3.85722 219.965 4.22057 219.843 4.46281 219.722C4.70505 219.601 4.82623 219.358 4.82623 218.994C4.82623 218.751 4.82619 218.387 4.70507 218.144H5.18958C5.3107 218.387 5.31067 218.751 5.31067 218.994Z" fill="black"/>
<path d="M1.19264 217.538C1.07152 217.538 0.950388 217.538 0.950388 217.416C0.950388 217.416 0.829224 217.295 0.829224 217.174C0.829224 217.052 0.829268 217.052 0.950388 216.931C0.950388 216.931 1.07152 216.81 1.19264 216.81C1.31376 216.81 1.43482 216.81 1.43482 216.931C1.43482 216.931 1.55599 217.052 1.55599 217.174C1.55599 217.295 1.55594 217.295 1.43482 217.416C1.3137 217.416 1.31376 217.538 1.19264 217.538ZM5.31067 216.931V217.416H2.04042V216.931H5.31067Z" fill="black"/>
<path d="M5.31067 213.897L4.82623 214.019C5.06847 214.14 5.18958 214.383 5.18958 214.504C5.3107 214.625 5.31067 214.868 5.31067 215.111C5.31067 215.475 5.18953 215.717 5.06841 215.839C4.94729 216.082 4.70508 216.082 4.34172 216.082C3.73612 216.082 3.37277 215.596 3.37277 214.504V213.897H3.13052C2.88828 213.897 2.64603 213.897 2.52491 214.019C2.40379 214.14 2.40382 214.261 2.40382 214.504C2.40382 214.747 2.52488 215.111 2.646 215.475L2.28266 215.596C2.16154 215.475 2.16152 215.232 2.0404 215.111C2.0404 214.868 1.91931 214.747 1.91931 214.504C1.91931 214.14 2.04045 213.776 2.16157 213.655C2.28269 213.533 2.64606 213.412 3.00943 213.412H5.18958V213.897H5.31067ZM4.94732 214.989C4.94732 214.625 4.82619 214.383 4.70507 214.261C4.58395 214.14 4.34174 214.019 3.97837 214.019H3.73612V214.504C3.73612 214.868 3.85725 215.232 3.97837 215.353C4.09949 215.475 4.22057 215.596 4.46281 215.596C4.58393 215.596 4.82623 215.596 4.82623 215.475C4.82623 215.353 4.94732 215.232 4.94732 214.989Z" fill="black"/>
<path d="M5.31067 212.077V212.563H0.70813V212.077H5.31067Z" fill="black"/>
<path d="M5.31067 206.859H3.13048C2.88823 206.859 2.64599 206.859 2.52486 206.981C2.40374 207.102 2.2826 207.223 2.2826 207.466C2.2826 207.83 2.40374 207.951 2.52486 208.194C2.64599 208.315 3.00937 208.437 3.37274 208.437H5.18958V208.922H3.13048C2.88823 208.922 2.64599 208.922 2.52486 209.044C2.40374 209.165 2.2826 209.286 2.2826 209.529C2.2826 209.893 2.40374 210.014 2.52486 210.257C2.76711 210.378 3.00937 210.5 3.37274 210.5H5.06841V210.985H1.79816V210.621L2.2826 210.5C2.16148 210.378 2.04037 210.257 1.91925 210.136C1.79813 210.014 1.79816 209.772 1.79816 209.529C1.79816 209.044 2.0404 208.679 2.40377 208.558C2.28265 208.437 2.04034 208.315 2.04034 208.194C1.91922 207.951 1.91925 207.83 1.91925 207.587C1.91925 207.223 2.04039 206.981 2.16151 206.738C2.40376 206.495 2.64602 206.495 3.00938 206.495H5.06841V206.859H5.31067Z" fill="black"/>
<path d="M5.31067 203.947C5.31067 204.432 5.18959 204.796 4.82623 205.039C4.58399 205.282 4.09951 205.403 3.61503 205.403C3.13055 205.403 2.64606 205.282 2.40382 205.039C2.04046 204.796 1.91931 204.432 1.91931 203.947C1.91931 203.583 2.04042 203.219 2.28266 202.976C2.5249 202.734 2.88829 202.612 3.37277 202.612H3.73612V204.796C4.09948 204.796 4.46286 204.675 4.58398 204.554C4.82622 204.311 4.82623 204.068 4.82623 203.826C4.82623 203.462 4.7051 203.098 4.58398 202.734H5.06841C5.18953 202.855 5.18958 203.098 5.18958 203.219C5.3107 203.583 5.31067 203.704 5.31067 203.947ZM2.40382 204.068C2.40382 204.311 2.52488 204.554 2.646 204.675C2.76713 204.796 3.00941 204.918 3.37277 204.918V203.34C3.00941 203.34 2.76713 203.462 2.646 203.583C2.52488 203.704 2.40382 203.826 2.40382 204.068Z" fill="black"/>
<path d="M4.82623 199.7C5.18959 199.943 5.31067 200.307 5.31067 200.792C5.31067 201.156 5.18959 201.52 4.82623 201.763C4.58399 202.005 4.09951 202.127 3.61504 202.127C3.13056 202.127 2.64608 202.005 2.40384 201.763C2.1616 201.52 1.91933 201.156 1.91933 200.792C1.91933 200.307 2.04048 200.064 2.40384 199.821H2.16158H1.91933H0.70813V199.336H5.31067V199.7H4.82623ZM4.94732 200.671C4.94732 200.307 4.82619 200.064 4.70507 199.943C4.46283 199.821 4.22058 199.7 3.85722 199.7H3.73613C3.25165 199.7 2.8883 199.821 2.76718 199.943C2.52494 200.064 2.52493 200.307 2.52493 200.671C2.52493 200.913 2.64603 201.156 2.88827 201.277C3.13051 201.399 3.37274 201.52 3.85722 201.52C4.22058 201.52 4.58399 201.399 4.82623 201.277C4.82623 201.277 4.94732 201.035 4.94732 200.671Z" fill="black"/>
<path d="M1.19264 198.244C1.07152 198.244 0.950388 198.244 0.950388 198.122C0.950388 198.122 0.829224 198.001 0.829224 197.88C0.829224 197.758 0.829268 197.758 0.950388 197.637C0.950388 197.637 1.07152 197.516 1.19264 197.516C1.31376 197.516 1.43482 197.516 1.43482 197.637C1.43482 197.637 1.55599 197.758 1.55599 197.88C1.55599 198.001 1.55594 198.001 1.43482 198.122C1.3137 198.244 1.31376 198.244 1.19264 198.244ZM5.31067 197.758V198.244H2.04042V197.758H5.31067Z" fill="black"/>
<path d="M5.31067 194.725L4.82623 194.846C5.06847 194.967 5.18958 195.21 5.18958 195.331C5.3107 195.453 5.31067 195.695 5.31067 195.938C5.31067 196.302 5.18953 196.545 5.06841 196.666C4.94729 196.909 4.70508 196.909 4.34172 196.909C3.73612 196.909 3.37277 196.424 3.37277 195.331V194.725H3.13052C2.88828 194.725 2.64603 194.725 2.52491 194.846C2.40379 194.967 2.40382 195.089 2.40382 195.331C2.40382 195.574 2.52488 195.938 2.646 196.302L2.28266 196.424C2.16154 196.302 2.16152 196.059 2.0404 195.938C2.0404 195.695 1.91931 195.574 1.91931 195.331C1.91931 194.967 2.04045 194.603 2.16157 194.482C2.28269 194.239 2.64606 194.239 3.00943 194.239H5.18958V194.725H5.31067ZM4.94732 195.817C4.94732 195.453 4.82619 195.21 4.70507 195.089C4.58395 194.967 4.34174 194.846 3.97837 194.846H3.73612V195.331C3.73612 195.695 3.85725 196.06 3.97837 196.181C4.09949 196.302 4.22057 196.424 4.46281 196.424C4.58393 196.424 4.82623 196.424 4.82623 196.302C4.82623 196.181 4.94732 196.059 4.94732 195.817Z" fill="black"/>
<path d="M2.64593 189.385L3.61493 189.628V188.779H3.97827V189.75L5.18945 189.992V190.356L3.97827 190.114V190.963L5.18945 191.206V191.57L3.97827 191.327V192.055H3.61493V191.206L2.64593 190.963V191.812H2.28259V190.963L0.950317 190.72V190.356L2.28259 190.599V189.75L0.950317 189.507V189.143L2.28259 189.385V188.657H2.64593V189.385ZM3.61493 190.842V189.992L2.64593 189.75V190.599L3.61493 190.842Z" fill="black"/>
<path d="M5.31067 186.473C5.31067 186.959 5.18959 187.323 4.82623 187.565C4.58399 187.808 4.09951 187.929 3.61503 187.929C3.13055 187.929 2.64606 187.808 2.40382 187.565C2.16158 187.323 1.91931 186.959 1.91931 186.473C1.91931 186.352 1.91931 186.109 1.91931 185.988C1.91931 185.866 2.0404 185.745 2.0404 185.624L2.40382 185.745C2.40382 185.866 2.28266 185.988 2.28266 186.109C2.28266 186.231 2.28266 186.352 2.28266 186.473C2.28266 187.08 2.64602 187.444 3.49386 187.444C3.85722 187.444 4.22057 187.323 4.46281 187.201C4.70505 187.08 4.82623 186.837 4.82623 186.473C4.82623 186.231 4.82619 185.866 4.70507 185.624H5.18958C5.3107 185.988 5.31067 186.231 5.31067 186.473Z" fill="black"/>
<path d="M2.04041 184.532H4.09942C4.34166 184.532 4.58389 184.532 4.70501 184.41C4.82613 184.289 4.94726 184.046 4.94726 183.804C4.94726 183.44 4.82613 183.197 4.70501 183.076C4.46278 182.954 4.22053 182.833 3.85717 182.833H2.16157V182.347H5.43176V182.711L4.94726 182.833C5.06838 182.954 5.18948 183.076 5.3106 183.197C5.43172 183.318 5.43176 183.561 5.43176 183.804C5.43176 184.168 5.31063 184.532 5.18951 184.653C4.94728 184.896 4.70503 184.896 4.34167 184.896H2.16157V184.532H2.04041Z" fill="black"/>
<path d="M4.34172 179.071C4.58396 179.071 4.82617 179.193 5.06841 179.435C5.18953 179.678 5.31067 179.921 5.31067 180.406C5.31067 180.891 5.18953 181.134 5.06841 181.377H4.58398C4.7051 181.255 4.70511 181.013 4.82623 180.891C4.82623 180.77 4.94732 180.527 4.94732 180.406C4.94732 180.163 4.94735 179.921 4.82623 179.799C4.70511 179.678 4.58393 179.557 4.46281 179.557C4.34169 179.557 4.22059 179.557 4.09947 179.678C3.97835 179.799 3.85724 180.042 3.73612 180.285C3.615 180.527 3.49386 180.77 3.49386 180.891C3.37274 181.013 3.37273 181.134 3.25161 181.134C3.13049 181.255 3.00938 181.255 2.88826 181.255C2.64602 181.255 2.40378 181.134 2.28266 180.891C2.16154 180.649 2.04041 180.406 2.04041 180.042C2.04041 179.678 2.16154 179.314 2.28266 179.071L2.64601 179.193C2.52489 179.557 2.40383 179.799 2.40383 180.042C2.40383 180.285 2.4038 180.406 2.52492 180.527C2.64604 180.649 2.64605 180.649 2.76717 180.649C2.88829 180.649 2.88831 180.649 3.00943 180.527C3.13055 180.527 3.13052 180.406 3.13052 180.285C3.13052 180.163 3.25165 180.042 3.37277 179.678C3.49389 179.314 3.615 179.071 3.73612 178.95C3.97836 179.193 4.2206 179.071 4.34172 179.071Z" fill="black"/>
<path d="M4.94726 177.251C4.94726 177.13 4.94726 177.13 4.94726 177.008C4.94726 176.887 4.94726 176.887 4.94726 176.766H5.3106C5.3106 176.766 5.31064 176.887 5.43176 177.008C5.43176 177.13 5.43176 177.251 5.43176 177.251C5.43176 177.858 5.06835 178.222 4.46276 178.222H2.5249V178.707H2.28265L2.0404 178.222L1.31372 177.979V177.736H2.0404V176.766H2.40381V177.736H4.34167C4.58391 177.736 4.70505 177.736 4.82617 177.615C4.82617 177.615 4.94726 177.494 4.94726 177.251Z" fill="black"/>
<path d="M3.61503 173.368C4.09951 173.368 4.58399 173.489 4.82623 173.732C5.06847 173.975 5.31067 174.339 5.31067 174.824C5.31067 175.067 5.18953 175.431 5.06841 175.552C4.94729 175.795 4.70505 175.916 4.46281 176.038C4.22057 176.159 3.85727 176.28 3.61503 176.28C3.13055 176.28 2.64606 176.159 2.40382 175.916C2.16158 175.673 1.91931 175.309 1.91931 174.824C1.91931 174.339 2.04046 173.975 2.40382 173.732C2.76718 173.489 3.13055 173.368 3.61503 173.368ZM3.61503 175.795C3.97839 175.795 4.34174 175.673 4.58398 175.552C4.82622 175.431 4.94732 175.188 4.94732 174.824C4.94732 174.46 4.82622 174.217 4.58398 174.096C4.34174 173.975 4.09951 173.853 3.61503 173.853C3.25167 173.853 2.88825 173.975 2.646 174.096C2.40376 174.217 2.28266 174.46 2.28266 174.824C2.28266 175.188 2.40376 175.431 2.646 175.552C2.88825 175.795 3.25167 175.795 3.61503 175.795Z" fill="black"/>
<path d="M5.31067 168.393H3.13048C2.88823 168.393 2.64599 168.393 2.52486 168.514C2.40374 168.635 2.2826 168.757 2.2826 168.999C2.2826 169.364 2.40374 169.485 2.52486 169.728C2.64599 169.849 3.00937 169.97 3.37274 169.97H5.18958V170.456H3.13048C2.88823 170.456 2.64599 170.456 2.52486 170.577C2.40374 170.698 2.2826 170.82 2.2826 171.062C2.2826 171.426 2.40374 171.548 2.52486 171.79C2.76711 171.912 3.00937 172.033 3.37274 172.033H5.06841V172.519H1.79816V172.155L2.2826 172.033C2.16148 171.912 2.04037 171.79 1.91925 171.669C1.79813 171.548 1.79816 171.305 1.79816 171.062C1.79816 170.577 2.0404 170.213 2.40377 170.092C2.28265 169.97 2.04034 169.849 2.04034 169.728C1.91922 169.485 1.91925 169.364 1.91925 169.121C1.91925 168.757 2.04039 168.514 2.16151 168.271C2.40376 168.029 2.64602 168.029 3.00938 168.029H5.06841V168.393H5.31067Z" fill="black"/>
<path d="M5.31067 164.631H3.13053C2.88829 164.631 2.64605 164.631 2.52493 164.752C2.40381 164.874 2.28267 165.116 2.28267 165.359C2.28267 165.723 2.40381 165.966 2.52493 166.087C2.76717 166.209 3.00939 166.33 3.49387 166.33H5.18958V166.815H0.70813V166.33H2.04042C2.16154 166.33 2.40384 166.33 2.40384 166.33C2.28272 166.209 2.16154 166.087 2.04042 165.966C1.9193 165.844 1.91933 165.602 1.91933 165.359C1.91933 164.995 2.04046 164.631 2.16158 164.51C2.40382 164.267 2.64608 164.267 3.00944 164.267H5.06841V164.631H5.31067Z" fill="black"/>
<path d="M5.31067 161.112L4.82623 161.233C5.06847 161.355 5.18958 161.597 5.18958 161.719C5.3107 161.84 5.31067 162.083 5.31067 162.325C5.31067 162.69 5.18953 162.932 5.06841 163.054C4.94729 163.296 4.70508 163.296 4.34172 163.296C3.73612 163.296 3.37277 162.811 3.37277 161.719V161.112H3.13052C2.88828 161.112 2.64603 161.112 2.52491 161.233C2.40379 161.355 2.40382 161.476 2.40382 161.719C2.40382 161.961 2.52488 162.325 2.646 162.69L2.28266 162.811C2.16154 162.69 2.16152 162.447 2.0404 162.325C2.0404 162.083 1.91931 161.961 1.91931 161.719C1.91931 161.355 2.04045 160.991 2.16157 160.869C2.28269 160.627 2.64606 160.627 3.00943 160.627H5.18958V161.112H5.31067ZM4.94732 162.204C4.94732 161.84 4.82619 161.597 4.70507 161.476C4.58395 161.355 4.34174 161.233 3.97837 161.233H3.73612V161.719C3.73612 162.083 3.85725 162.447 3.97837 162.568C4.09949 162.69 4.22057 162.811 4.46281 162.811C4.58393 162.811 4.82623 162.811 4.82623 162.69C4.82623 162.568 4.94732 162.447 4.94732 162.204Z" fill="black"/>
<path d="M4.34172 157.714C4.58396 157.714 4.82617 157.836 5.06841 158.078C5.18953 158.321 5.31067 158.564 5.31067 159.049C5.31067 159.535 5.18953 159.777 5.06841 160.02H4.58398C4.7051 159.899 4.70511 159.656 4.82623 159.535C4.82623 159.413 4.94732 159.171 4.94732 159.049C4.94732 158.807 4.94735 158.564 4.82623 158.442C4.70511 158.321 4.58393 158.2 4.46281 158.2C4.34169 158.2 4.22059 158.2 4.09947 158.321C3.97835 158.442 3.85724 158.685 3.73612 158.928C3.615 159.171 3.49386 159.413 3.49386 159.535C3.37274 159.656 3.37273 159.777 3.25161 159.777C3.13049 159.899 3.00938 159.899 2.88826 159.899C2.64602 159.899 2.40378 159.777 2.28266 159.535C2.16154 159.292 2.04041 159.049 2.04041 158.685C2.04041 158.321 2.16154 157.957 2.28266 157.714L2.64601 157.836C2.52489 158.2 2.40383 158.442 2.40383 158.685C2.40383 158.928 2.4038 159.049 2.52492 159.171C2.64604 159.292 2.64605 159.292 2.76717 159.292C2.88829 159.292 2.88831 159.292 3.00943 159.171C3.13055 159.171 3.13052 159.049 3.13052 158.928C3.13052 158.806 3.25165 158.685 3.37277 158.321C3.49389 157.957 3.615 157.714 3.73612 157.593C3.85724 157.472 4.2206 157.714 4.34172 157.714Z" fill="black"/>
<path d="M5.31067 154.681H3.13053C2.88829 154.681 2.64605 154.681 2.52493 154.802C2.40381 154.923 2.28267 155.166 2.28267 155.409C2.28267 155.773 2.40381 156.016 2.52493 156.137C2.76717 156.258 3.00939 156.38 3.49387 156.38H5.18958V156.865H0.70813V156.38H2.04042C2.16154 156.38 2.40384 156.38 2.40384 156.38C2.28272 156.258 2.16154 156.137 2.04042 156.016C1.9193 155.894 1.91933 155.651 1.91933 155.409C1.91933 155.045 2.04046 154.681 2.16158 154.559C2.40382 154.317 2.64608 154.317 3.00944 154.317H5.06841V154.681H5.31067Z" fill="black"/>
<path d="M4.94726 152.132C4.94726 152.011 4.94726 152.011 4.94726 151.89C4.94726 151.768 4.94726 151.768 4.94726 151.647H5.3106C5.3106 151.647 5.31064 151.768 5.43176 151.89C5.43176 152.011 5.43176 152.132 5.43176 152.132C5.43176 152.739 5.06835 153.103 4.46276 153.103H2.5249V153.589H2.28265L2.0404 153.103L1.31372 152.861V152.618H2.0404V151.647H2.40381V152.618H4.34167C4.58391 152.618 4.70505 152.618 4.82617 152.497C4.82617 152.375 4.94726 152.254 4.94726 152.132Z" fill="black"/>
<path d="M5.31067 148.977L4.82623 149.099C5.06847 149.22 5.18958 149.463 5.18958 149.584C5.3107 149.706 5.31067 149.948 5.31067 150.191C5.31067 150.555 5.18953 150.798 5.06841 150.919C4.94729 151.162 4.70508 151.162 4.34172 151.162C3.73612 151.162 3.37277 150.676 3.37277 149.584V148.977H3.13052C2.88828 148.977 2.64603 148.978 2.52491 149.099C2.40379 149.22 2.40382 149.342 2.40382 149.584C2.40382 149.827 2.52488 150.191 2.646 150.555L2.28266 150.676C2.16154 150.555 2.16152 150.312 2.0404 150.191C2.0404 149.948 1.91931 149.827 1.91931 149.584C1.91931 149.22 2.04045 148.856 2.16157 148.735C2.28269 148.492 2.64606 148.492 3.00943 148.492H5.18958V148.977H5.31067ZM4.94732 150.07C4.94732 149.706 4.82619 149.463 4.70507 149.342C4.58395 149.22 4.34174 149.099 3.97837 149.099H3.73612V149.584C3.73612 149.948 3.85725 150.312 3.97837 150.434C4.09949 150.555 4.22057 150.676 4.46281 150.676C4.58393 150.676 4.82623 150.676 4.82623 150.555C4.82623 150.434 4.94732 150.312 4.94732 150.07Z" fill="black"/>
<path d="M2.04041 144.973H2.40381L2.5249 145.58C2.64602 145.58 2.64603 145.458 2.76715 145.458C2.88826 145.458 3.00937 145.337 3.13048 145.337C3.49383 145.337 3.73604 145.458 3.85715 145.701C4.09939 145.944 4.0994 146.187 4.0994 146.551C4.0994 146.672 4.0994 146.793 4.0994 146.793C4.22052 147.036 4.34162 147.157 4.46273 147.157C4.58385 147.157 4.58387 147.157 4.70498 147.036C4.70498 146.915 4.82614 146.793 4.82614 146.672V146.065C4.82614 145.701 4.9472 145.458 5.06832 145.216C5.18943 144.973 5.43167 144.973 5.6739 144.973C6.03725 144.973 6.2795 145.094 6.52173 145.458C6.76396 145.701 6.76398 146.187 6.76398 146.672C6.76398 147.157 6.64285 147.4 6.52173 147.643C6.40061 147.885 6.15841 148.007 5.79506 148.007C5.55283 148.007 5.43168 147.885 5.31056 147.764C5.18945 147.643 5.06832 147.4 5.06832 147.279C5.06832 147.4 4.94723 147.4 4.94723 147.521C4.82611 147.521 4.8261 147.643 4.70498 147.643C4.58387 147.643 4.46276 147.643 4.34165 147.521C4.22053 147.4 4.22052 147.4 4.0994 147.279C3.97828 147.4 3.85718 147.643 3.73607 147.643C3.61495 147.764 3.37272 147.764 3.13048 147.764C2.76713 147.764 2.52489 147.643 2.28265 147.4C2.04042 147.157 2.04041 146.915 2.04041 146.551C2.04041 146.429 2.04041 146.187 2.04041 146.065V144.973ZM3.13048 147.279C3.37272 147.279 3.49386 147.157 3.61498 147.036C3.7361 146.915 3.73607 146.672 3.73607 146.551C3.73607 146.065 3.49386 145.823 3.0094 145.823C2.52493 145.823 2.28265 146.065 2.28265 146.551C2.28265 146.793 2.40378 146.915 2.5249 147.036C2.64602 147.279 2.88825 147.279 3.13048 147.279ZM5.79506 147.521C5.91618 147.521 6.15839 147.4 6.15839 147.279C6.27951 147.157 6.27948 146.915 6.27948 146.672C6.27948 146.308 6.15842 145.944 6.03731 145.701C5.91619 145.458 5.79505 145.458 5.55281 145.458C5.4317 145.458 5.31059 145.458 5.18948 145.58C5.06836 145.701 5.06832 145.944 5.06832 146.187V146.793C5.06832 147.036 5.06836 147.157 5.18948 147.279C5.43171 147.521 5.67394 147.521 5.79506 147.521Z" fill="black"/>
<path d="M2.64593 140.362L3.61493 140.605V139.755H3.97827V140.605L5.18945 140.847V141.211L3.97827 140.969V141.818L5.18945 142.061V142.425L3.97827 142.182V142.91H3.61493V142.061L2.64593 141.818V142.668H2.28259V141.818L0.950317 141.575V141.211L2.28259 141.454V140.605L0.950317 140.362V139.998L2.28259 140.241V139.513H2.64593V140.362ZM3.61493 141.818V140.969L2.64593 140.726V141.575L3.61493 141.818Z" fill="black"/>
<path d="M5.31067 138.299V138.784H0.70813V138.299H5.31067Z" fill="black"/>
<path d="M5.31067 135.265L4.82623 135.387C5.06847 135.508 5.18958 135.751 5.18958 135.872C5.3107 135.994 5.31067 136.236 5.31067 136.479C5.31067 136.843 5.18953 137.086 5.06841 137.207C4.94729 137.45 4.70508 137.45 4.34172 137.45C3.73612 137.45 3.37277 136.964 3.37277 135.872V135.265H3.13052C2.88828 135.265 2.64603 135.265 2.52491 135.387C2.40379 135.508 2.40382 135.629 2.40382 135.872C2.40382 136.115 2.52488 136.479 2.646 136.843L2.28266 136.964C2.16154 136.843 2.16152 136.6 2.0404 136.479C2.0404 136.236 1.91931 136.115 1.91931 135.872C1.91931 135.508 2.04045 135.144 2.16157 135.023C2.28269 134.78 2.64606 134.78 3.00943 134.78H5.18958V135.265H5.31067ZM4.94732 136.358C4.94732 135.994 4.82619 135.751 4.70507 135.63C4.58395 135.508 4.34174 135.387 3.97837 135.387H3.73612V135.872C3.73612 136.236 3.85725 136.6 3.97837 136.722C4.09949 136.843 4.22057 136.964 4.46281 136.964C4.58393 136.964 4.82623 136.964 4.82623 136.843C4.82623 136.722 4.94732 136.6 4.94732 136.358Z" fill="black"/>
<path d="M4.94726 132.839C4.94726 132.717 4.94726 132.717 4.94726 132.596C4.94726 132.474 4.94726 132.474 4.94726 132.353H5.3106C5.3106 132.353 5.31064 132.474 5.43176 132.596C5.43176 132.717 5.43176 132.839 5.43176 132.839C5.43176 133.445 5.06835 133.809 4.46276 133.809H2.5249V134.295H2.28265L2.0404 133.809L1.31372 133.567V133.324H2.0404V132.353H2.40381V133.324H4.34167C4.58391 133.324 4.70505 133.324 4.82617 133.203C4.82617 133.203 4.94726 133.081 4.94726 132.839Z" fill="black"/>
<path d="M5.31067 130.412C5.31067 130.897 5.18959 131.261 4.82623 131.504C4.58399 131.746 4.09951 131.868 3.61503 131.868C3.13055 131.868 2.64606 131.746 2.40382 131.504C2.04046 131.261 1.91931 130.897 1.91931 130.412C1.91931 130.048 2.04042 129.684 2.28266 129.441C2.5249 129.198 2.88829 129.077 3.37277 129.077H3.73612V131.261C4.09948 131.261 4.46286 131.14 4.58398 131.018C4.82622 130.776 4.82623 130.533 4.82623 130.29C4.82623 129.926 4.7051 129.562 4.58398 129.198H5.06841C5.18953 129.32 5.18958 129.562 5.18958 129.684C5.3107 130.048 5.31067 130.169 5.31067 130.412ZM2.40382 130.533C2.40382 130.776 2.52488 131.018 2.646 131.14C2.76713 131.261 3.00941 131.382 3.37277 131.382V129.684C3.00941 129.684 2.76713 129.805 2.646 129.926C2.52488 130.048 2.40382 130.29 2.40382 130.533Z" fill="black"/>
<path d="M4.34172 126.286C4.58396 126.286 4.82617 126.407 5.06841 126.65C5.18953 126.893 5.31067 127.135 5.31067 127.621C5.31067 128.106 5.18953 128.349 5.06841 128.591H4.58398C4.7051 128.47 4.70511 128.227 4.82623 128.106C4.82623 127.985 4.94732 127.742 4.94732 127.621C4.94732 127.378 4.94735 127.135 4.82623 127.014C4.70511 126.893 4.58393 126.771 4.46281 126.771C4.34169 126.771 4.22059 126.771 4.09947 126.893C3.97835 127.014 3.85724 127.257 3.73612 127.499C3.615 127.742 3.49386 127.985 3.49386 128.106C3.37274 128.227 3.37273 128.349 3.25161 128.349C3.13049 128.47 3.00938 128.47 2.88826 128.47C2.64602 128.47 2.40378 128.349 2.28266 128.106C2.16154 127.863 2.04041 127.621 2.04041 127.257C2.04041 126.893 2.16154 126.529 2.28266 126.286L2.64601 126.407C2.52489 126.771 2.40383 127.014 2.40383 127.257C2.40383 127.499 2.4038 127.621 2.52492 127.742C2.64604 127.863 2.64605 127.863 2.76717 127.863C2.88829 127.863 2.88831 127.863 3.00943 127.742C3.13055 127.742 3.13052 127.621 3.13052 127.499C3.13052 127.378 3.25165 127.257 3.37277 126.893C3.49389 126.529 3.615 126.286 3.73612 126.165C3.97836 126.286 4.2206 126.286 4.34172 126.286Z" fill="black"/>
<path d="M4.94726 124.466C4.94726 124.344 4.94726 124.344 4.94726 124.223C4.94726 124.102 4.94726 124.102 4.94726 123.98H5.3106C5.3106 123.98 5.31064 124.102 5.43176 124.223C5.43176 124.344 5.43176 124.466 5.43176 124.466C5.43176 125.072 5.06835 125.436 4.46276 125.436H2.5249V125.922H2.28265L2.0404 125.436L1.31372 125.194V124.951H2.0404V123.98H2.40381V124.951H4.34167C4.58391 124.951 4.70505 124.951 4.82617 124.83C4.82617 124.708 4.94726 124.587 4.94726 124.466Z" fill="black"/>
<path d="M4.94725 122.282C4.94725 122.16 4.94725 122.16 4.94725 122.039C4.94725 121.917 4.94725 121.917 4.94725 121.796H5.3106C5.3106 121.796 5.31064 121.917 5.43176 122.039C5.43176 122.16 5.43176 122.282 5.43176 122.282C5.43176 122.888 5.06834 123.252 4.46274 123.252H2.52486V123.738H2.2826L1.91926 123.252L1.19257 123.01V122.767H1.91926V121.796H2.2826V122.767H4.22056C4.4628 122.767 4.58388 122.767 4.705 122.646C4.82612 122.524 4.94725 122.403 4.94725 122.282Z" fill="black"/>
<path d="M1.91931 119.733C1.91931 119.612 1.91931 119.491 1.91931 119.369L2.40382 119.491C2.40382 119.612 2.40382 119.733 2.40382 119.855C2.40382 120.097 2.52493 120.34 2.76717 120.583C3.00941 120.825 3.25167 120.825 3.61503 120.825H5.31067V121.311H2.0404V120.825H2.646C2.40376 120.704 2.28269 120.583 2.16157 120.34C2.04045 120.097 1.91931 119.855 1.91931 119.733Z" fill="black"/>
<path d="M5.31067 117.306C5.31067 117.792 5.18959 118.156 4.82623 118.398C4.58399 118.641 4.09951 118.762 3.61503 118.762C3.13055 118.762 2.64606 118.641 2.40382 118.398C2.04046 118.156 1.91931 117.792 1.91931 117.306C1.91931 116.942 2.04042 116.578 2.28266 116.336C2.5249 116.093 2.88829 115.972 3.37277 115.972H3.73612V118.156C4.09948 118.156 4.46286 118.034 4.58398 117.913C4.82622 117.67 4.82623 117.428 4.82623 117.185C4.82623 116.821 4.7051 116.457 4.58398 116.093H5.06841C5.18953 116.214 5.18958 116.457 5.18958 116.578C5.3107 116.942 5.31067 117.064 5.31067 117.306ZM2.40382 117.428C2.40382 117.67 2.52488 117.913 2.646 118.034C2.76713 118.156 3.00941 118.277 3.37277 118.277V116.578C3.00941 116.578 2.76713 116.7 2.646 116.821C2.52488 117.064 2.40382 117.185 2.40382 117.428Z" fill="black"/>
<path d="M5.31067 113.059H3.13048C2.88823 113.059 2.64599 113.181 2.52486 113.181C2.40374 113.302 2.2826 113.545 2.2826 113.787C2.2826 114.151 2.40374 114.394 2.52486 114.515C2.76711 114.637 3.00937 114.758 3.37274 114.758H5.06841V115.243H1.79816V114.879L2.2826 114.758C2.16148 114.637 2.04037 114.515 1.91925 114.394C1.79813 114.273 1.79816 114.03 1.79816 113.787C1.79816 113.423 1.91922 113.059 2.04034 112.938C2.28259 112.695 2.52485 112.695 2.88822 112.695H4.94732V113.059H5.31067Z" fill="black"/>
<path d="M4.82623 109.419C5.18959 109.662 5.31067 110.026 5.31067 110.511C5.31067 110.996 5.18959 111.239 4.82623 111.482C4.58399 111.724 4.09951 111.846 3.61504 111.846C3.13056 111.846 2.64608 111.724 2.40384 111.482C2.1616 111.239 1.91933 110.875 1.91933 110.511C1.91933 110.026 2.04048 109.783 2.40384 109.54H2.16158H1.91933H0.70813V109.055H5.31067V109.419H4.82623ZM4.94732 110.39C4.94732 110.026 4.82619 109.783 4.70507 109.662C4.46283 109.54 4.22058 109.419 3.85722 109.419H3.73613C3.25165 109.419 2.8883 109.54 2.76718 109.662C2.52494 109.783 2.52493 110.026 2.52493 110.39C2.52493 110.632 2.64603 110.875 2.88827 110.996C3.13051 111.118 3.37274 111.239 3.85722 111.239C4.22058 111.239 4.58399 111.118 4.82623 110.996C4.82623 110.875 4.94732 110.632 4.94732 110.39Z" fill="black"/>
<path d="M87.7921 211.713V214.504C87.7921 214.989 87.6709 215.353 87.3076 215.717C87.0653 215.96 86.5808 216.081 86.0964 216.081C85.6119 216.081 85.1274 215.96 84.8852 215.596C84.643 215.353 84.4007 214.868 84.4007 214.383V211.592H84.8852V214.383C84.8852 214.747 85.0063 214.989 85.1274 215.232C85.3697 215.475 85.6119 215.475 85.9753 215.475C86.3386 215.475 86.5808 215.353 86.8231 215.232C87.0653 214.989 87.0653 214.747 87.0653 214.383V211.592H87.7921V211.713Z" fill="black"/>
<path d="M92.0313 212.926C92.0313 213.412 91.9101 213.655 91.5467 213.897C91.3045 214.14 90.82 214.261 90.2144 214.261H89.7299V215.96H89.2454V211.592H90.3355C91.4256 211.713 92.0313 212.077 92.0313 212.926ZM89.7299 213.897H90.2144C90.6989 213.897 90.9412 213.776 91.1834 213.655C91.4256 213.533 91.4256 213.291 91.4256 212.926C91.4256 212.684 91.3045 212.441 91.1834 212.32C90.9412 212.198 90.6989 212.077 90.3355 212.077H89.7299V213.897V213.897Z" fill="black"/>
<path d="M96.5125 215.96H96.0281V212.077H94.6957V211.592H97.966V212.077H96.6337V215.96H96.5125Z" fill="black"/>
<path d="M102.69 213.776C102.69 214.504 102.568 214.989 102.205 215.353C101.842 215.717 101.357 215.96 100.752 215.96C100.146 215.96 99.6616 215.717 99.2982 215.353C98.9349 214.989 98.8137 214.383 98.8137 213.655C98.8137 212.926 98.9349 212.441 99.2982 211.956C99.6616 211.592 100.146 211.349 100.752 211.349C101.357 211.349 101.842 211.592 102.205 211.956C102.447 212.562 102.69 213.169 102.69 213.776ZM99.1771 213.776C99.1771 214.383 99.2982 214.747 99.5404 215.111C99.7826 215.353 100.146 215.596 100.63 215.596C101.115 215.596 101.478 215.475 101.721 215.111C101.963 214.868 102.084 214.383 102.084 213.776C102.084 213.169 101.963 212.805 101.721 212.441C101.478 212.198 101.115 211.956 100.63 211.956C100.146 211.956 99.7826 212.077 99.5404 212.441C99.2982 212.805 99.1771 213.291 99.1771 213.776Z" fill="black"/>
<path d="M106.929 213.412C107.413 213.412 107.776 213.533 108.019 213.776C108.261 214.019 108.382 214.261 108.382 214.747C108.382 215.232 108.261 215.596 107.898 215.839C107.655 216.081 107.171 216.203 106.686 216.203C106.202 216.203 105.839 216.081 105.596 215.96V215.475C105.718 215.596 105.96 215.596 106.081 215.717C106.323 215.717 106.444 215.839 106.686 215.839C107.05 215.839 107.292 215.717 107.534 215.596C107.776 215.475 107.776 215.232 107.776 214.868C107.776 214.261 107.413 214.019 106.686 214.019C106.444 214.019 106.202 214.019 105.96 214.14L105.718 214.019L105.839 211.956H108.019V212.441H106.323L106.202 213.776C106.565 213.412 106.808 213.412 106.929 213.412Z" fill="black"/>
<path d="M112.379 213.776C112.379 214.504 112.258 215.111 112.016 215.475C111.773 215.839 111.41 216.081 110.926 216.081C110.441 216.081 110.078 215.839 109.835 215.475C109.593 215.111 109.472 214.504 109.472 213.776C109.472 213.048 109.593 212.441 109.835 212.077C110.078 211.713 110.441 211.47 110.926 211.47C111.41 211.47 111.773 211.713 112.016 212.077C112.258 212.562 112.379 213.048 112.379 213.776ZM109.957 213.776C109.957 214.383 110.078 214.868 110.199 215.111C110.32 215.353 110.562 215.596 110.926 215.596C111.289 215.596 111.531 215.475 111.652 215.111C111.773 214.868 111.895 214.383 111.895 213.776C111.895 213.169 111.773 212.684 111.652 212.441C111.531 212.198 111.289 211.956 110.926 211.956C110.562 211.956 110.32 212.077 110.199 212.441C110.078 212.684 109.957 213.169 109.957 213.776Z" fill="black"/>
<path d="M115.044 212.926C115.044 213.412 114.922 213.776 114.801 213.897C114.68 214.14 114.438 214.261 114.196 214.261C113.953 214.261 113.711 214.14 113.59 213.897C113.469 213.655 113.348 213.291 113.348 212.926C113.348 212.441 113.469 212.198 113.59 211.956C113.711 211.713 113.953 211.592 114.196 211.592C114.438 211.592 114.68 211.713 114.801 211.956C114.922 212.198 115.044 212.562 115.044 212.926ZM113.711 212.926C113.711 213.291 113.711 213.533 113.832 213.655C113.953 213.776 114.075 213.897 114.196 213.897C114.559 213.897 114.68 213.533 114.68 212.926C114.68 212.32 114.559 211.956 114.196 211.956C114.075 211.956 113.953 212.077 113.832 212.198C113.711 212.32 113.711 212.684 113.711 212.926ZM116.86 211.713L114.438 216.081H113.953L116.376 211.713H116.86ZM117.708 214.747C117.708 215.232 117.587 215.475 117.466 215.717C117.345 215.96 117.103 216.081 116.86 216.081C116.618 216.081 116.376 215.96 116.255 215.717C116.134 215.475 116.013 215.111 116.013 214.747C116.013 214.261 116.134 214.019 116.255 213.776C116.376 213.533 116.618 213.412 116.86 213.412C117.103 213.412 117.345 213.533 117.466 213.776C117.587 213.897 117.708 214.261 117.708 214.747ZM116.255 214.747C116.255 215.111 116.255 215.353 116.376 215.475C116.497 215.596 116.618 215.717 116.739 215.717C116.86 215.717 116.982 215.596 117.103 215.475C117.224 215.353 117.224 215.111 117.224 214.747C117.224 214.383 117.224 214.14 117.103 214.019C116.982 213.897 116.86 213.776 116.739 213.776C116.618 213.776 116.497 213.897 116.376 214.019C116.376 214.14 116.255 214.383 116.255 214.747Z" fill="black"/>
<path d="M124.612 213.776C124.612 214.504 124.491 214.989 124.128 215.353C123.764 215.717 123.28 215.96 122.674 215.96C122.068 215.96 121.584 215.717 121.221 215.353C120.857 214.989 120.736 214.383 120.736 213.655C120.736 212.926 120.857 212.441 121.221 211.956C121.584 211.592 122.068 211.349 122.674 211.349C123.28 211.349 123.764 211.592 124.128 211.956C124.491 212.562 124.612 213.169 124.612 213.776ZM121.221 213.776C121.221 214.383 121.342 214.747 121.584 215.111C121.826 215.353 122.19 215.596 122.674 215.596C123.159 215.596 123.522 215.475 123.764 215.111C124.006 214.868 124.128 214.383 124.128 213.776C124.128 213.169 124.006 212.805 123.764 212.441C123.522 212.198 123.159 211.956 122.674 211.956C122.19 211.956 121.826 212.077 121.584 212.441C121.342 212.805 121.221 213.291 121.221 213.776Z" fill="black"/>
<path d="M126.429 215.96H125.944V211.592H128.366V212.077H126.429V213.655H128.245V214.14H126.429V215.96Z" fill="black"/>
<path d="M129.941 215.96H129.456V211.592H131.879V212.077H129.941V213.655H131.758V214.14H129.941V215.96Z" fill="black"/>
<path d="M137.329 215.96H134.907V211.592H137.329V212.077H135.391V213.412H137.208V213.897H135.391V215.475H137.329V215.96Z" fill="black"/>
<path d="M141.084 211.713H141.568L139.994 216.081H139.509L137.935 211.713H138.419L139.388 214.504C139.509 214.868 139.63 215.111 139.63 215.475C139.752 215.111 139.752 214.868 139.873 214.504L141.084 211.713Z" fill="black"/>
<path d="M144.96 215.96H142.537V211.592H144.96V212.077H143.022V213.412H144.838V213.897H143.022V215.475H144.96V215.96Z" fill="black"/>
<path d="M146.776 214.14V215.96H146.292V211.592H147.503C147.988 211.592 148.472 211.713 148.714 211.956C148.957 212.198 149.078 212.441 149.078 212.926C149.078 213.533 148.836 213.897 148.23 214.14L149.441 216.081H148.836L147.745 214.261H146.776V214.14ZM146.776 213.776H147.503C147.867 213.776 148.109 213.655 148.23 213.533C148.351 213.412 148.472 213.169 148.472 212.926C148.472 212.684 148.351 212.441 148.23 212.32C148.109 212.198 147.745 212.077 147.382 212.077H146.776V213.776Z" fill="black"/>
<path d="M151.5 213.776L152.711 211.592H153.196L151.742 214.261V215.96H151.258V214.261L149.805 211.592H150.41L151.5 213.776Z" fill="black"/>
<path d="M155.497 215.96H155.012V212.077H153.68V211.592H156.951V212.077H155.618V215.96H155.497Z" fill="black"/>
<path d="M161.189 215.96H160.705V213.897H158.404V215.96H157.919V211.592H158.404V213.412H160.705V211.592H161.189V215.96Z" fill="black"/>
<path d="M162.643 215.96V211.592H163.127V215.96H162.643Z" fill="black"/>
<path d="M168.093 215.96H167.488L165.065 212.32C165.065 212.805 165.065 213.169 165.065 213.533V215.96H164.581V211.592H165.186L167.488 215.232C167.488 215.232 167.488 214.989 167.488 214.747C167.488 214.504 167.488 214.261 167.488 214.14V211.713H167.972V215.96H168.093Z" fill="black"/>
<path d="M171.606 213.776H173.059V215.839C172.817 215.96 172.574 215.96 172.332 215.96C172.09 215.96 171.848 215.96 171.485 215.96C170.879 215.96 170.273 215.717 169.91 215.353C169.547 214.989 169.305 214.383 169.305 213.655C169.305 213.169 169.426 212.805 169.547 212.441C169.668 212.077 170.031 211.834 170.273 211.713C170.637 211.592 171 211.47 171.485 211.47C171.969 211.47 172.332 211.592 172.817 211.713L172.575 212.198C172.211 212.077 171.848 211.956 171.485 211.956C171 211.956 170.516 212.077 170.273 212.441C170.031 212.805 169.789 213.169 169.789 213.776C169.789 214.383 169.91 214.747 170.273 215.111C170.516 215.353 171 215.596 171.485 215.596C171.727 215.596 172.09 215.596 172.332 215.475V214.14H171.363V213.776H171.606Z" fill="black"/>
<path d="M189.895 244.234C189.895 244.84 189.652 245.204 189.289 245.568C188.926 245.932 188.32 246.054 187.593 246.054C186.988 246.054 186.382 245.932 185.898 245.69V244.476C186.261 244.719 186.624 244.84 186.988 244.84C187.23 244.962 187.472 244.962 187.714 244.962C187.957 244.962 188.199 244.962 188.32 244.84C188.441 244.719 188.562 244.598 188.562 244.355C188.562 244.234 188.562 244.112 188.441 243.991C188.32 243.87 188.32 243.87 188.199 243.748C188.078 243.627 187.836 243.506 187.472 243.384C187.109 243.263 186.867 243.02 186.624 242.899C186.382 242.777 186.261 242.535 186.14 242.292C186.019 242.049 186.019 241.807 186.019 241.564C186.019 241.079 186.261 240.593 186.624 240.351C186.988 239.987 187.472 239.865 188.078 239.865C188.441 239.865 188.683 239.865 188.926 239.987C189.168 240.108 189.531 240.108 189.773 240.351L189.41 241.321C189.047 241.2 188.804 241.079 188.562 241.079C188.32 241.079 188.199 240.957 187.957 240.957C187.714 240.957 187.472 240.957 187.351 241.079C187.23 241.2 187.109 241.321 187.109 241.564C187.109 241.685 187.109 241.807 187.23 241.807C187.23 241.928 187.351 241.928 187.472 242.049C187.593 242.171 187.836 242.292 188.32 242.535C188.926 242.777 189.289 243.02 189.531 243.384C189.774 243.506 189.895 243.87 189.895 244.234Z" fill="black"/>
<path d="M195.103 245.932H193.891V243.263C193.891 242.535 193.649 242.292 193.165 242.292C192.801 242.292 192.559 242.413 192.438 242.656C192.317 242.899 192.196 243.263 192.196 243.87V246.054H190.984V239.623H192.196V240.957C192.196 241.079 192.196 241.321 192.196 241.685V242.049H192.317C192.559 241.564 193.044 241.321 193.649 241.321C194.134 241.321 194.618 241.443 194.86 241.807C195.103 242.049 195.224 242.535 195.224 243.02V245.932H195.103Z" fill="black"/>
<path d="M200.674 243.627C200.674 244.355 200.432 244.962 200.068 245.447C199.705 245.932 199.099 246.054 198.373 246.054C197.888 246.054 197.525 245.932 197.162 245.811C196.798 245.568 196.556 245.326 196.435 244.962C196.193 244.598 196.193 244.112 196.193 243.627C196.193 242.899 196.435 242.292 196.798 241.807C197.162 241.443 197.767 241.2 198.494 241.2C198.978 241.2 199.342 241.321 199.705 241.443C200.068 241.685 200.311 241.928 200.432 242.292C200.553 242.656 200.674 243.142 200.674 243.627ZM197.404 243.627C197.404 244.112 197.525 244.476 197.646 244.719C197.767 244.962 198.009 245.083 198.373 245.083C198.736 245.083 198.978 244.962 199.099 244.719C199.221 244.476 199.342 244.112 199.342 243.627C199.342 243.142 199.221 242.777 199.099 242.535C198.978 242.292 198.736 242.171 198.373 242.171C198.009 242.171 197.767 242.292 197.646 242.535C197.525 242.777 197.404 243.142 197.404 243.627Z" fill="black"/>
<path d="M204.186 246.054C203.702 246.054 203.218 245.811 202.854 245.447H202.733C202.733 245.811 202.854 246.054 202.854 246.175V247.995H201.643V241.321H202.612L202.733 241.928C202.975 241.443 203.46 241.2 204.065 241.2C204.671 241.2 205.034 241.443 205.398 241.807C205.761 242.171 205.882 242.777 205.882 243.627C205.882 244.112 205.761 244.598 205.64 244.962C205.519 245.326 205.276 245.568 205.034 245.811C204.913 245.932 204.55 246.054 204.186 246.054ZM203.823 242.171C203.46 242.171 203.339 242.292 203.096 242.413C202.975 242.656 202.854 242.899 202.854 243.384V243.506C202.854 243.991 202.975 244.355 203.096 244.598C203.217 244.84 203.46 244.962 203.823 244.962C204.429 244.962 204.671 244.476 204.671 243.506C204.671 243.02 204.55 242.656 204.429 242.535C204.429 242.292 204.186 242.171 203.823 242.171Z" fill="black"/>
<path d="M213.513 245.933H212.301V243.263C212.301 242.899 212.301 242.656 212.18 242.535C212.059 242.413 211.817 242.292 211.575 242.292C211.211 242.292 210.969 242.414 210.848 242.656C210.727 242.899 210.606 243.263 210.606 243.87V246.054H209.394V241.443H210.363L210.485 242.049H210.606C210.727 241.807 210.969 241.685 211.211 241.564C211.454 241.443 211.696 241.443 212.059 241.443C212.544 241.443 213.028 241.564 213.27 241.928C213.513 242.171 213.634 242.656 213.634 243.142V245.933H213.513Z" fill="black"/>
<path d="M219.084 243.627C219.084 244.355 218.842 244.962 218.478 245.447C218.115 245.932 217.509 246.054 216.783 246.054C216.298 246.054 215.935 245.932 215.571 245.811C215.208 245.568 214.966 245.326 214.845 244.962C214.602 244.598 214.602 244.112 214.602 243.627C214.602 242.899 214.845 242.292 215.208 241.807C215.571 241.443 216.177 241.2 216.904 241.2C217.388 241.2 217.752 241.321 218.115 241.443C218.478 241.685 218.72 241.928 218.842 242.292C218.963 242.656 219.084 243.142 219.084 243.627ZM215.814 243.627C215.814 244.112 215.935 244.476 216.056 244.719C216.177 244.962 216.419 245.083 216.783 245.083C217.146 245.083 217.388 244.962 217.509 244.719C217.63 244.476 217.752 244.112 217.752 243.627C217.752 243.142 217.63 242.777 217.509 242.535C217.388 242.292 217.146 242.171 216.783 242.171C216.419 242.171 216.177 242.292 216.056 242.535C215.935 242.777 215.814 243.142 215.814 243.627Z" fill="black"/>
<path d="M223.929 245.932L223.565 244.355L223.081 242.292L222.233 245.932H220.901L219.568 241.321H220.78L221.264 243.384C221.385 243.748 221.385 244.234 221.506 244.962C221.506 244.719 221.506 244.476 221.627 243.991L221.748 243.627L222.354 241.443H223.686L224.171 243.627C224.171 243.748 224.171 243.748 224.171 243.87C224.171 243.991 224.171 244.112 224.292 244.234C224.292 244.355 224.292 244.476 224.292 244.598C224.292 244.719 224.292 244.84 224.292 244.962C224.292 244.719 224.413 244.476 224.413 244.112C224.534 243.748 224.534 243.506 224.534 243.384L225.14 241.321H226.351L225.019 245.932H223.929Z" fill="black"/>
<path d="M229.258 244.112L232.044 242.899L229.258 241.564V240.593L233.376 242.656V243.263L229.258 245.083V244.112Z" fill="black"/>
<path d="M178.752 232.584H233.739" stroke="black" stroke-miterlimit="10"/>
<path d="M2.28259 3.36298H26.0218" stroke="black" stroke-miterlimit="10"/>
<path d="M101.478 119.976C101.478 122.16 100.873 124.102 99.7828 125.8C98.6927 127.499 97.1182 128.834 95.0592 129.805C93.0002 130.776 90.5779 131.261 87.7921 131.261C85.4909 131.261 83.553 131.14 81.8573 130.776C80.2828 130.412 78.5872 129.926 76.8915 129.077V120.583C78.7083 121.553 80.525 122.281 82.584 122.767C84.5219 123.252 86.3387 123.495 87.9132 123.495C89.3667 123.495 90.3356 123.252 91.0623 122.767C91.6679 122.281 92.0313 121.675 92.0313 120.825C92.0313 120.34 91.9101 119.976 91.6679 119.612C91.4256 119.248 90.9412 118.884 90.4567 118.52C89.8511 118.156 88.2766 117.428 85.7331 116.214C83.4319 115.122 81.7363 114.151 80.5251 113.181C79.435 112.21 78.5871 111.118 77.9816 109.783C77.376 108.569 77.1337 106.992 77.1337 105.293C77.1337 102.017 78.3449 99.4686 80.6462 97.7697C82.9474 95.9496 86.2176 95.1002 90.3356 95.1002C93.9691 95.1002 97.7238 95.9496 101.478 97.6484L98.5716 104.929C95.3014 103.473 92.5157 102.624 90.0933 102.624C88.8822 102.624 87.9132 102.866 87.4287 103.23C86.8231 103.716 86.581 104.201 86.581 104.808C86.581 105.536 86.9443 106.143 87.671 106.628C88.3977 107.113 90.3356 108.205 93.4846 109.662C96.5126 110.996 98.5716 112.453 99.7828 114.03C100.994 115.729 101.478 117.67 101.478 119.976Z" fill="black"/>
<path d="M124.127 130.654L122.311 127.014H122.068C120.857 128.591 119.525 129.684 118.193 130.29C116.86 130.897 115.165 131.14 113.106 131.14C110.562 131.14 108.503 130.412 107.05 128.834C105.596 127.257 104.87 125.072 104.87 122.281C104.87 119.369 105.839 117.185 107.898 115.85C109.957 114.394 112.863 113.666 116.618 113.423L121.1 113.302V112.938C121.1 110.632 120.009 109.54 117.829 109.54C115.891 109.54 113.348 110.268 110.32 111.603L107.655 105.414C110.804 103.837 114.801 102.988 119.646 102.988C123.159 102.988 125.823 103.837 127.761 105.536C129.699 107.235 130.668 109.662 130.668 112.817V130.654H124.127V130.654ZM117.224 124.587C118.314 124.587 119.283 124.223 120.131 123.495C120.978 122.767 121.342 121.796 121.342 120.704V118.641L119.162 118.762C116.134 118.884 114.559 119.976 114.559 122.16C114.559 123.738 115.407 124.587 117.224 124.587Z" fill="black"/>
<path d="M146.413 130.654H137.087V93.28H146.413V130.654Z" fill="black"/>
<path d="M166.034 131.14C161.553 131.14 158.04 129.926 155.497 127.499C152.954 125.072 151.742 121.675 151.742 117.185C151.742 112.574 152.954 109.055 155.255 106.628C157.556 104.201 160.947 102.988 165.186 102.988C169.304 102.988 172.454 104.08 174.634 106.143C176.814 108.327 178.025 111.36 178.025 115.365V119.491H161.19C161.311 121.068 161.795 122.16 162.885 123.131C163.975 123.98 165.308 124.466 167.124 124.466C168.82 124.466 170.273 124.344 171.727 123.98C173.059 123.616 174.634 123.131 176.208 122.403V129.198C174.755 129.926 173.18 130.412 171.606 130.776C170.152 131.018 168.214 131.14 166.034 131.14ZM165.55 109.419C164.46 109.419 163.491 109.783 162.764 110.511C162.037 111.239 161.553 112.331 161.432 113.787H169.547C169.547 112.452 169.183 111.482 168.457 110.632C167.609 109.783 166.64 109.419 165.55 109.419Z" fill="black"/>
<path d="M102.69 82.8443H100.146L97.4815 77.7477C97.6027 78.5972 97.6026 79.2039 97.6026 79.5679V82.8443H95.907V75.6849H98.4505L101.115 80.66C101.115 79.932 100.994 79.3252 100.994 78.9612V75.6849H102.69V82.8443Z" fill="black"/>
<path d="M110.199 82.8443H105.96V75.6849H110.199V77.2624H107.898V78.3545H110.078V79.932H107.898V81.2668H110.199V82.8443Z" fill="black"/>
<path d="M120.736 82.8442H118.435L117.708 79.6892C117.708 79.5679 117.587 79.3252 117.587 78.9611C117.466 78.5971 117.466 78.2331 117.466 77.9904C117.466 78.2331 117.345 78.4758 117.345 78.8398C117.345 79.2038 117.224 79.4465 117.224 79.6892C117.224 79.9319 116.981 81.024 116.497 82.9655H114.196L112.379 75.8062H114.196L114.923 79.4465C115.044 80.2959 115.165 80.9027 115.286 81.3881C115.286 81.024 115.407 80.66 115.528 80.0532C115.649 79.4465 115.77 78.9611 115.891 78.5971L116.497 75.9275H118.314L118.919 78.5971C119.04 79.0825 119.162 79.5679 119.283 80.0532C119.404 80.66 119.404 81.024 119.525 81.3881C119.525 81.024 119.646 80.4173 119.888 79.4465L120.736 75.8062H122.553L120.736 82.8442Z" fill="black"/>
<path d="M135.391 79.0826C135.391 80.296 135.028 81.1454 134.422 81.8735C133.817 82.4802 132.848 82.8443 131.637 82.8443H129.336V75.6849H131.758C132.848 75.6849 133.817 75.9276 134.422 76.5343C135.028 77.141 135.391 77.9904 135.391 79.0826ZM133.332 79.2039C133.332 78.5972 133.211 78.1118 132.969 77.7477C132.727 77.3837 132.363 77.2624 131.758 77.2624H131.152V81.2668H131.637C132.242 81.2668 132.606 81.1454 132.969 80.7814C133.211 80.4174 133.332 79.932 133.332 79.2039Z" fill="black"/>
<path d="M140.115 80.2959V82.9655H138.177V75.8062H140.478C142.416 75.8062 143.385 76.5342 143.385 77.869C143.385 78.7185 143.022 79.3252 142.174 79.8106L144.233 82.9655H142.053L140.478 80.2959H140.115V80.2959ZM140.115 78.8398H140.478C141.205 78.8398 141.447 78.5971 141.447 77.9904C141.447 77.505 141.084 77.2623 140.478 77.2623H140.115V78.8398Z" fill="black"/>
<path d="M153.317 79.3252C153.317 80.5387 153.075 81.5094 152.469 82.1162C151.863 82.7229 151.016 83.0869 149.926 83.0869C148.836 83.0869 147.988 82.7229 147.382 82.1162C146.776 81.5094 146.534 80.5387 146.534 79.3252C146.534 78.1118 146.776 77.2623 147.382 76.5342C147.988 75.9275 148.836 75.5635 149.926 75.5635C151.016 75.5635 151.985 75.9275 152.469 76.5342C153.075 77.141 153.317 78.1118 153.317 79.3252ZM148.351 79.3252C148.351 80.66 148.835 81.3881 149.804 81.3881C150.289 81.3881 150.652 81.2668 150.894 80.9027C151.137 80.5387 151.258 80.0533 151.258 79.3252C151.258 78.5971 151.137 78.1117 150.894 77.7477C150.652 77.3837 150.289 77.2623 149.804 77.2623C148.835 77.141 148.351 77.8691 148.351 79.3252Z" fill="black"/>
<path d="M161.432 77.9904C161.432 78.8399 161.19 79.4466 160.705 79.8106C160.221 80.296 159.615 80.4174 158.646 80.4174H158.162V82.8443H156.224V75.6849H158.646C159.494 75.6849 160.221 75.9276 160.705 76.2916C161.19 76.6556 161.432 77.2624 161.432 77.9904ZM158.162 78.9612H158.525C158.767 78.9612 159.01 78.8399 159.252 78.7185C159.494 78.5972 159.494 78.3545 159.494 77.9904C159.494 77.5051 159.252 77.2624 158.646 77.2624H158.162V78.9612Z" fill="black"/>
<path d="M84.2795 151.162H80.8883V145.094H84.2795V145.701H81.615V147.643H84.1585V148.249H81.615V150.434H84.2795V151.162Z" fill="black"/>
<path d="M88.2766 151.162L88.1555 150.555C87.9133 150.798 87.671 151.04 87.4287 151.162C87.1865 151.283 86.9443 151.283 86.581 151.283C86.0965 151.283 85.7331 151.162 85.4908 150.919C85.2486 150.676 85.1275 150.312 85.1275 149.948C85.1275 148.977 85.8542 148.492 87.3077 148.492H88.0344V148.249C88.0344 147.885 87.9133 147.643 87.7922 147.4C87.671 147.279 87.4288 147.157 87.0654 147.157C86.702 147.157 86.2176 147.279 85.7331 147.521L85.4908 147.036C85.7331 146.915 85.9753 146.793 86.2175 146.793C86.4598 146.672 86.702 146.672 87.0654 146.672C87.5499 146.672 88.0344 146.793 88.2766 147.036C88.5188 147.279 88.64 147.643 88.64 148.249V151.404H88.2766V151.162ZM86.8231 150.676C87.3076 150.676 87.5499 150.555 87.7922 150.312C88.0344 150.07 88.1555 149.705 88.1555 149.341V148.977H87.4287C86.8231 148.977 86.4598 149.099 86.2175 149.22C85.9753 149.341 85.8542 149.584 85.8542 149.948C85.8542 150.191 85.9753 150.434 86.0965 150.555C86.3387 150.676 86.4598 150.676 86.8231 150.676Z" fill="black"/>
<path d="M93.2424 149.948C93.2424 150.312 93.1212 150.676 92.7579 150.919C92.3945 151.162 92.0312 151.283 91.4256 151.283C90.8201 151.283 90.3356 151.162 89.9722 151.04V150.434C90.2145 150.555 90.4567 150.676 90.6989 150.676C90.9411 150.798 91.1834 150.798 91.4256 150.798C91.789 150.798 92.0312 150.798 92.2734 150.676C92.5156 150.555 92.5156 150.434 92.5156 150.191C92.5156 150.07 92.3945 149.827 92.2734 149.706C92.1523 149.584 91.789 149.463 91.4256 149.22C91.0623 149.099 90.6989 148.977 90.5778 148.856C90.4567 148.735 90.2145 148.613 90.2145 148.492C90.0934 148.371 90.0933 148.128 90.0933 148.007C90.0933 147.643 90.2145 147.4 90.5778 147.157C90.82 146.915 91.3045 146.793 91.789 146.793C92.2734 146.793 92.7579 146.915 93.2424 147.036L93.0001 147.643C92.5157 147.4 92.1523 147.4 91.789 147.4C91.4256 147.4 91.1833 147.4 91.0622 147.521C90.9411 147.643 90.8201 147.764 90.8201 147.885C90.8201 148.007 90.82 148.128 90.9411 148.249C91.0623 148.371 91.0623 148.371 91.1834 148.492C91.3045 148.613 91.5467 148.735 92.0312 148.856C92.5157 149.099 92.879 149.22 93.1212 149.463C93.1212 149.341 93.2424 149.584 93.2424 149.948Z" fill="black"/>
<path d="M93.6058 146.672H94.3324L95.3013 149.22C95.5436 149.827 95.6647 150.191 95.6647 150.555C95.6647 150.434 95.7858 150.191 95.9069 149.827C96.028 149.463 96.3914 148.492 96.997 146.672H97.7236L95.7858 151.89C95.5436 152.375 95.4225 152.739 95.0592 152.982C94.8169 153.225 94.4535 153.346 94.0902 153.346C93.848 153.346 93.7268 153.346 93.4846 153.225V152.618C93.6057 152.618 93.848 152.618 93.9691 152.618C94.4536 152.618 94.8169 152.375 94.938 151.768L95.1803 151.162L93.6058 146.672Z" fill="black"/>
<path d="M104.506 151.162L103.659 148.492C103.659 148.371 103.537 148.007 103.416 147.4C103.295 147.885 103.174 148.249 103.174 148.492L102.326 151.162H101.478L100.267 146.672H100.994C101.236 147.764 101.478 148.735 101.721 149.341C101.842 149.948 101.963 150.312 101.963 150.555C101.963 150.434 102.084 150.191 102.084 149.948C102.205 149.706 102.205 149.463 102.205 149.341L103.053 146.672H103.78L104.627 149.341C104.749 149.827 104.87 150.191 104.991 150.555C104.991 150.434 104.991 150.312 105.112 150.07C105.112 149.827 105.475 148.735 105.96 146.672H106.687L105.475 151.162H104.506V151.162Z" fill="black"/>
<path d="M110.199 151.162L110.078 150.555C109.835 150.798 109.593 151.04 109.351 151.162C109.109 151.283 108.866 151.283 108.503 151.283C108.019 151.283 107.655 151.162 107.413 150.919C107.171 150.676 107.05 150.312 107.05 149.948C107.05 148.977 107.776 148.492 109.23 148.492H109.957V148.249C109.957 147.885 109.835 147.643 109.714 147.4C109.593 147.279 109.351 147.157 108.988 147.157C108.624 147.157 108.14 147.279 107.655 147.521L107.413 147.036C107.655 146.915 107.897 146.793 108.14 146.793C108.382 146.672 108.624 146.672 108.988 146.672C109.472 146.672 109.957 146.793 110.199 147.036C110.441 147.279 110.562 147.643 110.562 148.249V151.404H110.199V151.162ZM108.624 150.676C109.109 150.676 109.351 150.555 109.593 150.312C109.836 150.07 109.957 149.705 109.957 149.341V148.977H109.23C108.624 148.977 108.261 149.099 108.019 149.22C107.776 149.341 107.655 149.584 107.655 149.948C107.655 150.191 107.776 150.434 107.897 150.555C108.14 150.676 108.382 150.676 108.624 150.676Z" fill="black"/>
<path d="M111.41 146.672H112.137L113.106 149.22C113.348 149.827 113.469 150.191 113.469 150.555C113.469 150.434 113.59 150.191 113.711 149.827C113.832 149.463 114.196 148.492 114.801 146.672H115.528L113.59 151.89C113.348 152.375 113.227 152.739 112.863 152.982C112.621 153.225 112.258 153.346 111.894 153.346C111.652 153.346 111.531 153.346 111.289 153.225V152.618C111.41 152.618 111.652 152.618 111.773 152.618C112.258 152.618 112.621 152.375 112.742 151.768L112.985 151.162L111.41 146.672Z" fill="black"/>
<path d="M120.009 150.676C120.131 150.676 120.252 150.676 120.373 150.676C120.494 150.676 120.615 150.676 120.615 150.676V151.162C120.494 151.162 120.373 151.283 120.252 151.283C120.131 151.283 120.009 151.283 119.888 151.283C119.04 151.283 118.556 150.798 118.556 149.948V147.279H117.95V146.915L118.556 146.672L118.798 145.701H119.162V146.793H120.494V147.279H119.162V149.948C119.162 150.191 119.283 150.434 119.404 150.555C119.646 150.555 119.767 150.676 120.009 150.676Z" fill="black"/>
<path d="M125.46 148.856C125.46 149.584 125.217 150.191 124.854 150.555C124.491 150.919 124.006 151.162 123.28 151.162C122.916 151.162 122.553 151.04 122.189 150.919C121.826 150.676 121.584 150.434 121.463 150.07C121.342 149.706 121.221 149.341 121.221 148.856C121.221 148.128 121.463 147.521 121.826 147.157C122.189 146.793 122.674 146.551 123.401 146.551C124.006 146.551 124.491 146.793 124.854 147.157C125.339 147.643 125.46 148.128 125.46 148.856ZM122.068 148.856C122.068 149.463 122.189 149.827 122.432 150.191C122.674 150.434 123.037 150.676 123.401 150.676C123.764 150.676 124.248 150.555 124.37 150.191C124.612 149.948 124.733 149.463 124.733 148.856C124.733 148.249 124.612 147.885 124.37 147.521C124.127 147.279 123.764 147.036 123.28 147.036C122.795 147.036 122.432 147.157 122.311 147.521C122.19 147.885 122.068 148.371 122.068 148.856Z" fill="black"/>
<path d="M130.91 147.157H129.699V151.162H129.093V147.157H128.245V146.793L129.093 146.551V146.308C129.093 145.216 129.578 144.609 130.547 144.609C130.789 144.609 131.031 144.609 131.395 144.73L131.273 145.337C131.031 145.216 130.789 145.216 130.547 145.216C130.305 145.216 130.062 145.337 129.941 145.458C129.82 145.58 129.699 145.944 129.699 146.308V146.551H130.91V147.157Z" fill="black"/>
<path d="M133.817 146.551C134.059 146.551 134.18 146.551 134.301 146.551L134.18 147.157C133.938 147.157 133.817 147.036 133.696 147.036C133.332 147.036 132.969 147.157 132.727 147.521C132.484 147.764 132.363 148.249 132.363 148.613V151.04H131.637V146.551H132.242L132.363 147.4C132.484 147.157 132.727 146.915 132.969 146.672C133.332 146.672 133.575 146.551 133.817 146.551Z" fill="black"/>
<path d="M137.087 151.283C136.36 151.283 135.876 151.04 135.513 150.676C135.149 150.312 134.907 149.705 134.907 148.977C134.907 148.249 135.028 147.643 135.391 147.279C135.755 146.793 136.239 146.672 136.845 146.672C137.451 146.672 137.814 146.915 138.177 147.279C138.541 147.643 138.662 148.128 138.662 148.735V149.22H135.513C135.513 149.705 135.634 150.191 135.876 150.434C136.118 150.676 136.482 150.798 136.966 150.798C137.451 150.798 137.935 150.676 138.42 150.434V151.04C138.177 151.162 137.935 151.162 137.693 151.283C137.693 151.283 137.451 151.283 137.087 151.283ZM136.966 147.157C136.603 147.157 136.36 147.279 136.118 147.521C135.876 147.764 135.755 148.128 135.755 148.492H138.177C138.177 148.007 138.056 147.764 137.935 147.521C137.572 147.279 137.329 147.157 136.966 147.157Z" fill="black"/>
<path d="M142.901 149.948C142.901 150.312 142.78 150.676 142.416 150.919C142.053 151.162 141.69 151.283 141.084 151.283C140.478 151.283 139.994 151.162 139.631 151.04V150.434C139.873 150.555 140.115 150.676 140.357 150.676C140.599 150.798 140.842 150.798 141.084 150.798C141.447 150.798 141.69 150.798 141.932 150.676C142.174 150.555 142.174 150.434 142.174 150.191C142.174 150.07 142.053 149.827 141.932 149.706C141.811 149.584 141.447 149.463 141.084 149.22C140.721 149.099 140.357 148.977 140.236 148.856C140.115 148.735 139.873 148.613 139.873 148.492C139.752 148.371 139.752 148.128 139.752 148.007C139.752 147.643 139.873 147.4 140.236 147.157C140.478 146.915 140.963 146.793 141.447 146.793C141.932 146.793 142.416 146.915 142.901 147.036L142.658 147.643C142.174 147.4 141.811 147.4 141.447 147.4C141.084 147.4 140.842 147.4 140.721 147.521C140.599 147.643 140.478 147.764 140.478 147.885C140.478 148.007 140.478 148.128 140.6 148.249C140.721 148.371 140.721 148.371 140.842 148.492C140.963 148.613 141.205 148.735 141.69 148.856C142.174 149.099 142.537 149.22 142.78 149.463C142.78 149.341 142.901 149.584 142.901 149.948Z" fill="black"/>
<path d="M147.14 151.162V148.249C147.14 147.885 147.019 147.643 146.898 147.4C146.776 147.157 146.413 147.157 146.05 147.157C145.565 147.157 145.202 147.279 144.96 147.521C144.717 147.764 144.596 148.249 144.596 148.856V151.283H143.87V144.852H144.596V146.793C144.596 147.036 144.596 147.279 144.596 147.4C144.717 147.157 144.96 147.036 145.202 146.915C145.444 146.793 145.686 146.672 146.05 146.672C146.655 146.672 147.019 146.793 147.261 147.036C147.503 147.279 147.624 147.764 147.624 148.249V151.162H147.14V151.162Z" fill="black"/>
<path d="M151.137 151.283C150.41 151.283 149.925 151.04 149.562 150.676C149.199 150.312 148.956 149.705 148.956 148.977C148.956 148.249 149.078 147.643 149.441 147.279C149.804 146.793 150.289 146.672 150.894 146.672C151.5 146.672 151.863 146.915 152.227 147.279C152.59 147.643 152.711 148.128 152.711 148.735V149.22H149.683C149.683 149.705 149.804 150.191 150.047 150.434C150.289 150.676 150.652 150.798 151.137 150.798C151.621 150.798 152.106 150.676 152.59 150.434V151.04C152.348 151.162 152.106 151.162 151.863 151.283C151.742 151.283 151.5 151.283 151.137 151.283ZM150.894 147.157C150.531 147.157 150.289 147.279 150.047 147.521C149.804 147.764 149.683 148.128 149.683 148.492H152.106C152.106 148.007 151.984 147.764 151.863 147.521C151.621 147.279 151.258 147.157 150.894 147.157Z" fill="black"/>
<path d="M157.071 151.162V148.249C157.071 147.885 156.95 147.643 156.829 147.4C156.708 147.157 156.345 147.157 155.981 147.157C155.497 147.157 155.134 147.279 154.891 147.521C154.649 147.764 154.528 148.249 154.528 148.735V151.162H153.801V146.672H154.407L154.528 147.279C154.649 147.036 154.891 146.915 155.134 146.793C155.376 146.672 155.618 146.551 155.981 146.551C156.587 146.551 156.95 146.672 157.193 146.915C157.435 147.157 157.556 147.643 157.556 148.128V151.04H157.071V151.162Z" fill="black"/>
<path d="M162.037 146.672V149.584C162.037 149.948 162.159 150.191 162.28 150.434C162.401 150.676 162.764 150.676 163.127 150.676C163.612 150.676 163.975 150.555 164.218 150.312C164.46 150.07 164.581 149.584 164.581 149.099V146.672H165.308V151.162H164.702L164.581 150.555C164.46 150.798 164.218 150.919 163.975 151.04C163.733 151.162 163.491 151.162 163.127 151.162C162.522 151.162 162.158 151.04 161.916 150.798C161.674 150.555 161.553 150.07 161.553 149.584V146.551H162.037V146.672Z" fill="black"/>
<path d="M168.699 151.283C168.457 151.283 168.093 151.283 167.851 151.162C167.609 151.04 167.367 150.919 167.246 150.676C167.246 150.919 167.246 151.162 167.246 151.404V153.225H166.64V146.672H167.246L167.367 147.279C167.488 147.036 167.73 146.793 167.972 146.793C168.214 146.672 168.457 146.672 168.82 146.672C169.426 146.672 169.91 146.915 170.273 147.279C170.637 147.643 170.758 148.249 170.758 148.977C170.758 149.706 170.637 150.312 170.273 150.676C169.789 151.04 169.304 151.283 168.699 151.283ZM168.578 147.157C168.093 147.157 167.73 147.279 167.609 147.521C167.488 147.764 167.246 148.128 167.246 148.735V148.856C167.246 149.463 167.367 149.948 167.609 150.191C167.851 150.434 168.214 150.555 168.578 150.555C168.941 150.555 169.305 150.434 169.547 150.07C169.789 149.706 169.91 149.341 169.91 148.735C169.91 148.128 169.789 147.764 169.547 147.4C169.305 147.279 169.062 147.157 168.578 147.157Z" fill="black"/>
<path d="M96.1492 156.865H96.876L97.8449 159.413C98.0871 160.02 98.2082 160.384 98.2082 160.748C98.2082 160.627 98.3294 160.384 98.4505 160.02C98.5716 159.656 98.9349 158.685 99.5405 156.865H100.267L98.3293 162.083C98.0871 162.568 97.966 162.932 97.6027 163.175C97.3604 163.418 96.9971 163.539 96.6337 163.539C96.3915 163.539 96.2704 163.539 96.0281 163.418V162.811C96.1493 162.811 96.3914 162.811 96.5126 162.811C96.997 162.811 97.3605 162.568 97.4816 161.961L97.7237 161.355L96.1492 156.865Z" fill="black"/>
<path d="M105.112 159.049C105.112 159.777 104.87 160.384 104.507 160.748C104.143 161.112 103.659 161.355 102.932 161.355C102.569 161.355 102.205 161.233 101.842 161.112C101.478 160.869 101.236 160.627 101.115 160.263C100.994 159.898 100.873 159.534 100.873 159.049C100.873 158.321 101.115 157.714 101.478 157.35C101.842 156.986 102.326 156.744 103.053 156.744C103.659 156.744 104.143 156.986 104.507 157.35C104.87 157.836 105.112 158.321 105.112 159.049ZM101.6 159.049C101.6 159.656 101.721 160.02 101.963 160.384C102.205 160.748 102.569 160.869 102.932 160.869C103.416 160.869 103.78 160.748 103.901 160.384C104.143 160.141 104.264 159.656 104.264 159.049C104.264 158.442 104.143 158.078 103.901 157.714C103.659 157.472 103.295 157.229 102.811 157.229C102.326 157.229 101.963 157.35 101.842 157.714C101.721 158.078 101.6 158.564 101.6 159.049Z" fill="black"/>
<path d="M106.929 156.865V159.777C106.929 160.141 107.05 160.384 107.171 160.627C107.292 160.869 107.655 160.869 108.019 160.869C108.503 160.869 108.866 160.748 109.109 160.505C109.351 160.263 109.472 159.777 109.472 159.292V156.865H110.199V161.355H109.593L109.472 160.748C109.351 160.991 109.109 161.112 108.866 161.233C108.624 161.355 108.382 161.355 108.019 161.355C107.413 161.355 107.05 161.233 106.807 160.991C106.565 160.748 106.444 160.263 106.444 159.777V156.744H106.929V156.865Z" fill="black"/>
<path d="M113.59 156.744C113.832 156.744 113.953 156.744 114.075 156.744L113.953 157.35C113.711 157.35 113.59 157.229 113.469 157.229C113.106 157.229 112.742 157.35 112.5 157.714C112.258 157.957 112.137 158.442 112.137 158.806V161.233H111.41V156.744H112.016L112.137 157.593C112.258 157.35 112.5 157.108 112.742 156.865C113.106 156.865 113.348 156.744 113.59 156.744Z" fill="black"/>
<path d="M120.857 161.355L120.009 158.685C120.009 158.564 119.888 158.2 119.767 157.593C119.646 158.078 119.525 158.442 119.525 158.685L118.677 161.355H117.829L116.618 156.865H117.345C117.587 157.957 117.829 158.928 118.072 159.413C118.193 160.02 118.314 160.384 118.314 160.627C118.314 160.505 118.435 160.263 118.435 160.02C118.556 159.777 118.556 159.534 118.556 159.413L119.404 156.865H120.131L120.978 159.413C121.1 159.898 121.221 160.263 121.342 160.627C121.342 160.505 121.342 160.384 121.463 160.141C121.463 159.898 121.826 158.806 122.311 156.744H123.037L121.826 161.233H120.857V161.355Z" fill="black"/>
<path d="M126.55 161.355L126.429 160.748C126.186 160.991 125.944 161.233 125.702 161.355C125.46 161.476 125.218 161.476 124.854 161.476C124.37 161.476 124.006 161.355 123.764 161.112C123.522 160.869 123.401 160.505 123.401 160.141C123.401 159.17 124.127 158.685 125.581 158.685H126.308V158.442C126.308 158.078 126.187 157.836 126.065 157.593C125.944 157.472 125.702 157.35 125.339 157.35C124.975 157.35 124.491 157.472 124.006 157.714L123.764 157.229C124.006 157.108 124.249 156.986 124.491 156.986C124.733 156.865 124.975 156.865 125.339 156.865C125.823 156.865 126.308 156.986 126.55 157.229C126.792 157.472 126.913 157.836 126.913 158.442V161.597H126.55V161.355ZM124.975 160.869C125.46 160.869 125.702 160.748 125.944 160.505C126.187 160.263 126.308 159.899 126.308 159.534V159.17H125.581C124.975 159.17 124.612 159.292 124.37 159.413C124.127 159.534 124.006 159.777 124.006 160.141C124.006 160.384 124.127 160.627 124.249 160.748C124.491 160.869 124.733 160.869 124.975 160.869Z" fill="black"/>
<path d="M130.547 156.744C130.789 156.744 130.91 156.744 131.031 156.744L130.91 157.35C130.668 157.35 130.547 157.229 130.426 157.229C130.062 157.229 129.699 157.35 129.457 157.714C129.214 157.957 129.093 158.442 129.093 158.806V161.233H128.366V156.744H128.972L129.093 157.593C129.214 157.35 129.457 157.108 129.699 156.865C130.062 156.865 130.304 156.744 130.547 156.744Z" fill="black"/>
<path d="M135.028 160.748C134.665 161.233 134.18 161.476 133.575 161.476C132.969 161.476 132.484 161.233 132.242 160.869C131.879 160.505 131.758 159.899 131.758 159.17C131.758 158.442 131.879 157.836 132.242 157.472C132.606 157.108 133.09 156.865 133.575 156.865C134.18 156.865 134.665 157.108 135.028 157.593V157.229V156.865V155.045H135.755V161.476H135.149L135.028 160.748ZM133.696 160.869C134.18 160.869 134.543 160.748 134.665 160.505C134.907 160.263 135.028 159.777 135.028 159.292V159.17C135.028 158.564 134.907 158.078 134.665 157.836C134.422 157.593 134.059 157.472 133.696 157.472C133.332 157.472 132.969 157.593 132.727 157.957C132.484 158.321 132.363 158.685 132.363 159.292C132.363 159.899 132.484 160.263 132.727 160.627C132.969 160.748 133.211 160.869 133.696 160.869Z" fill="black"/>
<path d="M139.267 156.744C139.509 156.744 139.63 156.744 139.751 156.744L139.63 157.35C139.388 157.35 139.267 157.229 139.146 157.229C138.783 157.229 138.419 157.35 138.177 157.714C137.935 157.957 137.814 158.442 137.814 158.806V161.233H137.087V156.744H137.692L137.814 157.593C137.935 157.35 138.177 157.108 138.419 156.865C138.661 156.865 138.904 156.744 139.267 156.744Z" fill="black"/>
<path d="M144.475 159.049C144.475 159.777 144.233 160.384 143.87 160.748C143.506 161.112 143.022 161.355 142.295 161.355C141.932 161.355 141.568 161.233 141.205 161.112C140.842 160.869 140.6 160.627 140.478 160.263C140.357 159.898 140.236 159.534 140.236 159.049C140.236 158.321 140.478 157.714 140.842 157.35C141.205 156.986 141.69 156.744 142.416 156.744C143.022 156.744 143.506 156.986 143.87 157.35C144.354 157.836 144.475 158.321 144.475 159.049ZM141.084 159.049C141.084 159.656 141.205 160.02 141.447 160.384C141.69 160.748 142.053 160.869 142.416 160.869C142.901 160.869 143.264 160.748 143.385 160.384C143.627 160.141 143.748 159.656 143.748 159.049C143.748 158.442 143.627 158.078 143.385 157.714C143.143 157.472 142.78 157.229 142.295 157.229C141.811 157.229 141.447 157.35 141.326 157.714C141.205 158.078 141.084 158.564 141.084 159.049Z" fill="black"/>
<path d="M147.867 156.744C148.472 156.744 148.957 156.986 149.199 157.35C149.562 157.714 149.683 158.321 149.683 159.049C149.683 159.777 149.562 160.384 149.199 160.748C148.835 161.112 148.351 161.355 147.867 161.355C147.624 161.355 147.261 161.355 147.019 161.233C146.776 161.112 146.534 160.991 146.413 160.748L146.292 161.355H145.808V154.923H146.534V156.501C146.534 156.865 146.534 157.108 146.534 157.472C146.777 156.986 147.261 156.744 147.867 156.744ZM147.745 157.35C147.261 157.35 146.898 157.472 146.776 157.714C146.534 157.957 146.413 158.442 146.413 159.049C146.413 159.656 146.534 160.141 146.776 160.384C147.019 160.627 147.382 160.748 147.745 160.748C148.109 160.748 148.472 160.627 148.714 160.263C148.957 159.899 149.078 159.535 149.078 158.928C149.078 158.321 148.957 157.836 148.714 157.593C148.472 157.472 148.23 157.35 147.745 157.35Z" fill="black"/>
<path d="M152.832 161.476C152.106 161.476 151.621 161.233 151.258 160.869C150.894 160.505 150.652 159.899 150.652 159.17C150.652 158.442 150.773 157.836 151.137 157.472C151.5 156.986 151.985 156.865 152.59 156.865C153.196 156.865 153.559 157.108 153.923 157.472C154.286 157.836 154.407 158.321 154.407 158.928V159.413H151.258C151.258 159.899 151.379 160.384 151.621 160.627C151.863 160.869 152.227 160.991 152.711 160.991C153.196 160.991 153.68 160.869 154.165 160.627V161.233C153.923 161.355 153.68 161.355 153.438 161.476C153.438 161.476 153.196 161.476 152.832 161.476ZM152.711 157.35C152.348 157.35 152.106 157.472 151.863 157.714C151.621 157.957 151.5 158.321 151.5 158.685H153.923C153.923 158.2 153.801 157.957 153.68 157.714C153.317 157.472 153.075 157.35 152.711 157.35Z" fill="black"/>
</svg>
