<svg width="156" height="36" viewBox="0 0 156 36" fill="none" xmlns="http://www.w3.org/2000/svg">
<path d="M0.776396 1.28015H2.35094L6.46898 10.6238L10.587 1.28015H12.1615V12.5653H10.7081V4.19246L6.95345 12.5653H5.86339L2.10871 4.19246V12.5653H0.655289V1.28015H0.776396Z" fill="black"/>
<path d="M18.4597 3.46442C20.1553 3.46442 21.2454 4.31383 21.7298 5.2846V3.70712H23.1832V12.5653H21.7298V10.8665C21.2454 11.8373 20.0342 12.6867 18.4597 12.6867C16.0373 12.6867 14.2205 10.8665 14.2205 8.07553C14.2205 5.28458 16.0373 3.46442 18.4597 3.46442ZM18.823 4.79922C17.2485 4.79922 15.7951 6.01266 15.7951 8.07553C15.7951 10.1384 17.1274 11.4732 18.823 11.4732C20.3975 11.4732 21.851 10.2598 21.851 8.19688C21.7298 6.01266 20.3975 4.79922 18.823 4.79922Z" fill="black"/>
<path d="M32.2671 7.46879C32.2671 5.64862 31.2982 4.67787 29.7236 4.67787C28.2702 4.67787 27.1801 5.64862 27.1801 7.59015V12.5653H25.7267V3.70712H27.1801V4.92057C27.7857 3.94981 28.8758 3.46442 30.087 3.46442C32.146 3.46442 33.7205 4.67788 33.7205 7.34748V12.5653H32.2671V7.46879Z" fill="black"/>
<path d="M39.8975 3.46442C41.5932 3.46442 42.6832 4.31383 43.1677 5.2846V3.70712H44.6211V12.5653H43.1677V10.8665C42.6832 11.8373 41.472 12.6867 39.8975 12.6867C37.4752 12.6867 35.6584 10.8665 35.6584 8.07553C35.6584 5.28458 37.4752 3.46442 39.8975 3.46442ZM40.1397 4.79922C38.5652 4.79922 37.1118 6.01266 37.1118 8.07553C37.1118 10.1384 38.4441 11.4732 40.1397 11.4732C41.7143 11.4732 43.1677 10.2598 43.1677 8.19688C43.1677 6.01266 41.7143 4.79922 40.1397 4.79922Z" fill="black"/>
<path d="M50.7982 3.46442C52.3727 3.46442 53.5839 4.31383 54.0683 5.28459V3.70712H55.5218V12.808C55.5218 15.2349 53.8261 17.0551 51.2826 17.0551C48.9814 17.0551 47.2857 15.8416 46.9224 14.0215H48.3758C48.7391 15.1136 49.7081 15.8416 51.1615 15.8416C52.736 15.8416 53.9472 14.8708 53.9472 12.9293V11.1091C53.4628 12.0799 52.2516 12.9293 50.677 12.9293C48.2547 12.9293 46.4379 11.1092 46.4379 8.31822C46.559 5.28459 48.3758 3.46442 50.7982 3.46442ZM51.1615 4.79922C49.587 4.79922 48.1336 6.01265 48.1336 8.07552C48.1336 10.1384 49.4659 11.4732 51.1615 11.4732C52.736 11.4732 54.1895 10.2597 54.1895 8.19687C54.1895 6.01266 52.736 4.79922 51.1615 4.79922Z" fill="black"/>
<path d="M61.941 12.6867C59.3975 12.6867 57.5808 10.8665 57.5808 8.07553C57.5808 5.28458 59.3975 3.46442 61.941 3.46442C64.4845 3.46442 66.1801 5.2846 66.1801 7.71151C66.1801 8.07554 66.1801 8.31825 66.1801 8.56094H59.0342C59.1553 10.3811 60.3665 11.3519 61.941 11.3519C63.2733 11.3519 64.1211 10.6238 64.4845 9.65304H66.059C65.5745 11.4732 64.2422 12.6867 61.941 12.6867ZM59.1553 7.4688H64.7267C64.7267 5.76996 63.3944 4.79922 61.941 4.79922C60.4876 4.67788 59.2764 5.64862 59.1553 7.4688Z" fill="black"/>
<path d="M76.233 3.46442C77.9286 3.46442 79.0187 4.31383 79.5031 5.2846V3.70712H80.9566V12.5653H79.5031V10.8665C79.0187 11.8373 77.8075 12.6867 76.233 12.6867C73.8106 12.6867 71.9939 10.8665 71.9939 8.07553C71.9939 5.28458 73.8106 3.46442 76.233 3.46442ZM76.4752 4.79922C74.9007 4.79922 73.4472 6.01266 73.4472 8.07553C73.4472 10.1384 74.7795 11.4732 76.4752 11.4732C78.0497 11.4732 79.5031 10.2598 79.5031 8.19688C79.5031 6.01266 78.1708 4.79922 76.4752 4.79922Z" fill="black"/>
<path d="M83.5 0.552124H84.9534V12.5653H83.5V0.552124Z" fill="black"/>
<path d="M87.4969 0.552124H88.9504V12.5653H87.4969V0.552124Z" fill="black"/>
<path d="M99.0031 12.6867C96.9441 12.6867 95.4907 11.5945 95.3696 9.89571H96.9441C97.0652 10.7451 97.792 11.3519 99.0031 11.3519C100.214 11.3519 100.82 10.7451 100.82 10.0171C100.82 8.07554 95.6119 9.16766 95.6119 5.89134C95.6119 4.55654 96.9441 3.34308 98.882 3.34308C100.82 3.34308 102.152 4.43521 102.273 6.13404H100.82C100.699 5.28462 100.093 4.55653 98.882 4.55653C97.792 4.55653 97.1864 5.04191 97.1864 5.76998C97.1864 7.83285 102.394 6.74074 102.394 9.89571C102.273 11.5945 100.941 12.6867 99.0031 12.6867Z" fill="black"/>
<path d="M108.208 12.6867C105.665 12.6867 103.727 10.8665 103.727 8.07553C103.727 5.28458 105.665 3.46442 108.208 3.46442C110.752 3.46442 112.689 5.28458 112.689 8.07553C112.811 10.8665 110.752 12.6867 108.208 12.6867ZM108.208 11.3519C109.783 11.3519 111.236 10.2597 111.236 8.07553C111.236 5.76996 109.783 4.79922 108.208 4.79922C106.634 4.79922 105.18 5.89131 105.18 8.07553C105.301 10.3811 106.634 11.3519 108.208 11.3519Z" fill="black"/>
<path d="M118.503 3.46442C120.683 3.46442 122.137 4.55652 122.621 6.49804H121.047C120.683 5.40594 119.835 4.79922 118.503 4.79922C116.929 4.79922 115.717 6.01266 115.717 8.19687C115.717 10.3811 116.929 11.5946 118.503 11.5946C119.835 11.5946 120.683 10.9878 121.047 9.89569H122.621C122.137 11.7159 120.683 12.9293 118.503 12.9293C115.96 12.9293 114.143 11.1092 114.143 8.31822C114.143 5.28459 115.96 3.46442 118.503 3.46442Z" fill="black"/>
<path d="M124.317 1.15882C124.317 0.55209 124.801 0.188049 125.286 0.188049C125.77 0.188049 126.255 0.673435 126.255 1.15882C126.255 1.76555 125.77 2.12957 125.286 2.12957C124.801 2.12957 124.317 1.76555 124.317 1.15882ZM124.559 3.58573H126.012V12.4439H124.559V3.58573Z" fill="black"/>
<path d="M132.189 3.46442C133.885 3.46442 134.975 4.31383 135.46 5.2846V3.70712H136.913V12.5653H135.46V10.8665C134.975 11.8373 133.764 12.6867 132.189 12.6867C129.767 12.6867 127.95 10.8665 127.95 8.07553C127.95 5.28458 129.888 3.46442 132.189 3.46442ZM132.553 4.79922C130.978 4.79922 129.525 6.01266 129.525 8.07553C129.525 10.1384 130.857 11.4732 132.553 11.4732C134.127 11.4732 135.581 10.2598 135.581 8.19688C135.581 6.01266 134.127 4.79922 132.553 4.79922Z" fill="black"/>
<path d="M139.578 0.552124H141.031V12.5653H139.578V0.552124Z" fill="black"/>
<path d="M13.6149 26.6414C13.6149 24.8212 12.646 23.8504 11.1926 23.8504C9.73914 23.8504 8.64906 24.8212 8.64906 26.7627V31.7378H7.19565V26.6414C7.19565 24.8212 6.2267 23.8504 4.77328 23.8504C3.31986 23.8504 2.2298 24.8212 2.2298 26.7627V31.7378H0.776367V22.8797H2.2298V24.2145C2.8354 23.2437 3.92545 22.7583 5.01551 22.7583C6.46893 22.7583 7.68013 23.365 8.28572 24.6998C8.7702 23.365 10.1025 22.7583 11.4348 22.7583C13.4938 22.7583 15.0683 23.9718 15.0683 26.6414V31.8592H13.6149V26.6414Z" fill="black"/>
<path d="M21.3664 31.8592C18.823 31.8592 17.0062 30.039 17.0062 27.2481C17.0062 24.4572 18.823 22.637 21.3664 22.637C23.9099 22.637 25.6055 24.4571 25.6055 26.884C25.6055 27.2481 25.6055 27.4908 25.6055 27.7335H18.4596C18.5808 29.5536 19.7919 30.5244 21.3664 30.5244C22.6987 30.5244 23.5466 29.7963 23.9099 28.8256H25.4844C25 30.5244 23.5466 31.8592 21.3664 31.8592ZM18.5808 26.52H24.1521C24.1521 24.8212 22.8199 23.8504 21.3664 23.8504C19.913 23.8504 18.7019 24.8212 18.5808 26.52Z" fill="black"/>
<path d="M31.2982 22.637C32.7516 22.637 33.9628 23.3651 34.5684 24.3358V19.6033H36.0218V31.6165H34.5684V29.9177C34.0839 30.8884 32.8727 31.7379 31.2982 31.7379C28.8758 31.7379 27.059 29.9177 27.059 27.1268C27.059 24.4572 28.8758 22.637 31.2982 22.637ZM31.5404 23.9718C29.9658 23.9718 28.5124 25.1852 28.5124 27.2481C28.5124 29.311 29.8447 30.6458 31.5404 30.6458C33.1149 30.6458 34.5684 29.4323 34.5684 27.3695C34.5684 25.1852 33.2361 23.9718 31.5404 23.9718Z" fill="black"/>
<path d="M38.323 20.3314C38.323 19.7247 38.8075 19.3607 39.2919 19.3607C39.7764 19.3607 40.2609 19.846 40.2609 20.3314C40.2609 20.9381 39.7764 21.3022 39.2919 21.3022C38.8075 21.3022 38.323 20.9381 38.323 20.3314ZM38.5652 22.7583H40.0186V31.6165H38.5652V22.7583Z" fill="black"/>
<path d="M46.3168 22.637C48.0125 22.637 49.1025 23.4864 49.587 24.4571V22.8797H51.0404V31.7378H49.587V30.039C49.1025 31.0098 47.8913 31.8592 46.3168 31.8592C43.8944 31.8592 42.0777 30.039 42.0777 27.2481C42.0777 24.4572 43.8944 22.637 46.3168 22.637ZM46.559 23.9718C44.9845 23.9718 43.5311 25.1852 43.5311 27.2481C43.5311 29.311 44.8634 30.6457 46.559 30.6457C48.1336 30.6457 49.587 29.4323 49.587 27.3694C49.587 25.1852 48.1336 23.9718 46.559 23.9718Z" fill="black"/>
<path d="M57.7019 20.3314C57.7019 19.7247 58.1863 19.3607 58.6708 19.3607C59.1553 19.3607 59.6398 19.846 59.6398 20.3314C59.6398 20.9381 59.1553 21.3022 58.6708 21.3022C58.0652 21.3022 57.7019 20.9381 57.7019 20.3314ZM57.9441 22.7583H59.3975V31.6165H57.9441V22.7583Z" fill="black"/>
<path d="M68.3603 26.6414C68.3603 24.8212 67.3913 23.8504 65.8168 23.8504C64.3634 23.8504 63.2733 24.8212 63.2733 26.7627V31.7379H61.8199V22.8797H63.2733V24.0931C63.8789 23.1224 64.9689 22.637 66.1801 22.637C68.2391 22.637 69.8136 23.8504 69.8136 26.52V31.7379H68.3603V26.6414V26.6414Z" fill="black"/>
<path d="M80.4721 31.8592C77.9286 31.8592 75.9907 30.039 75.9907 27.2481C75.9907 24.4572 77.9286 22.637 80.4721 22.637C83.0156 22.637 84.9534 24.4572 84.9534 27.2481C85.0745 30.039 83.0156 31.8592 80.4721 31.8592ZM80.4721 30.5244C82.0466 30.5244 83.5 29.4323 83.5 27.2481C83.5 24.9425 82.0466 23.9718 80.4721 23.9718C78.8976 23.9718 77.4441 25.0639 77.4441 27.2481C77.5653 29.4323 79.0187 30.5244 80.4721 30.5244Z" fill="black"/>
<path d="M93.5528 26.6414C93.5528 24.8212 92.5838 23.8504 91.0093 23.8504C89.5559 23.8504 88.4658 24.8212 88.4658 26.7627V31.7379H87.0124V22.8797H88.4658V24.0931C89.0714 23.1224 90.1615 22.637 91.3727 22.637C93.4317 22.637 95.0062 23.8504 95.0062 26.52V31.7379H93.5528V26.6414Z" fill="black"/>
<path d="M101.304 31.8592C98.7609 31.8592 96.9441 30.039 96.9441 27.2481C96.9441 24.4572 98.7609 22.637 101.304 22.637C103.848 22.637 105.543 24.4571 105.543 26.884C105.543 27.2481 105.543 27.4908 105.543 27.7335H98.3975C98.5187 29.5536 99.7298 30.5244 101.304 30.5244C102.637 30.5244 103.484 29.7963 103.848 28.8256H105.422C104.938 30.5244 103.484 31.8592 101.304 31.8592ZM98.3975 26.52H103.969C103.969 24.8212 102.637 23.8504 101.183 23.8504C99.7298 23.8504 98.5187 24.8212 98.3975 26.52Z" fill="black"/>
<path d="M116.565 22.637C118.988 22.637 120.804 24.4572 120.804 27.2481C120.804 30.0391 118.988 31.8592 116.565 31.8592C114.991 31.8592 113.779 31.0098 113.295 30.039V35.8636H111.842V22.7583H113.295V24.4571C113.779 23.4864 114.991 22.637 116.565 22.637ZM116.323 23.9718C114.748 23.9718 113.295 25.1852 113.295 27.2481C113.295 29.311 114.748 30.5244 116.323 30.5244C118.019 30.5244 119.351 29.311 119.351 27.1268C119.351 25.0639 117.898 23.9718 116.323 23.9718Z" fill="black"/>
<path d="M122.742 19.6033H124.196V31.6165H122.742V19.6033Z" fill="black"/>
<path d="M130.494 22.637C132.189 22.637 133.28 23.4864 133.764 24.4571V22.8797H135.217V31.7378H133.764V30.039C133.28 31.0098 132.068 31.8592 130.494 31.8592C128.071 31.8592 126.255 30.039 126.255 27.2481C126.255 24.4572 128.071 22.637 130.494 22.637ZM130.736 23.9718C129.162 23.9718 127.708 25.1852 127.708 27.2481C127.708 29.311 129.04 30.6457 130.736 30.6457C132.311 30.6457 133.764 29.4323 133.764 27.3694C133.764 25.1852 132.432 23.9718 130.736 23.9718Z" fill="black"/>
<path d="M141.516 22.637C143.696 22.637 145.149 23.7291 145.634 25.6706H144.059C143.696 24.5785 142.848 23.9718 141.516 23.9718C139.941 23.9718 138.73 25.1852 138.73 27.2481C138.73 29.4323 139.941 30.6458 141.516 30.6458C142.848 30.6458 143.696 30.039 144.059 28.9469H145.634C145.149 30.7671 143.696 31.9806 141.516 31.9806C138.972 31.9806 137.155 30.1604 137.155 27.3695C137.155 24.4572 138.972 22.637 141.516 22.637Z" fill="black"/>
<path d="M151.447 31.8592C148.904 31.8592 147.087 30.039 147.087 27.2481C147.087 24.4572 148.904 22.637 151.447 22.637C153.991 22.637 155.686 24.4571 155.686 26.884C155.686 27.2481 155.686 27.4908 155.686 27.7335H148.54C148.661 29.5536 149.873 30.5244 151.447 30.5244C152.779 30.5244 153.627 29.7963 153.991 28.8256H155.565C155.081 30.5244 153.627 31.8592 151.447 31.8592ZM148.54 26.52H154.112C154.112 24.8212 152.78 23.8504 151.326 23.8504C149.994 23.8504 148.783 24.8212 148.54 26.52Z" fill="black"/>
</svg>
