<svg width="350" height="233" viewBox="0 0 350 233" fill="none" xmlns="http://www.w3.org/2000/svg">
<path d="M17.7423 41.8438C9.14288 41.8438 2.36027 37.718 1.99692 29.4665H13.5031C13.7454 32.3788 15.441 33.3496 17.3789 33.3496C19.3168 33.3496 20.7702 32.3788 20.7702 30.5586C20.7702 24.37 1.8758 27.2823 2.11803 13.813C2.11803 6.16821 8.41617 2.16382 16.6522 2.16382C25.4938 2.16382 31.4286 6.53225 31.7919 14.177H20.0435C19.9224 11.7501 18.469 10.658 16.5311 10.658C14.9565 10.658 13.6242 11.5074 13.6242 13.4489C13.6242 19.2735 32.2764 17.332 32.2764 29.8306C32.1553 36.6259 26.9472 41.8438 17.7423 41.8438Z" fill="#F6E7E5"/>
<path d="M51.0497 10.2939C58.8013 10.2939 64.6149 14.7837 66.0683 22.5498H54.6832C54.0777 20.7297 52.8665 19.5162 50.8075 19.5162C48.1429 19.5162 46.4472 21.7004 46.4472 26.0688C46.4472 30.5586 48.264 32.7428 50.8075 32.7428C52.8665 32.7428 54.0777 31.6507 54.6832 29.7092H66.0683C64.4938 37.354 58.8013 41.9651 51.0497 41.9651C41.8447 41.9651 35.4255 36.0192 35.4255 26.0688C35.4255 16.2399 41.8447 10.2939 51.0497 10.2939Z" fill="#F6E7E5"/>
<path d="M70.5497 0.828979H81.3292V15.0264C83.146 12.3568 86.4162 10.2939 90.7764 10.2939C97.8013 10.2939 102.283 15.3904 102.283 23.3992V41.3583H91.5031V24.9767C91.5031 21.4577 89.5652 19.2735 86.4162 19.2735C83.2671 19.2735 81.2081 21.3364 81.2081 24.9767V41.4797H70.4286V0.828979H70.5497Z" fill="#F6E7E5"/>
<path d="M122.146 41.8438C113.062 41.8438 106.522 35.8978 106.522 25.9475C106.522 16.1185 112.941 10.1726 122.146 10.1726C131.23 10.1726 137.649 16.1185 137.649 25.5835C137.649 26.4329 137.649 27.2823 137.528 28.1317H117.18C117.422 31.6507 119.36 33.1069 121.783 33.1069C123.842 33.1069 125.053 31.8934 125.658 30.68H137.165C135.59 37.1113 129.776 41.8438 122.146 41.8438ZM117.18 23.0352H126.627C126.627 20.2443 124.447 18.7881 122.025 18.7881C119.481 18.7881 117.665 20.2443 117.18 23.0352Z" fill="#F6E7E5"/>
<path d="M153.516 10.2939C157.634 10.2939 160.783 12.1141 162.478 14.905V0.828979H173.258V41.601H162.478V37.3539C160.904 40.1449 157.755 42.0864 153.516 42.0864C146.248 42.0864 140.435 36.1405 140.435 26.1902C140.314 16.2398 146.127 10.2939 153.516 10.2939ZM156.907 19.6375C153.879 19.6375 151.335 21.8217 151.335 26.0688C151.335 30.1946 153.879 32.5001 156.907 32.5001C159.935 32.5001 162.478 30.1946 162.478 26.0688C162.478 21.9431 159.935 19.6375 156.907 19.6375Z" fill="#F6E7E5"/>
<path d="M210.925 41.4797H200.146V37.1112C198.329 39.7808 195.18 41.8437 190.82 41.8437C183.674 41.8437 179.193 36.7472 179.193 28.6171V10.658H189.851V27.1609C189.851 30.6799 191.91 32.8642 194.938 32.8642C198.087 32.8642 200.025 30.8013 200.025 27.1609V10.658H210.804V41.4797H210.925Z" fill="#F6E7E5"/>
<path d="M217.103 0.828979H227.882V41.601H217.103V0.828979Z" fill="#F6E7E5"/>
<path d="M247.867 41.8438C238.783 41.8438 232.242 35.8978 232.242 25.9475C232.242 16.1185 238.662 10.1726 247.867 10.1726C256.95 10.1726 263.37 16.1185 263.37 25.5835C263.37 26.4329 263.37 27.2823 263.248 28.1317H242.901C243.143 31.6507 245.081 33.1069 247.503 33.1069C249.562 33.1069 250.773 31.8934 251.379 30.68H262.885C261.311 37.1113 255.618 41.8438 247.867 41.8438ZM242.901 23.0352H252.348C252.348 20.2443 250.168 18.7881 247.745 18.7881C245.323 18.7881 243.506 20.2443 242.901 23.0352Z" fill="#F6E7E5"/>
<path d="M19.1957 91.838H13.8665V104.943H3.08698V66.1128H19.1957C28.764 66.1128 33.7298 71.5733 33.7298 79.0967C33.7298 85.7707 29.1274 91.838 19.1957 91.838ZM18.2267 83.2225C21.4969 83.2225 22.8292 81.5237 22.8292 79.0967C22.8292 76.5485 21.4969 74.8497 18.2267 74.8497H13.9876V83.2225H18.2267Z" fill="#F6E7E5"/>
<path d="M52.382 105.307C43.177 105.307 36.2733 99.3614 36.2733 89.4111C36.2733 79.5822 43.2982 73.6362 52.382 73.6362C61.4659 73.6362 68.4907 79.5822 68.4907 89.4111C68.6118 99.3614 61.587 105.307 52.382 105.307ZM52.382 95.9638C55.1677 95.9638 57.7112 93.9009 57.7112 89.4111C57.7112 85.0427 55.2888 82.9798 52.5031 82.9798C49.7174 82.9798 47.2951 85.0427 47.2951 89.4111C47.2951 93.9009 49.5963 95.9638 52.382 95.9638Z" fill="#F6E7E5"/>
<path d="M86.1739 105.307C77.5745 105.307 71.882 100.696 71.3975 94.5076H81.8137C82.0559 96.5705 83.7516 97.6626 86.0528 97.6626C87.8696 97.6626 88.9596 96.8132 88.9596 95.7211C88.9596 91.2313 72.6087 94.8717 72.6087 83.5866C72.6087 78.2474 77.0901 73.7576 85.4472 73.7576C93.8044 73.7576 98.2857 78.49 99.0124 84.5573H89.323C88.9596 82.6158 87.6273 81.5237 85.3261 81.5237C83.5093 81.5237 82.6615 82.2517 82.6615 83.3439C82.6615 87.7123 99.1335 84.1933 99.1335 95.9638C98.8913 101.182 94.0466 105.307 86.1739 105.307Z" fill="#F6E7E5"/>
<path d="M105.916 82.9798H102.161V74.0002H105.916V66.4768H116.696V74.0002H122.267V82.9798H116.696V93.2941C116.696 94.993 117.422 95.721 119.239 95.721H122.388V104.943H117.665C110.882 104.943 105.795 102.031 105.795 93.1728V82.9798H105.916Z" fill="#F6E7E5"/>
<path d="M140.435 105.307C131.835 105.307 126.143 100.696 125.658 94.5076H136.075C136.317 96.5705 138.012 97.6626 140.314 97.6626C142.13 97.6626 143.221 96.8132 143.221 95.7211C143.221 91.2313 126.87 94.8717 126.87 83.5866C126.87 78.2474 131.351 73.7576 139.708 73.7576C148.065 73.7576 152.547 78.49 153.273 84.5573H143.584C143.221 82.6158 141.888 81.5237 139.587 81.5237C137.77 81.5237 136.922 82.2517 136.922 83.3439C136.922 87.7123 153.394 84.1933 153.394 95.9638C153.273 101.182 148.429 105.307 140.435 105.307Z" fill="#F6E7E5"/>
<path d="M27.6739 161.976H13.8665L11.8075 168.286H0.543488L14.7143 129.455H27.0683L41.118 168.286H29.7329L27.6739 161.976ZM20.7702 141.226L16.6522 153.724H24.8882L20.7702 141.226Z" fill="#F6E7E5"/>
<path d="M65.5839 151.783C65.5839 148.264 63.646 146.079 60.4969 146.079C57.3478 146.079 55.2888 148.142 55.2888 151.783V168.407H44.5093V137.585H55.2888V141.954C57.1056 139.284 60.3758 137.221 64.736 137.221C71.882 137.221 76.3634 142.318 76.3634 150.326V168.286H65.5839V151.783Z" fill="#F6E7E5"/>
<path d="M93.6833 137.1C97.8013 137.1 100.95 138.92 102.646 141.711V127.635H113.425V168.407H102.646V164.16C101.071 166.951 97.9224 168.892 93.6833 168.892C86.4162 168.892 80.6025 162.946 80.6025 152.996C80.6025 143.046 86.4162 137.1 93.6833 137.1ZM97.0746 146.443C94.0466 146.443 91.5032 148.628 91.5032 152.875C91.5032 157.001 94.0466 159.306 97.0746 159.306C100.103 159.306 102.646 157.001 102.646 152.875C102.767 148.749 100.103 146.443 97.0746 146.443Z" fill="#F6E7E5"/>
<path d="M130.14 129.576H143.099L152.789 154.816L162.236 129.576H175.196V168.407H164.416V147.05L157.149 168.407H148.186L140.798 146.808V168.407H130.019V129.576H130.14Z" fill="#F6E7E5"/>
<path d="M195.786 168.771C186.581 168.771 179.677 162.825 179.677 152.875C179.677 143.046 186.702 137.1 195.786 137.1C204.87 137.1 211.894 143.046 211.894 152.875C212.016 162.704 204.991 168.771 195.786 168.771ZM195.786 159.306C198.571 159.306 201.115 157.243 201.115 152.753C201.115 148.385 198.693 146.322 195.907 146.322C193.121 146.322 190.699 148.385 190.699 152.753C190.699 157.365 193 159.306 195.786 159.306Z" fill="#F6E7E5"/>
<path d="M237.45 151.783C237.45 148.264 235.512 146.079 232.363 146.079C229.214 146.079 227.155 148.142 227.155 151.783V168.407H216.376V137.585H227.155V141.954C228.972 139.284 232.242 137.221 236.603 137.221C243.748 137.221 248.23 142.318 248.23 150.326V168.286H237.45V151.783Z" fill="#F6E7E5"/>
<path d="M253.196 129.091C253.196 125.936 255.618 123.509 259.494 123.509C263.248 123.509 265.792 125.936 265.792 129.091C265.792 132.125 263.37 134.552 259.494 134.552C255.739 134.552 253.196 132.125 253.196 129.091ZM254.044 137.464H264.823V168.286H254.044V137.464Z" fill="#F6E7E5"/>
<path d="M272.696 146.443H268.941V137.464H272.696V129.94H283.475V137.464H289.047V146.443H283.596V156.758C283.596 158.457 284.323 159.185 286.14 159.185H289.289V168.407H284.565C277.783 168.407 272.696 165.495 272.696 156.636V146.443V146.443Z" fill="#F6E7E5"/>
<path d="M308.425 168.771C299.221 168.771 292.317 162.825 292.317 152.875C292.317 143.046 299.342 137.1 308.425 137.1C317.509 137.1 324.534 143.046 324.534 152.875C324.655 162.704 317.63 168.771 308.425 168.771ZM308.425 159.306C311.211 159.306 313.755 157.243 313.755 152.753C313.755 148.385 311.332 146.322 308.547 146.322C305.761 146.322 303.339 148.385 303.339 152.753C303.339 157.365 305.64 159.306 308.425 159.306Z" fill="#F6E7E5"/>
<path d="M339.795 168.286H329.016V137.464H339.795V142.924C342.096 139.527 345.609 137.221 349.727 137.221V148.749H346.699C342.217 148.749 339.795 150.205 339.795 154.938V168.286Z" fill="#F6E7E5"/>
<path d="M17.7423 232.113C9.14288 232.113 2.36027 227.988 1.99692 219.736H13.5031C13.7454 222.648 15.441 223.619 17.3789 223.619C19.3168 223.619 20.7702 222.648 20.7702 220.828C20.7702 214.64 1.8758 217.552 2.11803 204.083C2.11803 196.438 8.41617 192.433 16.6522 192.433C25.4938 192.433 31.4286 196.802 31.7919 204.447H20.0435C19.9224 202.02 18.469 200.928 16.5311 200.928C14.9565 200.928 13.6242 201.777 13.6242 203.718C13.6242 209.543 32.2764 207.602 32.2764 220.1C32.1553 226.774 26.9472 232.113 17.7423 232.113Z" fill="#F6E7E5"/>
<path d="M68.733 231.749H57.9534V227.381C56.1367 230.05 52.9876 232.113 48.6274 232.113C41.4814 232.113 37 227.017 37 218.887V200.927H47.6584V217.431C47.6584 220.95 49.7174 223.134 52.7454 223.134C55.8944 223.134 57.8323 221.071 57.8323 217.431V200.927H68.6118V231.749H68.733Z" fill="#F6E7E5"/>
<path d="M88.7174 200.442C96.469 200.442 102.283 204.932 103.736 212.698H92.351C91.7454 210.878 90.5342 209.664 88.4752 209.664C85.8106 209.664 84.115 211.849 84.115 216.217C84.115 220.707 85.9317 222.891 88.4752 222.891C90.5342 222.891 91.7454 221.799 92.351 219.857H103.736C102.162 227.502 96.469 232.113 88.7174 232.113C79.5125 232.113 73.0932 226.167 73.0932 216.217C73.0932 206.509 79.5125 200.442 88.7174 200.442Z" fill="#F6E7E5"/>
<path d="M122.025 200.442C129.776 200.442 135.59 204.932 137.044 212.698H125.658C125.053 210.878 123.842 209.664 121.783 209.664C119.118 209.664 117.422 211.849 117.422 216.217C117.422 220.707 119.239 222.891 121.783 222.891C123.842 222.891 125.053 221.799 125.658 219.857H137.044C135.469 227.502 129.776 232.113 122.025 232.113C112.82 232.113 106.401 226.167 106.401 216.217C106.522 206.509 112.941 200.442 122.025 200.442Z" fill="#F6E7E5"/>
<path d="M155.453 232.113C146.37 232.113 139.829 226.167 139.829 216.217C139.829 206.388 146.248 200.442 155.453 200.442C164.537 200.442 170.957 206.388 170.957 215.853C170.957 216.702 170.957 217.552 170.835 218.401H150.488C150.73 221.92 152.668 223.376 155.09 223.376C157.149 223.376 158.36 222.163 158.966 220.95H170.472C168.898 227.381 163.205 232.113 155.453 232.113ZM150.488 213.183H159.935C159.935 210.392 157.755 208.936 155.332 208.936C152.789 209.058 150.972 210.392 150.488 213.183Z" fill="#F6E7E5"/>
<path d="M188.519 232.113C179.919 232.113 174.227 227.502 173.742 221.314H184.158C184.401 223.376 186.096 224.469 188.397 224.469C190.214 224.469 191.304 223.619 191.304 222.527C191.304 218.037 174.953 221.678 174.953 210.392C174.953 205.053 179.435 200.563 187.792 200.563C196.149 200.563 200.63 205.296 201.357 211.363H191.668C191.304 209.422 189.972 208.33 187.671 208.33C185.854 208.33 185.006 209.058 185.006 210.15C185.006 214.518 201.478 210.999 201.478 222.77C201.357 227.988 196.512 232.113 188.519 232.113Z" fill="#F6E7E5"/>
<path d="M219.767 232.113C211.168 232.113 205.475 227.502 204.991 221.314H215.407C215.649 223.376 217.345 224.469 219.646 224.469C221.463 224.469 222.553 223.619 222.553 222.527C222.553 218.037 206.202 221.678 206.202 210.392C206.202 205.053 210.683 200.563 219.04 200.563C227.398 200.563 231.879 205.296 232.606 211.363H222.916C222.553 209.422 221.221 208.33 218.919 208.33C217.103 208.33 216.255 209.058 216.255 210.15C216.255 214.518 232.727 210.999 232.727 222.77C232.485 227.988 227.64 232.113 219.767 232.113Z" fill="#F6E7E5"/>
</svg>
