<svg width="193" height="31" viewBox="0 0 193 31" fill="none" xmlns="http://www.w3.org/2000/svg">
<path d="M10.264 8.54679C9.97511 6.82017 5.93012 6.82017 6.07458 8.54679C6.07458 9.12233 6.50797 9.26622 7.08583 9.69787C7.37476 9.84176 8.09708 10.1295 8.53047 10.2734L10.553 10.849C12.1421 11.2806 13.1533 11.8561 14.598 12.7195C16.0426 13.5828 16.6205 15.3094 16.6205 17.3238C16.6205 19.3382 15.8982 21.0648 14.4535 22.3597C13.0089 23.6547 10.9864 24.2302 8.67494 24.2302C6.50797 24.2302 4.62993 23.6547 3.04083 22.6475C1.45172 21.6403 0.440473 20.2015 0.00708008 18.4749L5.64119 17.3238C5.93012 18.331 7.23029 19.1943 8.8194 19.1943C10.1196 19.1943 11.2753 18.6187 11.2753 17.8993C11.2753 17.4677 10.8419 17.1799 10.264 16.7482C9.54172 16.4605 8.53047 16.0288 7.51922 15.741C5.93012 15.1655 5.06333 14.8777 3.76315 14.1583C1.88511 13.0072 0.873866 11.5684 0.729401 8.97845C0.729401 6.96406 1.45173 5.38132 2.7519 4.23025C4.05208 3.07917 5.93011 2.35974 8.09708 2.35974C9.97511 2.35974 11.7087 2.7914 13.1533 3.79859C14.598 4.80578 15.4648 5.95686 15.8982 7.5396L10.264 8.54679Z" fill="black"/>
<path d="M17.6317 15.8849C17.6317 13.5827 18.4985 11.5683 20.0876 9.98559C21.6767 8.40286 23.6992 7.53955 26.1551 7.53955C28.611 7.53955 30.6335 8.25897 32.2226 9.98559C33.8117 11.5683 34.6785 13.4388 34.6785 15.8849C34.6785 18.3309 33.8117 20.2014 32.2226 21.7842C30.6335 23.3669 28.611 24.0863 26.1551 24.0863C23.6992 24.0863 21.6767 23.3669 20.0876 21.7842C18.4985 20.2014 17.6317 18.187 17.6317 15.8849ZM29.1889 15.8849C29.1889 14.1583 27.8887 12.8633 26.1551 12.8633C24.566 12.8633 23.2658 14.1583 23.2658 15.8849C23.2658 17.6115 24.566 18.9065 26.1551 18.9065C27.8887 18.9065 29.1889 17.6115 29.1889 15.8849Z" fill="black"/>
<path d="M47.1024 14.8778C46.669 13.7267 45.6578 12.8634 44.2131 12.8634C42.4796 12.8634 41.3239 14.1583 41.3239 15.8849C41.3239 17.6116 42.624 18.9065 44.2131 18.9065C45.5133 18.9065 46.5246 18.0432 47.1024 16.8921L52.4476 18.4749C51.8698 20.2015 50.8585 21.4965 49.4139 22.6475C47.9692 23.6547 46.2356 24.2303 44.3576 24.2303C41.9017 24.2303 39.8792 23.5108 38.2901 21.9281C36.701 20.3454 35.8342 18.331 35.8342 16.0288C35.8342 13.7267 36.701 11.7123 38.2901 10.1296C39.8792 8.54682 41.9017 7.82739 44.3576 7.82739C46.2356 7.82739 47.9692 8.40293 49.4139 9.41013C50.8585 10.4173 51.8698 11.8562 52.4476 13.4389L47.1024 14.8778Z" fill="black"/>
<path d="M59.5263 4.08637C59.5263 5.95687 58.2261 7.25183 56.3481 7.25183C54.6146 7.25183 53.1699 5.95687 53.1699 4.08637C53.1699 2.21586 54.6146 0.920898 56.3481 0.920898C58.0817 0.920898 59.5263 2.21586 59.5263 4.08637ZM53.6033 23.7986V8.11514H58.9485V23.7986H53.6033Z" fill="black"/>
<path d="M71.5168 8.97852V8.11521H76.862V23.7987H71.5168V22.9353C70.3611 23.7987 69.0609 24.2303 67.6163 24.2303C65.5938 24.2303 63.8602 23.5109 62.4156 21.9282C61.1154 20.3454 60.3931 18.331 60.3931 16.0289C60.3931 13.7267 61.1154 11.7123 62.4156 10.1296C63.8602 8.54686 65.5938 7.82744 67.6163 7.82744C69.0609 7.68355 70.3611 8.11521 71.5168 8.97852ZM68.772 12.8634C67.1829 12.8634 66.0272 14.1584 66.0272 15.885C66.0272 17.6116 67.1829 18.9066 68.772 18.9066C70.3611 18.9066 71.5168 17.6116 71.5168 15.885C71.5168 14.1584 70.2166 12.8634 68.772 12.8634Z" fill="black"/>
<path d="M78.7401 23.7986V1.06482H84.0853V23.6547H78.7401V23.7986Z" fill="black"/>
<path d="M88.5636 2.64746H98.2427C100.265 2.64746 101.999 3.223 103.299 4.51796C104.744 5.81293 105.321 7.39566 105.321 9.26617C105.321 10.705 104.888 11.8561 104.166 13.0072C103.443 14.1583 102.432 14.8777 101.132 15.4532L106.188 23.7985H102.432L97.6648 16.0288H92.0307V23.7985H88.5636C88.5636 23.7985 88.5636 2.64746 88.5636 2.64746ZM98.2427 5.81293H91.8863V12.8633H98.2427C99.2539 12.8633 100.121 12.5755 100.843 11.8561C101.565 11.1367 101.854 10.2734 101.854 9.26617C101.854 8.25897 101.565 7.39566 100.843 6.67624C100.121 6.1007 99.2539 5.81293 98.2427 5.81293Z" fill="black"/>
<path d="M123.957 17.036H110.811C111.1 18.331 111.678 19.3382 112.545 20.0576C113.411 20.777 114.712 21.2087 116.012 21.2087C117.745 21.2087 119.19 20.4892 120.201 19.1943L123.235 20.2015C122.513 21.4964 121.501 22.3597 120.201 23.0792C118.901 23.7986 117.456 24.0864 115.867 24.0864C113.411 24.0864 111.389 23.3669 109.8 21.7842C108.211 20.2015 107.344 18.1871 107.344 15.8849C107.344 13.5828 108.066 11.5684 109.655 9.98563C111.244 8.4029 113.267 7.68347 115.578 7.68347C117.89 7.68347 119.912 8.4029 121.357 9.98563C122.946 11.5684 123.668 13.5828 123.668 15.8849C124.102 16.0288 123.957 16.3166 123.957 17.036ZM110.955 14.59H120.779C120.49 13.4389 119.912 12.4317 118.901 11.7123C118.034 10.9928 116.878 10.5612 115.723 10.5612C114.567 10.5612 113.556 10.9928 112.689 11.7123C111.822 12.4317 111.244 13.4389 110.955 14.59Z" fill="black"/>
<path d="M130.025 30.5612H126.847V8.11516H130.025V9.84178C131.47 8.40293 133.203 7.82739 135.226 7.82739C137.393 7.82739 139.271 8.54682 140.715 10.1296C142.16 11.7123 142.882 13.5828 142.882 16.0288C142.882 18.4749 142.16 20.3454 140.715 21.9281C139.271 23.5108 137.393 24.2303 135.226 24.2303C133.203 24.2303 131.47 23.5108 130.025 22.2159V30.5612ZM134.937 10.849C133.636 10.849 132.481 11.2806 131.47 12.2878C130.603 13.295 130.025 14.4461 130.025 15.8849C130.025 17.3238 130.458 18.6188 131.47 19.4821C132.336 20.4893 133.492 20.9209 134.937 20.9209C136.237 20.9209 137.393 20.4893 138.404 19.4821C139.271 18.4749 139.848 17.3238 139.848 15.8849C139.848 14.4461 139.415 13.1511 138.404 12.2878C137.393 11.2806 136.237 10.849 134.937 10.849Z" fill="black"/>
<path d="M161.663 17.036H148.516C148.805 18.331 149.383 19.3382 150.25 20.0576C151.117 20.777 152.417 21.2087 153.717 21.2087C155.451 21.2087 156.895 20.4892 157.906 19.1943L160.94 20.2015C160.218 21.4964 159.207 22.3597 157.906 23.0792C156.606 23.7986 155.162 24.0864 153.573 24.0864C151.117 24.0864 149.094 23.3669 147.505 21.7842C145.916 20.2015 145.049 18.1871 145.049 15.8849C145.049 13.5828 145.771 11.5684 147.361 9.98563C148.95 8.4029 150.972 7.68347 153.284 7.68347C155.595 7.68347 157.618 8.4029 159.062 9.98563C160.651 11.5684 161.374 13.5828 161.374 15.8849C161.807 16.0288 161.807 16.3166 161.663 17.036ZM148.661 14.59H158.484C158.195 13.4389 157.618 12.4317 156.606 11.7123C155.739 10.9928 154.584 10.5612 153.428 10.5612C152.272 10.5612 151.261 10.9928 150.394 11.7123C149.527 12.4317 148.95 13.4389 148.661 14.59Z" fill="black"/>
<path d="M171.63 7.68347C173.653 7.68347 175.386 8.4029 176.831 9.69786V7.97124H180.009V23.6547H176.831V21.9281C175.386 23.3669 173.653 23.9425 171.63 23.9425C169.463 23.9425 167.585 23.223 166.141 21.6403C164.696 20.0576 163.974 18.1871 163.974 15.741C163.974 13.295 164.696 11.4245 166.141 9.84174C167.585 8.4029 169.463 7.68347 171.63 7.68347ZM171.919 10.8489C170.619 10.8489 169.463 11.2806 168.452 12.2878C167.585 13.295 167.008 14.4461 167.008 15.8849C167.008 17.3238 167.441 18.6187 168.452 19.482C169.463 20.4892 170.475 20.9209 171.919 20.9209C173.364 20.9209 174.52 20.4892 175.386 19.482C176.253 18.4748 176.831 17.3238 176.831 15.8849C176.831 14.4461 176.398 13.1511 175.386 12.2878C174.52 11.2806 173.364 10.8489 171.919 10.8489Z" fill="black"/>
<path d="M182.321 10.849V8.11517H184.777V4.94971H187.955V8.11517H192.145V10.849H187.811V18.6188C187.811 19.1943 187.955 19.7698 188.388 20.2015C188.822 20.6332 189.255 20.777 189.978 20.777H192V23.7986H189.689C188.244 23.7986 187.088 23.367 186.077 22.5037C185.066 21.4965 184.632 20.3454 184.632 19.0504V10.849C184.632 10.849 182.321 10.849 182.321 10.849Z" fill="black"/>
</svg>
