<svg width="242" height="13" viewBox="0 0 242 13" fill="none" xmlns="http://www.w3.org/2000/svg">
<path d="M6.00622 4.09936L5.64287 6.04091H7.33852V6.76895H5.52175L5.03728 9.31723H4.18945L4.67392 6.76895H2.85715L2.37268 9.31723H1.64597L2.13044 6.76895H0.555908V6.04091H2.25156L2.61491 4.09936H1.04038V3.37128H2.73603L3.2205 0.822998H4.06833L3.58386 3.37128H5.40063L5.8851 0.822998H6.61181L6.12734 3.37128H7.70187V4.09936H6.00622ZM2.97827 6.04091H4.79504L5.15839 4.09936H3.34162L2.97827 6.04091Z" fill="#AC6CFF"/>
<path d="M13.1522 7.61833C13.1522 8.22505 12.91 8.71044 12.5466 8.95313C12.0621 9.31717 11.4566 9.43851 10.7298 9.43851C9.88202 9.43851 9.27643 9.31718 8.79196 9.07449V8.22505C9.15531 8.3464 9.39755 8.46773 9.7609 8.58907C10.1243 8.71042 10.4876 8.71043 10.7298 8.71043C11.2143 8.71043 11.5777 8.5891 11.941 8.46776C12.1833 8.34641 12.3044 8.10372 12.3044 7.73968C12.3044 7.49699 12.1833 7.2543 11.941 7.13295C11.6988 7.01161 11.3354 6.76892 10.7298 6.52623C10.1243 6.28353 9.7609 6.16219 9.51867 5.9195C9.27643 5.79815 9.03419 5.55546 8.91307 5.31277C8.79196 5.07008 8.67084 4.82738 8.67084 4.58469C8.67084 4.09931 8.91307 3.61393 9.27643 3.37124C9.63978 3.0072 10.2454 2.88586 10.9721 2.88586C11.6988 2.88586 12.3044 3.00719 13.0311 3.24989L12.6677 4.09932C12.0621 3.85663 11.4566 3.73526 10.9721 3.73526C10.4876 3.73526 10.1243 3.85662 9.88202 3.97797C9.63978 4.09931 9.51867 4.342 9.51867 4.58469C9.51867 4.70604 9.51867 4.94872 9.63978 5.07007C9.7609 5.19141 9.88202 5.31278 10.0031 5.43412C10.2454 5.55547 10.6087 5.67681 11.0932 5.9195C11.8199 6.16219 12.3044 6.5262 12.6677 6.76889C13.0311 6.76889 13.1522 7.13295 13.1522 7.61833Z" fill="#AC6CFF"/>
<path d="M20.177 6.16216C20.177 7.25426 19.9348 7.98233 19.4503 8.58905C18.9658 9.19577 18.2391 9.43848 17.2702 9.43848C16.6646 9.43848 16.1801 9.31715 15.6956 9.07446C15.2112 8.83177 14.9689 8.46774 14.7267 7.86101C14.4845 7.37563 14.3633 6.76891 14.3633 6.04084C14.3633 4.94874 14.6056 4.22068 15.09 3.61395C15.5745 3.00723 16.3012 2.76453 17.2702 2.76453C18.118 2.76453 18.8447 3.00723 19.4503 3.61395C19.9348 4.34202 20.177 5.07006 20.177 6.16216ZM15.3323 6.16216C15.3323 7.01157 15.4534 7.61829 15.8168 7.98233C16.1801 8.46771 16.6646 8.58905 17.2702 8.58905C17.8758 8.58905 18.3602 8.34636 18.7236 7.98233C19.0869 7.49695 19.2081 6.89023 19.2081 6.16216C19.2081 5.31275 19.0869 4.70602 18.7236 4.34199C18.3602 3.97796 17.8758 3.73527 17.2702 3.73527C16.6646 3.73527 16.1801 3.97796 15.8168 4.34199C15.4534 4.70602 15.3323 5.31275 15.3323 6.16216Z" fill="#AC6CFF"/>
<path d="M24.4162 9.43851C23.4472 9.43851 22.7205 9.1958 22.236 8.58907C21.7516 7.98235 21.5093 7.25428 21.5093 6.16217C21.5093 5.07006 21.7516 4.22064 22.236 3.73526C22.7205 3.12853 23.4472 2.88586 24.4162 2.88586C24.7795 2.88586 25.0218 2.88587 25.3851 3.00722C25.7485 3.12856 25.9907 3.12854 26.1118 3.24989L25.8696 3.97797C25.6274 3.85662 25.3851 3.85661 25.1429 3.73526C24.9006 3.73526 24.6584 3.61394 24.4162 3.61394C23.0839 3.61394 22.4783 4.46336 22.4783 6.04085C22.4783 6.76892 22.5994 7.37565 22.9628 7.86103C23.3261 8.22507 23.6895 8.46776 24.4162 8.46776C24.9006 8.46776 25.5062 8.34639 26.1118 8.1037V8.95313C25.6274 9.31717 25.1429 9.43851 24.4162 9.43851Z" fill="#AC6CFF"/>
<path d="M27.5652 1.18711C27.5652 0.944421 27.5652 0.823045 27.6864 0.7017C27.8075 0.580354 27.9286 0.580383 28.0497 0.580383C28.1708 0.580383 28.2919 0.580354 28.4131 0.7017C28.5342 0.823045 28.5342 0.944421 28.5342 1.18711C28.5342 1.4298 28.5342 1.55114 28.4131 1.67249C28.2919 1.79383 28.1708 1.79384 28.0497 1.79384C27.9286 1.79384 27.8075 1.79383 27.6864 1.67249C27.5652 1.55114 27.5652 1.4298 27.5652 1.18711ZM28.5342 9.31726H27.5652V2.88595H28.5342V9.31726Z" fill="#AC6CFF"/>
<path d="M34.5901 9.31716L34.3478 8.34642C33.9845 8.71045 33.7422 9.07446 33.3789 9.19581C33.0155 9.31715 32.6522 9.43851 32.1677 9.43851C31.5621 9.43851 31.0777 9.31717 30.7143 8.95314C30.3509 8.58911 30.2298 8.10373 30.2298 7.61836C30.2298 6.28358 31.3199 5.67685 33.3789 5.5555H34.4689V5.19149C34.4689 4.70612 34.3478 4.34209 34.1056 4.09941C33.8634 3.85672 33.5 3.73535 33.0155 3.73535C32.5311 3.73535 31.9255 3.85673 31.1988 4.22076L30.9565 3.49269C31.3199 3.37135 31.5621 3.12864 32.0466 3.12864C32.4099 3.00729 32.7733 3.00732 33.1367 3.00732C33.8634 3.00732 34.469 3.12866 34.8323 3.49269C35.1957 3.85672 35.4379 4.34208 35.4379 5.07014V9.43851H34.5901V9.31716ZM32.41 8.71044C33.0155 8.71044 33.5 8.5891 33.8634 8.22507C34.2267 7.86104 34.3478 7.37566 34.3478 6.89029V6.28357H33.3789C32.6522 6.28357 32.0466 6.40494 31.6832 6.64762C31.3199 6.89031 31.1988 7.13298 31.1988 7.61836C31.1988 7.98239 31.3199 8.22509 31.5621 8.46777C31.6832 8.58912 31.9255 8.71044 32.41 8.71044Z" fill="#AC6CFF"/>
<path d="M38.2236 9.31726H37.2547V0.216309H38.2236V9.31726Z" fill="#AC6CFF"/>
<path d="M48.3975 9.31723V5.19152C48.3975 4.70614 48.2764 4.34211 48.0342 4.09942C47.7919 3.85673 47.4286 3.73536 47.0652 3.73536C46.4596 3.73536 45.9752 3.85674 45.7329 4.22077C45.4907 4.58481 45.2485 5.07017 45.2485 5.79824V9.31723H44.2795V5.19152C44.2795 4.70614 44.1584 4.34211 43.9162 4.09942C43.6739 3.85673 43.3106 3.73536 42.9472 3.73536C42.3416 3.73536 41.8572 3.97805 41.6149 4.34209C41.3727 4.70612 41.2516 5.31285 41.2516 6.16226V9.55994H40.2826V3.12864H41.0093L41.1304 3.97807C41.3727 3.61403 41.6149 3.37134 41.8572 3.24999C42.2205 3.12865 42.5839 3.00732 42.9472 3.00732C43.9162 3.00732 44.6429 3.37135 44.8851 4.09942C45.1273 3.73539 45.3696 3.49268 45.7329 3.24999C46.0963 3.0073 46.4596 3.00732 46.9441 3.00732C47.6708 3.00732 48.1553 3.25001 48.5186 3.61405C48.882 3.97808 49.0031 4.58481 49.0031 5.43422V9.55994H48.3975V9.31723Z" fill="#AC6CFF"/>
<path d="M54.0901 9.43848C53.1211 9.43848 52.3944 9.19577 51.9099 8.58905C51.3043 7.98233 51.0621 7.25426 51.0621 6.16216C51.0621 5.1914 51.3043 4.34199 51.7888 3.73527C52.2733 3.12855 53 2.76453 53.8478 2.76453C54.6956 2.76453 55.3012 3.00723 55.7857 3.61395C56.2702 4.22068 56.5124 4.82738 56.5124 5.67679V6.28351H52.1522C52.1522 7.01158 52.3944 7.61829 52.7578 7.98233C53.1211 8.34636 53.6056 8.58905 54.3323 8.58905C55.059 8.58905 55.6646 8.46771 56.3913 8.10368V8.95311C56.0279 9.07445 55.7857 9.19578 55.4224 9.31712C54.9379 9.43847 54.4534 9.43848 54.0901 9.43848ZM53.8478 3.61395C53.3633 3.61395 52.8789 3.73529 52.6366 4.09932C52.2733 4.46336 52.1522 4.94874 52.1522 5.43412H55.5435C55.5435 4.8274 55.4224 4.34201 55.1801 3.97797C54.6956 3.85663 54.3323 3.61395 53.8478 3.61395Z" fill="#AC6CFF"/>
<path d="M62.4472 8.46774C61.9627 9.07446 61.236 9.43848 60.3882 9.43848C59.5404 9.43848 58.9348 9.19577 58.4503 8.58905C57.9658 7.98233 57.7236 7.25426 57.7236 6.16216C57.7236 5.07006 57.9658 4.342 58.4503 3.73527C58.9348 3.12855 59.5404 2.88589 60.3882 2.88589C61.236 2.88589 61.9627 3.2499 62.3261 3.85663H62.4472V3.37126V2.88589V0.337646H63.4162V9.43848H62.6895L62.4472 8.46774ZM60.5093 8.7104C61.1149 8.7104 61.5994 8.58907 61.9627 8.22503C62.205 7.861 62.4472 7.25428 62.4472 6.52622V6.28351C62.4472 5.4341 62.3261 4.70603 61.9627 4.342C61.7205 3.97796 61.236 3.73527 60.5093 3.73527C59.9037 3.73527 59.5404 3.97796 59.177 4.342C58.9348 4.82737 58.6925 5.4341 58.6925 6.16216C58.6925 7.01157 58.8137 7.6183 59.177 7.98233C59.4193 8.46771 59.9037 8.7104 60.5093 8.7104Z" fill="#AC6CFF"/>
<path d="M65.3541 1.18711C65.3541 0.944421 65.3541 0.823045 65.4752 0.7017C65.5963 0.580354 65.7174 0.580383 65.8385 0.580383C65.9597 0.580383 66.0808 0.580354 66.2019 0.7017C66.323 0.823045 66.323 0.944421 66.323 1.18711C66.323 1.4298 66.323 1.55114 66.2019 1.67249C66.0808 1.79383 65.9597 1.79384 65.8385 1.79384C65.7174 1.79384 65.5963 1.79383 65.4752 1.67249C65.3541 1.55114 65.3541 1.4298 65.3541 1.18711ZM66.323 9.31726H65.3541V2.88595H66.323V9.31726Z" fill="#AC6CFF"/>
<path d="M72.3789 9.31716L72.1367 8.34642C71.7733 8.71045 71.5311 9.07446 71.1677 9.19581C70.8044 9.31715 70.441 9.43851 69.9566 9.43851C69.351 9.43851 68.8665 9.31717 68.5031 8.95314C68.1398 8.58911 68.0187 8.10373 68.0187 7.61836C68.0187 6.28358 69.1087 5.67685 71.1677 5.5555H72.2578V5.19149C72.2578 4.70612 72.1367 4.34209 71.8944 4.09941C71.6522 3.85672 71.2889 3.73535 70.8044 3.73535C70.3199 3.73535 69.7143 3.85673 68.9876 4.22076L68.7454 3.49269C69.1087 3.37135 69.351 3.12864 69.8354 3.12864C70.1988 3.00729 70.5621 3.00732 70.9255 3.00732C71.6522 3.00732 72.2578 3.12866 72.6212 3.49269C72.9845 3.85672 73.2267 4.34208 73.2267 5.07014V9.43851H72.3789V9.31716ZM70.1988 8.71044C70.8044 8.71044 71.2889 8.5891 71.6522 8.22507C72.0156 7.86104 72.1367 7.37566 72.1367 6.89029V6.28357H71.1677C70.441 6.28357 69.8354 6.40494 69.4721 6.64762C69.1087 6.89031 68.9876 7.13298 68.9876 7.61836C68.9876 7.98239 69.1087 8.22509 69.351 8.46777C69.4721 8.58912 69.8354 8.71044 70.1988 8.71044Z" fill="#AC6CFF"/>
<path d="M82.7951 4.09936L82.4317 6.04091H84.1274V6.76895H82.3106L81.8261 9.31723H80.9783L81.4628 6.76895H79.646L79.1615 9.31723H78.3137L78.7982 6.76895H77.2236V6.04091H79.1615L79.5249 4.09936H77.9503V3.37128H79.646L80.1305 0.822998H80.9783L80.4938 3.37128H82.3106L82.7951 0.822998H83.5218L83.0373 3.37128H84.6118V4.09936H82.7951ZM79.8882 6.04091H81.705L82.0684 4.09936H80.2516L79.8882 6.04091Z" fill="#AC6CFF"/>
<path d="M88.3665 9.43851C87.3975 9.43851 86.6708 9.1958 86.1864 8.58907C85.7019 7.98235 85.4597 7.25428 85.4597 6.16217C85.4597 5.07006 85.7019 4.22064 86.1864 3.73526C86.6708 3.12853 87.3975 2.88586 88.3665 2.88586C88.7298 2.88586 88.9721 2.88587 89.3354 3.00722C89.6988 3.12856 89.941 3.12854 90.0621 3.24989L89.8199 4.09932C89.5777 3.97797 89.3354 3.97796 89.0932 3.85661C88.8509 3.85661 88.6087 3.73526 88.3665 3.73526C87.0342 3.73526 86.4286 4.58468 86.4286 6.16217C86.4286 6.89024 86.5497 7.49697 86.9131 7.98235C87.2764 8.34638 87.6398 8.58907 88.3665 8.58907C88.8509 8.58907 89.4565 8.46774 90.0621 8.22505V9.07449C89.5776 9.31718 89.0932 9.43851 88.3665 9.43851Z" fill="#AC6CFF"/>
<path d="M92.4845 3.00723V7.13294C92.4845 7.61832 92.6056 8.10369 92.8478 8.34638C93.0901 8.58907 93.4534 8.7104 93.9379 8.7104C94.6646 8.7104 95.1491 8.46771 95.3913 8.10368C95.7547 7.73965 95.8758 7.13292 95.8758 6.28351V2.88588H96.8447V9.31712H95.9969L95.8758 8.46774C95.6336 8.83177 95.3913 9.07443 95.028 9.19577C94.6646 9.31712 94.3013 9.43848 93.8168 9.43848C93.0901 9.43848 92.4845 9.19579 92.1211 8.83175C91.7578 8.46772 91.5155 7.861 91.5155 7.01159V2.76453H92.4845V3.00723Z" fill="#AC6CFF"/>
<path d="M103.022 7.61833C103.022 8.22505 102.78 8.71044 102.416 8.95313C101.932 9.31717 101.326 9.43851 100.599 9.43851C99.7516 9.43851 99.146 9.31718 98.6615 9.07449V8.22505C99.0249 8.3464 99.2671 8.46773 99.6305 8.58907C99.9938 8.71042 100.357 8.71043 100.599 8.71043C101.084 8.71043 101.447 8.5891 101.811 8.46776C102.053 8.34641 102.174 8.10372 102.174 7.73968C102.174 7.49699 102.053 7.2543 101.811 7.13295C101.568 7.01161 101.205 6.76892 100.599 6.52623C99.9938 6.28353 99.6305 6.16219 99.3882 5.9195C99.146 5.79815 98.9038 5.55546 98.7826 5.31277C98.6615 5.07008 98.5404 4.82738 98.5404 4.58469C98.5404 4.09931 98.7826 3.61393 99.146 3.37124C99.5094 3.0072 100.115 2.88586 100.842 2.88586C101.568 2.88586 102.174 3.00719 102.901 3.24989L102.537 4.09932C101.932 3.85663 101.326 3.73526 100.842 3.73526C100.357 3.73526 99.9938 3.85662 99.7516 3.97797C99.5094 4.09931 99.3882 4.342 99.3882 4.58469C99.3882 4.70604 99.3882 4.94872 99.5094 5.07007C99.6305 5.19141 99.7516 5.31278 99.8727 5.43412C100.115 5.55547 100.478 5.67681 100.963 5.9195C101.689 6.16219 102.174 6.5262 102.537 6.76889C102.901 6.76889 103.022 7.13295 103.022 7.61833Z" fill="#AC6CFF"/>
<path d="M106.655 8.71043C106.776 8.71043 107.019 8.71043 107.14 8.71043C107.261 8.71043 107.382 8.71042 107.503 8.58908V9.31715C107.382 9.31715 107.261 9.43851 107.019 9.43851C106.776 9.43851 106.655 9.43851 106.413 9.43851C105.202 9.43851 104.596 8.83178 104.596 7.49698V3.73528H103.627V3.24991L104.596 2.88589L104.96 1.55109H105.565V3.00724H107.382V3.73528H105.565V7.49698C105.565 7.86102 105.686 8.22507 105.807 8.34641C106.05 8.5891 106.292 8.71043 106.655 8.71043Z" fill="#AC6CFF"/>
<path d="M114.286 6.16216C114.286 7.25426 114.044 7.98233 113.559 8.58905C113.075 9.19577 112.348 9.43848 111.379 9.43848C110.773 9.43848 110.289 9.31715 109.804 9.07446C109.32 8.83177 109.078 8.46774 108.835 7.86101C108.593 7.37563 108.472 6.76891 108.472 6.04084C108.472 4.94874 108.714 4.22068 109.199 3.61395C109.683 3.00723 110.41 2.76453 111.379 2.76453C112.227 2.76453 112.953 3.00723 113.559 3.61395C114.044 4.34202 114.286 5.07006 114.286 6.16216ZM109.441 6.16216C109.441 7.01157 109.562 7.61829 109.925 7.98233C110.289 8.46771 110.773 8.58905 111.379 8.58905C111.984 8.58905 112.469 8.34636 112.832 7.98233C113.196 7.49695 113.317 6.89023 113.317 6.16216C113.317 5.31275 113.196 4.70602 112.832 4.34199C112.469 3.97796 111.984 3.73527 111.379 3.73527C110.773 3.73527 110.289 3.97796 109.925 4.34199C109.562 4.70602 109.441 5.31275 109.441 6.16216Z" fill="#AC6CFF"/>
<path d="M124.096 9.31723V5.19152C124.096 4.70614 123.975 4.34211 123.733 4.09942C123.491 3.85673 123.127 3.73536 122.764 3.73536C122.158 3.73536 121.674 3.85674 121.432 4.22077C121.189 4.58481 120.947 5.07017 120.947 5.79824V9.31723H119.978V5.19152C119.978 4.70614 119.857 4.34211 119.615 4.09942C119.373 3.85673 119.009 3.73536 118.646 3.73536C118.04 3.73536 117.556 3.97805 117.314 4.34209C117.071 4.70612 116.95 5.31285 116.95 6.16226V9.55994H115.981V3.12864H116.708L116.829 3.97807C117.071 3.61403 117.314 3.37134 117.556 3.24999C117.919 3.12865 118.283 3.00732 118.646 3.00732C119.615 3.00732 120.342 3.37135 120.584 4.09942C120.826 3.73539 121.068 3.49268 121.432 3.24999C121.795 3.0073 122.158 3.00732 122.643 3.00732C123.37 3.00732 123.854 3.25001 124.217 3.61405C124.581 3.97808 124.702 4.58481 124.702 5.43422V9.55994H124.096V9.31723Z" fill="#AC6CFF"/>
<path d="M131.484 9.3172V5.19146C131.484 4.70608 131.363 4.2207 131.121 3.97801C130.879 3.73532 130.516 3.61399 130.031 3.61399C129.304 3.61399 128.82 3.85668 128.578 4.22071C128.214 4.58475 128.093 5.19148 128.093 6.0409V9.43855H127.124V0.337646H128.093V3.12858C128.093 3.49261 128.093 3.73532 128.093 3.97801C128.335 3.61397 128.578 3.37127 128.941 3.24993C129.304 3.12858 129.668 3.00726 130.152 3.00726C130.879 3.00726 131.484 3.24995 131.969 3.61399C132.332 3.97802 132.575 4.58475 132.575 5.43417V9.55991H131.484V9.3172Z" fill="#AC6CFF"/>
<path d="M138.388 9.31716L138.146 8.34642C137.783 8.71045 137.54 9.07446 137.177 9.19581C136.814 9.31715 136.45 9.43851 135.966 9.43851C135.36 9.43851 134.876 9.31717 134.512 8.95314C134.149 8.58911 134.028 8.10373 134.028 7.61836C134.028 6.28358 135.118 5.67685 137.177 5.5555H138.267V5.19149C138.267 4.70612 138.146 4.34209 137.904 4.09941C137.662 3.85672 137.298 3.73535 136.814 3.73535C136.329 3.73535 135.724 3.85673 134.997 4.22076L134.755 3.49269C135.118 3.37135 135.36 3.12864 135.845 3.12864C136.208 3.00729 136.571 3.00732 136.935 3.00732C137.662 3.00732 138.267 3.12866 138.63 3.49269C138.994 3.85672 139.236 4.34208 139.236 5.07014V9.43851H138.388V9.31716ZM136.208 8.71044C136.814 8.71044 137.298 8.5891 137.662 8.22507C138.025 7.86104 138.146 7.37566 138.146 6.89029V6.28357H137.177C136.45 6.28357 135.845 6.40494 135.481 6.64762C135.118 6.89031 134.997 7.13298 134.997 7.61836C134.997 7.98239 135.118 8.22509 135.36 8.46777C135.481 8.58912 135.845 8.71044 136.208 8.71044Z" fill="#AC6CFF"/>
<path d="M145.171 7.61833C145.171 8.22505 144.929 8.71044 144.565 8.95313C144.081 9.31717 143.475 9.43851 142.748 9.43851C141.901 9.43851 141.295 9.31718 140.811 9.07449V8.22505C141.174 8.3464 141.416 8.46773 141.78 8.58907C142.143 8.71042 142.506 8.71043 142.748 8.71043C143.233 8.71043 143.596 8.5891 143.96 8.46776C144.202 8.34641 144.323 8.10372 144.323 7.73968C144.323 7.49699 144.202 7.2543 143.96 7.13295C143.717 7.01161 143.354 6.76892 142.748 6.52623C142.143 6.28353 141.78 6.16219 141.537 5.9195C141.295 5.79815 141.053 5.55546 140.932 5.31277C140.811 5.07008 140.689 4.82738 140.689 4.58469C140.689 4.09931 140.932 3.61393 141.295 3.37124C141.658 3.0072 142.264 2.88586 142.991 2.88586C143.717 2.88586 144.323 3.00719 145.05 3.24989L144.686 4.09932C144.081 3.85663 143.475 3.73526 142.991 3.73526C142.506 3.73526 142.143 3.85662 141.901 3.97797C141.658 4.09931 141.537 4.342 141.537 4.58469C141.537 4.70604 141.537 4.94872 141.658 5.07007C141.78 5.19141 141.901 5.31278 142.022 5.43412C142.264 5.55547 142.627 5.67681 143.112 5.9195C143.839 6.16219 144.323 6.5262 144.686 6.76889C145.05 6.76889 145.171 7.13295 145.171 7.61833Z" fill="#AC6CFF"/>
<path d="M151.106 9.3172V5.19146C151.106 4.70608 150.985 4.2207 150.742 3.97801C150.5 3.73532 150.137 3.61399 149.652 3.61399C148.925 3.61399 148.441 3.85668 148.199 4.22071C147.835 4.58475 147.714 5.19148 147.714 6.0409V9.43855H146.745V0.337646H147.714V3.12858C147.714 3.49261 147.714 3.73532 147.714 3.97801C147.957 3.61397 148.199 3.37127 148.562 3.24993C148.925 3.12858 149.289 3.00726 149.773 3.00726C150.5 3.00726 151.106 3.24995 151.59 3.61399C151.953 3.97802 152.196 4.58475 152.196 5.43417V9.55991H151.106V9.3172Z" fill="#AC6CFF"/>
<path d="M156.193 8.71043C156.314 8.71043 156.556 8.71043 156.677 8.71043C156.798 8.71043 156.919 8.71042 157.04 8.58908V9.31715C156.919 9.31715 156.798 9.43851 156.556 9.43851C156.314 9.43851 156.193 9.43851 155.95 9.43851C154.739 9.43851 154.134 8.83178 154.134 7.49698V3.73528H153.165V3.24991L154.134 2.88589L154.497 1.55109H155.102V3.00724H156.919V3.73528H155.102V7.49698C155.102 7.86102 155.224 8.22507 155.345 8.34641C155.587 8.5891 155.829 8.71043 156.193 8.71043Z" fill="#AC6CFF"/>
<path d="M162.248 9.31716L162.006 8.34642C161.643 8.71045 161.401 9.07446 161.037 9.19581C160.674 9.31715 160.311 9.43851 159.826 9.43851C159.221 9.43851 158.736 9.31717 158.373 8.95314C158.009 8.58911 157.888 8.10373 157.888 7.61836C157.888 6.28358 158.978 5.67685 161.037 5.5555H162.127V5.19149C162.127 4.70612 162.006 4.34209 161.764 4.09941C161.522 3.85672 161.158 3.73535 160.674 3.73535C160.189 3.73535 159.584 3.85673 158.857 4.22076L158.615 3.49269C158.978 3.37135 159.221 3.12864 159.705 3.12864C160.068 3.00729 160.432 3.00732 160.795 3.00732C161.522 3.00732 162.127 3.12866 162.491 3.49269C162.854 3.85672 163.096 4.34208 163.096 5.07014V9.43851H162.248V9.31716ZM160.068 8.71044C160.674 8.71044 161.158 8.5891 161.522 8.22507C161.885 7.86104 162.006 7.37566 162.006 6.89029V6.28357H161.037C160.311 6.28357 159.705 6.40494 159.342 6.64762C158.978 6.89031 158.857 7.13298 158.857 7.61836C158.857 7.98239 158.978 8.22509 159.221 8.46777C159.342 8.58912 159.705 8.71044 160.068 8.71044Z" fill="#AC6CFF"/>
<path d="M170.242 3.00732V3.61404L169.031 3.73536C169.152 3.8567 169.273 4.09942 169.273 4.22077C169.394 4.46345 169.394 4.70611 169.394 4.9488C169.394 5.55552 169.152 6.04091 168.789 6.40494C168.304 6.76898 167.82 7.01167 166.972 7.01167C166.73 7.01167 166.609 7.01167 166.488 7.01167C166.124 7.25435 165.882 7.49706 165.882 7.86109C165.882 7.98243 166.003 8.22511 166.124 8.22511C166.245 8.34645 166.488 8.34646 166.851 8.34646H167.941C168.668 8.34646 169.152 8.4678 169.516 8.83183C169.879 9.07452 170.121 9.5599 170.121 10.1666C170.121 10.8947 169.879 11.38 169.273 11.7441C168.668 12.1081 167.82 12.3508 166.73 12.3508C165.882 12.3508 165.276 12.2295 164.792 11.8654C164.307 11.5014 164.065 11.1374 164.065 10.5306C164.065 10.1666 164.186 9.80259 164.429 9.5599C164.671 9.31721 165.034 9.07452 165.519 8.95318C165.398 8.83183 165.276 8.71047 165.155 8.58912C165.034 8.46778 165.034 8.2251 165.034 8.10376C165.034 7.86107 165.155 7.61838 165.276 7.49703C165.398 7.37569 165.64 7.13301 165.882 7.01167C165.519 6.89032 165.276 6.64763 165.034 6.28359C164.792 5.91956 164.671 5.55554 164.671 5.1915C164.671 4.46344 164.913 3.97808 165.276 3.61404C165.64 3.25001 166.245 3.00732 167.093 3.00732C167.457 3.00732 167.699 3.00729 167.941 3.12864H170.242V3.00732ZM165.155 10.4093C165.155 10.7733 165.276 11.016 165.64 11.2587C165.882 11.3801 166.366 11.5014 166.851 11.5014C167.699 11.5014 168.304 11.38 168.668 11.1374C169.031 10.8947 169.273 10.5307 169.273 10.1666C169.273 9.80259 169.152 9.55989 168.91 9.43855C168.668 9.3172 168.304 9.19584 167.699 9.19584H166.488C166.003 9.19584 165.761 9.31721 165.519 9.5599C165.276 9.68124 165.155 10.0453 165.155 10.4093ZM165.64 4.9488C165.64 5.43418 165.761 5.67689 166.003 5.91958C166.245 6.16226 166.609 6.28359 167.093 6.28359C168.062 6.28359 168.547 5.79821 168.547 4.9488C168.547 3.97805 168.062 3.49269 167.093 3.49269C166.609 3.49269 166.245 3.61402 166.003 3.85671C165.761 4.0994 165.64 4.46342 165.64 4.9488Z" fill="#AC6CFF"/>
<path d="M179.326 4.09936L178.963 6.04091H180.658V6.76895H178.842L178.357 9.31723H177.509L177.994 6.76895H176.177L175.693 9.31723H174.845L175.329 6.76895H173.755V6.04091H175.45L175.814 4.09936H174.239V3.37128H175.935L176.419 0.822998H177.267L176.783 3.37128H178.599L179.084 0.822998H179.811L179.326 3.37128H180.901V4.09936H179.326ZM176.298 6.04091H178.115L178.478 4.09936H176.662L176.298 6.04091Z" fill="#AC6CFF"/>
<path d="M183.323 9.31726H182.354V0.216309H183.323V9.31726Z" fill="#AC6CFF"/>
<path d="M189.258 9.31716L189.016 8.34642C188.652 8.71045 188.41 9.07446 188.047 9.19581C187.683 9.31715 187.32 9.43851 186.835 9.43851C186.23 9.43851 185.745 9.31717 185.382 8.95314C185.019 8.58911 184.898 8.10373 184.898 7.61836C184.898 6.28358 185.988 5.67685 188.047 5.5555H189.137V5.19149C189.137 4.70612 189.016 4.34209 188.773 4.09941C188.531 3.85672 188.168 3.73535 187.683 3.73535C187.199 3.73535 186.593 3.85673 185.866 4.22076L185.624 3.49269C185.988 3.37135 186.23 3.12864 186.714 3.12864C187.078 3.00729 187.441 3.00732 187.804 3.00732C188.531 3.00732 189.137 3.12866 189.5 3.49269C189.863 3.85672 190.106 4.34208 190.106 5.07014V9.43851H189.258V9.31716ZM187.078 8.71044C187.683 8.71044 188.168 8.5891 188.531 8.22507C188.894 7.86104 189.016 7.37566 189.016 6.89029V6.28357H188.047C187.32 6.28357 186.714 6.40494 186.351 6.64762C185.988 6.89031 185.866 7.13298 185.866 7.61836C185.866 7.98239 185.988 8.22509 186.23 8.46777C186.351 8.58912 186.714 8.71044 187.078 8.71044Z" fill="#AC6CFF"/>
<path d="M194.102 8.71043C194.224 8.71043 194.466 8.71043 194.587 8.71043C194.708 8.71043 194.829 8.71042 194.95 8.58908V9.31715C194.829 9.31715 194.708 9.43851 194.466 9.43851C194.224 9.43851 194.102 9.43851 193.86 9.43851C192.649 9.43851 192.043 8.83178 192.043 7.49698V3.73528H191.075V3.24991L192.043 2.88589L192.407 1.55109H193.012V3.00724H194.829V3.73528H193.012V7.49698C193.012 7.86102 193.134 8.22507 193.255 8.34641C193.497 8.5891 193.739 8.71043 194.102 8.71043Z" fill="#AC6CFF"/>
<path d="M198.947 9.43848C197.978 9.43848 197.252 9.19577 196.767 8.58905C196.162 7.98233 195.919 7.25426 195.919 6.16216C195.919 5.1914 196.162 4.34199 196.646 3.73527C197.13 3.12855 197.857 2.76453 198.705 2.76453C199.553 2.76453 200.158 3.00723 200.643 3.61395C201.127 4.22068 201.37 4.82738 201.37 5.67679V6.28351H197.009C197.009 7.01158 197.252 7.61829 197.615 7.98233C197.978 8.34636 198.463 8.58905 199.189 8.58905C199.916 8.58905 200.522 8.46771 201.248 8.10368V8.95311C200.885 9.07445 200.643 9.19578 200.28 9.31712C199.674 9.43847 199.311 9.43848 198.947 9.43848ZM198.584 3.61395C198.099 3.61395 197.615 3.73529 197.373 4.09932C197.009 4.46336 196.888 4.94874 196.888 5.43412H200.28C200.28 4.8274 200.158 4.34201 199.916 3.97797C199.553 3.85663 199.189 3.61395 198.584 3.61395Z" fill="#AC6CFF"/>
<path d="M207.062 7.61833C207.062 8.22505 206.82 8.71044 206.457 8.95313C205.972 9.31717 205.366 9.43851 204.64 9.43851C203.792 9.43851 203.186 9.31718 202.702 9.07449V8.22505C203.065 8.3464 203.307 8.46773 203.671 8.58907C204.034 8.71042 204.398 8.71043 204.64 8.71043C205.124 8.71043 205.488 8.5891 205.851 8.46776C206.093 8.34641 206.214 8.10372 206.214 7.73968C206.214 7.49699 206.093 7.2543 205.851 7.13295C205.609 7.01161 205.245 6.76892 204.64 6.52623C204.034 6.28353 203.671 6.16219 203.429 5.9195C203.186 5.79815 202.944 5.55546 202.823 5.31277C202.702 5.07008 202.581 4.82738 202.581 4.58469C202.581 4.09931 202.823 3.61393 203.186 3.37124C203.55 3.0072 204.155 2.88586 204.882 2.88586C205.609 2.88586 206.214 3.00719 206.941 3.24989L206.578 4.09932C205.972 3.85663 205.366 3.73526 204.882 3.73526C204.398 3.73526 204.034 3.85662 203.792 3.97797C203.55 4.09931 203.429 4.342 203.429 4.58469C203.429 4.70604 203.429 4.94872 203.55 5.07007C203.671 5.19141 203.792 5.31278 203.913 5.43412C204.155 5.55547 204.519 5.67681 205.003 5.9195C205.73 6.16219 206.214 6.5262 206.578 6.76889C206.941 6.76889 207.062 7.13295 207.062 7.61833Z" fill="#AC6CFF"/>
<path d="M210.696 8.71043C210.817 8.71043 211.059 8.71043 211.18 8.71043C211.301 8.71043 211.422 8.71042 211.543 8.58908V9.31715C211.422 9.31715 211.301 9.43851 211.059 9.43851C210.817 9.43851 210.696 9.43851 210.453 9.43851C209.242 9.43851 208.637 8.83178 208.637 7.49698V3.73528H207.668V3.24991L208.637 2.88589L209 1.55109H209.606V3.00724H211.422V3.73528H209.606V7.49698C209.606 7.86102 209.727 8.22507 209.848 8.34641C210.09 8.5891 210.332 8.71043 210.696 8.71043Z" fill="#AC6CFF"/>
<path d="M214.935 8.71043C215.056 8.71043 215.298 8.71043 215.419 8.71043C215.54 8.71043 215.661 8.71042 215.783 8.58908V9.31715C215.661 9.31715 215.54 9.43851 215.298 9.43851C215.056 9.43851 214.935 9.43851 214.693 9.43851C213.481 9.43851 212.876 8.83178 212.876 7.49698V3.73528H211.907V3.24991L212.876 2.88589L213.239 1.55109H213.845V3.00724H215.661V3.73528H213.845V7.49698C213.845 7.86102 213.966 8.22507 214.087 8.34641C214.329 8.5891 214.571 8.71043 214.935 8.71043Z" fill="#AC6CFF"/>
<path d="M219.901 2.88586C220.143 2.88586 220.385 2.88587 220.627 3.00722L220.506 3.85663C220.264 3.85663 220.022 3.73527 219.779 3.73527C219.295 3.73527 218.811 3.97797 218.447 4.34201C218.084 4.70605 217.842 5.31281 217.842 5.91955V9.31726H216.873V2.88586H217.72L217.842 4.09934C218.084 3.7353 218.326 3.37123 218.689 3.12854C219.174 2.88584 219.537 2.88586 219.901 2.88586Z" fill="#AC6CFF"/>
<path d="M224.624 9.43848C223.655 9.43848 222.929 9.19577 222.444 8.58905C221.839 7.98233 221.596 7.25426 221.596 6.16216C221.596 5.1914 221.839 4.34199 222.323 3.73527C222.807 3.12855 223.534 2.76453 224.382 2.76453C225.23 2.76453 225.835 3.00723 226.32 3.61395C226.804 4.09933 227.047 4.82738 227.047 5.67679V6.28351H222.686C222.686 7.01158 222.929 7.61829 223.292 7.98233C223.655 8.34636 224.14 8.58905 224.866 8.58905C225.593 8.58905 226.199 8.46771 226.926 8.10368V8.95311C226.562 9.07445 226.199 9.19578 225.957 9.31712C225.351 9.43847 224.988 9.43848 224.624 9.43848ZM224.382 3.61395C223.898 3.61395 223.413 3.73529 223.171 4.09932C222.807 4.46336 222.686 4.94874 222.686 5.43412H226.078C226.078 4.8274 225.957 4.34201 225.714 3.97797C225.23 3.85663 224.866 3.61395 224.382 3.61395Z" fill="#AC6CFF"/>
<path d="M232.981 9.31723V5.19146C232.981 4.70607 232.86 4.22068 232.618 3.97799C232.376 3.7353 232.012 3.61397 231.528 3.61397C230.801 3.61397 230.317 3.85665 230.075 4.09935C229.711 4.46338 229.59 5.07012 229.59 5.91954V9.31723H228.621V2.88588H229.348L229.469 3.73528C229.711 3.37124 229.953 3.12858 230.317 3.00723C230.68 2.88589 231.043 2.76453 231.528 2.76453C232.255 2.76453 232.86 3.00722 233.224 3.37126C233.587 3.7353 233.829 4.34203 233.829 5.19146V9.31723H232.981V9.31723Z" fill="#AC6CFF"/>
<path d="M240.248 8.46774C239.764 9.07446 239.037 9.43848 238.189 9.43848C237.342 9.43848 236.736 9.19577 236.252 8.58905C235.767 7.98233 235.525 7.25426 235.525 6.16216C235.525 5.07006 235.767 4.342 236.252 3.73527C236.736 3.12855 237.342 2.88589 238.189 2.88589C239.037 2.88589 239.764 3.2499 240.127 3.85663H240.248V3.37126V2.88589V0.337646H241.217V9.43848H240.37L240.248 8.46774ZM238.311 8.7104C238.916 8.7104 239.401 8.58907 239.764 8.22503C240.006 7.861 240.248 7.25428 240.248 6.52622V6.28351C240.248 5.4341 240.127 4.70603 239.764 4.342C239.401 3.97796 239.037 3.73527 238.311 3.73527C237.705 3.73527 237.342 3.97796 236.978 4.342C236.736 4.82737 236.494 5.4341 236.494 6.16216C236.494 7.01157 236.615 7.6183 236.978 7.98233C237.342 8.34636 237.705 8.7104 238.311 8.7104Z" fill="#AC6CFF"/>
</svg>
