<svg width="244" height="236" viewBox="0 0 244 236" fill="none" xmlns="http://www.w3.org/2000/svg">
<g opacity="0.5">
<path opacity="0.5" d="M49.4162 112.797C49.4162 116.437 48.4472 119.713 46.6305 122.504C44.8137 125.295 42.1491 127.479 38.6367 129.057C35.1242 130.634 31.1273 131.362 26.4037 131.362C22.528 131.362 19.2578 131.12 16.5932 130.513C13.9286 129.906 11.264 129.057 8.35715 127.601V113.525C11.3851 115.102 14.5342 116.316 17.8044 117.165C21.0745 118.014 24.1025 118.5 26.7671 118.5C29.0683 118.5 30.8851 118.136 31.9752 117.286C33.0652 116.437 33.6708 115.466 33.6708 114.131C33.6708 113.282 33.4286 112.675 33.0652 112.069C32.5808 111.462 31.9752 110.855 30.8851 110.248C29.9162 109.642 27.3727 108.428 23.1335 106.487C19.3789 104.788 16.4721 103.089 14.5342 101.39C12.5963 99.8127 11.264 97.8712 10.295 95.8083C9.32609 93.7454 8.96274 91.1972 8.96274 88.2849C8.96274 82.9457 10.9006 78.6986 14.8975 75.6649C18.7733 72.6313 24.2236 71.1752 31.0062 71.1752C37.0621 71.1752 43.2392 72.6313 49.5373 75.4223L44.6926 87.6781C39.2423 85.1299 34.5187 83.9164 30.5218 83.9164C28.4628 83.9164 27.0093 84.2805 26.0404 85.0085C25.0714 85.7366 24.587 86.586 24.587 87.6781C24.587 88.7703 25.1926 89.8624 26.4037 90.7118C27.6149 91.5612 30.764 93.26 36.0932 95.6869C41.1801 97.9925 44.5715 100.419 46.6305 102.968C48.4472 105.637 49.4162 108.914 49.4162 112.797Z" fill="black"/>
<path opacity="0.5" d="M84.2981 130.634H68.5528V85.0086H54.2609V72.0247H98.5901V85.0086H84.2981V130.634Z" fill="black"/>
<path opacity="0.5" d="M127.78 93.7455L137.832 72.0247H154.91L135.652 107.7V130.634H119.786V108.186L100.528 72.0247H117.727L127.78 93.7455Z" fill="black"/>
<path opacity="0.5" d="M161.208 130.634V72.0247H176.953V117.772H199.481V130.513L161.208 130.634Z" fill="black"/>
<path opacity="0.5" d="M243.568 130.634H208.807V72.0247H243.568V84.7659H224.674V93.9882H242.236V106.608H224.674V117.651H243.568V130.634Z" fill="black"/>
</g>
<path d="M37.0621 96.779V71.4178H43.8447V91.1972H53.5342V96.779H37.0621Z" fill="black"/>
<path d="M70.0062 96.7791L68.6739 94.2308H68.5528C67.5839 95.3229 66.736 96.1723 65.7671 96.5364C64.7981 96.9004 63.587 97.1431 62.1335 97.1431C60.3168 97.1431 58.8634 96.5364 57.7733 95.4443C56.6832 94.3522 56.1988 92.7747 56.1988 90.7118C56.1988 88.6489 56.9255 87.0714 58.3789 85.9793C59.8323 85.0086 61.8913 84.4018 64.677 84.2805L67.9472 84.1591V83.9165C67.9472 82.339 67.0994 81.4896 65.5248 81.4896C64.0714 81.4896 62.2547 81.9749 60.0745 82.9457L58.1367 78.4559C60.4379 77.2425 63.3447 76.6357 66.736 76.6357C69.2795 76.6357 71.2174 77.2425 72.5497 78.4559C73.882 79.6694 74.6087 81.4895 74.6087 83.6738V96.5364H70.0062V96.7791ZM65.0404 92.2893C65.8882 92.2893 66.6149 92.0466 67.0994 91.5612C67.705 91.0758 67.9472 90.3478 67.9472 89.4983V87.9209L66.3727 88.0422C64.1925 88.1635 62.9814 88.8916 62.9814 90.4691C63.1025 91.6826 63.7081 92.2893 65.0404 92.2893Z" fill="black"/>
<path d="M88.9006 91.6825C89.8696 91.6825 90.9596 91.4398 92.1708 90.9545V95.9296C91.2019 96.2937 90.354 96.6577 89.5062 96.779C88.6584 96.9004 87.6894 97.0217 86.5994 97.0217C84.2981 97.0217 82.7236 96.415 81.6335 95.3229C80.6646 94.2308 80.1801 92.532 80.1801 90.2264V82.0963H77.7578V79.3053L80.7857 77.1211L82.4814 72.9954H86.9627V76.8784H91.8074V81.9749H86.9627V89.6197C87.0838 91.0758 87.6894 91.6825 88.9006 91.6825Z" fill="black"/>
<path d="M105.13 97.0218C101.86 97.0218 99.3168 96.1723 97.5 94.3522C95.6833 92.532 94.8354 90.1051 94.8354 86.9501C94.8354 83.6738 95.6833 81.1255 97.3789 79.3053C99.0745 77.4852 101.497 76.6357 104.525 76.6357C107.432 76.6357 109.733 77.3638 111.429 78.9413C113.003 80.5188 113.851 82.703 113.851 85.6153V88.6489H101.739C101.739 89.741 102.224 90.5905 102.95 91.1972C103.677 91.8039 104.767 92.1679 106.099 92.1679C107.311 92.1679 108.401 92.0466 109.37 91.8039C110.338 91.5612 111.429 91.1972 112.64 90.5905V95.4443C111.55 95.9296 110.46 96.415 109.37 96.5364C108.037 97.0218 106.705 97.0218 105.13 97.0218ZM104.767 81.3682C103.919 81.3682 103.314 81.6109 102.708 82.0963C102.224 82.5817 101.86 83.4311 101.739 84.5232H107.553C107.553 83.5524 107.311 82.8244 106.705 82.2176C106.342 81.6109 105.615 81.3682 104.767 81.3682Z" fill="black"/>
<path d="M132.745 90.7118C132.745 92.7747 132.019 94.3522 130.565 95.4443C129.112 96.5364 127.053 97.0218 124.388 97.0218C122.935 97.0218 121.724 96.9004 120.634 96.7791C119.543 96.6578 118.453 96.2937 117.363 95.9297V90.4691C118.453 90.9545 119.543 91.3185 120.876 91.5612C122.087 91.8039 123.298 92.0466 124.267 92.0466C125.721 92.0466 126.447 91.6826 126.447 91.0759C126.447 90.7118 126.205 90.4691 125.842 90.1051C125.478 89.8624 124.267 89.2557 122.208 88.5276C120.391 87.7995 119.18 86.9501 118.453 85.9794C117.727 85.0086 117.363 83.7951 117.363 82.339C117.363 80.5188 118.09 79.0627 119.422 78.0919C120.876 77.1211 122.814 76.5144 125.357 76.5144C126.689 76.5144 127.901 76.6358 128.991 76.9998C130.081 77.2425 131.292 77.7279 132.503 78.2132L130.686 82.5817C129.839 82.2176 128.87 81.8536 127.78 81.4896C126.811 81.2469 125.963 81.1255 125.357 81.1255C124.267 81.1255 123.661 81.3682 123.661 81.9749C123.661 82.339 123.904 82.5817 124.267 82.8244C124.63 83.0671 125.721 83.5524 127.658 84.2805C128.991 84.8872 130.081 85.3726 130.686 85.9794C131.413 86.4647 131.898 87.1928 132.14 87.9209C132.624 88.7703 132.745 89.6197 132.745 90.7118Z" fill="black"/>
<path d="M146.068 91.6825C147.037 91.6825 148.127 91.4398 149.339 90.9545V95.9296C148.37 96.2937 147.522 96.6577 146.674 96.779C145.826 96.9004 144.857 97.0217 143.767 97.0217C141.466 97.0217 139.891 96.415 138.801 95.3229C137.832 94.2308 137.348 92.532 137.348 90.2264V82.0963H134.925V79.3053L137.953 77.1211L139.649 72.9954H144.13V76.8784H148.975V81.9749H144.13V89.6197C144.252 91.0758 144.857 91.6825 146.068 91.6825Z" fill="black"/>
<path d="M49.4162 130.392L48.0839 127.844H47.9627C46.9938 128.936 46.146 129.785 45.177 130.149C44.2081 130.513 42.9969 130.756 41.5435 130.756C39.7267 130.756 38.2733 130.149 37.1832 129.057C36.0932 127.965 35.6087 126.387 35.6087 124.324C35.6087 122.262 36.3354 120.684 37.7888 119.592C39.2422 118.621 41.3013 118.015 44.087 117.893L47.3572 117.772V117.529C47.3572 115.952 46.5093 115.102 44.9348 115.102C43.4814 115.102 41.6646 115.588 39.4845 116.558L37.5466 112.069C39.8478 110.855 42.7547 110.248 46.146 110.248C48.6895 110.248 50.6273 110.855 51.9596 112.069C53.2919 113.282 54.0186 115.102 54.0186 117.286V130.149H49.4162V130.392ZM44.3292 125.902C45.177 125.902 45.9037 125.659 46.3882 125.174C46.9938 124.689 47.236 123.96 47.236 123.111V121.534L45.6615 121.655C43.4814 121.776 42.2702 122.504 42.2702 124.082C42.5124 125.295 43.118 125.902 44.3292 125.902Z" fill="black"/>
<path d="M70.6118 110.37C71.2174 110.37 71.7019 110.37 72.3075 110.491L72.6708 110.612L72.0652 117.044C71.4597 116.922 70.7329 116.801 69.764 116.801C68.3106 116.801 67.2205 117.165 66.4938 117.772C65.7671 118.5 65.5249 119.471 65.5249 120.684V130.392H58.7422V110.734H63.8292L64.9193 113.889H65.2826C65.8882 112.797 66.6149 111.947 67.705 111.341C68.5528 110.734 69.5218 110.37 70.6118 110.37Z" fill="black"/>
<path d="M87.205 110.37C87.8105 110.37 88.295 110.37 88.9006 110.491L89.264 110.612L88.6584 117.044C88.0528 116.922 87.3261 116.801 86.3571 116.801C84.9037 116.801 83.8136 117.165 83.0869 117.772C82.3602 118.5 82.118 119.471 82.118 120.684V130.392H75.3354V110.734H80.4223L81.5124 113.889H81.8758C82.4813 112.797 83.2081 111.947 84.2981 111.341C85.1459 110.734 86.1149 110.37 87.205 110.37Z" fill="black"/>
<path d="M91.8075 105.88C91.8075 104.909 92.0497 104.06 92.6553 103.574C93.2609 103.089 94.1087 102.846 95.441 102.846C96.6522 102.846 97.6211 103.089 98.2267 103.574C98.8323 104.06 99.0746 104.788 99.0746 105.88C99.0746 107.821 97.8634 108.914 95.441 108.914C93.0187 108.792 91.8075 107.821 91.8075 105.88ZM98.8323 130.392H92.0497V110.734H98.8323V130.392Z" fill="black"/>
<path d="M108.643 130.392L101.134 110.734H108.158L111.429 122.383C111.429 122.383 111.429 122.504 111.55 122.626C111.55 122.747 111.671 122.868 111.671 123.111C111.671 123.354 111.792 123.475 111.792 123.718C111.792 123.96 111.792 124.082 111.792 124.324H111.913C111.913 123.718 112.034 123.111 112.276 122.383L115.789 110.734H122.814L115.304 130.392H108.643V130.392Z" fill="black"/>
<path d="M137.953 130.392L136.621 127.844H136.5C135.531 128.936 134.683 129.785 133.714 130.149C132.745 130.513 131.534 130.756 130.081 130.756C128.264 130.756 126.811 130.149 125.72 129.057C124.63 127.965 124.146 126.387 124.146 124.324C124.146 122.262 124.873 120.684 126.326 119.592C127.779 118.621 129.839 118.015 132.624 117.893L135.894 117.772V117.529C135.894 115.952 135.047 115.102 133.472 115.102C132.019 115.102 130.202 115.588 128.022 116.558L126.084 112.069C128.385 110.855 131.292 110.248 134.683 110.248C137.227 110.248 139.165 110.855 140.497 112.069C141.829 113.282 142.556 115.102 142.556 117.286V130.149H137.953V130.392ZM132.988 125.902C133.835 125.902 134.562 125.659 135.047 125.174C135.652 124.689 135.894 123.96 135.894 123.111V121.534L134.32 121.655C132.14 121.776 130.929 122.504 130.929 124.082C131.05 125.295 131.655 125.902 132.988 125.902Z" fill="black"/>
<path d="M154.062 130.392H147.279V103.453H154.062V130.392Z" fill="black"/>
<path d="M173.925 124.324C173.925 126.387 173.199 127.965 171.745 129.057C170.292 130.149 168.233 130.634 165.568 130.634C164.115 130.634 162.904 130.513 161.814 130.392C160.724 130.27 159.634 129.906 158.543 129.542V124.082C159.634 124.567 160.724 124.931 162.056 125.174C163.267 125.417 164.478 125.659 165.447 125.659C166.901 125.659 167.627 125.295 167.627 124.689C167.627 124.324 167.385 124.082 167.022 123.718C166.658 123.475 165.447 122.868 163.388 122.14C161.571 121.412 160.36 120.563 159.634 119.592C158.907 118.621 158.543 117.408 158.543 115.952C158.543 114.131 159.27 112.675 160.602 111.705C162.056 110.734 163.994 110.127 166.537 110.127C167.87 110.127 169.081 110.248 170.171 110.612C171.261 110.976 172.472 111.341 173.683 111.826L171.866 116.194C171.019 115.83 170.05 115.466 168.96 115.102C167.991 114.86 167.143 114.738 166.537 114.738C165.447 114.738 164.842 114.981 164.842 115.588C164.842 115.952 165.084 116.194 165.447 116.437C165.811 116.68 166.901 117.165 168.839 117.893C170.171 118.5 171.261 118.985 171.866 119.592C172.593 120.077 173.078 120.805 173.32 121.534C173.683 122.383 173.925 123.354 173.925 124.324Z" fill="black"/>
<path d="M181.435 234.142L181.193 232.929L180.829 231.472L180.224 234.142H179.255L178.286 230.866H179.134L179.497 232.322C179.618 232.565 179.618 232.929 179.739 233.414C179.739 233.293 179.739 233.05 179.86 232.686V232.443L180.224 230.866H181.193L181.556 232.443C181.556 232.443 181.556 232.565 181.556 232.686C181.556 232.807 181.556 232.807 181.556 232.929C181.556 233.05 181.556 233.171 181.556 233.171C181.556 233.293 181.556 233.293 181.556 233.414C181.556 233.293 181.556 233.05 181.677 232.807C181.677 232.565 181.798 232.443 181.798 232.322L182.161 230.866H183.009L182.04 234.142H181.435V234.142Z" fill="black"/>
<path d="M186.643 234.142L186.401 232.929L186.037 231.472L185.432 234.142H184.463L183.494 230.866H184.342L184.705 232.322C184.826 232.565 184.826 232.929 184.947 233.414C184.947 233.293 184.947 233.05 185.068 232.686V232.443L185.432 230.866H186.401L186.764 232.443C186.764 232.443 186.764 232.565 186.764 232.686C186.764 232.807 186.764 232.807 186.764 232.929C186.764 233.05 186.764 233.171 186.764 233.171C186.764 233.293 186.764 233.293 186.764 233.414C186.764 233.293 186.764 233.05 186.885 232.807C186.885 232.565 187.006 232.443 187.006 232.322L187.37 230.866H188.217L187.248 234.142H186.643V234.142Z" fill="black"/>
<path d="M191.851 234.142L191.609 232.929L191.245 231.472L190.64 234.142H189.671L188.702 230.866H189.55L189.913 232.322C190.034 232.565 190.034 232.929 190.155 233.414C190.155 233.293 190.155 233.05 190.276 232.686V232.443L190.64 230.866H191.609L191.972 232.443C191.972 232.443 191.972 232.565 191.972 232.686C191.972 232.807 191.972 232.807 191.972 232.929C191.972 233.05 191.972 233.171 191.972 233.171C191.972 233.293 191.972 233.293 191.972 233.414C191.972 233.293 191.972 233.05 192.093 232.807C192.093 232.565 192.214 232.443 192.214 232.322L192.578 230.866H193.425L192.457 234.142H191.851V234.142Z" fill="black"/>
<path d="M194.152 233.657C194.152 233.535 194.152 233.414 194.273 233.293C194.394 233.171 194.516 233.171 194.637 233.171C194.758 233.171 194.879 233.171 195 233.293C195.121 233.414 195.121 233.535 195.121 233.657C195.121 233.778 195.121 233.899 195 234.021C194.879 234.142 194.758 234.142 194.637 234.142C194.516 234.142 194.394 234.142 194.273 234.021C194.273 233.899 194.152 233.778 194.152 233.657Z" fill="black"/>
<path d="M197.543 234.142C197.059 234.142 196.575 234.021 196.332 233.657C196.09 233.414 195.848 232.929 195.848 232.443C195.848 231.837 195.969 231.472 196.211 231.108C196.453 230.866 196.817 230.623 197.301 230.623C197.786 230.623 198.149 230.744 198.391 230.987C198.634 231.23 198.755 231.594 198.755 232.079V232.565H196.696C196.696 232.807 196.817 233.05 196.938 233.171C197.059 233.293 197.301 233.414 197.543 233.414C197.786 233.414 197.907 233.414 198.149 233.293C198.27 233.293 198.512 233.171 198.755 233.05V233.778C198.634 233.899 198.391 233.899 198.27 233.899C198.028 234.142 197.786 234.142 197.543 234.142ZM197.422 231.351C197.18 231.351 197.059 231.351 196.938 231.594C196.817 231.715 196.817 231.837 196.696 232.079H197.907C197.907 231.837 197.786 231.715 197.786 231.594C197.786 231.472 197.543 231.351 197.422 231.351Z" fill="black"/>
<path d="M200.329 232.443L199.239 230.866H200.208L200.814 231.958L201.419 230.866H202.388L201.298 232.443L202.388 234.142H201.54L200.814 233.05L200.087 234.142H199.118L200.329 232.443Z" fill="black"/>
<path d="M205.174 234.142L205.053 233.657C204.932 233.899 204.689 234.021 204.568 234.021C204.447 234.142 204.205 234.142 203.963 234.142C203.599 234.142 203.357 234.021 203.236 233.899C202.994 233.657 202.994 233.414 202.994 233.171C202.994 232.807 203.115 232.565 203.357 232.443C203.599 232.322 203.963 232.201 204.447 232.201H205.053V232.079C205.053 231.715 204.932 231.594 204.568 231.594C204.326 231.594 203.963 231.715 203.599 231.836L203.357 231.23C203.72 230.987 204.205 230.987 204.568 230.987C205.053 230.987 205.295 231.108 205.537 231.23C205.779 231.472 205.901 231.715 205.901 232.079V234.263H205.174V234.142ZM204.932 232.565H204.568C204.326 232.565 204.084 232.565 203.963 232.686C203.842 232.807 203.72 232.929 203.72 233.05C203.72 233.293 203.842 233.414 204.205 233.414C204.447 233.414 204.568 233.414 204.689 233.293C204.811 233.171 204.932 233.05 204.932 232.807V232.565V232.565Z" fill="black"/>
<path d="M209.776 234.142H208.807V232.201C208.807 231.958 208.807 231.836 208.686 231.715C208.565 231.594 208.444 231.594 208.323 231.594C208.081 231.594 207.96 231.715 207.839 231.836C207.717 231.958 207.717 232.322 207.717 232.686V234.263H206.87V230.987H207.596L207.717 231.351C207.839 231.23 207.96 231.108 208.081 230.987C208.202 230.866 208.444 230.866 208.686 230.866C209.171 230.866 209.534 230.987 209.655 231.351H209.776C209.898 231.23 210.019 231.108 210.14 230.987C210.261 230.866 210.503 230.866 210.745 230.866C211.109 230.866 211.351 230.987 211.593 231.108C211.835 231.351 211.835 231.594 211.835 232.079V234.263H210.988V232.322C210.988 232.079 210.988 231.958 210.866 231.836C210.745 231.715 210.624 231.715 210.503 231.715C210.261 231.715 210.14 231.836 210.019 231.958C209.898 232.079 209.898 232.322 209.898 232.686L209.776 234.142Z" fill="black"/>
<path d="M214.5 234.142C214.137 234.142 213.773 234.021 213.531 233.778C213.531 234.021 213.531 234.263 213.531 234.263V235.598H212.683V230.866H213.41L213.531 231.351C213.773 230.987 214.016 230.866 214.5 230.866C214.863 230.866 215.227 230.987 215.469 231.351C215.711 231.594 215.832 232.079 215.832 232.565C215.832 232.929 215.832 233.171 215.711 233.535C215.59 233.778 215.469 234.021 215.227 234.142C214.984 234.142 214.742 234.142 214.5 234.142ZM214.258 231.472C214.016 231.472 213.894 231.594 213.773 231.715C213.652 231.836 213.652 232.079 213.652 232.443V232.565C213.652 232.929 213.652 233.171 213.773 233.293C213.894 233.414 214.016 233.535 214.258 233.535C214.621 233.535 214.863 233.171 214.863 232.565C214.863 232.201 214.863 231.958 214.742 231.836C214.621 231.472 214.5 231.472 214.258 231.472Z" fill="black"/>
<path d="M217.407 234.142H216.559V229.531H217.407V234.142Z" fill="black"/>
<path d="M219.95 234.142C219.466 234.142 218.981 234.021 218.739 233.657C218.497 233.414 218.255 232.929 218.255 232.443C218.255 231.837 218.376 231.472 218.618 231.108C218.86 230.866 219.224 230.623 219.708 230.623C220.193 230.623 220.556 230.744 220.798 230.987C221.04 231.23 221.161 231.594 221.161 232.079V232.565H218.981C218.981 232.807 219.102 233.05 219.224 233.171C219.345 233.293 219.587 233.414 219.829 233.414C220.071 233.414 220.193 233.414 220.435 233.293C220.556 233.293 220.798 233.171 221.04 233.05V233.778C220.919 233.899 220.677 233.899 220.556 233.899C220.435 234.142 220.193 234.142 219.95 234.142ZM219.829 231.351C219.587 231.351 219.466 231.351 219.345 231.594C219.224 231.715 219.224 231.837 219.102 232.079H220.314C220.314 231.837 220.193 231.715 220.193 231.594C220.071 231.472 219.95 231.351 219.829 231.351Z" fill="black"/>
<path d="M221.888 233.657C221.888 233.535 221.888 233.414 222.009 233.293C222.13 233.171 222.252 233.171 222.373 233.171C222.494 233.171 222.615 233.171 222.736 233.293C222.857 233.414 222.857 233.535 222.857 233.657C222.857 233.778 222.857 233.899 222.736 234.021C222.615 234.142 222.494 234.142 222.373 234.142C222.252 234.142 222.13 234.142 222.009 234.021C221.888 233.899 221.888 233.778 221.888 233.657Z" fill="black"/>
<path d="M225.037 234.142C224.068 234.142 223.463 233.535 223.463 232.443C223.463 231.837 223.584 231.472 223.826 231.108C224.068 230.866 224.553 230.623 225.037 230.623C225.401 230.623 225.764 230.744 226.006 230.866L225.764 231.594C225.643 231.594 225.522 231.472 225.401 231.472C225.28 231.472 225.158 231.472 225.037 231.472C224.553 231.472 224.311 231.837 224.311 232.443C224.311 233.05 224.553 233.414 225.037 233.414C225.158 233.414 225.401 233.414 225.522 233.293C225.643 233.293 225.764 233.171 226.006 233.05V233.778C225.885 233.899 225.764 233.899 225.522 234.021C225.522 234.142 225.279 234.142 225.037 234.142Z" fill="black"/>
<path d="M229.882 232.443C229.882 232.929 229.761 233.414 229.398 233.657C229.155 233.899 228.671 234.142 228.186 234.142C227.823 234.142 227.581 234.021 227.338 233.899C227.096 233.778 226.854 233.535 226.733 233.293C226.612 233.05 226.491 232.686 226.491 232.322C226.491 231.836 226.612 231.351 226.854 231.108C227.096 230.866 227.581 230.623 228.065 230.623C228.429 230.623 228.671 230.744 228.913 230.866C229.155 230.987 229.398 231.23 229.519 231.472C229.761 231.837 229.882 232.079 229.882 232.443ZM227.581 232.443C227.581 232.807 227.581 233.05 227.702 233.171C227.823 233.293 227.944 233.414 228.186 233.414C228.429 233.414 228.55 233.293 228.671 233.171C228.792 233.05 228.792 232.807 228.792 232.443C228.792 232.079 228.792 231.836 228.671 231.715C228.55 231.594 228.429 231.472 228.186 231.472C227.944 231.472 227.823 231.594 227.702 231.715C227.581 231.836 227.581 232.079 227.581 232.443Z" fill="black"/>
<path d="M233.516 234.142H232.668V232.201C232.668 231.958 232.668 231.836 232.547 231.715C232.425 231.594 232.304 231.594 232.183 231.594C231.941 231.594 231.82 231.715 231.699 231.836C231.578 231.958 231.578 232.322 231.578 232.686V234.263H230.609V230.987H231.335L231.457 231.351C231.578 231.23 231.699 231.108 231.82 230.987C231.941 230.866 232.183 230.866 232.425 230.866C232.91 230.866 233.273 230.987 233.394 231.351H233.516C233.637 231.23 233.758 231.108 233.879 230.987C234 230.866 234.242 230.866 234.485 230.866C234.848 230.866 235.09 230.987 235.332 231.108C235.575 231.351 235.575 231.594 235.575 232.079V234.263H234.727V232.322C234.727 232.079 234.727 231.958 234.606 231.836C234.484 231.715 234.363 231.715 234.242 231.715C234 231.715 233.879 231.836 233.758 231.958C233.637 232.079 233.637 232.322 233.637 232.686L233.516 234.142Z" fill="black"/>
<path d="M2.78571 119.835L3.75465 120.077V119.228H4.11801V120.077L5.32919 120.32V120.684L4.11801 120.441V121.291L5.32919 121.533V121.898L4.11801 121.655V122.383H3.75465V121.533L2.78571 121.291V122.14H2.42235V121.291L1.09006 121.048V120.684L2.42235 120.927V120.077L1.09006 119.956V119.592L2.42235 119.835V119.107H2.78571V119.835V119.835ZM3.75465 121.412V120.563L2.78571 120.32V121.169L3.75465 121.412Z" fill="black"/>
<path d="M4.48135 116.194C4.72359 116.194 4.96583 116.316 5.20807 116.558C5.32919 116.801 5.4503 117.044 5.4503 117.529C5.4503 118.015 5.32919 118.257 5.20807 118.5H4.72359C4.84471 118.379 4.8447 118.136 4.96582 118.015C4.96582 117.893 5.08695 117.65 5.08695 117.529C5.08695 117.286 5.08694 117.044 4.96582 116.922C4.8447 116.801 4.72359 116.68 4.60247 116.68C4.48135 116.68 4.36023 116.68 4.23911 116.801C4.11799 116.922 3.99688 117.165 3.87576 117.408C3.75464 117.65 3.63351 117.893 3.63351 118.015C3.51239 118.136 3.5124 118.257 3.39128 118.257C3.27016 118.379 3.14904 118.379 3.02792 118.379C2.78568 118.379 2.54344 118.257 2.42232 118.015C2.3012 117.772 2.18008 117.529 2.18008 117.165C2.18008 116.801 2.3012 116.437 2.42232 116.194L2.78568 116.316C2.66456 116.68 2.54344 116.922 2.54344 117.165C2.54344 117.408 2.54344 117.529 2.66456 117.65C2.78568 117.772 2.78568 117.772 2.9068 117.772C3.02792 117.772 3.02791 117.772 3.14903 117.65C3.27015 117.65 3.27016 117.529 3.27016 117.408C3.27016 117.286 3.39128 117.165 3.51239 116.801C3.63351 116.437 3.75464 116.194 3.87576 116.073C4.118 116.316 4.36023 116.194 4.48135 116.194Z" fill="black"/>
<path d="M3.75467 112.675C4.23914 112.675 4.72361 112.797 4.96585 113.039C5.20809 113.282 5.45033 113.646 5.45033 114.131C5.45033 114.374 5.32921 114.738 5.20809 114.86C5.08697 115.102 4.84474 115.224 4.6025 115.345C4.36026 115.466 3.9969 115.588 3.75467 115.588C3.2702 115.588 2.78572 115.466 2.54349 115.224C2.30125 114.981 2.05902 114.617 2.05902 114.131C2.05902 113.646 2.18013 113.282 2.54349 113.039C2.90684 112.797 3.2702 112.675 3.75467 112.675ZM3.75467 115.102C4.11802 115.102 4.48138 114.981 4.72362 114.86C4.96585 114.738 5.08698 114.495 5.08698 114.131C5.08698 113.767 4.96585 113.525 4.72362 113.403C4.48138 113.282 4.23914 113.161 3.75467 113.161C3.39131 113.161 3.02796 113.282 2.78573 113.403C2.54349 113.525 2.42237 113.767 2.42237 114.131C2.42237 114.495 2.54349 114.738 2.78573 114.86C3.02796 114.981 3.39131 115.102 3.75467 115.102Z" fill="black"/>
<path d="M5.45033 110.491C5.45033 110.976 5.32921 111.34 4.96585 111.583C4.72361 111.826 4.23914 111.947 3.75467 111.947C3.2702 111.947 2.78572 111.826 2.54349 111.583C2.30125 111.34 2.05902 110.976 2.05902 110.491C2.05902 110.37 2.05902 110.127 2.05902 110.006C2.05902 109.884 2.18014 109.763 2.18014 109.642L2.54349 109.763C2.54349 109.884 2.42237 110.006 2.42237 110.127C2.42237 110.248 2.42237 110.37 2.42237 110.491C2.42237 111.098 2.78572 111.462 3.63355 111.462C3.99691 111.462 4.36026 111.34 4.6025 111.219C4.84474 111.098 4.96585 110.855 4.96585 110.491C4.96585 110.248 4.96585 109.884 4.84473 109.642H5.32921C5.45033 109.884 5.45033 110.127 5.45033 110.491Z" fill="black"/>
<path d="M1.33228 108.914C1.21116 108.914 1.09005 108.914 1.09005 108.792C1.09005 108.792 0.968933 108.671 0.968933 108.55C0.968933 108.428 0.968931 108.428 1.09005 108.307C1.09005 108.307 1.21116 108.186 1.33228 108.186C1.4534 108.186 1.57452 108.186 1.57452 108.307C1.57452 108.307 1.69564 108.428 1.69564 108.55C1.69564 108.671 1.69564 108.671 1.57452 108.792C1.45341 108.914 1.4534 108.914 1.33228 108.914ZM5.4503 108.428V108.914H2.18011V108.428H5.4503Z" fill="black"/>
<path d="M5.45029 105.395L4.96581 105.516C5.20805 105.637 5.32917 105.88 5.32917 106.001C5.45029 106.123 5.45029 106.365 5.45029 106.608C5.45029 106.972 5.32917 107.215 5.20805 107.336C5.08694 107.579 4.8447 107.579 4.48135 107.579C3.87576 107.579 3.5124 107.093 3.5124 106.001V105.395H3.27017C3.02793 105.395 2.7857 105.395 2.66458 105.516C2.54346 105.637 2.42234 105.759 2.42234 106.001C2.42234 106.244 2.54346 106.608 2.66458 106.972L2.30122 107.093C2.18011 106.972 2.18011 106.729 2.05899 106.608C2.05899 106.365 1.93787 106.244 1.93787 106.001C1.93787 105.637 2.05899 105.273 2.18011 105.152C2.30123 104.909 2.66458 104.909 3.02793 104.909H5.20805V105.395H5.45029ZM5.08694 106.487C5.08694 106.123 4.96582 105.88 4.8447 105.759C4.72358 105.637 4.48135 105.516 4.11799 105.516H3.87576V106.001C3.87576 106.365 3.99687 106.729 4.11799 106.851C4.23911 106.972 4.36023 107.093 4.60247 107.093C4.72358 107.093 4.96581 107.093 4.96581 106.972C4.96581 106.851 5.08694 106.608 5.08694 106.487Z" fill="black"/>
<path d="M5.4503 103.453V103.938H0.847839V103.453H5.4503Z" fill="black"/>
<path d="M5.45033 98.2351H3.39132C3.14908 98.2351 2.90685 98.2351 2.78573 98.3565C2.66461 98.4778 2.54349 98.5992 2.54349 98.8419C2.54349 99.2059 2.66461 99.3272 2.78573 99.5699C2.90685 99.6913 3.2702 99.8126 3.63355 99.8126H5.45033V100.298H3.39132C3.14908 100.298 2.90685 100.298 2.78573 100.419C2.66461 100.541 2.54349 100.662 2.54349 100.905C2.54349 101.269 2.66461 101.39 2.78573 101.633C3.02796 101.754 3.2702 101.875 3.63355 101.875H5.32921V102.361H2.05902V101.997L2.54349 101.875C2.42237 101.754 2.30126 101.633 2.18014 101.511C2.05902 101.39 2.05902 101.147 2.05902 100.905C2.05902 100.419 2.30126 100.055 2.66461 99.934C2.54349 99.8126 2.30125 99.6913 2.30125 99.5699C2.18014 99.3272 2.18014 99.2059 2.18014 98.9632C2.18014 98.5992 2.30125 98.3565 2.42237 98.1138C2.66461 97.8711 2.90685 97.8711 3.2702 97.8711H5.32921V98.2351H5.45033Z" fill="black"/>
<path d="M5.45033 95.4443C5.45033 95.9297 5.32921 96.2937 4.96585 96.5364C4.72361 96.7791 4.23914 96.9004 3.75467 96.9004C3.2702 96.9004 2.78572 96.7791 2.54349 96.5364C2.18013 96.2937 2.05902 95.9297 2.05902 95.4443C2.05902 95.0803 2.18013 94.7162 2.42237 94.4735C2.66461 94.2308 3.02796 94.1095 3.51244 94.1095H3.87579V96.2937C4.23915 96.2937 4.6025 96.1724 4.72362 96.051C4.96585 95.8083 4.96585 95.5656 4.96585 95.3229C4.96585 94.9589 4.84474 94.5949 4.72362 94.2308H5.20809C5.32921 94.3522 5.32921 94.5949 5.32921 94.7162C5.45033 94.9589 5.45033 95.2016 5.45033 95.4443ZM2.54349 95.5656C2.54349 95.8083 2.66461 96.051 2.78573 96.1724C2.90685 96.2937 3.14908 96.415 3.51244 96.415V94.7162C3.14908 94.7162 2.90685 94.8376 2.78573 94.9589C2.54349 95.0803 2.54349 95.3229 2.54349 95.5656Z" fill="black"/>
<path d="M4.96583 91.1972C5.32918 91.4399 5.4503 91.8039 5.4503 92.2893C5.4503 92.6533 5.32918 93.0173 4.96583 93.26C4.72359 93.5027 4.23912 93.6241 3.75464 93.6241C3.27017 93.6241 2.7857 93.5027 2.54346 93.26C2.30122 93.0173 2.05899 92.6533 2.05899 92.2893C2.05899 91.8039 2.1801 91.5612 2.54346 91.3185H2.30123H2.05899H0.726685V90.8331H5.32919V91.1972H4.96583ZM5.08695 92.1679C5.08695 91.8039 4.96583 91.5612 4.84471 91.4399C4.60247 91.3185 4.36024 91.1972 3.99689 91.1972H3.87577C3.3913 91.1972 3.14906 91.3185 2.90682 91.4399C2.66458 91.5612 2.66459 91.8039 2.66459 92.1679C2.66459 92.4106 2.7857 92.6533 3.02794 92.7747C3.27017 92.896 3.51241 93.0173 3.99689 93.0173C4.36024 93.0173 4.72359 92.896 4.96583 92.7747C4.96583 92.6533 5.08695 92.4106 5.08695 92.1679Z" fill="black"/>
<path d="M1.33228 89.741C1.21116 89.741 1.09005 89.741 1.09005 89.6197C1.09005 89.6197 0.968933 89.4983 0.968933 89.377C0.968933 89.2556 0.968931 89.2556 1.09005 89.1343C1.09005 89.1343 1.21116 89.0129 1.33228 89.0129C1.4534 89.0129 1.57452 89.0129 1.57452 89.1343C1.57452 89.1343 1.69564 89.2556 1.69564 89.377C1.69564 89.4983 1.69564 89.4983 1.57452 89.6197C1.45341 89.741 1.4534 89.741 1.33228 89.741ZM5.4503 89.1343V89.6197H2.18011V89.1343H5.4503Z" fill="black"/>
<path d="M5.45029 86.1006L4.96581 86.222C5.20805 86.3433 5.32917 86.586 5.32917 86.7073C5.45029 86.8287 5.45029 87.0714 5.45029 87.3141C5.45029 87.6781 5.32917 87.9208 5.20805 88.0421C5.08694 88.2848 4.8447 88.2848 4.48135 88.2848C3.87576 88.2848 3.5124 87.7995 3.5124 86.7073V86.1006H3.27017C3.02793 86.1006 2.7857 86.1006 2.66458 86.222C2.54346 86.3433 2.42234 86.4646 2.42234 86.7073C2.42234 86.95 2.54346 87.3141 2.66458 87.6781L2.30122 87.7995C2.18011 87.6781 2.18011 87.4354 2.05899 87.3141C2.05899 87.0714 1.93787 86.95 1.93787 86.7073C1.93787 86.3433 2.05899 85.9793 2.18011 85.8579C2.30123 85.6152 2.66458 85.6152 3.02793 85.6152H5.20805V86.1006H5.45029ZM5.08694 87.1927C5.08694 86.8287 4.96582 86.586 4.8447 86.4647C4.72358 86.3433 4.48135 86.222 4.11799 86.222H3.87576V86.7073C3.87576 87.0714 3.99687 87.4354 4.11799 87.5568C4.23911 87.6781 4.36023 87.7995 4.60247 87.7995C4.72358 87.7995 4.96581 87.7995 4.96581 87.6781C4.96581 87.5568 5.08694 87.4354 5.08694 87.1927Z" fill="black"/>
<path d="M2.78571 80.7614L3.75465 81.0041V80.1547H4.11801V81.0041L5.32919 81.2468V81.6108L4.11801 81.3681V82.2176L5.32919 82.4602V82.8243L4.11801 82.5816V83.3097H3.75465V82.4602L2.78571 82.2176V83.067H2.42235V82.2176L1.09006 81.9749V81.6108L2.42235 81.8535V81.1254L1.09006 80.8828V80.5187L2.42235 80.7614V79.912H2.78571V80.7614ZM3.75465 82.3389V81.4895L2.78571 81.2468V82.0962L3.75465 82.3389Z" fill="black"/>
<path d="M5.45033 77.9705C5.45033 78.4559 5.32921 78.8199 4.96585 79.0626C4.72361 79.3053 4.23914 79.4267 3.75467 79.4267C3.2702 79.4267 2.78572 79.3053 2.54349 79.0626C2.30125 78.8199 2.05902 78.4559 2.05902 77.9705C2.05902 77.8492 2.05902 77.6065 2.05902 77.4851C2.05902 77.3638 2.18014 77.2424 2.18014 77.1211L2.54349 77.2424C2.54349 77.3638 2.42237 77.4851 2.42237 77.6065C2.42237 77.7278 2.42237 77.8492 2.42237 77.9705C2.42237 78.5772 2.78572 78.9413 3.63355 78.9413C3.99691 78.9413 4.36026 78.8199 4.6025 78.6986C4.84474 78.5772 4.96585 78.3345 4.96585 77.9705C4.96585 77.7278 4.96585 77.3638 4.84473 77.1211H5.32921C5.45033 77.3638 5.45033 77.6065 5.45033 77.9705Z" fill="black"/>
<path d="M2.18008 75.9076H4.2391C4.48134 75.9076 4.72357 75.9076 4.84469 75.7862C4.96581 75.6649 5.08694 75.4222 5.08694 75.1795C5.08694 74.8155 4.96581 74.5728 4.84469 74.4515C4.60246 74.3301 4.36022 74.2088 3.99687 74.2088H2.3012V73.7234H5.5714V74.0874L5.08694 74.2088C5.20805 74.3301 5.32917 74.4515 5.45029 74.5728C5.57141 74.6941 5.5714 74.9368 5.5714 75.1795C5.5714 75.5436 5.45029 75.9076 5.32917 76.0289C5.08693 76.2716 4.8447 76.2716 4.48134 76.2716H2.3012V75.9076H2.18008Z" fill="black"/>
<path d="M4.48135 70.5685C4.72359 70.5685 4.96583 70.6898 5.20807 70.9325C5.32919 71.1752 5.4503 71.4179 5.4503 71.9033C5.4503 72.3887 5.32919 72.6314 5.20807 72.874H4.72359C4.84471 72.7527 4.8447 72.51 4.96582 72.3887C4.96582 72.2673 5.08695 72.0246 5.08695 71.9033C5.08695 71.6606 5.08694 71.4179 4.96582 71.2966C4.8447 71.1752 4.72359 71.0539 4.60247 71.0539C4.48135 71.0539 4.36023 71.0539 4.23911 71.1752C4.11799 71.2966 3.99688 71.5393 3.87576 71.7819C3.75464 72.0246 3.63351 72.2673 3.63351 72.3887C3.51239 72.51 3.5124 72.6314 3.39128 72.6314C3.27016 72.7527 3.14904 72.7527 3.02792 72.7527C2.78568 72.7527 2.54344 72.6314 2.42232 72.3887C2.3012 72.146 2.18008 71.9033 2.18008 71.5393C2.18008 71.1752 2.3012 70.8112 2.42232 70.5685L2.78568 70.6898C2.66456 71.0539 2.54344 71.2966 2.54344 71.5393C2.54344 71.7819 2.54344 71.9033 2.66456 72.0246C2.78568 72.146 2.78568 72.146 2.9068 72.146C3.02792 72.146 3.02791 72.146 3.14903 72.0246C3.27015 72.0246 3.27016 71.9033 3.27016 71.7819C3.27016 71.6606 3.39128 71.5393 3.51239 71.1752C3.63351 70.8112 3.75464 70.5685 3.87576 70.4471C4.118 70.5685 4.36023 70.5685 4.48135 70.5685Z" fill="black"/>
<path d="M5.08696 68.7482C5.08696 68.6269 5.08696 68.6268 5.08696 68.5055C5.08696 68.3842 5.08696 68.3842 5.08696 68.2628H5.45031C5.45031 68.2628 5.45031 68.3842 5.57143 68.5055C5.57143 68.6268 5.57143 68.7482 5.57143 68.7482C5.57143 69.3549 5.20808 69.719 4.60249 69.719H2.66461V70.2043H2.42237L2.18013 69.719L1.45343 69.4763V69.2336H2.18013V68.2628H2.54348V69.2336H4.48137C4.72361 69.2336 4.84472 69.2336 4.96584 69.1122C4.96584 68.9909 5.08696 68.8695 5.08696 68.7482Z" fill="black"/>
<path d="M3.75467 64.8652C4.23914 64.8652 4.72361 64.9866 4.96585 65.2293C5.20809 65.472 5.45033 65.836 5.45033 66.3214C5.45033 66.5641 5.32921 66.9281 5.20809 67.0495C5.08697 67.2922 4.84474 67.4135 4.6025 67.5349C4.48138 67.7775 4.11802 67.7775 3.75467 67.7775C3.2702 67.7775 2.78572 67.6562 2.54349 67.4135C2.30125 67.1708 2.05902 66.8068 2.05902 66.3214C2.05902 65.836 2.18013 65.472 2.54349 65.2293C2.90684 64.9866 3.2702 64.8652 3.75467 64.8652ZM3.75467 67.2922C4.11802 67.2922 4.48138 67.1708 4.72362 67.0495C4.96585 66.9281 5.08698 66.6854 5.08698 66.3214C5.08698 65.9574 4.96585 65.7147 4.72362 65.5933C4.48138 65.472 4.23914 65.3506 3.75467 65.3506C3.39131 65.3506 3.02796 65.472 2.78573 65.5933C2.54349 65.7147 2.42237 65.9574 2.42237 66.3214C2.42237 66.6854 2.54349 66.9281 2.78573 67.0495C3.02796 67.1708 3.39131 67.2922 3.75467 67.2922Z" fill="black"/>
<path d="M5.45033 59.7687H3.39132C3.14908 59.7687 2.90685 59.7687 2.78573 59.89C2.66461 60.0114 2.54349 60.1327 2.54349 60.3754C2.54349 60.7395 2.66461 60.8608 2.78573 61.1035C2.90685 61.2249 3.2702 61.3462 3.63355 61.3462H5.45033V61.8316H3.39132C3.14908 61.8316 2.90685 61.8316 2.78573 61.9529C2.66461 62.0743 2.54349 62.1956 2.54349 62.4383C2.54349 62.8024 2.66461 62.9237 2.78573 63.1664C3.02796 63.2877 3.2702 63.4091 3.63355 63.4091H5.32921V63.8945H2.05902V63.5304L2.54349 63.4091C2.42237 63.2877 2.30126 63.1664 2.18014 63.045C2.05902 62.9237 2.05902 62.681 2.05902 62.4383C2.05902 61.9529 2.30126 61.5889 2.66461 61.4676C2.54349 61.3462 2.30125 61.2249 2.30125 61.1035C2.18014 60.8608 2.18014 60.7395 2.18014 60.4968C2.18014 60.1327 2.30125 59.8901 2.42237 59.6474C2.66461 59.4047 2.90685 59.4047 3.2702 59.4047H5.32921V59.7687H5.45033Z" fill="black"/>
<path d="M5.4503 56.1283H3.39131C3.14907 56.1283 2.90684 56.2497 2.78572 56.2497C2.6646 56.371 2.54348 56.6137 2.54348 56.8564C2.54348 57.2204 2.6646 57.4631 2.78572 57.5845C3.02795 57.7058 3.27018 57.8272 3.75465 57.8272H5.4503V58.3126H0.847839V57.8272H2.18013C2.30125 57.8272 2.54348 57.8272 2.54348 57.8272C2.42236 57.7058 2.30125 57.5845 2.18013 57.4631C2.05901 57.3418 2.05902 57.0991 2.05902 56.8564C2.05902 56.4924 2.18013 56.1283 2.30125 56.007C2.54348 55.6429 2.90684 55.6429 3.27019 55.6429H5.32919V56.1283H5.4503Z" fill="black"/>
<path d="M5.45033 52.6093L4.96585 52.7306C5.20809 52.852 5.32921 53.0947 5.32921 53.216C5.45033 53.3373 5.45033 53.58 5.45033 53.8227C5.45033 54.1868 5.32921 54.4295 5.20809 54.5508C5.08697 54.7935 4.84474 54.7935 4.48138 54.7935C3.87579 54.7935 3.51244 54.3081 3.51244 53.216V52.6093H3.2702C3.02797 52.6093 2.78573 52.6093 2.66461 52.7306C2.54349 52.852 2.42237 52.9733 2.42237 53.216C2.42237 53.4587 2.54349 53.8227 2.66461 54.1868L2.42237 54.4295C2.30125 54.3081 2.30126 54.0654 2.18014 53.9441C2.18014 53.7014 2.05902 53.58 2.05902 53.3373C2.05902 52.9733 2.18014 52.6093 2.30125 52.4879C2.42237 52.2452 2.78572 52.2452 3.14908 52.2452H5.32921V52.6093H5.45033ZM5.08698 53.7014C5.08698 53.3374 4.96585 53.0947 4.84473 52.9733C4.72362 52.852 4.48138 52.7306 4.11803 52.7306H3.87579V53.216C3.87579 53.58 3.99691 53.9441 4.11803 54.0654C4.23914 54.1868 4.36026 54.3081 4.6025 54.3081C4.72362 54.3081 4.96585 54.3081 4.96585 54.1868C4.96585 54.0654 5.08698 53.9441 5.08698 53.7014Z" fill="black"/>
<path d="M4.48135 49.0903C4.72359 49.0903 4.96583 49.2117 5.20807 49.4544C5.32919 49.6971 5.4503 49.9398 5.4503 50.4251C5.4503 50.9105 5.32919 51.1532 5.20807 51.3959H4.72359C4.84471 51.2746 4.8447 51.0319 4.96582 50.9105C4.96582 50.7892 5.08695 50.5465 5.08695 50.4251C5.08695 50.1824 5.08694 49.9398 4.96582 49.8184C4.8447 49.6971 4.72359 49.5757 4.60247 49.5757C4.48135 49.5757 4.36023 49.5757 4.23911 49.6971C4.11799 49.8184 3.99688 50.0611 3.87576 50.3038C3.75464 50.5465 3.63351 50.7892 3.63351 50.9105C3.51239 51.0319 3.5124 51.1532 3.39128 51.1532C3.27016 51.2746 3.14904 51.2746 3.02792 51.2746C2.78568 51.2746 2.54344 51.1532 2.42232 50.9105C2.3012 50.6678 2.18008 50.4251 2.18008 50.0611C2.18008 49.6971 2.3012 49.333 2.42232 49.0903L2.78568 49.2117C2.66456 49.5757 2.54344 49.8184 2.54344 50.0611C2.54344 50.3038 2.54344 50.4251 2.66456 50.5465C2.78568 50.6678 2.78568 50.6678 2.9068 50.6678C3.02792 50.6678 3.02791 50.6678 3.14903 50.5465C3.27015 50.5465 3.27016 50.4251 3.27016 50.3038C3.27016 50.1824 3.39128 50.0611 3.51239 49.6971C3.63351 49.333 3.75464 49.0903 3.87576 48.969C4.118 49.2117 4.36023 49.0903 4.48135 49.0903Z" fill="black"/>
<path d="M5.4503 46.0567H3.39131C3.14907 46.0567 2.90684 46.0567 2.78572 46.178C2.6646 46.2993 2.54348 46.542 2.54348 46.7847C2.54348 47.1488 2.6646 47.3915 2.78572 47.5128C3.02795 47.6342 3.27018 47.7555 3.75465 47.7555H5.4503V48.2409H0.847839V47.7555H2.18013C2.30125 47.7555 2.54348 47.7555 2.54348 47.7555C2.42236 47.6341 2.30125 47.5128 2.18013 47.3915C2.05901 47.2701 2.05902 47.0274 2.05902 46.7847C2.05902 46.4207 2.18013 46.0567 2.30125 45.9353C2.54348 45.6926 2.78571 45.6926 3.14907 45.6926H5.20807V46.0567H5.4503Z" fill="black"/>
<path d="M5.08696 43.5085C5.08696 43.3871 5.08696 43.3871 5.08696 43.2658C5.08696 43.1444 5.08696 43.1444 5.08696 43.0231H5.45031C5.45031 43.0231 5.45031 43.1444 5.57143 43.2658C5.57143 43.3871 5.57143 43.5085 5.57143 43.5085C5.57143 44.1152 5.20808 44.4792 4.60249 44.4792H2.66461V44.9646H2.42237L2.18013 44.4792L1.45343 44.2365V43.9938H2.18013V43.0231H2.54348V43.9938H4.48137C4.72361 43.9938 4.84472 43.9938 4.96584 43.8725C4.96584 43.8725 5.08696 43.7511 5.08696 43.5085Z" fill="black"/>
<path d="M5.45033 40.4748L4.96585 40.5961C5.20809 40.7174 5.32921 40.9601 5.32921 41.0815C5.45033 41.2028 5.45033 41.4455 5.45033 41.6882C5.45033 42.0522 5.32921 42.2949 5.20809 42.4163C5.08697 42.659 4.84474 42.659 4.48138 42.659C3.87579 42.659 3.51244 42.1736 3.51244 41.0815V40.4748H3.2702C3.02797 40.4748 2.78573 40.4748 2.66461 40.5961C2.54349 40.7174 2.42237 40.8388 2.42237 41.0815C2.42237 41.3242 2.54349 41.6882 2.66461 42.0522L2.42237 42.2949C2.30125 42.1736 2.30126 41.9309 2.18014 41.8095C2.18014 41.5669 2.05902 41.4455 2.05902 41.2028C2.05902 40.8388 2.18014 40.4748 2.30125 40.3534C2.42237 40.1107 2.78572 40.1107 3.14908 40.1107H5.32921V40.4748H5.45033ZM5.08698 41.5669C5.08698 41.2028 4.96585 40.9601 4.84473 40.8388C4.72362 40.7174 4.48138 40.5961 4.11803 40.5961H3.87579V41.0815C3.87579 41.4455 3.99691 41.8095 4.11803 41.9309C4.23914 42.0522 4.36026 42.1736 4.6025 42.1736C4.72362 42.1736 4.96585 42.1736 4.96585 42.0522C4.96585 41.9309 5.08698 41.8095 5.08698 41.5669Z" fill="black"/>
<path d="M2.18008 36.4703H2.54344L2.66456 37.0771C2.78568 37.0771 2.78568 36.9557 2.9068 36.9557C3.02791 36.9557 3.14904 36.8344 3.27016 36.8344C3.63351 36.8344 3.87575 36.9557 3.99687 37.1984C4.23911 37.4411 4.2391 37.6838 4.2391 38.0478C4.2391 38.1692 4.2391 38.2905 4.2391 38.2905C4.36022 38.5332 4.48134 38.6546 4.60246 38.6546C4.72358 38.6546 4.72358 38.6546 4.8447 38.5332C4.8447 38.4119 4.96581 38.2905 4.96581 38.1692V37.5624C4.96581 37.1984 5.08694 36.9557 5.20806 36.713C5.32918 36.4703 5.57141 36.4703 5.81365 36.4703C6.17701 36.4703 6.41924 36.5917 6.66148 36.9557C6.90372 37.1984 6.90372 37.6838 6.90372 38.1692C6.90372 38.6546 6.7826 38.8972 6.66148 39.1399C6.54036 39.3826 6.29813 39.504 5.93477 39.504C5.69253 39.504 5.57141 39.3826 5.45029 39.2613C5.32917 39.1399 5.20806 38.8972 5.20806 38.7759C5.20806 38.8972 5.08694 38.8972 5.08694 39.0186C4.96582 39.0186 4.96582 39.1399 4.8447 39.1399C4.72358 39.1399 4.60246 39.1399 4.48135 39.0186C4.36023 38.8972 4.36022 38.8972 4.2391 38.7759C4.11798 38.8972 3.99687 39.1399 3.87575 39.1399C3.75463 39.2613 3.51239 39.2613 3.27016 39.2613C2.9068 39.2613 2.66456 39.1399 2.42232 38.8972C2.18008 38.6546 2.18008 38.4119 2.18008 38.0478C2.18008 37.9265 2.18008 37.6838 2.18008 37.5624V36.4703V36.4703ZM3.14903 38.7759C3.39127 38.7759 3.51239 38.6546 3.63351 38.5332C3.75463 38.4119 3.75462 38.1692 3.75462 38.0478C3.75462 37.5624 3.51239 37.3198 3.02791 37.3198C2.54344 37.3198 2.3012 37.5624 2.3012 38.0478C2.3012 38.2905 2.42232 38.4119 2.54344 38.5332C2.78567 38.6546 2.90679 38.7759 3.14903 38.7759ZM5.93477 39.0186C6.05589 39.0186 6.29813 38.8972 6.29813 38.7759C6.41925 38.6546 6.41925 38.4119 6.41925 38.1692C6.41925 37.8051 6.29812 37.4411 6.177 37.1984C6.05588 36.9557 5.93477 36.9557 5.69254 36.9557C5.57142 36.9557 5.45029 36.9557 5.32917 37.0771C5.20806 37.1984 5.20806 37.4411 5.20806 37.6838V38.2905C5.20806 38.5332 5.20806 38.6546 5.32917 38.7759C5.57141 38.8972 5.69253 39.0186 5.93477 39.0186Z" fill="black"/>
<path d="M2.78571 31.7378L3.75465 31.9805V31.1311H4.11801V31.9805L5.32919 32.2232V32.5873L4.11801 32.3446V33.194L5.32919 33.4367V33.8007L4.11801 33.558V34.2861H3.75465V33.4367L2.78571 33.194V34.0434H2.42235V33.194L1.09006 32.9513V32.5873L2.42235 32.8299V31.9805L1.09006 31.7378V31.3738L2.42235 31.6165V30.8884H2.78571V31.7378ZM3.75465 33.3153V32.4659L2.78571 32.2232V33.0726L3.75465 33.3153Z" fill="black"/>
<path d="M5.4503 29.7964V30.2818H0.847839V29.7964H5.4503Z" fill="black"/>
<path d="M5.45029 26.7627L4.96581 26.8841C5.20805 27.0054 5.32917 27.2481 5.32917 27.3694C5.45029 27.4908 5.45029 27.7335 5.45029 27.9761C5.45029 28.3402 5.32917 28.5829 5.20805 28.7042C5.08694 28.9469 4.8447 28.9469 4.48135 28.9469C3.87576 28.9469 3.5124 28.4615 3.5124 27.3694V26.7627H3.27017C3.02793 26.7627 2.7857 26.7627 2.66458 26.8841C2.54346 27.0054 2.42234 27.1267 2.42234 27.3694C2.42234 27.6121 2.54346 27.9762 2.66458 28.3402L2.30122 28.4615C2.18011 28.3402 2.18011 28.0975 2.05899 27.9761C2.05899 27.7335 1.93787 27.6121 1.93787 27.3694C1.93787 27.0054 2.05899 26.6414 2.18011 26.52C2.30123 26.2773 2.66458 26.2773 3.02793 26.2773H5.20805V26.7627H5.45029ZM5.08694 27.8548C5.08694 27.4908 4.96582 27.2481 4.8447 27.1267C4.72358 27.0054 4.48135 26.8841 4.11799 26.8841H3.87576V27.3694C3.87576 27.7335 3.99687 28.0975 4.11799 28.2188C4.23911 28.3402 4.36023 28.4615 4.60247 28.4615C4.72358 28.4615 4.96581 28.4615 4.96581 28.3402C4.96581 28.2188 5.08694 27.9761 5.08694 27.8548Z" fill="black"/>
<path d="M5.08696 24.3358C5.08696 24.2145 5.08696 24.2145 5.08696 24.0932C5.08696 23.9718 5.08696 23.9718 5.08696 23.8505H5.45031C5.45031 23.8505 5.45031 23.9718 5.57143 24.0932C5.57143 24.2145 5.57143 24.3358 5.57143 24.3358C5.57143 24.9426 5.20808 25.3066 4.60249 25.3066H2.66461V25.792H2.42237L2.18013 25.3066L1.45343 25.0639V24.8212H2.18013V23.8505H2.54348V24.8212H4.48137C4.72361 24.8212 4.84472 24.8212 4.96584 24.6999C4.96584 24.5785 5.08696 24.4572 5.08696 24.3358Z" fill="black"/>
<path d="M5.45033 21.7876C5.45033 22.2729 5.32921 22.637 4.96585 22.8797C4.72361 23.1224 4.23914 23.2437 3.75467 23.2437C3.2702 23.2437 2.78572 23.1224 2.54349 22.8797C2.18013 22.637 2.05902 22.2729 2.05902 21.7876C2.05902 21.4235 2.18013 21.0595 2.42237 20.8168C2.66461 20.5741 3.02796 20.4528 3.51244 20.4528H3.87579V22.637C4.23915 22.637 4.6025 22.5156 4.72362 22.3943C4.96585 22.2729 4.96585 21.9089 4.96585 21.6662C4.96585 21.3022 4.84474 20.9381 4.72362 20.5741H5.20809C5.32921 20.6954 5.32921 20.9381 5.32921 21.0595C5.45033 21.4235 5.45033 21.6662 5.45033 21.7876ZM2.54349 21.9089C2.54349 22.1516 2.66461 22.3943 2.78573 22.5156C2.90685 22.637 3.14908 22.7583 3.51244 22.7583V21.0595C3.14908 21.0595 2.90685 21.1808 2.78573 21.3022C2.54349 21.5449 2.54349 21.6662 2.54349 21.9089Z" fill="black"/>
<path d="M4.48135 17.6619C4.72359 17.6619 4.96583 17.7832 5.20807 18.0259C5.32919 18.2686 5.4503 18.5113 5.4503 18.9967C5.4503 19.482 5.32919 19.7247 5.20807 19.9674H4.72359C4.84471 19.8461 4.8447 19.6034 4.96582 19.482C4.96582 19.3607 5.08695 19.118 5.08695 18.9967C5.08695 18.754 5.08694 18.5113 4.96582 18.3899C4.8447 18.2686 4.72359 18.1473 4.60247 18.1473C4.48135 18.1473 4.36023 18.1472 4.23911 18.2686C4.11799 18.3899 3.99688 18.6326 3.87576 18.8753C3.75464 19.118 3.63351 19.3607 3.63351 19.482C3.51239 19.6034 3.5124 19.7247 3.39128 19.7247C3.27016 19.8461 3.14904 19.8461 3.02792 19.8461C2.78568 19.8461 2.54344 19.7247 2.42232 19.482C2.3012 19.2394 2.18008 18.9967 2.18008 18.6326C2.18008 18.2686 2.3012 17.9046 2.42232 17.6619L2.78568 17.7832C2.66456 18.1473 2.54344 18.3899 2.54344 18.6326C2.54344 18.8753 2.54344 18.9967 2.66456 19.118C2.78568 19.2394 2.78568 19.2394 2.9068 19.2394C3.02792 19.2394 3.02791 19.2394 3.14903 19.118C3.27015 19.118 3.27016 18.9967 3.27016 18.8753C3.27016 18.754 3.39128 18.6326 3.51239 18.2686C3.63351 17.9046 3.75464 17.6619 3.87576 17.5405C4.118 17.7832 4.36023 17.6619 4.48135 17.6619Z" fill="black"/>
<path d="M5.08696 15.8416C5.08696 15.7202 5.08696 15.7202 5.08696 15.5989C5.08696 15.4775 5.08696 15.4775 5.08696 15.3562H5.45031C5.45031 15.3562 5.45031 15.4775 5.57143 15.5989C5.57143 15.7202 5.57143 15.8416 5.57143 15.8416C5.57143 16.4483 5.20808 16.8123 4.60249 16.8123H2.66461V17.2977H2.42237L2.18013 16.8123L1.45343 16.5696V16.327H2.18013V15.3562H2.54348V16.327H4.48137C4.72361 16.327 4.84472 16.327 4.96584 16.2056C4.96584 16.2056 5.08696 15.9629 5.08696 15.8416Z" fill="black"/>
<path d="M5.08696 13.6575C5.08696 13.5362 5.08696 13.5361 5.08696 13.4148C5.08696 13.2935 5.08696 13.2935 5.08696 13.1721H5.45031C5.45031 13.1721 5.45031 13.2935 5.57143 13.4148C5.57143 13.5361 5.57143 13.6575 5.57143 13.6575C5.57143 14.2642 5.20808 14.6282 4.60249 14.6282H2.66461V15.1136H2.42237L2.18013 14.6282L1.45343 14.3856V14.1429H2.18013V13.1721H2.54348V14.1429H4.48137C4.72361 14.1429 4.84472 14.1429 4.96584 14.0215C4.96584 14.0215 5.08696 13.9002 5.08696 13.6575Z" fill="black"/>
<path d="M2.05902 11.1092C2.05902 10.9878 2.05902 10.8665 2.05902 10.7451L2.54349 10.8665C2.54349 10.9878 2.54349 11.1092 2.54349 11.2305C2.54349 11.4732 2.66461 11.7159 2.90684 11.9586C3.14908 12.2013 3.39131 12.2012 3.75467 12.2012H5.45033V12.6866H2.18014V12.3226H2.78573C2.54349 12.2013 2.42237 12.0799 2.30125 11.8372C2.18014 11.5945 2.05902 11.3518 2.05902 11.1092Z" fill="black"/>
<path d="M5.45033 8.80366C5.45033 9.28904 5.32921 9.65308 4.96585 9.89577C4.72361 10.1385 4.23914 10.2598 3.75467 10.2598C3.2702 10.2598 2.78572 10.1385 2.54349 9.89577C2.18013 9.65308 2.05902 9.28904 2.05902 8.80366C2.05902 8.43963 2.18013 8.07559 2.42237 7.8329C2.66461 7.59021 3.02796 7.46887 3.51244 7.46887H3.87579V9.65307C4.23915 9.65307 4.6025 9.53173 4.72362 9.41039C4.96585 9.1677 4.96585 8.92501 4.96585 8.68232C4.96585 8.31829 4.84474 7.95425 4.72362 7.59021H5.20809C5.32921 7.71156 5.32921 7.95425 5.32921 8.0756C5.45033 8.31829 5.45033 8.56097 5.45033 8.80366ZM2.54349 8.92501C2.54349 9.1677 2.66461 9.41038 2.78573 9.53173C2.90685 9.65307 3.14908 9.77442 3.51244 9.77442V8.0756C3.14908 8.0756 2.90685 8.19694 2.78573 8.31828C2.54349 8.43963 2.54349 8.68232 2.54349 8.92501Z" fill="black"/>
<path d="M5.45033 4.55652H3.39132C3.14908 4.55652 2.90685 4.67787 2.78573 4.67787C2.66461 4.79922 2.54349 5.0419 2.54349 5.28459C2.54349 5.64862 2.66461 5.8913 2.78573 6.01265C3.02796 6.13399 3.2702 6.25534 3.63355 6.25534H5.32921V6.74071H2.05902V6.37668L2.54349 6.25534C2.42237 6.134 2.30126 6.01265 2.18014 5.89131C2.05902 5.76996 2.05902 5.52728 2.05902 5.28459C2.05902 4.92056 2.18014 4.55653 2.30125 4.43519C2.54349 4.1925 2.78572 4.1925 3.14908 4.1925H5.20809V4.55652H5.45033Z" fill="black"/>
<path d="M4.96583 0.794825C5.32918 1.03751 5.4503 1.40154 5.4503 1.88692C5.4503 2.3723 5.32918 2.615 4.96583 2.85769C4.72359 3.10038 4.23912 3.22173 3.75464 3.22173C3.27017 3.22173 2.7857 3.10038 2.54346 2.85769C2.30122 2.615 2.05899 2.25096 2.05899 1.88692C2.05899 1.40154 2.1801 1.15885 2.54346 0.916159H2.30123H2.05899H0.726685V0.430786H5.32919V0.794825H4.96583ZM5.08695 1.76559C5.08695 1.40155 4.96583 1.15886 4.84471 1.03751C4.60247 0.916166 4.36024 0.794825 3.99689 0.794825H3.87577C3.3913 0.794825 3.14906 0.916166 2.90682 1.03751C2.66458 1.15886 2.66459 1.40155 2.66459 1.76559C2.66459 2.00828 2.7857 2.25097 3.02794 2.37231C3.27017 2.49366 3.51241 2.615 3.99689 2.615C4.36024 2.615 4.72359 2.49366 4.96583 2.37231C4.96583 2.25097 5.08695 2.12962 5.08695 1.76559Z" fill="black"/>
<path d="M42.7546 145.439C42.7546 146.409 42.5124 147.259 41.9068 147.744C41.4223 148.229 40.5745 148.594 39.6056 148.594H37.9099V142.526H39.7267C40.6956 142.526 41.4223 142.769 41.9068 143.254C42.5124 143.74 42.7546 144.468 42.7546 145.439ZM42.0279 145.439C42.0279 144.589 41.7857 144.104 41.4223 143.618C41.059 143.254 40.4534 143.012 39.6056 143.012H38.6366V147.865H39.4844C40.3323 147.865 40.9379 147.623 41.4223 147.259C41.7857 146.895 42.0279 146.288 42.0279 145.439Z" fill="black"/>
<path d="M43.9658 142.769C43.9658 142.648 43.9658 142.526 44.0869 142.405C44.2081 142.284 44.2081 142.284 44.3292 142.284C44.4503 142.284 44.5714 142.284 44.5714 142.405C44.6925 142.526 44.6925 142.648 44.6925 142.769C44.6925 142.89 44.6925 143.012 44.5714 143.133C44.4503 143.254 44.4503 143.254 44.3292 143.254C44.2081 143.254 44.0869 143.254 44.0869 143.133C43.9658 143.012 43.9658 142.89 43.9658 142.769ZM44.6925 148.472H43.9658V143.982H44.6925V148.472Z" fill="black"/>
<path d="M49.0528 147.259C49.0528 147.623 48.9317 147.987 48.5683 148.23C48.205 148.472 47.8416 148.594 47.236 148.594C46.6304 148.594 46.146 148.472 45.7826 148.351V147.744C46.0248 147.865 46.2671 147.987 46.5093 147.987C46.7516 148.108 46.9938 148.108 47.236 148.108C47.5994 148.108 47.8416 148.108 48.0839 147.987C48.3261 147.865 48.3261 147.744 48.3261 147.501C48.3261 147.38 48.205 147.137 48.0839 147.016C47.9627 146.895 47.5994 146.773 47.236 146.531C46.8727 146.409 46.5093 146.288 46.3882 146.167C46.2671 146.045 46.0248 145.924 46.0248 145.803C45.9037 145.681 45.9037 145.439 45.9037 145.317C45.9037 144.953 46.0248 144.71 46.3882 144.468C46.6304 144.225 47.1149 144.104 47.5994 144.104C48.0839 144.104 48.5683 144.225 49.0528 144.346L48.8106 144.953C48.3261 144.71 47.9627 144.71 47.5994 144.71C47.236 144.71 46.9938 144.71 46.8727 144.832C46.7516 144.953 46.6304 145.075 46.6304 145.196C46.6304 145.317 46.6304 145.439 46.7516 145.56C46.8727 145.681 46.8727 145.681 46.9938 145.803C47.1149 145.924 47.3572 146.045 47.8416 146.167C48.3261 146.409 48.6895 146.531 48.9317 146.773C48.9317 146.773 49.0528 147.016 49.0528 147.259Z" fill="black"/>
<path d="M51.9596 148.594C51.354 148.594 50.7484 148.351 50.3851 147.987C50.0217 147.623 49.9006 147.016 49.9006 146.288C49.9006 145.56 50.1428 144.953 50.5062 144.468C50.8695 144.104 51.354 143.861 52.0807 143.861C52.323 143.861 52.5652 143.861 52.6863 143.982C52.9286 143.982 53.0497 144.104 53.1708 144.104L52.9286 144.711C52.8074 144.589 52.5652 144.589 52.4441 144.589C52.323 144.589 52.0807 144.589 51.9596 144.589C50.9907 144.589 50.6273 145.196 50.6273 146.409C50.6273 147.016 50.7484 147.38 50.9907 147.744C51.2329 147.987 51.5963 148.23 51.9596 148.23C52.323 148.23 52.6863 148.108 53.1708 147.987V148.594C52.8074 148.472 52.4441 148.594 51.9596 148.594Z" fill="black"/>
<path d="M58.1367 146.288C58.1367 147.016 57.8944 147.623 57.5311 147.987C57.1677 148.351 56.6832 148.594 55.9565 148.594C55.5932 148.594 55.2298 148.472 54.8665 148.351C54.5031 148.108 54.2609 147.865 54.1398 147.501C54.0186 147.137 53.8975 146.773 53.8975 146.288C53.8975 145.56 54.1398 144.953 54.5031 144.589C54.8665 144.225 55.3509 143.982 56.0776 143.982C56.6832 143.982 57.1677 144.225 57.5311 144.589C58.0156 144.953 58.1367 145.56 58.1367 146.288ZM54.7453 146.288C54.7453 146.895 54.8665 147.259 55.1087 147.623C55.3509 147.987 55.7143 148.108 56.0776 148.108C56.5621 148.108 56.9255 147.987 57.0466 147.623C57.2888 147.38 57.41 146.895 57.41 146.288C57.41 145.681 57.2888 145.317 57.0466 144.953C56.8044 144.71 56.441 144.468 55.9565 144.468C55.4721 144.468 55.1087 144.589 54.9876 144.953C54.7453 145.196 54.7453 145.681 54.7453 146.288Z" fill="black"/>
<path d="M60.3168 148.472L58.6212 143.982H59.3479L60.3168 146.652C60.559 147.259 60.6802 147.744 60.6802 147.865C60.6802 147.744 60.8013 147.38 60.9224 146.895C61.0435 146.409 61.4069 145.439 62.0125 143.861H62.7392L61.0435 148.351H60.3168V148.472Z" fill="black"/>
<path d="M65.5248 148.594C64.7981 148.594 64.3137 148.351 63.9503 147.987C63.587 147.623 63.3447 147.016 63.3447 146.288C63.3447 145.56 63.4659 144.953 63.8292 144.589C64.1926 144.104 64.677 143.982 65.2826 143.982C65.8882 143.982 66.2515 144.225 66.6149 144.589C66.9782 144.953 67.0994 145.439 67.0994 146.045V146.531H63.9503C63.9503 147.016 64.0714 147.501 64.3137 147.744C64.5559 147.987 64.9193 148.108 65.4037 148.108C65.8882 148.108 66.3727 147.987 66.8571 147.744V148.351C66.6149 148.472 66.3726 148.472 66.1304 148.594C66.1304 148.594 65.7671 148.594 65.5248 148.594ZM65.2826 144.468C64.9193 144.468 64.677 144.589 64.4348 144.832C64.1926 145.075 64.0714 145.439 64.0714 145.803H66.4938C66.4938 145.317 66.3727 145.075 66.2515 144.832C66.0093 144.589 65.646 144.468 65.2826 144.468Z" fill="black"/>
<path d="M70.3696 143.861C70.6118 143.861 70.7329 143.861 70.854 143.861L70.7329 144.468C70.4907 144.468 70.3696 144.346 70.2484 144.346C69.8851 144.346 69.5217 144.468 69.2795 144.832C69.0373 145.075 68.9161 145.56 68.9161 145.924V148.351H68.3105V143.861H68.9161L69.0373 144.711C69.1584 144.468 69.4006 144.225 69.6429 143.982C69.8851 143.982 70.1273 143.861 70.3696 143.861Z" fill="black"/>
<path d="M75.4565 147.987C75.5776 147.987 75.6988 147.987 75.8199 147.987C75.941 147.987 76.0621 147.987 76.0621 147.987V148.472C75.941 148.472 75.8199 148.593 75.6988 148.593C75.5776 148.593 75.4565 148.593 75.3354 148.593C74.4876 148.593 74.0031 148.108 74.0031 147.259V144.589H73.3975V144.225L74.0031 143.982L74.2453 143.012H74.6087V144.104H75.941V144.589H74.6087V147.259C74.6087 147.501 74.7298 147.744 74.8509 147.865C75.0932 147.987 75.2143 147.987 75.4565 147.987Z" fill="black"/>
<path d="M80.059 148.472V145.56C80.059 145.196 79.9379 144.953 79.8168 144.71C79.6957 144.589 79.3323 144.468 78.969 144.468C78.4845 144.468 78.1211 144.589 77.8789 144.832C77.6366 145.075 77.5155 145.56 77.5155 146.167V148.594H76.7888V142.162H77.5155V144.104C77.5155 144.346 77.5155 144.589 77.5155 144.71C77.6367 144.468 77.8789 144.346 78.1211 144.225C78.3634 144.104 78.6056 143.982 78.969 143.982C79.5746 143.982 79.9379 144.104 80.1802 144.346C80.4224 144.589 80.5435 145.075 80.5435 145.56V148.472H80.059V148.472Z" fill="black"/>
<path d="M84.177 148.594C83.4503 148.594 82.9658 148.351 82.6025 147.987C82.2391 147.623 81.9969 147.016 81.9969 146.288C81.9969 145.56 82.118 144.953 82.4813 144.589C82.8447 144.104 83.3292 143.982 83.9348 143.982C84.5403 143.982 84.9037 144.225 85.267 144.589C85.6304 144.953 85.7515 145.439 85.7515 146.045V146.531H82.6025C82.6025 147.016 82.7236 147.501 82.9658 147.744C83.2081 147.987 83.5714 148.108 84.0559 148.108C84.5403 148.108 85.0248 147.987 85.5093 147.744V148.351C85.267 148.472 85.0248 148.472 84.7826 148.594C84.6615 148.594 84.4192 148.594 84.177 148.594ZM83.9348 144.468C83.5714 144.468 83.3292 144.589 83.0869 144.832C82.8447 145.075 82.7236 145.439 82.7236 145.803H85.1459C85.1459 145.317 85.0248 145.075 84.9037 144.832C84.5403 144.589 84.2981 144.468 83.9348 144.468Z" fill="black"/>
<path d="M92.2919 148.472V145.56C92.2919 145.196 92.1708 144.953 92.0497 144.71C91.9286 144.589 91.5652 144.468 91.2018 144.468C90.7174 144.468 90.354 144.589 90.1118 144.832C89.8695 145.075 89.7484 145.56 89.7484 146.167V148.594H89.0217V142.162H89.7484V144.104C89.7484 144.346 89.7484 144.589 89.7484 144.71C89.8695 144.468 90.1118 144.346 90.354 144.225C90.5963 144.104 90.8385 143.982 91.2018 143.982C91.8074 143.982 92.1708 144.104 92.413 144.346C92.6553 144.589 92.7764 145.075 92.7764 145.56V148.472H92.2919V148.472Z" fill="black"/>
<path d="M98.3478 146.288C98.3478 147.016 98.1056 147.623 97.7422 147.987C97.3789 148.351 96.8944 148.594 96.1677 148.594C95.8043 148.594 95.441 148.472 95.0777 148.351C94.7143 148.108 94.4721 147.865 94.3509 147.501C94.2298 147.137 94.1087 146.773 94.1087 146.288C94.1087 145.56 94.351 144.953 94.7143 144.589C95.0777 144.225 95.5621 143.982 96.2888 143.982C96.8944 143.982 97.3789 144.225 97.7422 144.589C98.1056 144.953 98.3478 145.56 98.3478 146.288ZM94.8354 146.288C94.8354 146.895 94.9565 147.259 95.1988 147.623C95.441 147.987 95.8043 148.108 96.1677 148.108C96.6522 148.108 97.0155 147.987 97.1366 147.623C97.3789 147.38 97.5 146.895 97.5 146.288C97.5 145.681 97.3789 145.317 97.1366 144.953C96.8944 144.71 96.531 144.468 96.0466 144.468C95.5621 144.468 95.1988 144.589 95.0777 144.953C94.9565 145.196 94.8354 145.681 94.8354 146.288Z" fill="black"/>
<path d="M101.012 147.987C101.134 147.987 101.255 147.987 101.376 147.987C101.497 147.987 101.618 147.987 101.618 147.987V148.472C101.497 148.472 101.376 148.593 101.255 148.593C101.134 148.593 101.012 148.593 100.891 148.593C100.043 148.593 99.559 148.108 99.559 147.259V144.589H98.9534V144.225L99.559 143.982L99.8012 143.012H100.165V144.104H101.497V144.589H100.165V147.259C100.165 147.501 100.286 147.744 100.407 147.865C100.528 147.987 100.77 147.987 101.012 147.987Z" fill="black"/>
<path d="M103.919 147.987C104.04 147.987 104.161 147.987 104.283 147.987C104.404 147.987 104.525 147.987 104.525 147.987V148.472C104.404 148.472 104.283 148.593 104.162 148.593C104.04 148.593 103.919 148.593 103.798 148.593C102.95 148.593 102.466 148.108 102.466 147.259V144.589H101.86V144.225L102.466 143.982L102.708 143.012H103.071V144.104H104.404V144.589H103.071V147.259C103.071 147.501 103.193 147.744 103.314 147.865C103.556 147.987 103.677 147.987 103.919 147.987Z" fill="black"/>
<path d="M107.432 148.594C106.705 148.594 106.22 148.351 105.857 147.987C105.494 147.623 105.252 147.016 105.252 146.288C105.252 145.56 105.373 144.953 105.736 144.589C106.099 144.104 106.584 143.982 107.189 143.982C107.795 143.982 108.158 144.225 108.522 144.589C108.885 144.953 109.006 145.439 109.006 146.045V146.531H105.857C105.857 147.016 105.978 147.501 106.22 147.744C106.463 147.987 106.826 148.108 107.311 148.108C107.795 148.108 108.279 147.987 108.764 147.744V148.351C108.522 148.472 108.28 148.472 108.037 148.594C107.916 148.594 107.674 148.594 107.432 148.594ZM107.189 144.468C106.826 144.468 106.584 144.589 106.342 144.832C106.099 145.075 105.978 145.439 105.978 145.803H108.401C108.401 145.317 108.279 145.075 108.158 144.832C107.795 144.589 107.553 144.468 107.189 144.468Z" fill="black"/>
<path d="M113.124 147.259C113.124 147.623 113.003 147.987 112.64 148.23C112.276 148.472 111.913 148.594 111.307 148.594C110.702 148.594 110.217 148.472 109.854 148.351V147.744C110.096 147.865 110.338 147.987 110.581 147.987C110.823 148.108 111.065 148.108 111.307 148.108C111.671 148.108 111.913 148.108 112.155 147.987C112.397 147.865 112.397 147.744 112.397 147.501C112.397 147.38 112.276 147.137 112.155 147.016C112.034 146.895 111.671 146.773 111.307 146.531C110.944 146.409 110.581 146.288 110.46 146.167C110.338 146.045 110.096 145.924 110.096 145.803C109.975 145.681 109.975 145.439 109.975 145.317C109.975 144.953 110.096 144.71 110.46 144.468C110.702 144.225 111.186 144.104 111.671 144.104C112.155 144.104 112.64 144.225 113.124 144.346L112.882 144.953C112.397 144.71 112.034 144.71 111.671 144.71C111.307 144.71 111.065 144.71 110.944 144.832C110.823 144.953 110.702 145.075 110.702 145.196C110.702 145.317 110.702 145.439 110.823 145.56C110.944 145.681 110.944 145.681 111.065 145.803C111.186 145.924 111.429 146.045 111.913 146.167C112.397 146.409 112.761 146.531 113.003 146.773C113.124 146.773 113.124 147.016 113.124 147.259Z" fill="black"/>
<path d="M115.789 147.987C115.91 147.987 116.031 147.987 116.152 147.987C116.273 147.987 116.394 147.987 116.394 147.987V148.472C116.273 148.472 116.152 148.593 116.031 148.593C115.91 148.593 115.789 148.593 115.668 148.593C114.82 148.593 114.335 148.108 114.335 147.259V144.589H113.73V144.225L114.335 143.982L114.578 143.012H114.941V144.104H116.273V144.589H114.941V147.259C114.941 147.501 115.062 147.744 115.183 147.865C115.304 147.987 115.547 147.987 115.789 147.987Z" fill="black"/>
<path d="M120.997 147.987C121.118 147.987 121.239 147.987 121.36 147.987C121.481 147.987 121.602 147.987 121.602 147.987V148.472C121.481 148.472 121.36 148.593 121.239 148.593C121.118 148.593 120.997 148.593 120.876 148.593C120.028 148.593 119.543 148.108 119.543 147.259V144.589H118.938V144.225L119.543 143.982L119.786 143.012H120.149V144.104H121.481V144.589H120.149V147.259C120.149 147.501 120.27 147.744 120.391 147.865C120.512 147.987 120.755 147.987 120.997 147.987Z" fill="black"/>
<path d="M124.509 143.861C124.752 143.861 124.873 143.861 124.994 143.861L124.873 144.468C124.63 144.468 124.509 144.346 124.388 144.346C124.025 144.346 123.661 144.468 123.419 144.832C123.177 145.075 123.056 145.56 123.056 145.924V148.351H122.329V143.861H122.935L123.056 144.711C123.177 144.468 123.419 144.225 123.661 143.982C124.025 143.982 124.267 143.861 124.509 143.861Z" fill="black"/>
<path d="M127.901 148.594C127.174 148.594 126.689 148.351 126.326 147.987C125.963 147.623 125.721 147.016 125.721 146.288C125.721 145.56 125.842 144.953 126.205 144.589C126.568 144.104 127.053 143.982 127.658 143.982C128.264 143.982 128.627 144.225 128.991 144.589C129.354 144.953 129.475 145.439 129.475 146.045V146.531H126.447C126.447 147.016 126.568 147.501 126.811 147.744C127.053 147.987 127.416 148.108 127.901 148.108C128.385 148.108 128.87 147.987 129.354 147.744V148.351C129.112 148.472 128.87 148.472 128.627 148.594C128.385 148.594 128.143 148.594 127.901 148.594ZM127.658 144.468C127.295 144.468 127.053 144.589 126.811 144.832C126.568 145.075 126.447 145.439 126.447 145.803H128.87C128.87 145.317 128.748 145.075 128.627 144.832C128.264 144.589 128.022 144.468 127.658 144.468Z" fill="black"/>
<path d="M133.835 148.472V145.56C133.835 145.196 133.714 144.953 133.593 144.711C133.472 144.589 133.109 144.468 132.745 144.468C132.261 144.468 131.898 144.589 131.655 144.832C131.413 145.075 131.292 145.56 131.292 146.045V148.472H130.565V143.982H131.171L131.292 144.589C131.413 144.346 131.655 144.225 131.898 144.104C132.14 143.982 132.382 143.861 132.745 143.861C133.351 143.861 133.714 143.982 133.956 144.225C134.199 144.468 134.32 144.953 134.32 145.439V148.351H133.835V148.472Z" fill="black"/>
<path d="M139.043 147.865C138.68 148.351 138.196 148.594 137.59 148.594C136.984 148.594 136.5 148.351 136.258 147.987C135.894 147.623 135.773 147.016 135.773 146.288C135.773 145.56 135.894 144.953 136.258 144.589C136.621 144.225 137.106 143.982 137.59 143.982C138.196 143.982 138.68 144.225 139.043 144.71V144.346V143.982V142.162H139.77V148.594H139.165L139.043 147.865ZM137.59 147.987C138.075 147.987 138.438 147.865 138.559 147.623C138.801 147.38 138.922 146.895 138.922 146.409V146.288C138.922 145.681 138.801 145.196 138.559 144.953C138.317 144.71 137.953 144.589 137.59 144.589C137.227 144.589 136.863 144.71 136.621 145.075C136.379 145.439 136.258 145.803 136.258 146.409C136.258 147.016 136.379 147.38 136.621 147.744C136.863 147.865 137.227 147.987 137.59 147.987Z" fill="black"/>
<path d="M144.009 147.259C144.009 147.623 143.888 147.987 143.525 148.23C143.162 148.472 142.798 148.594 142.193 148.594C141.587 148.594 141.102 148.472 140.739 148.351V147.744C140.981 147.865 141.224 147.987 141.466 147.987C141.708 148.108 141.95 148.108 142.193 148.108C142.556 148.108 142.798 148.108 143.04 147.987C143.283 147.865 143.283 147.744 143.283 147.501C143.283 147.38 143.162 147.137 143.04 147.016C142.919 146.895 142.556 146.773 142.193 146.531C141.829 146.409 141.466 146.288 141.345 146.167C141.224 146.045 140.981 145.924 140.981 145.803C140.86 145.681 140.86 145.439 140.86 145.317C140.86 144.953 140.981 144.71 141.345 144.468C141.587 144.225 142.071 144.104 142.556 144.104C143.04 144.104 143.525 144.225 144.009 144.346L143.767 144.953C143.283 144.71 142.919 144.71 142.556 144.71C142.193 144.71 141.95 144.71 141.829 144.832C141.708 144.953 141.587 145.075 141.587 145.196C141.587 145.317 141.587 145.439 141.708 145.56C141.829 145.681 141.829 145.681 141.95 145.803C142.071 145.924 142.314 146.045 142.798 146.167C143.283 146.409 143.646 146.531 143.888 146.773C143.888 146.773 144.009 147.016 144.009 147.259Z" fill="black"/>
<path d="M41.7857 156.481C41.7857 157.209 41.5435 157.816 41.1801 158.18C40.8168 158.544 40.3323 158.787 39.6056 158.787C39.2422 158.787 38.8789 158.665 38.5155 158.544C38.1522 158.301 37.9099 158.058 37.7888 157.694C37.6677 157.33 37.5466 156.966 37.5466 156.481C37.5466 155.753 37.7888 155.146 38.1522 154.782C38.5155 154.418 39 154.175 39.7267 154.175C40.3323 154.175 40.8168 154.418 41.1801 154.782C41.5435 155.146 41.7857 155.753 41.7857 156.481ZM38.2733 156.481C38.2733 157.088 38.3944 157.452 38.6366 157.816C38.8789 158.18 39.2422 158.301 39.6056 158.301C39.9689 158.301 40.4534 158.18 40.5745 157.816C40.8168 157.573 40.9379 157.088 40.9379 156.481C40.9379 155.874 40.8168 155.51 40.5745 155.146C40.3323 154.903 39.9689 154.661 39.4845 154.661C39 154.661 38.6366 154.782 38.5155 155.146C38.3944 155.389 38.2733 155.874 38.2733 156.481Z" fill="black"/>
<path d="M44.9347 154.661H43.7236V158.665H42.9969V154.661H42.149V154.297L42.9969 154.054V153.933C42.9969 152.841 43.4813 152.234 44.4503 152.234C44.6925 152.234 44.9347 152.234 45.2981 152.355V152.841C45.0559 152.719 44.8136 152.719 44.5714 152.719C44.3292 152.719 44.0869 152.841 43.9658 152.962C43.8447 153.083 43.7236 153.447 43.7236 153.811V154.054H44.9347V154.661V154.661Z" fill="black"/>
<path d="M49.5372 158.18C49.6584 158.18 49.7795 158.18 49.9006 158.18C50.0217 158.18 50.1428 158.18 50.1428 158.18V158.665C50.0217 158.665 49.9006 158.787 49.7795 158.787C49.6584 158.787 49.5372 158.787 49.4161 158.787C48.5683 158.787 48.0838 158.301 48.0838 157.452V154.782H47.4782V154.418L48.0838 154.175L48.3261 153.205H48.6894V154.297H50.0217V154.782H48.6894V157.452C48.6894 157.694 48.8105 157.937 48.9317 158.059C49.0528 158.18 49.295 158.18 49.5372 158.18Z" fill="black"/>
<path d="M54.1397 158.665V155.753C54.1397 155.389 54.0186 155.146 53.8975 154.903C53.7764 154.661 53.413 154.661 53.0497 154.661C52.5652 154.661 52.2019 154.782 51.9596 155.025C51.7174 155.268 51.5963 155.753 51.5963 156.36V158.787H50.8696V152.355H51.5963V154.297C51.5963 154.539 51.5963 154.782 51.5963 154.903C51.7174 154.661 51.9596 154.539 52.2019 154.418C52.4441 154.297 52.6863 154.175 53.0497 154.175C53.6553 154.175 54.0186 154.297 54.2608 154.539C54.5031 154.782 54.6242 155.268 54.6242 155.753V158.665H54.1397V158.665Z" fill="black"/>
<path d="M56.1987 152.962C56.1987 152.841 56.1987 152.719 56.3199 152.598C56.441 152.477 56.441 152.477 56.5621 152.477C56.6832 152.477 56.8043 152.477 56.8043 152.598C56.9255 152.719 56.9255 152.841 56.9255 152.962C56.9255 153.083 56.9255 153.205 56.8043 153.326C56.6832 153.447 56.6832 153.447 56.5621 153.447C56.441 153.447 56.3199 153.447 56.3199 153.326C56.1987 153.205 56.1987 153.083 56.1987 152.962ZM56.9255 158.665H56.1987V154.175H56.9255V158.665Z" fill="black"/>
<path d="M61.2857 157.452C61.2857 157.816 61.1646 158.18 60.8012 158.422C60.4379 158.665 60.0745 158.787 59.4689 158.787C58.8633 158.787 58.3789 158.665 58.0155 158.544V157.937C58.2577 158.058 58.5 158.18 58.7422 158.18C58.9845 158.301 59.2267 158.301 59.4689 158.301C59.8323 158.301 60.0745 158.301 60.3168 158.18C60.559 158.058 60.559 157.937 60.559 157.694C60.559 157.573 60.4379 157.33 60.3168 157.209C60.1956 157.088 59.8323 156.966 59.4689 156.724C59.1056 156.602 58.7422 156.481 58.6211 156.36C58.5 156.238 58.2577 156.117 58.2577 155.996C58.1366 155.874 58.1366 155.632 58.1366 155.51C58.1366 155.146 58.2577 154.903 58.6211 154.661C58.8633 154.418 59.3478 154.297 59.8323 154.297C60.3168 154.297 60.8012 154.418 61.2857 154.539L61.0435 155.146C60.559 154.903 60.1956 154.903 59.8323 154.903C59.4689 154.903 59.2267 154.903 59.1056 155.025C58.9844 155.146 58.8633 155.268 58.8633 155.389C58.8633 155.51 58.8633 155.632 58.9845 155.753C59.1056 155.874 59.1056 155.874 59.2267 155.996C59.3478 156.117 59.59 156.238 60.0745 156.36C60.559 156.602 60.9224 156.724 61.1646 156.966C61.1646 156.966 61.2857 157.209 61.2857 157.452Z" fill="black"/>
<path d="M67.5839 157.452C67.5839 157.816 67.4628 158.18 67.0994 158.422C66.736 158.665 66.3727 158.787 65.7671 158.787C65.1615 158.787 64.677 158.665 64.3137 158.544V157.937C64.5559 158.058 64.7982 158.18 65.0404 158.18C65.2826 158.301 65.5249 158.301 65.7671 158.301C66.1305 158.301 66.3727 158.301 66.6149 158.18C66.8572 158.058 66.8572 157.937 66.8572 157.694C66.8572 157.573 66.7361 157.33 66.6149 157.209C66.4938 157.088 66.1305 156.966 65.7671 156.724C65.4037 156.602 65.0404 156.481 64.9193 156.36C64.7982 156.238 64.5559 156.117 64.5559 155.996C64.4348 155.874 64.4348 155.632 64.4348 155.51C64.4348 155.146 64.5559 154.903 64.9193 154.661C65.1615 154.418 65.646 154.297 66.1305 154.297C66.6149 154.297 67.0994 154.418 67.5839 154.539L67.3416 155.146C66.8572 154.903 66.4938 154.903 66.1305 154.903C65.7671 154.903 65.5249 154.903 65.4038 155.025C65.2826 155.146 65.1615 155.268 65.1615 155.389C65.1615 155.51 65.1615 155.632 65.2826 155.753C65.4038 155.874 65.4037 155.874 65.5249 155.996C65.646 156.117 65.8882 156.238 66.3727 156.36C66.8572 156.602 67.2205 156.724 67.4628 156.966C67.4628 156.966 67.5839 157.209 67.5839 157.452Z" fill="black"/>
<path d="M70.6118 158.787C69.8851 158.787 69.4006 158.544 69.0373 158.18C68.6739 157.816 68.4317 157.209 68.4317 156.481C68.4317 155.753 68.5528 155.146 68.9161 154.782C69.2795 154.297 69.764 154.175 70.3696 154.175C70.9751 154.175 71.3385 154.418 71.7019 154.782C72.0652 155.146 72.1863 155.632 72.1863 156.238V156.724H69.0373C69.0373 157.209 69.1584 157.694 69.4006 157.937C69.6428 158.18 70.0062 158.301 70.4907 158.301C70.9752 158.301 71.4596 158.18 71.9441 157.937V158.544C71.7019 158.665 71.4596 158.665 71.2174 158.787C71.0963 158.787 70.854 158.787 70.6118 158.787ZM70.3696 154.661C70.0062 154.661 69.764 154.782 69.5217 155.025C69.2795 155.268 69.1584 155.632 69.1584 155.996H71.5807C71.5807 155.51 71.4596 155.268 71.3385 155.025C70.9751 154.782 70.7329 154.661 70.3696 154.661Z" fill="black"/>
<path d="M76.1832 158.665L76.0621 158.058C75.8199 158.301 75.5776 158.544 75.3354 158.665C75.0932 158.787 74.8509 158.787 74.4876 158.787C74.0031 158.787 73.6397 158.665 73.3975 158.423C73.1553 158.18 73.0341 157.816 73.0341 157.452C73.0341 156.481 73.7609 155.996 75.2143 155.996H75.941V155.753C75.941 155.389 75.8199 155.146 75.6988 154.903C75.5776 154.782 75.3354 154.661 74.972 154.661C74.6087 154.661 74.1242 154.782 73.6397 155.025L73.3975 154.539C73.6397 154.418 73.882 154.297 74.1242 154.297C74.3665 154.175 74.6087 154.175 74.972 154.175C75.4565 154.175 75.941 154.297 76.1832 154.539C76.4254 154.782 76.5466 155.146 76.5466 155.753V158.908H76.1832V158.665ZM74.6087 158.18C75.0932 158.18 75.3354 158.058 75.5776 157.816C75.8199 157.573 75.941 157.209 75.941 156.845V156.481H75.2143C74.6087 156.481 74.2453 156.602 74.0031 156.724C73.7609 156.845 73.6397 157.088 73.6397 157.452C73.6397 157.694 73.7609 157.937 73.882 158.058C74.1242 158.18 74.3664 158.18 74.6087 158.18Z" fill="black"/>
<path d="M81.028 157.452C81.028 157.816 80.9069 158.18 80.5435 158.422C80.3013 158.665 79.8168 158.787 79.2112 158.787C78.6056 158.787 78.1211 158.665 77.7577 158.544V157.937C78 158.058 78.2422 158.18 78.4844 158.18C78.7267 158.301 78.9689 158.301 79.2112 158.301C79.5745 158.301 79.8168 158.301 80.059 158.18C80.3012 158.058 80.3012 157.937 80.3012 157.694C80.3012 157.573 80.1801 157.33 80.059 157.209C79.9379 157.088 79.5745 156.966 79.2112 156.724C78.8478 156.602 78.4844 156.481 78.3633 156.36C78.2422 156.238 78 156.117 78 155.996C77.8788 155.874 77.8788 155.632 77.8788 155.51C77.8788 155.146 78 154.903 78.3633 154.661C78.6056 154.418 79.09 154.297 79.5745 154.297C80.059 154.297 80.5435 154.418 81.028 154.539L80.7857 155.146C80.3013 154.903 79.9379 154.903 79.5745 154.903C79.2112 154.903 78.9689 154.903 78.8478 155.025C78.7267 155.146 78.6056 155.268 78.6056 155.389C78.6056 155.51 78.6056 155.632 78.7267 155.753C78.8478 155.874 78.8478 155.874 78.9689 155.996C79.09 156.117 79.3323 156.238 79.8168 156.36C80.3012 156.602 80.6646 156.724 80.9068 156.966C80.9068 156.966 81.028 157.209 81.028 157.452Z" fill="black"/>
<path d="M86.1149 156.481C86.1149 157.209 85.8726 157.816 85.5093 158.18C85.1459 158.544 84.6615 158.787 83.9348 158.787C83.5714 158.787 83.2081 158.665 82.8447 158.544C82.4814 158.423 82.2391 158.058 82.118 157.694C81.9969 157.33 81.8758 156.966 81.8758 156.481C81.8758 155.753 82.118 155.146 82.4814 154.782C82.8447 154.418 83.3292 154.175 84.0559 154.175C84.6615 154.175 85.1459 154.418 85.5093 154.782C85.8726 155.146 86.1149 155.753 86.1149 156.481ZM82.6025 156.481C82.6025 157.088 82.7236 157.452 82.9659 157.816C83.2081 158.18 83.5714 158.301 83.9348 158.301C84.4192 158.301 84.7826 158.18 84.9037 157.816C85.1459 157.573 85.2671 157.088 85.2671 156.481C85.2671 155.874 85.1459 155.51 84.9037 155.146C84.6615 154.903 84.2981 154.661 83.8137 154.661C83.3292 154.661 82.9658 154.782 82.8447 155.146C82.7236 155.389 82.6025 155.874 82.6025 156.481Z" fill="black"/>
<path d="M90.354 158.665V155.753C90.354 155.389 90.2329 155.146 90.1118 154.903C89.9907 154.661 89.6273 154.661 89.264 154.661C88.7795 154.661 88.4162 154.782 88.1739 155.025C87.9317 155.268 87.8106 155.753 87.8106 156.238V158.665H87.0839V154.175H87.6895L87.8106 154.782C87.9317 154.539 88.174 154.418 88.4162 154.297C88.6584 154.175 88.9006 154.054 89.264 154.054C89.8696 154.054 90.2329 154.175 90.4752 154.418C90.7174 154.661 90.8385 155.146 90.8385 155.632V158.544H90.354V158.665Z" fill="black"/>
<path d="M41.4224 198.102C41.4224 198.709 41.1801 199.073 40.8168 199.437C40.4534 199.801 39.8478 199.923 39.1211 199.923C38.5155 199.923 37.9099 199.801 37.4255 199.559V198.345C37.7888 198.588 38.1522 198.709 38.5155 198.709C38.7578 198.831 39 198.831 39.2422 198.831C39.4845 198.831 39.7267 198.831 39.8478 198.709C39.969 198.588 40.0901 198.466 40.0901 198.224C40.0901 198.102 40.0901 197.981 39.969 197.86C39.8478 197.738 39.8478 197.738 39.7267 197.617C39.6056 197.496 39.3634 197.374 39 197.253C38.6367 197.132 38.3944 196.889 38.1522 196.768C37.91 196.646 37.7888 196.404 37.6677 196.161C37.5466 195.918 37.5466 195.676 37.5466 195.433C37.5466 194.947 37.6677 194.462 38.0311 194.219C38.3944 193.855 38.8789 193.734 39.4845 193.734C39.8478 193.734 40.0901 193.734 40.3323 193.855C40.5745 193.977 40.9379 193.977 41.1801 194.219L40.8168 195.19C40.4534 195.069 40.2112 194.947 39.969 194.947C39.7267 194.947 39.6056 194.826 39.3634 194.826C39.1211 194.826 38.8789 194.826 38.7578 194.947C38.6367 195.069 38.5155 195.19 38.5155 195.433C38.5155 195.554 38.5155 195.676 38.6367 195.676C38.6367 195.797 38.7578 195.797 38.8789 195.918C39 196.04 39.2422 196.161 39.7267 196.404C40.3323 196.646 40.6957 196.889 40.9379 197.253C41.3012 197.374 41.4224 197.738 41.4224 198.102Z" fill="black"/>
<path d="M46.7515 199.801H45.5404V197.132C45.5404 196.404 45.2981 196.161 44.8137 196.161C44.4503 196.161 44.2081 196.282 44.087 196.525C43.9658 196.768 43.8447 197.132 43.8447 197.738V199.923H42.6335V193.491H43.8447V194.826C43.8447 194.947 43.8447 195.19 43.8447 195.554V195.918H43.9658C44.2081 195.433 44.6925 195.19 45.2981 195.19C45.7826 195.19 46.2671 195.312 46.5093 195.676C46.7515 196.04 46.8727 196.404 46.8727 196.889V199.801H46.7515Z" fill="black"/>
<path d="M52.2019 197.496C52.2019 198.224 51.9596 198.831 51.5963 199.316C51.2329 199.801 50.6273 199.923 49.9006 199.923C49.4162 199.923 49.0528 199.801 48.6895 199.68C48.3261 199.437 48.0839 199.195 47.9628 198.831C47.7205 198.467 47.7205 197.981 47.7205 197.496C47.7205 196.768 47.9628 196.161 48.3261 195.676C48.6895 195.312 49.295 195.069 50.0217 195.069C50.5062 195.069 50.8696 195.19 51.2329 195.312C51.5963 195.554 51.8385 195.797 51.9596 196.161C52.0807 196.525 52.2019 197.01 52.2019 197.496ZM49.0528 197.496C49.0528 197.981 49.1739 198.345 49.295 198.588C49.4162 198.831 49.6584 198.952 50.0217 198.952C50.3851 198.952 50.6273 198.831 50.7485 198.588C50.8696 198.345 50.9907 197.981 50.9907 197.496C50.9907 197.01 50.8696 196.646 50.7485 196.404C50.6273 196.161 50.3851 196.04 50.0217 196.04C49.6584 196.04 49.4162 196.161 49.295 196.404C49.0528 196.646 49.0528 197.01 49.0528 197.496Z" fill="black"/>
<path d="M55.8354 199.801C55.3509 199.801 54.8665 199.559 54.5031 199.195H54.382C54.382 199.559 54.5031 199.801 54.5031 199.923V201.743H53.2919V195.19H54.2609L54.382 195.797C54.6242 195.312 55.1087 195.069 55.7143 195.069C56.3199 195.069 56.6832 195.312 57.0466 195.676C57.4099 196.04 57.5311 196.646 57.5311 197.496C57.5311 197.981 57.4099 198.467 57.2888 198.831C57.1677 199.195 56.9254 199.437 56.6832 199.68C56.441 199.801 56.1987 199.801 55.8354 199.801ZM55.472 196.04C55.1087 196.04 54.9876 196.161 54.7453 196.282C54.6242 196.525 54.5031 196.768 54.5031 197.253V197.374C54.5031 197.86 54.6242 198.224 54.7453 198.467C54.8665 198.709 55.1087 198.831 55.472 198.831C56.0776 198.831 56.3199 198.345 56.3199 197.374C56.3199 196.889 56.1987 196.525 56.0776 196.404C55.9565 196.161 55.7143 196.04 55.472 196.04Z" fill="black"/>
<path d="M65.0404 199.801H63.8292V197.132C63.8292 196.768 63.8292 196.525 63.7081 196.404C63.587 196.282 63.3447 196.161 63.1025 196.161C62.7391 196.161 62.4969 196.282 62.3758 196.525C62.2547 196.768 62.1335 197.132 62.1335 197.738V199.923H60.9224V195.19H61.8913L62.0124 195.797H62.1335C62.2547 195.554 62.4969 195.433 62.7391 195.312C62.9814 195.19 63.2236 195.19 63.587 195.19C64.0715 195.19 64.5559 195.312 64.7982 195.676C65.0404 195.918 65.1615 196.404 65.1615 196.889V199.801H65.0404Z" fill="black"/>
<path d="M70.6118 197.496C70.6118 198.224 70.3696 198.831 70.0062 199.316C69.6429 199.801 69.0373 199.923 68.3106 199.923C67.8261 199.923 67.4628 199.801 67.0994 199.68C66.7361 199.437 66.4938 199.195 66.3727 198.831C66.1305 198.467 66.1305 197.981 66.1305 197.496C66.1305 196.768 66.3727 196.161 66.7361 195.676C67.0994 195.312 67.705 195.069 68.4317 195.069C68.9162 195.069 69.2795 195.19 69.6429 195.312C70.0062 195.554 70.2485 195.797 70.3696 196.161C70.4907 196.525 70.6118 197.01 70.6118 197.496ZM67.3416 197.496C67.3416 197.981 67.4628 198.345 67.5839 198.588C67.705 198.831 67.9472 198.952 68.3106 198.952C68.6739 198.952 68.9162 198.831 69.0373 198.588C69.1584 198.345 69.2795 197.981 69.2795 197.496C69.2795 197.01 69.1584 196.646 69.0373 196.404C68.9162 196.161 68.6739 196.04 68.3106 196.04C67.9472 196.04 67.705 196.161 67.5839 196.404C67.4628 196.646 67.3416 197.01 67.3416 197.496Z" fill="black"/>
<path d="M75.4565 199.801L75.0932 198.224L74.6087 196.161L73.7609 199.801H72.4286L71.0963 195.19H72.3075L72.7919 197.253C72.9131 197.617 72.913 198.102 73.0342 198.831C73.0342 198.588 73.0342 198.345 73.1553 197.86L73.2764 197.496L73.882 195.312H75.2143L75.6988 197.496C75.6988 197.496 75.6988 197.617 75.6988 197.738C75.6988 197.86 75.6988 197.981 75.8199 198.102C75.8199 198.224 75.8199 198.345 75.8199 198.467C75.8199 198.588 75.8199 198.709 75.8199 198.831C75.8199 198.588 75.941 198.345 75.941 197.981C76.0621 197.617 76.0621 197.374 76.0621 197.253L76.6677 195.19H77.8789L76.5466 199.801H75.4565Z" fill="black"/>
<path d="M80.7857 197.981L83.5714 196.768L80.7857 195.433V194.462L84.9037 196.525V197.132L80.7857 198.952V197.981Z" fill="black"/>
<path d="M34.6397 23.3651V22.2729H43.6025V23.3651H34.6397Z" fill="white"/>
<path d="M53.0497 21.9089C53.0497 23.001 52.6863 23.9718 52.0807 24.5785C51.4752 25.1852 50.5062 25.5492 49.295 25.5492H47.3571V18.6326H49.5373C50.6273 18.6326 51.5963 18.8753 52.2018 19.482C52.8074 20.0887 53.0497 20.9381 53.0497 21.9089ZM51.5963 22.0302C51.5963 20.5741 50.9907 19.846 49.6584 19.846H48.9317V24.3358H49.5373C50.8696 24.2144 51.5963 23.4864 51.5963 22.0302Z" fill="white"/>
<path d="M59.2267 22.8797C59.2267 23.7291 58.9844 24.4572 58.5 24.9426C58.0155 25.4279 57.4099 25.6706 56.5621 25.6706C56.0776 25.6706 55.5931 25.5493 55.2298 25.3066C54.8664 25.0639 54.5031 24.8212 54.382 24.3358C54.1397 23.9718 54.0186 23.4864 54.0186 22.8797C54.0186 22.0303 54.2609 21.3022 54.7453 20.8168C55.2298 20.3314 55.8354 20.0887 56.6832 20.0887C57.1677 20.0887 57.6522 20.2101 58.0155 20.4528C58.3789 20.6955 58.7422 20.9382 58.8633 21.4236C59.1056 21.7876 59.2267 22.273 59.2267 22.8797ZM55.5932 22.8797C55.5932 23.3651 55.7143 23.8505 55.8354 24.0931C55.9565 24.3358 56.3199 24.4572 56.6832 24.4572C57.0466 24.4572 57.2888 24.3358 57.531 24.0931C57.6522 23.8505 57.7733 23.4864 57.7733 22.8797C57.7733 22.3943 57.6522 21.9089 57.531 21.6662C57.4099 21.4235 57.0466 21.3022 56.6832 21.3022C56.3199 21.3022 56.0776 21.4235 55.8354 21.6662C55.5931 21.9089 55.5932 22.273 55.5932 22.8797Z" fill="white"/>
<path d="M65.2826 25.428H63.8292V22.273C63.8292 21.9089 63.7081 21.5449 63.5869 21.4236C63.4658 21.3022 63.2236 21.1809 62.9814 21.1809C62.618 21.1809 62.2546 21.3022 62.1335 21.5449C62.0124 21.7876 61.8913 22.273 61.8913 22.8797V25.428H60.4379V20.0888H61.5279L61.7702 20.8168H61.8913C62.0124 20.5741 62.2546 20.3315 62.4969 20.2101C62.7391 20.0888 63.1025 19.9674 63.4658 19.9674C64.0714 19.9674 64.5559 20.0888 64.9192 20.4528C65.2826 20.8168 65.4037 21.3022 65.4037 21.9089V25.428H65.2826Z" fill="white"/>
<path d="M67.9472 18.5112C67.8261 19.2393 67.5838 19.9674 67.2205 20.9381H66.1304C66.3727 19.9674 66.4938 19.2393 66.6149 18.5112H67.9472Z" fill="white"/>
<path d="M71.0963 24.4572C71.3385 24.4572 71.7019 24.4572 72.0652 24.3359V25.428C71.7019 25.5493 71.2174 25.6707 70.7329 25.6707C70.1273 25.6707 69.764 25.5493 69.5217 25.1853C69.2795 24.9426 69.1584 24.4572 69.1584 23.8505V21.3023H68.3105V20.6955L69.1584 20.2102L69.5217 19.118H70.4907V20.2102H71.9441V21.3023H70.4907V23.8505C70.4907 24.0932 70.4907 24.2145 70.6118 24.3359C70.7329 24.3359 70.854 24.4572 71.0963 24.4572Z" fill="white"/>
<path d="M80.3012 25.428H78.8478V22.273C78.8478 21.9089 78.7267 21.5449 78.6056 21.4236C78.4845 21.1809 78.2422 21.1809 78 21.1809C77.6366 21.1809 77.3944 21.3022 77.1522 21.5449C76.9099 21.7876 76.9099 22.273 76.9099 22.8797V25.428H75.4565V20.0888H76.5466L76.7888 20.8168H76.9099C77.0311 20.5741 77.2733 20.3315 77.5155 20.2101C77.7578 20.0888 78.1211 19.9674 78.4845 19.9674C79.3323 19.9674 79.8168 20.2101 80.059 20.6955H80.1801C80.3012 20.4528 80.5435 20.2101 80.7857 20.0888C81.028 19.9674 81.3913 19.8461 81.7547 19.8461C82.3603 19.8461 82.8447 19.9674 83.087 20.3315C83.4503 20.6955 83.5714 21.1809 83.5714 21.7876V25.1853H82.118V22.0303C82.118 21.6663 81.9969 21.3022 81.8758 21.1809C81.7547 20.9382 81.5124 20.9382 81.2702 20.9382C80.9068 20.9382 80.6646 21.0595 80.4224 21.3022C80.3012 21.5449 80.1801 21.9089 80.1801 22.5157V25.428H80.3012Z" fill="white"/>
<path d="M85.0248 18.7539C85.0248 18.2686 85.2671 18.0259 85.7515 18.0259C86.236 18.0259 86.4782 18.2686 86.4782 18.7539C86.4782 18.9966 86.3571 19.118 86.236 19.2393C86.1149 19.3607 85.8726 19.482 85.6304 19.482C85.2671 19.482 85.0248 19.2393 85.0248 18.7539ZM86.4782 25.4279H85.0248V20.0887H86.4782V25.4279Z" fill="white"/>
<path d="M91.6863 23.8505C91.6863 24.3359 91.4441 24.8212 91.0807 25.0639C90.7174 25.3066 90.1118 25.5493 89.3851 25.5493C89.0217 25.5493 88.6584 25.5493 88.4161 25.428C88.1739 25.3066 87.9317 25.3066 87.6894 25.1853V23.9718C87.9317 24.0932 88.295 24.2145 88.5372 24.3358C88.9006 24.4572 89.1428 24.4572 89.3851 24.4572C89.8695 24.4572 90.1118 24.3359 90.1118 23.9718C90.1118 23.8505 90.1118 23.7291 89.9907 23.7291C89.8695 23.6078 89.7484 23.6078 89.6273 23.4864C89.5062 23.3651 89.264 23.2437 88.9006 23.1224C88.5373 23.001 88.1739 22.7584 88.0528 22.637C87.8105 22.5157 87.6894 22.273 87.6894 22.1516C87.5683 21.9089 87.5683 21.7876 87.5683 21.4236C87.5683 20.9382 87.8105 20.5741 88.1739 20.3314C88.5372 20.0888 89.0217 19.9674 89.7484 19.9674C90.354 19.9674 90.9596 20.0888 91.5652 20.3314L91.0807 21.4236C90.8385 21.3022 90.5963 21.1809 90.354 21.1809C90.1118 21.0595 89.8696 21.0595 89.6273 21.0595C89.1428 21.0595 89.0217 21.1809 89.0217 21.4236C89.0217 21.5449 89.1428 21.6662 89.264 21.7876C89.3851 21.9089 89.7484 22.0303 90.1118 22.1516C90.4751 22.273 90.8385 22.5157 91.0807 22.637C91.323 22.7584 91.4441 23.001 91.5652 23.1224C91.6863 23.3651 91.6863 23.6078 91.6863 23.8505Z" fill="white"/>
<path d="M96.531 23.8505C96.531 24.3359 96.2888 24.8212 95.9254 25.0639C95.5621 25.3066 94.9565 25.5493 94.2298 25.5493C93.8664 25.5493 93.5031 25.5493 93.2609 25.428C93.0186 25.428 92.7764 25.3066 92.5341 25.1853V23.9718C92.7764 24.0932 93.1397 24.2145 93.382 24.3358C93.7453 24.4572 93.9875 24.4572 94.2298 24.4572C94.7143 24.4572 94.9565 24.3359 94.9565 23.9718C94.9565 23.8505 94.9565 23.7291 94.8354 23.7291C94.7143 23.6078 94.5931 23.6078 94.472 23.4864C94.3509 23.3651 94.1087 23.2437 93.7453 23.1224C93.382 23.001 93.0186 22.7584 92.8975 22.637C92.6553 22.5157 92.5341 22.273 92.5341 22.1516C92.413 21.9089 92.413 21.7876 92.413 21.4236C92.413 20.9382 92.6553 20.5741 93.0186 20.3314C93.382 20.0888 93.8664 19.9674 94.5931 19.9674C95.1987 19.9674 95.8043 20.0888 96.4099 20.3314L95.9254 21.4236C95.6832 21.3022 95.441 21.1809 95.1987 21.1809C94.9565 21.0595 94.7143 21.0595 94.472 21.0595C93.9876 21.0595 93.8664 21.1809 93.8664 21.4236C93.8664 21.5449 93.9876 21.6662 94.1087 21.7876C94.2298 21.9089 94.5931 22.0303 94.9565 22.1516C95.3198 22.273 95.6832 22.5157 95.9254 22.637C96.1677 22.7584 96.2888 23.001 96.4099 23.1224C96.531 23.3651 96.531 23.6078 96.531 23.8505Z" fill="white"/>
<path d="M102.466 24.4572C102.708 24.4572 103.071 24.4572 103.435 24.3359V25.428C103.071 25.5493 102.587 25.6707 102.102 25.6707C101.497 25.6707 101.134 25.5493 100.891 25.1853C100.649 24.9426 100.528 24.4572 100.528 23.8505V21.3023H99.8013V20.6955L100.649 20.2102L101.012 19.118H101.981V20.2102H103.435V21.3023H101.981V23.8505C101.981 24.0932 101.981 24.2145 102.102 24.3359C102.102 24.3359 102.224 24.4572 102.466 24.4572Z" fill="white"/>
<path d="M109.248 25.4279H107.795V22.273C107.795 21.5449 107.553 21.1809 106.947 21.1809C106.584 21.1809 106.22 21.3022 106.099 21.5449C105.978 21.7876 105.857 22.273 105.857 22.8797V25.4279H104.404V18.0259H105.857V19.482C105.857 19.6034 105.857 19.8461 105.857 20.3314V20.8168H105.978C106.342 20.3314 106.826 20.0887 107.553 20.0887C108.158 20.0887 108.643 20.2101 109.006 20.5741C109.37 20.9382 109.491 21.4236 109.491 22.0303V25.4279H109.248Z" fill="white"/>
<path d="M113.124 25.5493C112.276 25.5493 111.55 25.3066 111.186 24.8212C110.702 24.3358 110.46 23.7291 110.46 22.8797C110.46 22.0303 110.702 21.3022 111.065 20.8168C111.55 20.3314 112.155 20.0887 112.882 20.0887C113.609 20.0887 114.214 20.3314 114.578 20.6955C114.941 21.1809 115.183 21.6662 115.183 22.5157V23.2437H111.913C111.913 23.6078 112.034 23.9718 112.276 24.2145C112.519 24.4572 112.882 24.5785 113.245 24.5785C113.609 24.5785 113.851 24.5785 114.093 24.4572C114.335 24.3358 114.699 24.3358 114.941 24.0931V25.1853C114.699 25.3066 114.457 25.4279 114.093 25.4279C113.972 25.5493 113.609 25.5493 113.124 25.5493ZM113.003 21.0595C112.64 21.0595 112.398 21.1809 112.276 21.3022C112.155 21.5449 112.034 21.7876 112.034 22.1516H114.093C114.093 21.7876 113.972 21.5449 113.851 21.3022C113.488 21.1809 113.245 21.0595 113.003 21.0595Z" fill="white"/>
<path d="M120.634 25.5493C120.028 25.5493 119.543 25.3066 119.18 24.8212C118.817 24.3359 118.696 23.6078 118.696 22.7584C118.696 21.909 118.817 21.1809 119.18 20.6955C119.543 20.2101 120.028 19.9674 120.634 19.9674C121.239 19.9674 121.845 20.2101 122.208 20.6955C122.087 20.3315 122.087 19.9674 122.087 19.6034V17.9045H123.54V25.3066H122.45L122.208 24.5786H122.087C121.845 25.3066 121.36 25.5493 120.634 25.5493ZM121.239 24.4572C121.602 24.4572 121.845 24.3359 122.087 24.0932C122.208 23.8505 122.329 23.4864 122.329 23.0011V22.8797C122.329 22.273 122.208 21.9089 122.087 21.6663C121.966 21.4236 121.602 21.3022 121.239 21.3022C120.876 21.3022 120.634 21.4236 120.512 21.6663C120.391 21.9089 120.27 22.3943 120.27 22.8797C120.27 23.3651 120.391 23.8505 120.512 24.0932C120.634 24.3359 120.876 24.4572 121.239 24.4572Z" fill="white"/>
<path d="M127.537 25.5493C126.689 25.5493 125.963 25.3066 125.599 24.8212C125.115 24.3358 124.873 23.7291 124.873 22.8797C124.873 22.0303 125.115 21.3022 125.478 20.8168C125.963 20.3314 126.568 20.0887 127.295 20.0887C128.022 20.0887 128.627 20.3314 128.991 20.6955C129.354 21.1809 129.596 21.6662 129.596 22.5157V23.2437H126.205C126.205 23.6078 126.326 23.9718 126.568 24.2145C126.811 24.4572 127.174 24.5785 127.537 24.5785C127.901 24.5785 128.143 24.5785 128.385 24.4572C128.627 24.3358 128.991 24.3358 129.233 24.0931V25.1853C128.991 25.3066 128.748 25.4279 128.385 25.4279C128.264 25.5493 127.901 25.5493 127.537 25.5493ZM127.295 21.0595C126.932 21.0595 126.689 21.1809 126.568 21.3022C126.447 21.5449 126.326 21.7876 126.326 22.1516H128.385C128.385 21.7876 128.264 21.5449 128.143 21.3022C127.901 21.1809 127.658 21.0595 127.295 21.0595Z" fill="white"/>
<path d="M134.199 25.428L133.957 24.6999C133.714 25.0639 133.472 25.1853 133.23 25.3066C132.988 25.428 132.624 25.428 132.261 25.428C131.776 25.428 131.413 25.3066 131.05 24.9426C130.807 24.6999 130.565 24.2145 130.565 23.7291C130.565 23.1224 130.807 22.7584 131.171 22.5157C131.534 22.273 132.14 22.1516 132.988 22.0303H133.957V21.7876C133.957 21.3022 133.714 20.9382 133.109 20.9382C132.745 20.9382 132.14 21.0595 131.655 21.3022L131.171 20.3315C131.776 19.9674 132.503 19.8461 133.23 19.8461C133.957 19.8461 134.441 19.9674 134.804 20.3315C135.168 20.6955 135.41 21.0595 135.41 21.7876V25.3066H134.199V25.428ZM133.835 23.0011H133.23C132.866 23.0011 132.503 23.1224 132.261 23.2437C132.019 23.3651 131.898 23.6078 131.898 23.8505C131.898 24.2145 132.14 24.4572 132.624 24.4572C132.988 24.4572 133.23 24.3359 133.472 24.2145C133.714 24.0932 133.714 23.7291 133.714 23.4864V23.0011H133.835Z" fill="white"/>
<path d="M138.196 25.4279H136.742V18.0259H138.196V25.4279Z" fill="white"/>
<path d="M139.528 24.8212C139.528 24.5785 139.649 24.3358 139.77 24.2144C139.891 24.0931 140.134 23.9718 140.376 23.9718C140.618 23.9718 140.86 24.0931 140.981 24.2144C141.102 24.3358 141.224 24.5785 141.224 24.8212C141.224 25.0639 141.102 25.3066 140.981 25.4279C140.86 25.5492 140.618 25.6706 140.376 25.6706C140.134 25.6706 139.891 25.5492 139.77 25.4279C139.528 25.3066 139.528 25.0639 139.528 24.8212ZM140.86 23.2437H139.649L139.407 18.6326H141.102L140.86 23.2437Z" fill="white"/>
<path d="M236.786 216.426V219.459H222.736V211.329H225.158V216.426H228.792V211.693H231.214V216.426H236.786Z" fill="white"/>
<path d="M236.786 199.923L233.394 200.893V206.111L236.786 207.082V210.358L222.615 205.383V201.743L236.786 196.768V199.923ZM230.851 201.622C227.823 202.592 226.127 203.078 225.643 203.199C225.28 203.32 224.916 203.442 224.674 203.442C225.522 203.684 227.581 204.291 230.73 205.262V201.622H230.851Z" fill="white"/>
<path d="M232.91 186.575C234.242 186.575 235.211 187.06 235.938 187.91C236.665 188.88 237.028 190.094 237.028 191.793C237.028 193.249 236.786 194.584 236.18 195.797H233.394C233.879 194.826 234.121 194.098 234.242 193.37C234.363 192.763 234.485 192.157 234.485 191.55C234.485 190.943 234.363 190.336 234.121 190.094C233.879 189.73 233.516 189.608 233.031 189.608C232.789 189.608 232.547 189.73 232.304 189.851C232.062 189.972 231.941 190.215 231.699 190.579C231.457 190.822 231.214 191.55 230.73 192.399C230.366 193.249 229.882 193.855 229.519 194.341C229.155 194.826 228.671 195.069 228.186 195.433C227.702 195.676 227.096 195.797 226.491 195.797C225.28 195.797 224.311 195.433 223.584 194.584C222.857 193.734 222.494 192.521 222.494 191.064C222.494 190.336 222.615 189.608 222.736 189.002C222.857 188.395 223.099 187.667 223.463 186.939L225.764 187.91C225.401 188.638 225.28 189.244 225.158 189.73C225.037 190.215 224.916 190.7 224.916 191.186C224.916 191.793 225.037 192.157 225.28 192.521C225.522 192.763 225.885 193.006 226.37 193.006C226.612 193.006 226.854 193.006 227.096 192.763C227.339 192.642 227.46 192.399 227.702 192.157C227.944 191.914 228.186 191.307 228.671 190.215C229.276 188.88 229.882 188.031 230.609 187.545C231.214 186.817 231.941 186.575 232.91 186.575Z" fill="white"/>
<path d="M236.786 172.499V175.532H230.73V181.114H236.786V184.148H222.736V181.114H228.307V175.532H222.736V172.499H236.786V172.499Z" fill="white"/>
<path d="M236.786 168.858H222.736V165.946H236.786V168.858Z" fill="white"/>
<path d="M229.761 149.564C232.062 149.564 233.879 150.171 235.09 151.263C236.301 152.477 237.028 154.054 237.028 156.238C237.028 158.423 236.422 160.121 235.09 161.213C233.879 162.427 232.062 162.912 229.64 162.912C227.339 162.912 225.522 162.306 224.311 161.213C223.099 160 222.494 158.423 222.494 156.238C222.494 154.054 223.099 152.355 224.311 151.263C225.522 150.05 227.339 149.564 229.761 149.564ZM229.761 159.879C231.335 159.879 232.547 159.636 233.273 159.029C234.121 158.423 234.485 157.573 234.485 156.36C234.485 153.933 232.91 152.719 229.761 152.719C226.612 152.719 225.037 153.933 225.037 156.238C225.037 157.452 225.401 158.301 226.248 158.908C226.975 159.515 228.186 159.879 229.761 159.879Z" fill="white"/>
<path d="M236.786 134.032V137.794L226.127 143.982V144.104C228.065 143.982 229.398 143.861 230.124 143.861H236.786V146.531H222.736V142.769L233.273 136.58V136.459C231.457 136.58 230.124 136.58 229.398 136.58H222.736V133.911H236.786V134.032Z" fill="white"/>
</svg>
