<svg width="454" height="404" viewBox="0 0 454 404" fill="none" xmlns="http://www.w3.org/2000/svg">
<path d="M411.736 38.585H172.891V334.061H411.736V38.585Z" fill="#9747FF"/>
<path d="M355.901 5.21498C362.804 5.09363 362.925 14.6799 369.829 14.5586C376.733 14.4372 376.612 4.85094 383.516 4.7296C390.419 4.60825 390.54 14.1945 397.444 14.0732C404.348 13.9519 404.227 4.36556 411.13 4.24421C418.034 4.12287 418.155 13.7092 425.059 13.5878C431.963 13.4665 431.842 3.88018 438.745 3.75883C445.649 3.63749 445.77 13.2238 452.795 13.1024" stroke="#E2FF30" stroke-width="1.5" stroke-miterlimit="10" stroke-linecap="round" stroke-linejoin="round"/>
<path d="M144.429 307.972C151.332 307.85 151.211 298.264 158.115 298.143C165.019 298.021 165.14 307.608 172.043 307.486C178.947 307.365 178.826 297.779 185.73 297.657C192.634 297.536 192.755 307.122 199.658 307.001C206.562 306.88 206.441 297.293 213.345 297.172" stroke="#2F1C48" stroke-width="1.5" stroke-miterlimit="10" stroke-linecap="round" stroke-linejoin="round"/>
<path d="M19.7981 257.249L10.472 266.714L1.02484 257.249L10.3509 247.784L19.7981 257.249Z" stroke="black" stroke-width="1.5" stroke-miterlimit="10" stroke-linecap="round" stroke-linejoin="round"/>
<path d="M292.314 74.1391L282.866 83.604L273.54 74.1391L282.866 64.6742L292.314 74.1391Z" stroke="black" stroke-width="1.5" stroke-miterlimit="10" stroke-linecap="round" stroke-linejoin="round"/>
<path d="M328.043 403.107H436.565" stroke="black" stroke-miterlimit="10"/>
<path d="M3.68945 1.45325L17.1335 15.0439" stroke="black" stroke-width="1.5" stroke-miterlimit="10" stroke-linecap="round" stroke-linejoin="round"/>
<path d="M17.1335 1.45325L3.68945 15.0439" stroke="black" stroke-width="1.5" stroke-miterlimit="10" stroke-linecap="round" stroke-linejoin="round"/>
<path d="M429.783 44.6522L443.348 58.2429" stroke="black" stroke-width="1.5" stroke-miterlimit="10" stroke-linecap="round" stroke-linejoin="round"/>
<path d="M443.348 44.6522L429.783 58.2429" stroke="black" stroke-width="1.5" stroke-miterlimit="10" stroke-linecap="round" stroke-linejoin="round"/>
<path d="M207.047 74.1392H253.798" stroke="black" stroke-width="1.5" stroke-miterlimit="10" stroke-linecap="round" stroke-linejoin="round"/>
<path d="M97.5559 257.249H121.779" stroke="black" stroke-width="1.5" stroke-miterlimit="10" stroke-linecap="round" stroke-linejoin="round"/>
<path d="M114.512 393.52H21.9783V403.107H114.512V393.52Z" fill="#E2FF30"/>
</svg>
