<svg width="30" height="30" viewBox="0 0 30 30" fill="none" xmlns="http://www.w3.org/2000/svg">
<g clip-path="url(#clip0_2022_637)">
<path fill-rule="evenodd" clip-rule="evenodd" d="M20.69 27.6663C18.89 27.6001 13.7887 26.8951 8.44625 21.5538C3.105 16.2113 2.40125 11.1113 2.33375 9.31009C2.23375 6.56509 4.33625 3.89884 6.765 2.85759C7.05747 2.73129 7.37775 2.68321 7.69441 2.71806C8.01107 2.7529 8.31324 2.86947 8.57125 3.05634C10.5712 4.51384 11.9513 6.71884 13.1362 8.45259C13.397 8.8335 13.5085 9.29702 13.4494 9.75483C13.3904 10.2126 13.1651 10.6327 12.8162 10.9351L10.3775 12.7463C10.2597 12.8314 10.1767 12.9564 10.1441 13.098C10.1114 13.2396 10.1313 13.3883 10.2 13.5163C10.7525 14.5201 11.735 16.0151 12.86 17.1401C13.9862 18.2651 15.5513 19.3126 16.625 19.9276C16.7596 20.0032 16.9181 20.0243 17.0678 19.9866C17.2175 19.949 17.3472 19.8554 17.43 19.7251L19.0175 17.3088C19.3094 16.9211 19.7399 16.6614 20.219 16.5841C20.698 16.5067 21.1884 16.6177 21.5875 16.8938C23.3463 18.1113 25.3988 19.4676 26.9012 21.3913C27.1033 21.6512 27.2318 21.9606 27.2734 22.2871C27.3149 22.6137 27.268 22.9454 27.1375 23.2476C26.0912 25.6888 23.4438 27.7676 20.69 27.6663Z" fill="#AC6CFF"/>
</g>
<defs>
<clipPath id="clip0_2022_637">
<rect width="30" height="30" fill="white"/>
</clipPath>
</defs>
</svg>
