<svg width="24" height="24" viewBox="0 0 24 24" fill="none" xmlns="http://www.w3.org/2000/svg">
<path d="M15.9217 12.768C16.027 12.6475 16.1072 12.5072 16.1576 12.3554C16.2079 12.2035 16.2274 12.0431 16.2148 11.8835C16.2022 11.724 16.1579 11.5686 16.0844 11.4265C16.0108 11.2844 15.9097 11.1584 15.7867 11.056C15.6638 10.9535 15.5216 10.8767 15.3686 10.83C15.2155 10.7834 15.0547 10.7678 14.8955 10.7842C14.7364 10.8005 14.5821 10.8486 14.4418 10.9255C14.3014 11.0024 14.1779 11.1066 14.0785 11.232L8.07847 18.432C7.97311 18.5524 7.8929 18.6927 7.84256 18.8446C7.79222 18.9964 7.77277 19.1569 7.78534 19.3164C7.79791 19.4759 7.84226 19.6313 7.91578 19.7734C7.98929 19.9155 8.09049 20.0415 8.21341 20.1439C8.33633 20.2464 8.4785 20.3232 8.63155 20.3699C8.7846 20.4166 8.94544 20.4322 9.10461 20.4158C9.26378 20.3994 9.41806 20.3513 9.55837 20.2744C9.69869 20.1975 9.82221 20.0933 9.92167 19.968L15.9217 12.768Z" fill="#F8F9FF"/>
<path d="M14.0785 12.768C14.1779 12.8934 14.3014 12.9975 14.4418 13.0744C14.5821 13.1514 14.7364 13.1994 14.8955 13.2158C15.0547 13.2322 15.2155 13.2166 15.3686 13.1699C15.5216 13.1233 15.6638 13.0464 15.7867 12.944C15.9097 12.8416 16.0108 12.7156 16.0844 12.5735C16.1579 12.4313 16.2022 12.2759 16.2148 12.1164C16.2274 11.9569 16.2079 11.7965 16.1576 11.6446C16.1072 11.4927 16.027 11.3524 15.9217 11.232L9.92167 4.03201C9.82221 3.90666 9.69869 3.80247 9.55837 3.72557C9.41806 3.64866 9.26378 3.6006 9.10461 3.5842C8.94544 3.5678 8.7846 3.5834 8.63155 3.63008C8.4785 3.67676 8.33633 3.75358 8.21341 3.85602C8.09049 3.95845 7.98929 4.08444 7.91578 4.22656C7.84226 4.36868 7.79791 4.52407 7.78534 4.68359C7.77277 4.8431 7.79222 5.00352 7.84256 5.15541C7.8929 5.30729 7.97311 5.44758 8.07847 5.56801L14.0785 12.768Z" fill="#F8F9FF"/>
</svg>
