<svg width="24" height="24" viewBox="0 0 24 24" fill="none" xmlns="http://www.w3.org/2000/svg">
<path d="M8.07833 12.768C7.97297 12.6475 7.89277 12.5072 7.84243 12.3554C7.79209 12.2035 7.77263 12.0431 7.7852 11.8835C7.79778 11.724 7.84213 11.5686 7.91564 11.4265C7.98915 11.2844 8.09035 11.1584 8.21327 11.056C8.3362 10.9535 8.47836 10.8767 8.63141 10.83C8.78446 10.7834 8.9453 10.7678 9.10447 10.7842C9.26364 10.8005 9.41792 10.8486 9.55824 10.9255C9.69855 11.0024 9.82207 11.1066 9.92153 11.232L15.9215 18.432C16.0269 18.5524 16.1071 18.6927 16.1574 18.8446C16.2078 18.9964 16.2272 19.1569 16.2147 19.3164C16.2021 19.4759 16.1577 19.6313 16.0842 19.7734C16.0107 19.9155 15.9095 20.0415 15.7866 20.1439C15.6637 20.2464 15.5215 20.3232 15.3684 20.3699C15.2154 20.4166 15.0546 20.4322 14.8954 20.4158C14.7362 20.3994 14.5819 20.3513 14.4416 20.2744C14.3013 20.1975 14.1778 20.0933 14.0783 19.968L8.07833 12.768Z" fill="#F8F9FF"/>
<path d="M9.92153 12.768C9.82207 12.8934 9.69855 12.9975 9.55824 13.0744C9.41792 13.1514 9.26364 13.1994 9.10447 13.2158C8.9453 13.2322 8.78446 13.2166 8.63141 13.1699C8.47836 13.1233 8.3362 13.0464 8.21327 12.944C8.09035 12.8416 7.98915 12.7156 7.91564 12.5735C7.84213 12.4313 7.79778 12.2759 7.7852 12.1164C7.77263 11.9569 7.79209 11.7965 7.84243 11.6446C7.89277 11.4927 7.97297 11.3524 8.07833 11.232L14.0783 4.03201C14.1778 3.90666 14.3013 3.80247 14.4416 3.72557C14.5819 3.64866 14.7362 3.6006 14.8954 3.5842C15.0546 3.5678 15.2154 3.5834 15.3684 3.63008C15.5215 3.67676 15.6637 3.75358 15.7866 3.85602C15.9095 3.95845 16.0107 4.08444 16.0842 4.22656C16.1577 4.36868 16.2021 4.52407 16.2147 4.68359C16.2272 4.8431 16.2078 5.00352 16.1574 5.15541C16.1071 5.30729 16.0269 5.44758 15.9215 5.56801L9.92153 12.768Z" fill="#F8F9FF"/>
</svg>
