<svg width="35" height="35" viewBox="0 0 35 35" fill="none" xmlns="http://www.w3.org/2000/svg">
<path d="M32.8125 17.5C32.816 17.9486 32.6796 18.3872 32.4223 18.7547C32.1651 19.1223 31.7997 19.4005 31.377 19.5508L22.7035 22.7049L19.5508 31.377C19.3954 31.7956 19.1156 32.1567 18.749 32.4116C18.3824 32.6666 17.9466 32.8032 17.5 32.8032C17.0535 32.8032 16.6176 32.6666 16.251 32.4116C15.8844 32.1567 15.6046 31.7956 15.4492 31.377L12.2951 22.6953L3.62306 19.5508C3.20442 19.3954 2.84337 19.1156 2.5884 18.749C2.33344 18.3824 2.19678 17.9466 2.19678 17.5C2.19678 17.0535 2.33344 16.6176 2.5884 16.251C2.84337 15.8844 3.20442 15.6046 3.62306 15.4492L12.3047 12.2951L15.4492 3.62306C15.6046 3.20442 15.8844 2.84337 16.251 2.5884C16.6176 2.33344 17.0535 2.19678 17.5 2.19678C17.9466 2.19678 18.3824 2.33344 18.749 2.5884C19.1156 2.84337 19.3954 3.20442 19.5508 3.62306L22.7049 12.3047L31.377 15.4492C31.7997 15.5995 32.1651 15.8778 32.4223 16.2453C32.6796 16.6128 32.816 17.0514 32.8125 17.5Z" fill="#F8F9FF"/>
</svg>
