<svg width="40" height="40" viewBox="0 0 40 40" fill="none" xmlns="http://www.w3.org/2000/svg">
<path d="M37.4999 20C37.5039 20.5127 37.348 21.0139 37.054 21.434C36.76 21.854 36.3424 22.172 35.8593 22.3438L25.9468 25.9485L22.3437 35.8594C22.1661 36.3378 21.8463 36.7505 21.4273 37.0419C21.0084 37.3333 20.5102 37.4894 19.9999 37.4894C19.4896 37.4894 18.9915 37.3333 18.5725 37.0419C18.1535 36.7505 17.8337 36.3378 17.6562 35.8594L14.0515 25.9375L4.14053 22.3438C3.66209 22.1662 3.24946 21.8464 2.95807 21.4275C2.66668 21.0085 2.5105 20.5104 2.5105 20C2.5105 19.4897 2.66668 18.9916 2.95807 18.5726C3.24946 18.1536 3.66209 17.8339 4.14053 17.6563L14.0624 14.0516L17.6562 4.14066C17.8337 3.66221 18.1535 3.24958 18.5725 2.95819C18.9915 2.66681 19.4896 2.51062 19.9999 2.51062C20.5102 2.51062 21.0084 2.66681 21.4273 2.95819C21.8463 3.24958 22.1661 3.66221 22.3437 4.14066L25.9483 14.0625L35.8593 17.6563C36.3424 17.828 36.76 18.146 37.054 18.5661C37.348 18.9861 37.5039 19.4873 37.4999 20Z" fill="#F8F9FF"/>
</svg>
