<svg width="60" height="60" viewBox="0 0 60 60" fill="none" xmlns="http://www.w3.org/2000/svg">
<g clip-path="url(#clip0_2022_7)">
<path d="M30 0C13.4321 0 0 13.4321 0 30C0 42.716 7.90123 53.5802 19.0617 57.9506C18.7901 55.5802 18.5679 51.9259 19.1605 49.3333C19.7037 46.9877 22.6667 34.4198 22.6667 34.4198C22.6667 34.4198 21.7778 32.6173 21.7778 29.9753C21.7778 25.8025 24.1975 22.6914 27.2099 22.6914C29.7778 22.6914 31.0123 24.6173 31.0123 26.9136C31.0123 29.4815 29.3827 33.3333 28.5185 36.9136C27.8025 39.9012 30.0247 42.3457 32.963 42.3457C38.2963 42.3457 42.3951 36.716 42.3951 28.6173C42.3951 21.4321 37.2346 16.4198 29.8519 16.4198C21.3086 16.4198 16.2963 22.8148 16.2963 29.4321C16.2963 32 17.2839 34.7654 18.5185 36.2716C18.7654 36.5679 18.7901 36.8395 18.716 37.1358C18.4938 38.0741 17.9753 40.1235 17.8765 40.5432C17.7531 41.0864 17.4321 41.2099 16.8642 40.9383C13.1111 39.1852 10.7654 33.7284 10.7654 29.3086C10.7654 19.8519 17.6296 11.1605 30.5926 11.1605C40.9877 11.1605 49.0864 18.5679 49.0864 28.4938C49.0864 38.8395 42.5679 47.1605 33.5309 47.1605C30.4938 47.1605 27.6296 45.5802 26.6667 43.7037C26.6667 43.7037 25.1605 49.4321 24.7901 50.8395C24.1235 53.4568 22.2963 56.716 21.0617 58.716C23.8765 59.5802 26.8395 60.0494 29.9506 60.0494C46.5185 60.0494 59.9506 46.6173 59.9506 30.0494C60 13.4321 46.5679 0 30 0Z" fill="#F8F9FF"/>
</g>
<defs>
<clipPath id="clip0_2022_7">
<rect width="60" height="60" fill="white"/>
</clipPath>
</defs>
</svg>
