<svg width="50" height="57" viewBox="0 0 50 57" fill="none" xmlns="http://www.w3.org/2000/svg">
<g clip-path="url(#clip0_2022_26)">
<path d="M34.1096 6.75427C34.1096 6.75427 33.4703 6.93682 32.4201 7.25628C32.2374 6.663 31.9635 5.97844 31.5982 5.24825C30.411 2.9664 28.6301 1.73419 26.5297 1.73419C26.3927 1.73419 26.2557 1.73419 26.0731 1.77983C26.0274 1.68856 25.9361 1.64292 25.8904 1.55165C24.9772 0.54763 23.79 0.0912593 22.3744 0.136896C19.6347 0.228171 16.895 2.19057 14.7032 5.70462C13.1507 8.16902 11.9635 11.2723 11.6438 13.6911C8.49315 14.6495 6.30137 15.334 6.25571 15.3797C4.65753 15.8817 4.61187 15.9273 4.42922 17.4334C4.15525 18.5743 0 50.7484 0 50.7484L34.5205 56.7269V6.663C34.3379 6.70864 34.2009 6.70864 34.1096 6.75427ZM26.1187 9.21868C24.2922 9.76632 22.2831 10.4052 20.3196 10.9985C20.8676 8.85358 21.9635 6.70864 23.242 5.29389C23.7443 4.79188 24.4292 4.1986 25.2055 3.8335C25.9817 5.47644 26.1644 7.71265 26.1187 9.21868ZM22.4201 1.96238C23.0594 1.96238 23.6073 2.09929 24.0639 2.37311C23.3333 2.73821 22.6027 3.33149 21.9178 4.01605C20.1826 5.88717 18.8584 8.80794 18.3105 11.5918C16.6667 12.0938 15.0228 12.5958 13.516 13.0522C14.4749 8.71667 18.1735 2.09929 22.4201 1.96238ZM17.0776 27.0628C17.2603 29.9836 24.9772 30.6225 25.4338 37.5137C25.7534 42.9445 22.5571 46.6411 17.9452 46.9149C12.3744 47.28 9.31507 43.9941 9.31507 43.9941L10.5023 38.9741C10.5023 38.9741 13.5616 41.3016 16.0274 41.119C17.6256 41.0277 18.2192 39.7043 18.1735 38.7915C17.9452 34.958 11.6438 35.1862 11.2329 28.8883C10.8676 23.64 14.3379 18.3005 22.0091 17.7985C24.9772 17.6159 26.484 18.3461 26.484 18.3461L24.7489 24.9178C24.7489 24.9178 22.7854 24.0051 20.4566 24.1876C17.0776 24.4158 17.032 26.5608 17.0776 27.0628ZM27.9452 8.67103C27.9452 7.30192 27.7626 5.33952 27.1233 3.69659C29.2237 4.10732 30.2283 6.43481 30.6849 7.84956C29.863 8.07775 28.9498 8.35157 27.9452 8.67103Z" fill="white"/>
<path d="M35.6621 56.5444L50 52.9847C50 52.9847 43.8356 11.318 43.79 11.0442C43.7443 10.7704 43.516 10.5878 43.2877 10.5878C43.0594 10.5878 39.0411 10.4966 39.0411 10.4966C39.0411 10.4966 36.5754 8.12344 35.6621 7.21069V56.5444Z" fill="white"/>
</g>
<defs>
<clipPath id="clip0_2022_26">
<rect width="50" height="56.8182" fill="white"/>
</clipPath>
</defs>
</svg>
