<svg width="70" height="70" viewBox="0 0 70 70" fill="none" xmlns="http://www.w3.org/2000/svg">
<path d="M26.6964 15.7734C30.3918 9.14671 32.238 5.83337 35.0001 5.83337C37.7622 5.83337 39.6084 9.14671 43.3039 15.7734L44.2605 17.4884C45.3105 19.3725 45.8355 20.3146 46.6522 20.9359C47.4689 21.5571 48.4897 21.7875 50.5314 22.2484L52.3864 22.6684C59.5614 24.293 63.146 25.1038 64.0005 27.8484C64.8522 30.59 62.408 33.4513 57.5168 39.1709L56.2509 40.6496C54.8626 42.2742 54.1655 43.088 53.8535 44.0913C53.5414 45.0975 53.6464 46.1825 53.8564 48.3496L54.0489 50.3242C54.7868 57.9571 55.1572 61.7721 52.923 63.4667C50.6889 65.1642 47.3289 63.6155 40.6147 60.5238L38.8734 59.7246C36.9659 58.8438 36.0122 58.4063 35.0001 58.4063C33.988 58.4063 33.0343 58.8438 31.1268 59.7246L29.3884 60.5238C22.6714 63.6155 19.3114 65.1613 17.0801 63.4696C14.843 61.7721 15.2134 57.9571 15.9514 50.3242L16.1439 48.3525C16.3539 46.1825 16.4589 45.0975 16.1439 44.0942C15.8347 43.088 15.1376 42.2742 13.7493 40.6525L12.4835 39.1709C7.5922 33.4542 5.14803 30.593 5.9997 27.8484C6.85428 25.1038 10.4418 24.29 17.6168 22.6684L19.4718 22.2484C21.5105 21.7875 22.5285 21.5571 23.348 20.9359C24.1647 20.3146 24.6897 19.3725 25.7397 17.4884L26.6964 15.7734Z" stroke="#F8F9FF" stroke-width="4"/>
</svg>
