<svg width="60" height="60" viewBox="0 0 60 60" fill="none" xmlns="http://www.w3.org/2000/svg">
<g clip-path="url(#clip0_2022_77)">
<path d="M47.4785 26.6469C37.9541 20.9906 22.2435 20.4705 13.1512 23.2301C11.6911 23.6732 10.147 22.8486 9.70473 21.389C9.26217 19.9279 10.0855 18.3849 11.5468 17.941C21.9841 14.7729 39.3347 15.3847 50.2995 21.8935C51.6127 22.6733 52.0436 24.3694 51.2652 25.6805C50.4861 26.9937 48.7886 27.4266 47.4785 26.6469ZM47.1666 35.0247C46.4984 36.109 45.0807 36.4492 43.9978 35.7833C36.0572 30.9023 23.949 29.4883 14.5547 32.34C13.3365 32.7081 12.0497 32.0212 11.6797 30.8053C11.3126 29.587 11.9998 28.3026 13.2159 27.9322C23.9475 24.6756 37.2886 26.253 46.4087 31.8576C47.4916 32.5245 47.8324 33.9429 47.1666 35.0247ZM43.5511 43.0705C43.0201 43.9413 41.8864 44.2141 41.0188 43.6833C34.0802 39.4426 25.3467 38.485 15.0615 40.8341C14.0704 41.0614 13.0826 40.4403 12.8566 39.4493C12.6295 38.4585 13.2483 37.4706 14.2416 37.2444C25.497 34.6713 35.1519 35.7788 42.94 40.5378C43.8083 41.0681 44.0818 42.2025 43.5511 43.0705ZM30.0002 0.45229C13.6816 0.45229 0.452393 13.6812 0.452393 29.9995C0.452393 46.3198 13.6816 59.5476 30.0002 59.5476C46.3191 59.5476 59.5477 46.3198 59.5477 29.9995C59.5477 13.6812 46.3191 0.45229 30.0002 0.45229Z" fill="#F8F9FF"/>
</g>
<defs>
<clipPath id="clip0_2022_77">
<rect width="60" height="60" fill="white"/>
</clipPath>
</defs>
</svg>
