<svg width="60" height="60" viewBox="0 0 60 60" fill="none" xmlns="http://www.w3.org/2000/svg">
<g clip-path="url(#clip0_2022_83)">
<path d="M60 30C60 46.5634 46.5634 60 30 60C13.4366 60 0 46.5634 0 30C0 13.4366 13.4366 0 30 0C46.5634 0 60 13.4366 60 30Z" fill="#F8F9FF"/>
<path d="M48.507 24.0845L52.1408 20.1127H44.1126C40.1408 17.4085 35.2394 15.8029 29.9999 15.8029C24.7605 15.8029 19.9436 17.4085 15.9718 20.1127H7.9436L11.5774 24.0845C9.38022 26.1127 7.9436 28.986 7.9436 32.2817C7.9436 38.3662 12.845 43.3521 19.014 43.3521C21.8873 43.3521 24.507 42.2536 26.5352 40.3944L30.0844 44.2817L33.6337 40.3944C35.5774 42.2536 38.1971 43.3521 41.1549 43.3521C47.2394 43.3521 52.2253 38.4507 52.2253 32.2817C52.0563 28.986 50.7042 26.1127 48.507 24.0845ZM18.9295 39.7183C14.7887 39.7183 11.4929 36.3381 11.4929 32.2817C11.4929 28.1409 14.8732 24.8451 18.9295 24.8451C23.0704 24.8451 26.3661 28.2254 26.3661 32.2817C26.4506 36.3381 23.0704 39.7183 18.9295 39.7183ZM29.9999 32.0282C29.9999 27.1268 26.4506 22.9014 21.7183 21.1268C24.2535 20.0282 27.0422 19.4367 29.9999 19.4367C32.9577 19.4367 35.7464 20.0282 38.2816 21.1268C33.5492 22.9014 29.9999 27.1268 29.9999 32.0282ZM41.0704 39.7183C36.9295 39.7183 33.6337 36.3381 33.6337 32.2817C33.6337 28.1409 37.014 24.8451 41.0704 24.8451C45.2112 24.8451 48.507 28.2254 48.507 32.2817C48.507 36.3381 45.1267 39.7183 41.0704 39.7183ZM41.0704 28.3099C38.8732 28.3099 37.183 30.0845 37.183 32.1972C37.183 34.3099 38.9577 36.0845 41.0704 36.0845C43.2675 36.0845 44.9577 34.3099 44.9577 32.1972C44.9577 30.0845 43.183 28.3099 41.0704 28.3099ZM22.9014 32.1972C22.9014 34.3944 21.1267 36.0845 19.014 36.0845C16.8168 36.0845 15.1267 34.3099 15.1267 32.1972C15.1267 30.0845 16.9014 28.3099 19.014 28.3099C21.1267 28.3099 22.9014 30.0845 22.9014 32.1972Z" fill="#2D2D2D"/>
</g>
<defs>
<clipPath id="clip0_2022_83">
<rect width="60" height="60" fill="white"/>
</clipPath>
</defs>
</svg>
