<svg width="60" height="60" viewBox="0 0 60 60" fill="none" xmlns="http://www.w3.org/2000/svg">
<g clip-path="url(#clip0_2022_89)">
<path d="M57.6844 26.8142C56.2849 25.416 54.4486 24.6459 52.5127 24.6459C51.0969 24.6459 49.6744 25.1731 48.8925 25.6935C47.2738 26.7713 45.9435 27.9412 43.5484 31.0344V33.2579C45.5805 30.6117 47.5034 28.5263 48.9632 27.3795C49.9226 26.6093 51.284 26.1322 52.5127 26.1322C55.6841 26.1322 58.3647 28.8106 58.3647 31.9824V33.3206C58.3647 34.8879 57.7491 36.3603 56.6273 37.4687C55.5169 38.5667 54.0543 39.1713 52.5127 39.1713C49.9064 39.1713 47.6122 37.3829 46.9887 34.9407L45.9411 36.2102C46.7052 38.7692 49.4648 40.6572 52.5127 40.6572C54.4486 40.6572 56.2849 39.8859 57.6844 38.4905C59.0819 37.0923 59.8511 35.2567 59.8511 33.3206V31.9824C59.8511 30.0472 59.0819 28.2107 57.6844 26.8142ZM25.8427 26.1322C26.8526 26.1322 27.7259 26.3489 28.5142 26.7951C28.8847 26.3322 29.2588 25.9563 29.5376 25.678C28.7036 25.0413 27.2914 24.6459 25.8427 24.6459C23.7781 24.6459 21.9033 25.3902 20.5646 26.7427C19.2358 28.0829 18.5019 29.9435 18.5019 31.9824V40.6572H19.9884V31.9824C19.9884 28.5378 22.3957 26.1322 25.8427 26.1322ZM39.9684 40.6572V31.9824C39.9684 29.3155 37.8783 27.2258 35.2101 27.2258C33.9675 27.2258 32.7813 27.7288 31.8671 28.6415C30.9549 29.5533 30.4521 30.7411 30.4521 31.9824V33.3206C30.4521 35.8982 32.6319 38.0776 35.2101 38.0776C35.9169 38.0776 36.8792 37.9038 37.4681 37.4206V35.8502C36.8895 36.315 36.0496 36.5917 35.2101 36.5917C33.3761 36.5917 31.9386 35.1539 31.9386 33.3206V31.9824C31.9386 30.1488 33.3761 28.7133 35.2101 28.7133C37.0456 28.7133 38.4819 30.1488 38.4819 31.9824V40.6572H39.9684ZM0.148926 31.1214V31.6013C0.148926 34.1777 1.12664 36.5818 2.90297 38.3698C4.67493 40.1538 7.05011 41.1348 9.5909 41.1348C11.6337 41.1348 13.4426 40.6727 14.9695 39.7648C16.2284 39.0145 16.7864 38.2563 16.8344 38.1868V30.1877H9.22992V31.6744H15.348V37.7251L15.342 37.7303C14.6256 38.4476 12.9251 39.6477 9.5909 39.6477C7.41825 39.6477 5.40682 38.82 3.92357 37.3135C2.44786 35.8141 1.63535 33.7851 1.63535 31.6013V31.1214C1.63535 29.0595 2.56581 27.0023 4.18686 25.4803C5.84207 23.9293 7.99844 23.0742 10.2601 23.0742C12.3692 23.0742 13.8385 23.3942 15.0188 24.1088V22.441C13.7901 21.9186 12.3215 21.684 10.2601 21.684C4.77977 21.684 0.148926 26.0067 0.148926 31.1214ZM25.8427 28.7133C26.4066 28.7133 26.8844 28.8066 27.2648 28.9916C27.4499 28.5303 27.6397 28.15 27.9165 27.6883C27.5122 27.3993 26.55 27.2258 25.8427 27.2258C23.1304 27.2258 21.0844 29.2707 21.0844 31.9824V40.6572H22.5708V31.9824C22.5708 30.0567 23.9167 28.7133 25.8427 28.7133ZM15.0188 26.9686V25.2116C13.6737 24.4903 12.206 24.1687 10.2601 24.1687C8.27444 24.1687 6.39208 24.8972 4.95768 26.2167C3.52208 27.541 2.73061 29.283 2.73061 31.1214V31.6013C2.73061 35.4357 5.80752 38.5548 9.5909 38.5548C12.6682 38.5548 13.9314 37.5481 14.2531 37.2297V32.7684H9.22992V34.2539H12.8624V36.4893L12.8493 36.4937C12.3819 36.6799 11.4113 37.0681 9.5909 37.0681C8.14776 37.0681 6.79754 36.5072 5.78806 35.4858C4.77381 34.4608 4.21705 33.0805 4.21705 31.6013V31.1214C4.21705 28.1583 6.98459 25.6554 10.2601 25.6554C12.526 25.6554 13.8659 26.0222 15.0188 26.9686ZM50.1081 29.7681C50.7788 29.0992 51.6569 28.7133 52.5127 28.7133C54.3466 28.7133 55.785 30.1488 55.785 31.9824V33.3206C55.785 35.1539 54.3466 36.5917 52.5127 36.5917C51.6247 36.5917 50.7669 36.1039 50.095 35.2222C49.4993 34.4425 49.1133 33.3877 49.0537 32.4397L47.8501 33.909C48.0863 35.0328 48.6741 36.1098 49.5045 36.8668C50.3615 37.6465 51.4297 38.0776 52.5127 38.0776C55.1373 38.0776 57.2706 35.9435 57.2706 33.3206V31.9824C57.2706 30.7411 56.7678 29.5533 55.8556 28.6415C54.9419 27.7288 53.7553 27.2258 52.5127 27.2258C51.7272 27.2258 50.4778 27.5073 48.989 28.8455L48.9838 28.8507C48.5855 29.2492 47.6499 30.1845 47.0808 30.8514C46.1238 31.8951 44.733 33.4707 43.5484 35.0471V37.3674C44.8633 35.6787 45.6202 34.7327 46.8561 33.306C47.9628 32.015 49.3329 30.4461 50.1081 29.7681ZM27.8716 33.3206C27.8716 35.2567 28.6417 37.0923 30.0391 38.4905C31.4378 39.8859 33.2745 40.6572 35.2101 40.6572C36.0301 40.6572 36.8724 40.4821 37.4681 40.1888V38.7041C36.7723 38.9954 35.9316 39.1713 35.2101 39.1713C32.0386 39.1713 29.3573 36.4925 29.3573 33.3206V31.9824C29.3573 28.8106 32.0386 26.1322 35.2101 26.1322C36.787 26.1322 38.2611 26.7356 39.3608 27.8348C40.4592 28.9328 41.0628 30.406 41.0628 31.9824V40.6572H42.5493V31.6966C42.4567 29.8034 41.6482 28.0321 40.273 26.7078C38.8957 25.3783 37.0956 24.6459 35.2101 24.6459C33.2745 24.6459 31.4378 25.416 30.0391 26.8142C28.6417 28.2107 27.8716 30.0472 27.8716 31.9824V33.3206ZM45.0789 27.568C45.534 27.0218 46.005 26.4668 46.5634 25.9984V18.1489H45.0789V27.568ZM47.6586 25.3902V18.1489H49.1443V24.3712C48.7408 24.5748 48.1769 24.9623 47.6586 25.3902Z" fill="#F8F9FF"/>
</g>
<defs>
<clipPath id="clip0_2022_89">
<rect width="60" height="23.2836" fill="white" transform="translate(0 18)"/>
</clipPath>
</defs>
</svg>
