<svg width="70" height="70" viewBox="0 0 70 70" fill="none" xmlns="http://www.w3.org/2000/svg">
<path d="M26.2499 20.4167H15.0062C17.7149 16.6919 21.4072 13.7949 25.6695 12.0501C29.9317 10.3053 34.5956 9.78173 39.1387 10.538C39.5126 10.5843 39.89 10.4841 40.1917 10.2584C40.4934 10.0327 40.696 9.69895 40.7571 9.32714C40.8182 8.95532 40.733 8.57429 40.5194 8.2639C40.3058 7.95351 39.9803 7.73785 39.6112 7.66212C38.0865 7.41488 36.5445 7.29101 34.9999 7.29171C30.7783 7.29879 26.6139 8.26839 22.8234 10.1268C19.0329 11.9851 15.716 14.6834 13.1249 18.0163V7.29171C13.1249 6.90493 12.9713 6.534 12.6978 6.26051C12.4243 5.98702 12.0534 5.83337 11.6666 5.83337C11.2798 5.83337 10.9089 5.98702 10.6354 6.26051C10.3619 6.534 10.2083 6.90493 10.2083 7.29171V21.875C10.2083 22.2618 10.3619 22.6327 10.6354 22.9062C10.9089 23.1797 11.2798 23.3334 11.6666 23.3334H26.2499C26.6367 23.3334 27.0076 23.1797 27.2811 22.9062C27.5546 22.6327 27.7083 22.2618 27.7083 21.875C27.7083 21.4883 27.5546 21.1173 27.2811 20.8438C27.0076 20.5704 26.6367 20.4167 26.2499 20.4167ZM21.8749 42.2917C21.4881 42.2917 21.1172 42.4454 20.8437 42.7188C20.5702 42.9923 20.4166 43.3633 20.4166 43.75V54.9938C16.6918 52.2851 13.7948 48.5928 12.05 44.3305C10.3052 40.0682 9.78161 35.4043 10.5378 30.8613C10.5842 30.4874 10.484 30.11 10.2583 29.8083C10.0326 29.5066 9.69883 29.3039 9.32701 29.2428C8.9552 29.1817 8.57417 29.2669 8.26378 29.4806C7.95339 29.6942 7.73773 30.0197 7.662 30.3888C6.83993 35.327 7.36821 40.3955 9.19091 45.0581C11.0136 49.7206 14.0629 53.8036 18.0162 56.875H7.29159C6.90481 56.875 6.53388 57.0287 6.26039 57.3022C5.9869 57.5757 5.83325 57.9466 5.83325 58.3334C5.83325 58.7201 5.9869 59.0911 6.26039 59.3646C6.53388 59.6381 6.90481 59.7917 7.29159 59.7917H21.8749C22.2617 59.7917 22.6326 59.6381 22.9061 59.3646C23.1796 59.0911 23.3333 58.7201 23.3333 58.3334V43.75C23.3333 43.3633 23.1796 42.9923 22.9061 42.7188C22.6326 42.4454 22.2617 42.2917 21.8749 42.2917ZM58.3332 46.6667H43.7499C43.3631 46.6667 42.9922 46.8204 42.7187 47.0938C42.4452 47.3673 42.2916 47.7383 42.2916 48.125C42.2916 48.5118 42.4452 48.8827 42.7187 49.1562C42.9922 49.4297 43.3631 49.5834 43.7499 49.5834H54.9937C52.2849 53.3081 48.5926 56.2052 44.3304 57.95C40.0681 59.6947 35.4042 60.2183 30.8612 59.4621C30.4872 59.4158 30.1099 59.5159 29.8081 59.7417C29.5064 59.9674 29.3038 60.3011 29.2427 60.6729C29.1816 61.0448 29.2668 61.4258 29.4805 61.7362C29.6941 62.0466 30.0196 62.2622 30.3887 62.338C31.9133 62.5852 33.4554 62.7091 34.9999 62.7084C39.2215 62.7013 43.3859 61.7317 47.1764 59.8733C50.967 58.0149 54.2839 55.3167 56.8749 51.9838V62.7084C56.8749 63.0951 57.0286 63.4661 57.3021 63.7396C57.5755 64.0131 57.9465 64.1667 58.3332 64.1667C58.72 64.1667 59.091 64.0131 59.3644 63.7396C59.6379 63.4661 59.7916 63.0951 59.7916 62.7084V48.125C59.7916 47.7383 59.6379 47.3673 59.3644 47.0938C59.091 46.8204 58.72 46.6667 58.3332 46.6667ZM62.7082 10.2084H48.1249C47.7381 10.2084 47.3672 10.362 47.0937 10.6355C46.8202 10.909 46.6666 11.2799 46.6666 11.6667V26.25C46.6666 26.6368 46.8202 27.0077 47.0937 27.2812C47.3672 27.5547 47.7381 27.7084 48.1249 27.7084C48.5117 27.7084 48.8826 27.5547 49.1561 27.2812C49.4296 27.0077 49.5832 26.6368 49.5832 26.25V14.9917C52.3939 17.0104 54.7391 19.6082 56.4607 22.61C58.6466 26.3731 59.7959 30.6482 59.7916 35C59.7916 36.3855 59.6837 37.7709 59.462 39.1388C59.431 39.3276 59.4374 39.5207 59.481 39.707C59.5246 39.8934 59.6045 40.0693 59.7161 40.2247C59.8277 40.3802 59.9688 40.5122 60.1314 40.6131C60.294 40.714 60.4748 40.7819 60.6637 40.813C60.8525 40.844 61.0456 40.8375 61.2319 40.7939C61.4182 40.7503 61.5942 40.6704 61.7496 40.5589C61.9051 40.4473 62.037 40.3062 62.138 40.1436C62.2389 39.981 62.3068 39.8001 62.3378 39.6113C62.585 38.0867 62.7089 36.5446 62.7082 35C62.7126 30.1375 61.4295 25.3606 58.9895 21.1546C57.2128 18.0423 54.8365 15.3131 51.9982 13.125H62.7082C63.095 13.125 63.466 12.9714 63.7394 12.6979C64.0129 12.4244 64.1666 12.0535 64.1666 11.6667C64.1666 11.2799 64.0129 10.909 63.7394 10.6355C63.466 10.362 63.095 10.2084 62.7082 10.2084Z" fill="#F8F9FF"/>
</svg>
