<svg width="50" height="52" viewBox="0 0 50 52" fill="none" xmlns="http://www.w3.org/2000/svg">
<g clip-path="url(#clip0_2022_33)">
<path fill-rule="evenodd" clip-rule="evenodd" d="M31.4836 44.5829C31.2701 44.2105 31.4302 43.5721 30.8432 43.5721C30.4697 43.5721 30.4163 43.8913 30.363 44.1573C29.5626 43.8913 28.8689 43.7849 28.2285 43.7849C27.8016 43.7849 27.4281 43.8381 27.0546 43.9445C26.8411 43.5721 25.8806 42.8273 25.0802 42.5613C24.76 44.3169 23.2125 45.647 20.9179 45.8598C20.8112 46.977 19.9041 47.2962 19.2104 47.2962C18.7301 47.2962 17.9297 47.1366 17.8763 46.9238C17.6095 45.2746 16.3822 44.3701 15.7952 44.1573C15.7952 44.3169 15.8486 44.5297 15.8486 44.6893C15.8486 46.0726 14.8881 46.9238 13.1271 46.9238C12.8603 46.9238 12.4868 46.9238 12.22 46.8706C14.2477 49.1051 15.6885 48.3071 16.5956 48.7327C17.823 49.2647 18.8368 51.0203 22.7856 51.0203C24.2264 51.0203 25.6671 50.4351 26.6277 49.8499C26.7877 50.4351 27.3747 50.9671 28.3886 50.9671C30.0428 50.9671 31.0033 50.4351 31.0033 50.0095C31.0033 49.9031 31.0033 49.7435 30.6832 49.7435C30.4163 49.7435 30.4163 49.7967 29.5092 49.7967C28.442 49.7967 26.7344 49.3711 25.934 47.509C25.7739 47.1898 25.5604 47.1898 25.5071 47.1898C24.9734 47.1898 24.1197 49.1051 20.7579 49.1051C19.3171 49.1051 18.6767 48.5731 18.6767 48.4667C18.6767 48.4667 18.6767 48.4135 18.7301 48.4135C18.8902 48.4135 19.3705 48.4667 20.0108 48.4667C22.1453 48.4667 23.8528 47.4558 24.9201 46.3386C25.2936 45.913 25.4537 45.8598 25.7739 45.8598C26.0407 45.8598 26.3075 46.0726 26.4676 46.445C26.9478 47.6686 28.0684 48.6795 29.2424 48.6795C30.8432 48.6795 30.8966 45.913 31.2701 45.7534C31.3235 45.7534 31.4302 45.8066 31.4836 45.8066C31.697 45.8066 31.9638 45.647 31.9638 45.3278C32.0172 44.9022 31.5369 44.7958 31.4836 44.5829ZM28.8155 46.6578C28.3886 46.6578 28.0684 46.3386 28.0684 45.913C28.0684 45.4874 28.3886 45.115 28.8155 45.115C29.2424 45.115 29.5626 45.4874 29.5626 45.8598C29.6159 46.3386 29.2424 46.6578 28.8155 46.6578Z" fill="white"/>
<path fill-rule="evenodd" clip-rule="evenodd" d="M23.2658 39.2628C23.6394 39.2628 23.7994 39.582 23.8528 39.9012C23.9595 39.7948 24.1196 39.7416 24.2797 39.7416C24.6532 39.7416 24.8667 40.0076 24.8667 40.3269C24.8667 40.5397 24.76 40.6993 24.5999 40.8057C24.8133 40.9121 24.9734 41.0717 24.9734 41.2845C24.9734 41.5505 24.76 41.7633 24.4398 41.7633C24.173 41.7633 23.9595 41.4441 23.6927 41.4441C23.5326 41.4441 23.3192 41.4973 23.2658 41.6037C23.3725 41.8697 23.4259 42.0825 23.4259 42.3485C23.4259 43.7318 21.5582 44.849 19.5839 44.849C17.6628 44.849 16.9158 43.7318 16.9158 43.2529C16.9158 43.1465 16.9691 43.0933 17.1292 43.0933C17.4494 43.0933 17.5028 43.1997 18.4099 43.1997C20.491 43.1997 19.7439 40.5397 21.7183 40.5397C21.9851 40.5397 22.5721 40.6993 22.7856 41.0717C22.9457 40.9121 22.999 40.6993 22.999 40.5397C22.999 40.2204 22.7856 40.0076 22.7856 39.7416C22.7856 39.4756 22.999 39.316 23.2658 39.2628Z" fill="white"/>
<path fill-rule="evenodd" clip-rule="evenodd" d="M10.8859 37.8796C13.2338 37.8796 15.0481 39.8481 15.0481 42.6678C15.0481 43.9446 14.3544 45.8067 11.5263 45.8067C8.16447 45.8067 6.13672 42.987 6.13672 41.1781C6.13672 39.6353 7.15059 38.6777 7.79093 38.5181C7.09723 41.2845 8.64472 43.9446 11.7397 43.9446C13.2872 43.9446 14.0343 43.1998 14.0343 41.8698C14.0343 40.3801 13.0204 38.9437 11.2595 38.9437C10.4057 38.9437 9.76532 39.4225 9.76532 40.1141C9.76532 41.2313 10.7258 41.923 11.7397 41.923C12.38 41.923 12.8069 41.657 12.8069 41.2313C12.8069 41.1781 12.8069 41.0717 12.7536 41.0185C12.7002 41.0717 12.5401 41.0717 12.3267 41.0717C11.5263 41.0717 10.8859 40.6461 10.8859 40.1673C10.8859 39.7949 11.1527 39.5821 11.4729 39.5821C12.6469 39.5821 13.4473 40.7525 13.4473 41.6038C13.4473 42.455 12.8069 43.1998 11.7397 43.1998C9.44515 43.1998 8.43128 41.3377 8.43128 40.1141C8.48464 38.7841 9.60524 37.8796 10.8859 37.8796Z" fill="white"/>
<path fill-rule="evenodd" clip-rule="evenodd" d="M39.0075 44.1573C38.5272 44.5298 37.3533 45.381 35.3789 45.381C34.3116 45.381 33.8848 45.0618 33.7247 45.0618C33.5112 45.0618 33.2978 45.2746 33.0843 45.4874C32.6041 46.0194 32.0171 46.977 32.0171 48.0943C32.0171 48.8391 32.6041 49.5839 33.7247 49.5839C37.3533 49.5839 40.0214 47.3494 40.0214 45.5938C40.0747 44.583 39.4344 44.1573 39.0075 44.1573ZM37.1398 47.6155L35.0587 48.2007C35.2188 47.7751 35.3255 47.2962 35.3255 46.8174C35.3255 46.6578 35.3255 46.5514 35.2722 46.3918H35.539C37.0865 46.3918 37.7268 45.8066 37.8335 45.8066C37.9403 45.8066 38.047 45.8598 38.047 46.179C38.047 46.6046 37.8335 47.1898 37.1398 47.6155Z" fill="white"/>
<path fill-rule="evenodd" clip-rule="evenodd" d="M35.9126 44.583C36.7664 44.583 37.5134 44.3702 37.9937 43.9446C38.1538 43.8382 38.2071 43.6254 38.2071 43.4126V42.987C38.2071 42.455 37.3534 42.1357 36.1794 42.1357C34.792 42.1357 34.0449 42.7742 34.0449 43.0402V43.8914C34.0449 44.2106 34.8454 44.583 35.9126 44.583Z" fill="white"/>
<path fill-rule="evenodd" clip-rule="evenodd" d="M42.4226 35.5387C39.5945 35.5387 40.3415 37.9328 37.0331 38.6776C36.4461 38.784 36.2327 38.9968 36.2327 39.2628C36.2327 39.7416 36.4995 40.38 36.873 40.38C38.3138 40.38 40.5016 37.454 40.9285 37.454C41.0886 37.454 41.2487 37.454 41.2487 37.8796C41.2487 38.9436 38.1537 40.3268 38.1537 41.0717C38.1537 41.4973 39.2209 42.4549 40.3415 42.4549C41.889 42.4549 43.2764 39.3692 43.5966 39.3692C43.8634 39.3692 43.9168 39.5288 43.9168 39.7416C43.9168 40.5929 42.8495 42.2421 41.0352 42.9337C40.6617 43.0933 40.6083 43.2529 40.6083 43.3593C40.6083 43.785 41.0886 44.3702 41.5155 44.3702C42.0491 44.3702 45.6243 41.2845 45.6243 38.8372C45.7311 36.5495 43.9701 35.5387 42.4226 35.5387ZM43.7033 38.1988C43.4899 38.1988 43.2764 38.1456 43.1697 38.0392C42.9029 37.9328 42.476 37.5604 42.476 37.0283C42.476 36.4963 42.7428 36.3367 43.0096 36.3367C43.81 36.3367 44.7172 37.0283 44.7172 37.6136C44.7172 38.0924 44.2903 38.1988 43.7033 38.1988Z" fill="white"/>
<path fill-rule="evenodd" clip-rule="evenodd" d="M17.0223 39.4756H16.5421C16.382 39.4756 16.1152 39.4224 15.9551 39.316C15.6349 39.05 15.5282 37.6136 14.9946 36.7623C14.3542 35.8047 13.6605 35.5387 12.7534 35.5387C12.113 35.5387 11.366 35.9111 11.366 36.4431C11.366 36.7623 11.5261 36.9751 12.7534 37.2943C14.3009 37.6668 15.0479 38.518 15.208 39.4756C15.3681 40.4332 15.5282 41.1781 15.9017 41.5505C16.382 42.0825 17.2891 42.5613 18.1429 42.5613C18.8366 42.5613 19.3702 42.3485 19.3702 41.7101C19.3169 41.0185 18.3564 39.4756 17.0223 39.4756ZM18.0362 41.5505C17.4492 41.5505 16.5954 40.9653 16.5954 40.5929C16.5954 40.3268 16.8622 40.1672 17.0757 40.1672C17.5559 40.1672 18.4097 40.7525 18.4097 41.2313C18.4097 41.3909 18.303 41.5505 18.0362 41.5505Z" fill="white"/>
<path fill-rule="evenodd" clip-rule="evenodd" d="M28.6553 37.5071C28.2817 37.5071 28.2817 38.0924 28.2817 38.3052C28.2817 38.518 28.2817 38.5712 28.1217 38.5712C27.9616 38.5712 27.8549 38.518 27.6948 38.518C27.588 38.518 27.4813 38.6244 27.4813 38.784C27.4813 39.582 28.4952 40.2204 29.5091 40.2204C30.8431 40.2204 31.4835 39.6352 31.857 39.6352C32.0171 39.6352 32.0704 39.7948 32.0704 39.9012C32.0704 40.114 31.857 40.38 31.857 40.4864C31.857 40.8056 32.4973 40.5396 32.4973 40.912C32.4973 41.3909 31.6969 41.7633 30.4696 41.7633C28.0683 41.7633 26.5208 40.114 26.5208 38.5712C26.5208 35.6983 29.6158 36.6027 29.6158 35.4855C29.6158 35.1131 29.2423 34.9002 28.9755 34.9002C29.2956 34.4746 29.7225 34.4214 30.1494 34.4214C30.4696 34.4214 30.7898 34.4746 31.0566 34.4746C31.4301 34.4746 31.8036 34.315 31.8036 33.8894C31.8036 33.6234 31.5902 33.3042 30.683 33.1978C30.7898 32.6126 32.0171 32.9318 32.0171 32.3998C32.0171 32.0274 31.3234 31.7614 30.4696 31.7614C27.1612 31.7614 24.8132 34.4746 24.8132 37.4007C24.8132 40.0608 26.7343 42.9869 30.3095 42.9869C33.778 42.9869 35.4322 40.1672 35.4322 38.0391C34.7919 38.6244 33.0843 38.784 32.2305 38.784C29.7225 38.8372 29.0288 37.5071 28.6553 37.5071Z" fill="white"/>
<path fill-rule="evenodd" clip-rule="evenodd" d="M31.3768 37.8795C31.9104 37.8795 32.2839 37.4539 32.2839 36.9751C32.2839 36.2302 31.5369 35.5386 30.4163 35.5386C30.6297 35.7514 30.6831 35.911 30.6831 36.1238C30.6831 36.3898 30.523 36.7091 30.523 37.0283C30.523 37.5071 30.8432 37.8795 31.3768 37.8795ZM36.7663 34.2618C36.9264 34.4746 36.9798 34.6874 36.9798 34.9002C36.9798 35.4322 36.6062 35.9642 36.6062 36.4962C36.6062 37.1347 37.0865 37.6667 37.8336 37.6667C38.634 37.6667 39.1676 37.0283 39.1676 36.2834C39.1142 35.2194 38.2071 34.3682 36.7663 34.2618ZM32.9243 32.2401C33.1911 32.5593 33.2978 32.8785 33.2978 33.2509C33.2978 34.1022 32.6575 34.9534 32.6575 35.7514C32.6575 36.8155 33.3512 37.5071 34.365 37.5071C35.4323 37.5071 36.0726 36.6027 36.0726 35.5918C36.0726 34.1554 34.952 32.6125 32.9243 32.2401ZM34.4184 35.2726C34.1516 35.2726 33.9381 35.0598 33.9381 34.7938C33.9381 34.6342 34.0449 34.4214 34.0449 34.2086C34.0982 33.9426 34.0449 33.7298 34.2049 33.7298C34.5251 33.7298 34.8987 34.315 34.8987 34.6874C34.8987 35.0066 34.7386 35.2726 34.4184 35.2726Z" fill="white"/>
<path fill-rule="evenodd" clip-rule="evenodd" d="M22.0917 32.985C21.2379 32.6658 20.8644 32.187 20.6509 31.1761C20.2241 31.7614 20.0106 32.2934 20.0106 32.6126C20.0106 33.8894 21.7715 33.8894 21.7715 34.7407C21.7715 35.2195 20.8644 35.7515 19.6904 35.7515C18.3564 35.7515 17.3959 35.5387 16.5421 34.6875C16.3286 34.4747 16.2219 34.2618 15.9551 34.2618C15.6349 34.2618 15.4749 34.7939 15.4749 35.3259C15.4749 37.1347 17.2358 39.316 19.6904 39.316C22.7321 39.316 23.9594 37.2411 23.9594 35.5387C24.0127 34.5279 23.7993 33.6234 22.0917 32.985ZM21.2379 38.0924C20.9711 38.0924 20.9178 37.986 20.9178 37.72C20.9178 37.5603 20.9711 37.2411 20.9711 36.9751C20.9711 36.3367 21.2379 36.3899 21.8783 36.0707C22.3585 35.8579 22.5186 35.5919 22.6787 35.5919C22.8388 35.5919 22.9989 35.6983 22.9989 35.9643C22.9989 36.9219 21.9316 38.0924 21.2379 38.0924Z" fill="white"/>
<path fill-rule="evenodd" clip-rule="evenodd" d="M18.1962 29.8993C17.876 29.8993 17.3424 29.5801 16.8088 29.1545C16.2218 29.7397 15.7949 30.5377 15.7949 31.4422C15.7949 33.3042 17.7693 34.8471 19.6903 34.8471C20.0105 34.8471 20.3307 34.7939 20.6508 34.7407C19.5836 34.6343 18.9433 33.8362 18.9433 32.8786C18.9433 31.655 20.3307 30.5377 20.3307 29.5801C20.3307 28.4097 18.8899 28.3033 18.8899 27.3456C18.8899 26.5476 20.2773 25.9624 20.224 24.6855C20.224 23.9407 19.4769 23.0363 18.463 22.5043C18.6231 22.8235 18.7298 23.2491 18.7298 23.5151C18.7298 25.0048 15.8483 25.6432 15.8483 26.8136C15.8483 28.3033 18.6231 28.8885 18.6231 29.5801C18.6231 29.7397 18.5164 29.8993 18.1962 29.8993Z" fill="white"/>
<path fill-rule="evenodd" clip-rule="evenodd" d="M47.2786 30.8569C48.2391 30.8569 48.9862 32.0806 48.9862 33.517C48.9862 35.0599 48.2391 36.7091 46.9584 37.8796C46.9584 35.3259 43.8101 36.1239 43.8101 34.2618C43.8101 33.4638 44.397 32.9318 45.0907 32.9318C45.6777 32.9318 46.158 33.0914 46.5315 33.4638C46.2113 33.1446 45.9979 32.6658 45.9979 32.2402C45.9979 31.5486 46.4248 30.8569 47.2786 30.8569Z" fill="white"/>
<path fill-rule="evenodd" clip-rule="evenodd" d="M9.49848 33.4638C9.23167 33.517 9.01823 33.5702 8.85814 33.7299C8.69806 33.1446 8.16444 32.6126 7.41737 32.7722C6.77703 32.8786 6.29678 33.4638 6.4035 34.2087C6.4035 34.3151 6.45686 34.4747 6.51022 34.5811C6.51022 34.5811 6.4035 34.5811 6.29678 34.6343C5.76316 34.7407 5.12282 35.2727 5.22954 36.0707C5.33626 36.7624 5.92324 37.2412 6.61695 37.188C6.88376 37.1348 7.0972 37.0816 7.25729 36.9752C7.41737 37.6136 7.95099 37.986 8.64469 37.9328C9.3384 37.8264 9.81865 37.2412 9.76529 36.5495C9.76529 36.3367 9.71193 36.2303 9.65857 36.1239H9.81865C10.5124 35.9643 10.9926 35.4323 10.9393 34.7407C10.7258 33.8895 10.1388 33.3574 9.49848 33.4638ZM8.11108 36.0707C7.68418 36.1239 7.36401 35.8047 7.31065 35.4323C7.25729 35.0067 7.5241 34.6343 7.95099 34.5811C8.37789 34.5279 8.69806 34.8471 8.75142 35.2195C8.80478 35.6451 8.53797 36.0175 8.11108 36.0707Z" fill="white"/>
<path fill-rule="evenodd" clip-rule="evenodd" d="M44.0768 30.2717C44.0768 30.0057 44.7172 29.3672 44.7172 29.1544C44.7172 29.1012 44.6638 29.048 44.6104 29.048C44.3436 29.048 43.4365 29.7397 42.1024 29.7397C41.5688 29.7397 41.1953 29.6865 41.1953 29.2608C41.1953 28.8884 41.5154 28.5692 42.0491 28.3564C42.636 28.0904 43.81 28.0904 43.81 27.8244C43.81 27.6116 42.6894 27.6116 42.6894 27.3988C42.6894 27.1328 43.1163 26.4944 43.1163 26.2283C43.1163 26.2283 43.1163 26.1219 43.0629 26.1219C42.8495 26.1219 42.3159 26.7604 41.9957 26.7604C41.6755 26.7604 41.4087 25.9623 41.1419 25.9623C41.0886 25.9623 40.9818 26.0155 40.9818 26.1751C40.9818 26.4944 41.1419 27.0796 41.1419 27.8776C41.1419 28.5692 40.7684 29.1544 40.3948 29.1544C39.9146 29.1544 39.7545 28.5692 39.7545 28.0904C39.7545 27.3988 40.128 26.6008 40.128 25.8559C40.128 25.6963 40.0747 25.6431 39.968 25.6431C39.7011 25.6431 39.2743 26.4412 38.9541 26.4412C38.7406 26.4412 38.3671 25.4835 38.0469 25.4835C37.9936 25.4835 37.9402 25.6431 37.9402 25.8559C37.9402 26.1219 37.9936 26.4944 37.9936 26.654C37.9936 26.8668 37.7268 26.92 37.4066 26.92C37.1931 26.92 36.7662 26.92 36.7662 27.0796C36.7662 27.2392 37.1931 27.3988 37.5667 27.6648C38.2604 28.1436 39.381 28.6224 39.381 29.7397C39.381 30.7505 37.9402 31.4421 36.9263 31.6549C36.4461 31.7081 35.9658 31.8145 35.9658 31.9741C35.9658 32.1869 37.2465 32.2401 37.2465 32.5061C37.2465 32.6657 36.6595 33.4106 36.6595 33.6234C36.6595 33.6766 36.7129 33.6766 36.7129 33.6766C36.9263 33.6766 37.5667 33.1446 37.8335 33.1446C38.207 33.1446 38.1537 34.2618 38.4205 34.2618C38.7406 34.2618 38.6339 32.6125 38.7406 32.1869C38.9541 31.4421 39.4877 30.6973 39.968 30.6973C40.5549 30.6973 40.6083 31.7081 40.6083 32.1869C40.6083 33.1446 39.9146 34.1554 39.9146 34.6342C39.9146 34.6874 39.968 34.7406 40.0213 34.7406C40.2348 34.7406 40.715 34.1022 40.9818 34.1022C41.2486 34.1022 41.8356 35.1662 42.0491 35.1662C42.1558 35.1662 42.2091 35.0598 42.2091 34.9534C42.2091 34.6342 42.0491 34.1022 42.0491 33.783C42.0491 33.4106 43.2764 33.6234 43.2764 33.3574C43.2764 33.251 42.7428 33.0382 42.4226 32.8254C41.7289 32.3997 40.9285 31.4953 40.9285 30.7505C40.9285 30.4845 41.0886 30.2717 41.302 30.2717C42.7961 30.2717 43.4365 32.5593 43.7033 32.5593C43.9701 32.5593 43.81 31.5485 43.9167 31.3889C43.9701 31.3357 44.1302 31.2825 44.2903 31.2825C44.5571 31.2825 44.8772 31.3357 45.0907 31.3357C45.2508 31.3357 45.3041 31.3357 45.3041 31.2825C45.2508 30.9633 44.0768 30.5909 44.0768 30.2717Z" fill="white"/>
<path fill-rule="evenodd" clip-rule="evenodd" d="M38.1537 29.6333C38.1537 29.1545 36.0726 27.5584 35.6457 27.5584C35.539 27.5584 35.4857 27.6116 35.4857 27.718C35.4857 27.8776 35.539 28.0904 35.539 28.2501C35.539 28.6225 35.3789 28.6757 35.0054 28.6757C34.5785 28.6757 33.8848 28.5161 33.8848 27.8244C33.8848 26.4944 36.4462 26.8136 36.713 25.59C35.5924 25.59 35.0588 24.8451 34.3117 24.8451C34.0449 24.8451 33.5113 25.0048 33.5113 25.6964C33.5113 25.9092 33.5646 26.2816 33.5646 26.6008C33.5646 26.92 33.5113 27.1328 33.1377 27.1328C32.8176 27.1328 32.7642 26.7604 32.7642 26.3348C32.7642 25.9624 32.8176 25.5368 32.8176 25.2708C32.8176 23.3023 30.6297 24.1003 30.4163 22.5043C29.8827 23.4619 29.7226 24.1535 29.7226 24.7387C29.7226 26.8136 32.5508 26.6008 32.5508 28.0372C32.5508 28.4097 32.2839 28.6225 32.0171 28.6225C31.5369 28.6225 31.2167 27.6116 30.4696 27.6116C30.0961 27.6116 29.8293 27.8776 29.8293 28.4629C29.8293 28.8885 29.936 29.2077 29.936 29.6333C29.936 30.4845 29.5625 30.8569 29.189 31.2293C31.7503 31.0165 31.9104 29.1013 32.6575 29.1013C32.8709 29.1013 32.9777 29.2609 32.9777 29.3673C32.9777 29.6865 32.444 30.2185 32.444 30.7505C32.444 31.4422 33.2445 31.8146 33.7781 31.8146C34.4184 31.8146 34.6319 31.6018 34.6319 31.1761C34.6319 30.6973 33.7781 30.0589 33.7781 29.5269C33.7781 29.2609 34.0449 29.2077 34.4184 29.2077C35.2188 29.2077 35.4857 29.3141 35.4857 29.4737C35.4857 29.6865 35.1655 30.1121 35.1655 30.2185C35.1655 30.2717 35.2188 30.4313 35.3789 30.4313C35.9659 30.5377 38.1537 30.0589 38.1537 29.6333Z" fill="white"/>
<path fill-rule="evenodd" clip-rule="evenodd" d="M11.2061 22.451C10.8325 23.1427 10.7258 24.0471 10.7258 24.5791C10.7258 27.8244 14.6212 30.8569 14.6212 32.8786C14.6212 33.6766 14.0342 34.6342 12.967 34.6342C12.0065 34.6342 11.4729 33.8894 11.4729 33.251C11.4729 32.7722 11.793 32.3466 11.9531 32.3466C12.0065 32.3466 12.0065 32.3998 12.0065 32.5062C12.0065 32.7722 12.2199 33.1446 12.6468 33.0914C13.0737 33.0914 13.2872 32.8254 13.2872 32.453C13.2872 30.8569 10.0855 28.0904 10.0855 24.3131C9.92537 24.7387 9.71193 25.2707 9.71193 26.0688C9.71193 27.8776 11.046 29.7929 11.046 31.5485C11.046 32.2402 10.5124 32.8786 9.81865 32.8786C9.01822 32.8786 8.75141 32.2402 8.75141 31.8677C8.75141 31.6017 8.85814 31.3357 8.96486 31.3357C9.07158 31.3357 9.01822 31.7613 9.44512 31.7613C9.92537 31.7613 10.0855 31.4421 10.0855 30.8569C10.0855 29.2609 9.17831 28.1436 9.17831 26.4944C9.17831 26.2284 9.17831 25.9624 9.23167 25.7496C8.75141 26.3348 8.69805 27.186 8.69805 27.9308V29.8993C8.69805 31.2293 8.05771 31.8145 7.25728 31.8145C6.72366 31.8145 6.24341 31.3889 6.24341 30.6973C6.24341 30.5909 6.29677 30.2717 6.40349 30.2717C6.56358 30.2717 6.6703 30.6973 7.0972 30.6973C7.95099 30.6973 8.00435 29.8993 8.00435 28.25C7.89762 26.2284 8.64469 24.0471 11.2061 22.451Z" fill="white"/>
<path fill-rule="evenodd" clip-rule="evenodd" d="M5.92327 21.4935C6.19008 21.4935 6.2968 21.7595 6.2968 21.9723C6.2968 22.8768 5.12284 25.5369 5.12284 26.2817C5.12284 26.3881 5.1762 26.4945 5.28293 26.4945C5.76318 26.4945 6.72369 24.4196 7.04386 23.4088C7.20395 22.8768 7.47076 22.6108 7.68421 22.6108C7.89765 22.6108 8.05774 22.8236 8.05774 23.2492C8.05774 24.26 7.09723 26.7073 6.24344 28.3033C5.6031 29.5802 4.53586 31.389 4.53586 32.3999C4.53586 32.9319 4.64258 33.4639 5.38965 34.1023C4.16233 34.0491 3.62871 33.8895 3.14845 32.9851C1.06734 37.0284 6.9905 36.656 4.96275 40.2737C4.58922 39.6353 1.65432 38.9437 1.65432 35.1664C1.65432 31.9211 4.58922 30.0058 4.58922 28.6226C4.58922 28.3565 4.4825 28.1437 4.21569 27.9309C3.57535 27.3989 3.57535 26.9733 3.04173 26.9733C2.6682 26.9733 2.2413 27.8245 2.6682 28.5694C2.82828 28.8354 2.93501 28.995 2.93501 29.2078C2.93501 29.7398 2.08122 31.1762 1.49424 31.1762C0.907258 31.1762 0.427002 29.6866 0.427002 27.3457C0.427002 25.2708 0.907258 23.1428 1.49424 23.1428C1.65432 23.1428 1.70769 23.2492 1.70769 23.4088C1.70769 23.6748 1.65432 24.1536 1.65432 25.0048C1.65432 25.9093 1.86777 25.9625 2.02786 25.9625C2.6682 25.9625 2.56147 21.9723 3.62871 21.9723C3.89552 21.9723 3.94888 22.2384 3.94888 22.5044C3.94888 23.4088 3.52199 24.7388 3.52199 25.4305C3.52199 25.8029 3.62871 25.9093 3.78879 25.9093C4.32241 25.8561 5.12284 21.4935 5.92327 21.4935Z" fill="white"/>
<path fill-rule="evenodd" clip-rule="evenodd" d="M49.3063 26.7073C48.3991 26.7073 47.9189 28.3033 47.0117 28.3565C47.5453 26.0689 49.8399 24.8452 49.8399 22.7172C49.8399 20.2699 47.8122 19.4186 46.9584 18.8866C45.571 16.865 44.5571 15.2689 42.2625 15.2689C41.302 15.2689 40.6617 15.4285 40.0213 15.4285C38.7406 15.4285 38.3138 14.9497 38.2604 14.9497C38.2604 14.9497 38.207 14.9497 38.207 15.0561C38.207 16.865 39.1675 20.9083 43.223 20.9083C45.4109 20.9083 46.318 20.0571 46.8516 20.0571C47.3853 20.0571 49.1462 20.6423 49.1462 22.7172C49.1462 23.8344 48.2391 25.0048 47.9189 25.0048C47.5987 25.0048 47.2785 24.4728 47.2785 23.9408C47.2785 23.3556 47.5987 22.2383 47.5987 21.5467C47.5987 21.2807 47.5453 21.1743 47.3853 21.1743C47.0651 21.1743 45.4109 22.2383 45.4109 23.5152C45.4109 24.6324 47.0651 25.324 47.7054 25.6432C47.0651 26.6541 46.6916 27.3457 46.4247 28.3033C46.4247 27.5585 45.731 26.1221 45.5176 25.4836C44.5037 22.6107 44.1302 22.0787 41.9424 21.8127C42.2625 22.9832 45.9979 25.7496 45.9979 28.5693C45.9979 28.7289 45.9979 28.9949 45.9445 29.1014C44.8239 25.8028 42.9029 25.0048 42.2092 24.2068C41.0886 22.93 41.7289 21.7063 39.9146 21.0147C40.0213 21.1743 40.0747 21.3871 40.0747 21.5467C40.0747 22.1851 39.7545 22.93 39.7545 23.462C39.7545 25.4836 42.0491 24.8452 43.4365 25.9625C44.7705 27.0265 45.5176 28.7821 46.0512 30.7506C46.5848 29.8994 46.905 28.8353 47.8122 28.8353C48.3991 28.8353 48.6126 29.5802 48.6126 30.1654V30.4314C49.5197 29.6334 50 28.3565 50 27.5053C49.9466 27.0797 49.7332 26.7073 49.3063 26.7073ZM45.6777 19.2058C45.4642 19.2058 45.1441 19.0994 44.8773 19.0994C44.2369 19.0994 43.7567 20.0039 43.4365 20.0039C43.3298 20.0039 43.2764 19.8975 43.2764 19.7911C43.2764 19.4186 43.9167 18.993 43.9167 18.727C43.9167 18.5674 43.6499 18.5142 43.5432 18.5142C42.9029 18.5142 41.9957 19.4186 41.4621 19.4186C41.3554 19.4186 41.2487 19.3654 41.2487 19.259C41.2487 18.993 41.9424 18.6738 41.9424 18.4078C41.9424 18.1418 41.6755 18.1418 41.4621 18.1418C41.1419 18.1418 40.5016 18.3014 40.1281 18.3014C39.9146 18.3014 39.7545 18.2482 39.7545 18.0886C39.7545 17.7162 40.9818 17.929 40.9818 17.5034C40.9818 17.2906 40.6083 16.865 40.6083 16.6522C40.6083 16.5458 40.715 16.4926 40.8218 16.4926C41.2487 16.4926 41.7289 17.7162 42.2092 17.7162C42.4226 17.7162 42.476 17.5566 42.476 17.2906C42.476 17.0246 42.4226 16.9182 42.4226 16.7054C42.4226 16.4926 42.5293 16.4394 42.5827 16.4394C42.9029 16.4394 43.1697 18.1418 44.0768 18.1418C44.4504 18.1418 44.1836 17.0778 44.5571 17.0778C44.7705 17.0778 44.8239 17.397 44.8239 17.5566C44.9306 18.6738 45.9445 18.727 45.9445 19.1526C45.8911 19.0994 45.8378 19.2058 45.6777 19.2058Z" fill="white"/>
<path fill-rule="evenodd" clip-rule="evenodd" d="M32.9243 16.7054C33.3512 16.7054 33.6713 17.0246 33.6713 17.397C33.6713 17.7694 33.3512 18.0886 32.9243 18.0886C32.5507 18.0886 32.1772 17.7694 32.1772 17.397C32.1772 17.0246 32.5507 16.7054 32.9243 16.7054ZM37.8335 23.4088C37.46 23.4088 37.0865 23.728 37.0865 24.1004C37.0865 24.526 37.46 24.792 37.8335 24.792C38.2604 24.792 38.5806 24.4728 38.5806 24.0472C38.5806 23.6748 38.2604 23.4088 37.8335 23.4088ZM35.3789 22.0787C34.6318 22.0787 34.0449 22.6639 34.0449 23.3556C34.0449 24.0472 34.6318 24.6324 35.3789 24.6324C36.126 24.6324 36.7129 24.0472 36.7129 23.3556C36.7129 22.6639 36.126 22.0787 35.3789 22.0787ZM33.031 21.4935C32.6041 21.4935 32.2839 21.8127 32.2839 22.2383C32.2839 22.6639 32.6575 22.9832 33.031 22.9832C33.4579 22.9832 33.778 22.6639 33.778 22.2383C33.778 21.8127 33.4579 21.4935 33.031 21.4935ZM37.7268 22.6639C38.2071 22.6639 38.634 22.2915 38.634 21.8127C38.634 21.3339 38.2071 20.9615 37.7268 20.9615C37.2466 20.9615 36.8197 21.3339 36.8197 21.8127C36.8197 22.2383 37.2466 22.6639 37.7268 22.6639ZM30.7898 19.9507C30.2028 19.9507 29.6692 20.4295 29.6692 21.0147C29.6692 21.5999 30.1494 22.0787 30.7898 22.0787C31.3768 22.0787 31.9104 21.5999 31.9104 21.0147C31.857 20.4295 31.3768 19.9507 30.7898 19.9507ZM34.7919 20.7487C34.7919 21.1743 35.1121 21.4935 35.539 21.4935C35.9659 21.4935 36.2861 21.1743 36.2861 20.7487C36.2861 20.3231 35.9659 20.0039 35.539 20.0039C35.1121 20.0039 34.7919 20.3763 34.7919 20.7487ZM33.2978 20.9615C33.9381 20.9615 34.4718 20.4827 34.4718 19.8443C34.4718 19.2058 33.9381 18.727 33.2978 18.727C32.6575 18.727 32.1238 19.2058 32.1238 19.8443C32.1238 20.4295 32.6041 20.9615 33.2978 20.9615ZM37.5667 20.2167C37.9936 20.2167 38.3672 19.8443 38.3672 19.4186C38.3672 18.993 37.9936 18.6206 37.5667 18.6738C37.1398 18.6738 36.7663 19.0462 36.7663 19.4718C36.7663 19.8975 37.1398 20.2167 37.5667 20.2167ZM31.11 19.1526C31.5369 19.1526 31.857 18.8334 31.857 18.4078C31.857 17.9822 31.5369 17.663 31.11 17.663C30.6831 17.663 30.3629 17.9822 30.3629 18.4078C30.3095 18.8334 30.6831 19.1526 31.11 19.1526ZM35.4856 19.0994C36.1793 19.0994 36.7129 18.5674 36.7129 17.929C36.7129 17.2906 36.1793 16.7586 35.4856 16.7586C34.7919 16.7586 34.2583 17.2906 34.2583 17.929C34.2583 18.5674 34.7919 19.0994 35.4856 19.0994ZM36.3928 16.333C36.8197 16.333 37.1398 16.0137 37.1398 15.6413C37.1398 15.2689 36.8197 14.9497 36.3928 14.9497C35.9659 14.9497 35.6457 15.2689 35.6457 15.6413C35.6991 16.0669 36.0192 16.333 36.3928 16.333Z" fill="white"/>
<path fill-rule="evenodd" clip-rule="evenodd" d="M14.8345 17.2906C15.3148 17.2906 16.1686 18.0886 16.382 18.9398C16.2753 18.9398 16.1686 18.8866 16.1152 18.8866C15.4749 18.8866 15.1547 19.4718 14.6744 20.4827C15.795 19.7378 16.8089 19.1526 17.9829 19.1526C18.9968 19.1526 19.7972 19.7378 19.7972 20.6423C19.7972 21.0147 19.5837 21.4403 19.3703 21.8659C19.2102 21.0147 18.5165 20.6423 17.2892 20.6423C16.5955 20.6423 15.7417 20.7487 15.048 21.0147C17.2358 21.3339 17.556 22.0787 17.556 22.7703C17.556 23.9408 16.3287 24.526 15.5282 24.8984C15.5816 24.5792 15.6883 24.2068 15.6883 23.8344C15.6883 23.1428 15.4215 22.2915 14.3009 21.5467C14.1408 22.2915 13.5005 22.7703 13.5005 23.3556C13.5005 23.5684 13.6606 23.6748 13.7673 23.6748C13.7673 23.994 13.6072 24.9516 13.6072 25.2176C13.6072 25.6964 13.7139 25.8028 13.9807 25.856C14.1408 26.2816 14.1408 27.0265 14.2476 27.3989C14.3009 27.6117 14.461 27.6649 14.6211 27.6649C14.7812 28.0373 14.9946 28.6225 15.3148 28.8353C15.3682 28.8885 15.4749 29.0481 15.4749 29.1545C15.4749 29.4737 14.9413 29.8462 14.6211 29.8462C14.5144 29.8462 14.3543 29.793 14.1942 29.4205C14.0875 29.1545 13.127 28.5693 13.0736 28.2501C13.127 28.1969 13.1803 28.0905 13.1803 27.9309C13.1803 27.3989 12.3265 26.8137 12.3265 25.9624C12.4333 25.9092 12.54 25.7496 12.54 25.59C12.54 25.1112 12.0597 24.2068 12.0597 23.5684C12.2732 23.5684 12.3799 23.5684 12.3799 23.2492C12.4333 22.6107 12.54 21.7063 13.127 21.1743C12.9669 21.1743 12.8068 21.1211 12.5933 21.1211C11.4194 21.1211 9.65844 21.7595 8.96474 23.2492C8.91138 23.0363 8.91138 22.8235 8.91138 22.6107C8.91138 21.3871 9.65844 20.5891 10.2454 20.3231C10.5122 20.2167 10.8858 20.1635 11.2593 20.1635C11.8996 20.1635 12.5933 20.2699 13.3404 20.4295C12.7001 19.5782 11.6862 18.993 10.8324 18.993C10.4589 18.993 10.1387 19.0994 10.032 19.4186C9.97861 19.259 9.97861 18.993 9.97861 18.7802C9.97861 17.8758 10.2988 17.3438 11.0992 17.3438C12.2732 17.3438 13.3404 18.727 13.9274 20.0039V19.8442C13.9274 18.0354 13.9807 17.131 14.7278 17.0778L14.8345 17.2906Z" fill="white"/>
<path fill-rule="evenodd" clip-rule="evenodd" d="M0 20.323C0 21.7595 0.480256 22.4511 1.28068 22.4511C1.92102 22.4511 2.77481 22.0255 3.78869 21.1743C2.98826 21.3339 2.40128 21.4403 1.86766 21.4403C1.17396 21.4403 0.58698 21.1743 0 20.323ZM5.54963 18.3546C5.06937 18.461 4.16222 18.993 4.16222 19.9506C4.16222 20.6423 4.69584 21.0679 5.38954 21.0679C5.76307 21.0679 6.02988 21.0147 6.18997 20.8551C5.65635 20.323 5.4429 19.791 5.4429 19.2058C5.4429 18.8334 5.49626 18.5674 5.54963 18.3546ZM7.20384 16.8117C6.77695 17.2906 6.29669 18.1418 6.29669 18.993C6.29669 20.0038 6.93703 20.8551 7.95091 20.8551C8.91142 20.8551 9.39168 20.057 9.39168 19.259C9.44504 17.9822 8.21772 17.0777 7.20384 16.8117ZM0.693703 18.6206V18.8866C0.693703 19.791 1.17396 20.2698 1.86766 20.2698C2.34792 20.2698 2.9349 20.0038 3.46852 19.3654C3.25507 19.4186 2.98826 19.4186 2.77481 19.4186C1.97439 19.4718 1.17396 19.259 0.693703 18.6206ZM4.64248 13.726C4.00213 13.726 3.20171 13.7792 2.34792 14.3113C0.640342 15.3753 0.853789 17.0777 0.58698 17.5566C0.533618 17.6098 0.533618 17.663 0.533618 17.7694C0.533618 17.929 0.747065 18.1418 0.907151 18.1418C1.06724 18.1418 1.17396 18.0886 1.22732 18.0886C1.70758 18.0886 2.2412 18.4078 3.04162 18.4078C3.52188 18.4078 4.0555 18.2482 4.69584 17.929C6.13661 17.2374 6.67022 15.5349 6.67022 15.2689C6.67022 14.8965 6.35005 14.9497 6.13661 14.6305C5.8698 14.3113 5.97652 13.9921 5.81643 13.8324C5.70971 13.726 5.4429 13.726 5.06937 13.726H4.64248ZM3.46852 17.5034C2.82817 17.5034 2.08111 16.7053 2.08111 16.0137C2.08111 15.6413 2.40128 15.1625 2.61473 15.1625C2.66809 15.1625 2.72145 15.2157 2.77481 15.3753C2.88154 16.2797 3.52188 16.8117 4.10886 17.0777C4.16222 17.1309 4.21558 17.1309 4.21558 17.1842C4.16222 17.3438 3.78869 17.5034 3.46852 17.5034ZM5.81643 15.7477C5.81643 16.0137 5.65635 16.3329 5.33618 16.3329C4.64248 16.3329 4.10886 15.3221 4.0555 14.7369C4.0555 14.3645 4.26894 14.3645 4.58911 14.3645C4.7492 14.3645 4.80256 14.3645 4.90928 14.4177C5.06937 14.5241 5.06937 14.8965 5.28282 15.1625C5.4429 15.3753 5.81643 15.5881 5.81643 15.7477ZM7.31057 14.8965C7.31057 15.3221 7.6841 15.6413 8.11099 15.6413C8.53789 15.6413 8.91142 15.3221 8.91142 14.8965C8.91142 14.4709 8.53789 14.1517 8.11099 14.1517C7.6841 14.0985 7.31057 14.4709 7.31057 14.8965ZM7.04376 13.9388C7.47065 13.9388 7.84418 13.6196 7.84418 13.194C7.84418 12.7684 7.47065 12.4492 7.04376 12.4492C6.61686 12.4492 6.24333 12.7684 6.24333 13.194C6.29669 13.5664 6.61686 13.9388 7.04376 13.9388ZM1.65422 13.5664C2.34792 13.5664 2.9349 13.1408 2.9349 13.1408C1.76094 12.8216 1.1206 12.0236 1.1206 10.9064V10.5871C0.373533 10.9064 0.0533618 11.4916 0.0533618 12.0768C0.106724 12.9812 0.800427 13.5664 1.65422 13.5664ZM5.12273 12.7152C5.22946 12.396 5.28282 12.0236 5.28282 11.598C5.28282 10.6935 4.85592 9.3103 3.46852 9.3103C2.66809 9.3103 2.13447 9.89552 2.13447 10.5871C2.18783 12.13 3.78869 12.7152 5.12273 12.7152Z" fill="white"/>
<path fill-rule="evenodd" clip-rule="evenodd" d="M48.986 12.2364C48.1322 13.9389 45.9977 14.3113 45.304 14.2049C45.5174 15.9605 48.1322 18.3014 48.8259 18.2482C49.3061 18.195 49.4662 15.9605 49.4662 14.2049C49.4662 13.194 49.5196 12.396 48.986 12.2364ZM49.0393 10.5872C49.0393 9.94874 48.7725 9.46993 48.0255 9.36353C48.1322 9.52313 48.1855 9.68274 48.1855 9.94874C48.1855 10.9596 46.6914 12.0768 45.0372 12.0768C44.4502 12.0768 44.2368 12.5024 44.2901 12.7152C44.2901 13.2472 44.7704 13.4601 45.4641 13.4601C47.3317 13.4069 49.0393 11.9172 49.0393 10.5872Z" fill="white"/>
<path fill-rule="evenodd" clip-rule="evenodd" d="M45.0373 11.3852C45.7843 11.3852 47.3852 10.7468 47.3852 9.89554C47.3852 9.62953 47.2785 9.36353 46.8516 9.36353C46.2646 9.36353 45.4642 9.94874 44.6637 9.94874C44.3969 9.94874 44.0768 9.94874 43.7566 9.84234C44.0768 10.0551 44.0234 10.5872 44.1835 10.9596C44.4503 11.3852 44.7705 11.3852 45.0373 11.3852Z" fill="white"/>
<path fill-rule="evenodd" clip-rule="evenodd" d="M35.0052 11.8108C35.0052 13.5132 33.8313 14.2049 32.764 14.2049C32.4972 14.2049 32.2838 14.1517 32.0703 14.0453C32.2838 13.8325 32.4972 13.5132 32.4972 13.3004C32.4972 13.1408 32.3905 13.0876 32.2304 13.0876C32.1237 13.0876 31.8569 13.1408 31.6434 13.1408C31.1098 13.1408 30.6829 12.928 30.2027 12.4492C29.8825 12.928 29.7224 13.5664 29.7224 14.2049C29.7224 15.2157 30.0959 16.2265 30.5228 16.2797C30.7363 16.2797 30.7363 15.5881 31.1098 15.5881C31.2165 15.5881 31.6434 15.9073 32.5506 15.9073C33.8846 15.9073 35.3788 15.1093 35.3788 13.0344C35.3254 12.7684 35.2187 12.13 35.0052 11.8108Z" fill="white"/>
<path fill-rule="evenodd" clip-rule="evenodd" d="M31.9637 10.7468C32.2305 10.7468 32.7641 10.8532 32.9242 11.1192C32.7107 11.2256 32.4973 11.4916 32.4973 11.7044C32.4973 11.8108 32.5507 11.9172 32.6574 11.9704C33.1376 12.1832 33.4044 12.5556 33.5645 12.8748C34.4183 12.396 34.7385 11.066 34.7385 10.3212C34.7385 10.1083 34.7385 9.78914 34.525 9.78914C34.365 9.78914 34.2049 10.0019 33.9914 10.0019C33.8313 10.0019 33.3511 9.36353 32.1771 9.36353C30.8431 9.36353 30.2561 10.3744 30.2561 11.2256C30.2561 11.4384 30.3095 11.7044 30.3628 11.864C30.6296 11.332 31.1633 10.7468 31.9637 10.7468Z" fill="white"/>
<path fill-rule="evenodd" clip-rule="evenodd" d="M18.4632 11.864C17.5027 11.864 16.6489 12.662 16.0085 13.7261C16.0619 13.5133 16.0619 13.3005 16.0619 13.0877C16.0619 11.598 15.2615 10.3212 13.8207 10.3212C12.6467 10.3212 11.5261 11.0128 11.0993 12.396C11.206 12.2896 11.6329 12.0236 11.953 12.0236C12.3266 12.0236 12.4333 12.3428 12.4333 12.8748C12.4333 13.1941 12.3799 13.6197 12.2198 13.9921C12.0064 14.6305 11.5795 14.7901 11.3661 14.7901C10.4589 14.7901 10.8858 13.2473 10.4055 13.2473C10.032 13.2473 9.92529 14.0985 9.92529 14.4177C9.92529 15.4817 10.619 16.599 12.1665 16.599C13.8207 16.599 14.7279 15.8009 15.6884 14.7901C15.9018 15.9073 16.4888 17.8758 18.143 17.8758C19.0502 17.8758 19.6905 17.131 19.7439 16.2266C19.6371 16.333 19.4771 16.4394 19.2636 16.4394C18.9434 16.4394 18.8367 15.9605 18.8367 15.5349C18.8367 14.8433 19.0502 14.0985 19.3703 14.0985C19.5304 14.0985 19.6371 14.2049 19.6905 14.7369C19.7439 15.1093 19.6905 15.5881 19.9573 15.5881C20.2241 15.5881 20.3308 14.7901 20.3308 14.3113C20.2775 12.928 19.6905 11.8108 18.4632 11.864ZM12.9669 15.4817C12.8068 15.4817 12.7535 15.3221 12.7535 15.2157C12.7535 14.4709 13.5539 11.1724 14.1409 11.1724C14.2476 11.1724 14.301 11.2788 14.301 11.4384C14.301 12.0236 13.6073 15.4817 12.9669 15.4817ZM15.4216 14.0453C14.9413 14.5773 14.6745 14.8433 14.461 14.8433C14.3543 14.8433 14.2476 14.6305 14.2476 14.4177C14.2476 14.0453 14.5144 12.5024 15.1014 12.5024C15.3148 12.5024 15.4749 12.928 15.4749 13.3005C15.4749 13.6197 15.4749 13.8325 15.4216 14.0453ZM16.5422 15.3753C16.3821 15.3753 16.222 15.0561 16.222 14.4177C16.5422 13.8857 16.7022 13.6729 16.9157 13.6729C16.969 13.6729 17.0758 13.7261 17.0758 14.0453C17.0224 14.7369 16.7556 15.3753 16.5422 15.3753ZM17.5027 16.4926C17.3959 16.4926 17.2892 16.333 17.2892 15.9073C17.2892 14.8965 17.9296 13.0345 18.3031 13.0345C18.4098 13.0345 18.4632 13.3005 18.4632 13.5665C18.5165 14.6837 17.9829 16.4926 17.5027 16.4926Z" fill="white"/>
<path fill-rule="evenodd" clip-rule="evenodd" d="M41.9957 9.68271C41.6222 9.68271 41.0352 10.1083 40.6083 10.1083C40.0213 10.1083 40.1814 9.3103 39.5411 9.3103C39.381 9.3103 39.2209 9.3635 39.0608 9.46991C37.7268 10.1615 36.6595 9.89552 36.4461 10.0551C36.3927 10.1083 36.3394 10.1083 36.3394 10.2679C36.3394 11.7576 37.8335 13.992 40.2881 13.992C41.9957 13.992 43.3831 13.4068 43.3831 12.396C43.3298 11.5448 42.5293 9.68271 41.9957 9.68271ZM40.4482 12.5556C39.0608 12.5556 38.207 11.7576 38.207 11.2788C38.207 11.2256 38.2604 11.1724 38.3137 11.1724C38.5272 11.1724 39.1142 11.4916 39.9146 11.598C40.8217 11.7576 41.302 11.7576 41.5688 11.7576C41.8356 11.7576 41.9423 11.8108 41.9423 11.9172C41.889 12.1832 41.2486 12.5556 40.4482 12.5556Z" fill="white"/>
<path fill-rule="evenodd" clip-rule="evenodd" d="M49.4663 0.744768C48.5058 0.744768 48.3991 0.47876 47.7588 0.47876C47.0117 0.47876 46.4781 1.01078 46.4781 1.8088C46.4781 2.07481 46.5848 2.50042 46.5848 3.03244C46.5848 3.67086 46.4781 4.30928 45.8911 4.30928C45.3575 4.30928 45.144 3.93687 45.144 3.51125C45.144 2.76643 45.5176 2.23441 45.5176 1.7556C45.5176 0.851171 44.4503 0.585163 43.2764 0.585163C41.889 0.585163 40.3948 0.957575 40.3948 1.17038C40.3948 1.48959 42.3692 1.27678 43.81 3.13884C42.9028 3.13884 41.1419 3.56446 41.1419 3.83046C41.1419 4.14967 44.3436 4.46888 44.3436 5.79893C44.3436 6.65015 43.6499 6.75656 43.3831 6.75656C42.3159 6.75656 41.7823 5.63932 41.5154 5.63932C41.4621 5.63932 41.3554 5.69252 41.3554 5.79893C41.3554 5.95853 41.5154 6.43735 41.5154 6.91616C41.5154 8.1398 40.1814 8.2462 40.1814 8.51221C40.1814 8.61862 40.2348 8.61862 40.3948 8.67182C41.3554 8.83142 42.3692 8.88462 43.2764 8.88462C46.6915 8.88462 49.413 7.82059 49.413 4.8413C49.413 3.19205 48.8794 2.66003 48.8794 1.862C48.7726 1.59599 48.9861 1.01078 49.4663 0.744768ZM44.7171 7.23537H44.0234C46.2113 6.86296 47.4386 5.58612 47.4386 3.88367C47.9189 4.04327 48.239 4.52209 48.239 5.0541C48.1857 6.06494 47.2785 7.23537 44.7171 7.23537ZM47.7588 2.07481C47.492 2.07481 47.2785 1.862 47.2785 1.59599C47.2785 1.32999 47.492 1.11718 47.7588 1.11718C48.0256 1.11718 48.239 1.32999 48.239 1.59599C48.239 1.862 48.0256 2.07481 47.7588 2.07481Z" fill="white"/>
<path fill-rule="evenodd" clip-rule="evenodd" d="M36.1793 0.106403C34.8986 0.106403 33.9381 0.744823 33.4045 0.744823C33.0843 0.744823 32.6575 0 32.3906 0C32.2839 0 32.1772 0.212807 32.1772 0.532017V0.63842C32.1772 0.904428 32.1238 1.38324 31.9637 1.38324C31.4835 1.38324 29.6692 0.106403 29.6692 0.532017C29.6692 0.95763 30.8965 2.28767 30.8965 2.60688C30.8965 2.92609 29.7226 3.2453 29.7226 3.51131C29.7226 3.93692 31.0032 3.99013 31.0032 4.52214C31.0032 5.05416 29.6692 5.47977 29.6692 5.85218C29.6692 6.17139 31.0032 5.95859 31.0032 6.331C31.0032 6.70341 30.0427 8.03345 30.0427 8.40586C30.0427 8.51227 30.0427 8.51227 30.1494 8.51227C30.523 8.51227 31.6436 7.28863 31.9104 7.28863C32.2306 7.28863 32.2839 8.03345 32.3373 8.45907C32.3906 8.67187 32.3906 8.72507 32.4974 8.72507C32.7108 8.72507 33.0843 7.87385 33.3512 7.87385C33.7247 7.87385 34.6852 8.88468 36.3394 8.88468C38.6873 8.88468 40.8752 7.28863 40.8752 4.46894C40.9285 1.70245 38.9008 0.106403 36.1793 0.106403ZM32.9243 6.17139C32.8709 6.17139 32.8175 6.11819 32.8175 6.01179L32.7642 5.26696C32.7642 5.21376 32.7108 5.10736 32.6041 5.10736H31.8037C31.6969 5.10736 31.6436 5.10736 31.6436 5.05416C31.6436 4.89455 32.444 4.36254 32.444 4.25613C32.444 4.04333 31.6969 3.67092 31.6969 3.40491C31.6969 3.35171 31.7503 3.35171 31.8037 3.35171C32.0171 3.35171 32.3906 3.40491 32.6575 3.40491C32.9243 3.40491 32.9243 2.34087 33.1377 2.34087C33.2978 2.34087 33.5112 3.35171 33.7247 3.35171C33.9915 3.35171 34.4184 3.0857 34.6318 3.0857C34.6852 3.0857 34.6852 3.0857 34.6852 3.1389C34.6852 3.2453 34.2049 3.77732 34.2049 3.93692C34.2049 4.09653 35.2722 4.30934 35.2722 4.46894C35.2722 4.68175 34.1516 4.62855 34.1516 4.78815C34.1516 4.89455 34.5785 5.42657 34.5785 5.63938C34.5785 5.69258 34.5785 5.69258 34.5251 5.69258C34.365 5.69258 33.778 5.42657 33.618 5.42657C33.4045 5.42657 33.0843 6.17139 32.9243 6.17139ZM36.2327 7.82065C34.8986 7.82065 33.9915 7.18223 33.9915 6.80981C33.9915 6.65021 34.0982 6.54381 34.2583 6.54381C34.6852 6.54381 35.5924 7.18223 35.9125 7.18223C35.9659 7.18223 36.0726 7.12902 36.0726 7.02262C36.0726 6.70341 35.7524 6.11819 35.7524 5.85218C35.7524 5.79898 35.8058 5.74578 35.9125 5.74578C36.4461 5.74578 37.1932 5.95859 37.6201 5.95859C37.7802 5.95859 37.7802 5.90539 37.7802 5.79898C37.7802 5.37337 36.4995 4.57534 36.4995 4.30934C36.4995 4.09653 38.047 3.72412 38.047 3.40491C38.047 3.0325 35.9125 3.2985 35.9125 2.92609C35.9125 2.66008 36.3394 2.23447 36.3394 2.02166C36.3394 1.91526 36.2861 1.91526 36.126 1.91526C35.9659 1.91526 35.0054 2.28767 34.6318 2.28767C34.4184 2.28767 34.2049 2.23447 34.2049 1.96846C34.2049 1.54285 34.952 1.06403 36.126 1.06403C38.047 1.06403 39.1676 2.34087 39.1676 4.46894C39.221 7.12902 37.2999 7.82065 36.2327 7.82065Z" fill="white"/>
<path fill-rule="evenodd" clip-rule="evenodd" d="M15.9551 5.53302C16.7022 5.53302 18.9434 6.54385 19.9573 6.54385C20.3308 6.54385 20.5443 6.33104 20.5443 6.11823C20.5443 4.9478 17.3959 2.87293 17.3426 2.02171C17.3426 1.9153 17.3959 1.8621 17.4493 1.8089C17.9829 1.22368 20.2241 0.851269 20.2241 0.372454C20.2241 0.106445 19.7438 0.106445 19.5304 0.106445C17.7161 0.106445 15.1014 0.744865 15.1014 1.38329C15.1014 2.02171 17.4493 3.61776 17.4493 4.41578C17.4493 4.62859 17.2892 4.68179 17.0757 4.68179C16.4354 4.68179 14.9946 3.88376 14.3009 3.88376C13.9808 3.88376 13.874 4.09657 13.874 4.41578C13.874 5.32021 14.9946 7.07586 14.9946 7.60788C14.9946 7.66108 14.9946 7.76749 14.8879 7.76749C14.5144 7.76749 12.9135 5.85223 12.3265 5.85223C12.1131 5.85223 12.1131 6.11823 12.1131 6.54385V7.18227C12.1131 7.60788 12.1131 7.87389 11.8996 7.87389C11.4194 7.87389 11.1526 6.49065 10.6723 6.49065C10.1921 6.49065 10.0853 8.99112 9.60509 8.99112C9.01811 8.99112 9.49837 6.27784 8.96475 6.27784C8.37777 6.27784 7.68407 8.0867 7.25717 8.0867C7.09709 8.0867 7.04373 7.92709 7.04373 7.82069C7.04373 7.28867 7.3639 6.38424 7.3639 5.85223C7.3639 5.58622 7.31053 5.42661 7.04373 5.42661C6.45675 5.42661 5.1227 6.38424 4.64244 6.38424C4.58908 6.38424 4.48236 6.33104 4.48236 6.27784C4.48236 5.79902 6.61683 4.36258 6.61683 3.72416C6.61683 3.08574 3.68193 3.51135 3.68193 2.76653C3.68193 2.18131 5.76304 1.54289 5.76304 0.90447C5.76304 0.372454 3.3084 0.106445 2.34789 0.106445C1.22729 0.106445 0.586948 0.26605 0.586948 0.58526C0.586948 1.06408 3.20168 1.22368 3.20168 1.64929C3.20168 2.07491 0.480225 3.19214 0.480225 3.83056C0.480225 4.41578 4.26891 3.88376 4.26891 4.46898C4.26891 5.1074 0.960481 7.92709 0.960481 8.88472C0.960481 9.09753 1.12057 9.20393 1.33401 9.20393C2.34789 9.20393 4.96262 7.28867 5.65632 7.28867C5.92313 7.28867 5.92313 7.60788 5.92313 7.87389C5.92313 8.35271 5.76304 9.15073 5.76304 9.68275C5.76304 10.1084 5.86977 10.4276 6.2433 10.4276C6.937 10.4276 7.6307 9.20393 8.11096 9.20393C8.7513 9.20393 8.37777 12.7152 9.28492 12.7152C10.0853 12.7152 10.4055 8.88472 10.8858 8.88472C11.366 8.88472 11.7929 10.002 12.2732 10.002C12.8602 10.002 12.5934 8.0867 13.1803 8.0867C13.874 8.0867 15.7951 10.3744 16.7022 10.3744C16.969 10.3744 17.0757 10.1616 17.0757 9.89555C17.0757 8.88472 15.635 6.59705 15.635 5.85223C15.6883 5.58622 15.7417 5.53302 15.9551 5.53302Z" fill="white"/>
<path fill-rule="evenodd" clip-rule="evenodd" d="M17.1824 6.86308C17.1291 6.86308 17.0757 6.91628 17.0757 6.96948C17.0757 7.6611 19.5304 10.9064 19.9572 10.9064C20.3308 10.9064 20.651 10.2148 20.651 9.68277C20.651 9.52316 20.5976 9.36356 20.5442 9.25715C20.1707 8.72514 17.7161 6.86308 17.1824 6.86308ZM2.82811 5.00102C2.82811 4.84141 2.50794 4.78821 2.24113 4.78821C1.81424 4.78821 1.22726 4.89462 0.960447 5.10742C0.746999 5.26703 0.586914 5.79905 0.586914 6.17146C0.586914 6.38426 0.640276 6.59707 0.853723 6.59707C1.33398 6.65027 2.82811 5.37343 2.82811 5.00102ZM6.29663 2.60694C6.72352 2.60694 7.41722 2.39414 7.89748 2.39414C8.16429 2.39414 8.4311 2.44734 8.4311 2.71335C8.4311 3.19216 7.36386 4.04339 7.36386 4.4158C7.36386 4.5222 7.47059 4.57541 7.57731 4.57541C7.95084 4.57541 8.64454 3.61778 9.23152 3.61778C10.2454 3.61778 9.60506 5.79904 10.1387 5.79904C10.7257 5.79904 10.4588 3.67098 11.3126 3.67098C12.0063 3.67098 12.4866 5.16062 12.9669 5.16062C13.0736 5.16062 13.1803 5.05422 13.1803 4.94782C13.1803 4.5222 12.5933 3.72418 12.5933 3.19216C12.5933 2.87295 12.8068 2.71335 13.1269 2.71335C13.5538 2.71335 14.1942 2.97936 14.5143 2.97936C14.6211 2.97936 14.7278 2.92615 14.7278 2.81975C14.7278 2.34094 13.0202 1.86212 13.0202 1.2769C13.0202 0.691685 13.9807 0.691685 13.9807 0.425676C13.9807 0.319273 13.3937 0.21287 12.5933 0.21287C11.3126 0.21287 11.5261 1.2237 10.5122 1.2237C9.49833 1.2237 9.76514 0.159668 8.48446 0.159668C7.68403 0.159668 6.99033 0.319273 6.99033 0.478878C6.99033 0.691685 7.89748 0.585281 7.89748 1.2237C7.89748 1.91532 5.92309 2.07493 5.92309 2.50054C5.92309 2.55374 6.08318 2.60694 6.29663 2.60694ZM18.5165 2.34094C18.5165 2.66015 19.7438 3.40497 20.2774 3.40497C20.5976 3.40497 20.7043 2.97936 20.7043 2.50054C20.7043 1.91532 20.4375 1.91532 19.9572 1.91532C19.3169 1.91532 18.5165 2.07493 18.5165 2.34094Z" fill="white"/>
</g>
<defs>
<clipPath id="clip0_2022_33">
<rect width="50" height="51.0204" fill="white"/>
</clipPath>
</defs>
</svg>
